M48
; DRILL file {KiCad 5.1.5-52549c5~84~ubuntu16.04.1} date lun 02 mar 2020 18:34:25 CET
; FORMAT={-:-/ absolute / inch / decimal}
; #@! TF.CreationDate,2020-03-02T18:34:25+01:00
; #@! TF.GenerationSoftware,Kicad,Pcbnew,5.1.5-52549c5~84~ubuntu16.04.1
; #@! TF.FileFunction,Plated,1,2,PTH
FMAT,2
INCH
T1C0.0157
T2C0.0400
T3C0.0512
T4C0.1200
%
G90
G05
T1
X4.41Y-2.915
X4.41Y-4.105
X4.41Y-4.935
X4.82Y-4.935
X4.87Y-2.915
X4.87Y-3.915
X4.87Y-4.105
X4.87Y-4.295
X5.02Y-4.935
X5.07Y-2.915
X5.07Y-3.035
X5.42Y-3.915
X5.42Y-4.055
X5.42Y-4.155
X5.42Y-4.295
X5.42Y-4.935
X5.63Y-4.045
X5.63Y-4.165
X5.8Y-3.985
X5.8Y-4.225
X5.82Y-4.805
X5.91Y-4.195
X5.96Y-4.025
X6.02Y-4.175
X6.09Y-2.915
X6.27Y-4.935
X6.28Y-4.185
X6.42Y-4.815
X6.82Y-2.915
X6.93Y-3.035
X6.93Y-4.935
X6.99Y-4.795
X7.0Y-3.465
X7.03Y-3.675
X7.03Y-4.165
X7.03Y-4.385
X7.03Y-4.575
T2
X6.17Y-2.975
X6.27Y-2.975
X6.37Y-2.975
X6.47Y-2.975
X6.57Y-2.975
X6.67Y-2.975
X6.77Y-2.975
X6.87Y-2.975
X5.47Y-4.875
X5.57Y-4.875
X5.67Y-4.875
X5.77Y-4.875
X5.87Y-4.875
X5.97Y-4.875
X6.07Y-4.875
X6.17Y-4.875
X5.11Y-2.975
X5.21Y-2.975
X5.31Y-2.975
X5.41Y-2.975
X5.51Y-2.975
X5.61Y-2.975
X5.71Y-2.975
X5.81Y-2.975
X5.91Y-2.975
X6.01Y-2.975
X6.37Y-4.875
X6.47Y-4.875
X6.57Y-4.875
X6.67Y-4.875
X6.77Y-4.875
X6.87Y-4.875
T3
X4.67Y-3.805
X4.67Y-4.005
X4.67Y-4.205
X4.67Y-4.405
T4
X4.92Y-4.875
X6.97Y-4.675
X4.97Y-2.975
X6.97Y-3.575
T0
M30
