%FSLAX45Y45*%
G04 Gerber Fmt 4.5, Leading zero omitted, Abs format (unit mm)*
G04 Created by KiCad (PCBNEW 5.1.5-52549c5~84~ubuntu16.04.1) date 2020-03-02 18:34:24*
%MOMM*%
%LPD*%
G04 APERTURE LIST*
%TA.AperFunction,Profile*%
%ADD10C,0.150000*%
%TD*%
%ADD11C,0.200000*%
%ADD12C,0.300000*%
G04 APERTURE END LIST*
D10*
X17703800Y-7454900D02*
X17551400Y-7302500D01*
X17703800Y-8597900D02*
X17703800Y-7454900D01*
X17957800Y-8851900D02*
X17703800Y-8597900D01*
X17957800Y-12128500D02*
X17957800Y-8851900D01*
X17703800Y-12382500D02*
X17957800Y-12128500D01*
X17703800Y-12636500D02*
X17703800Y-12382500D01*
X11099800Y-12636500D02*
X17703800Y-12636500D01*
X11099800Y-7302500D02*
X11099800Y-12636500D01*
X17551400Y-7302500D02*
X11099800Y-7302500D01*
D11*
X11181400Y-7384100D02*
X11221400Y-7424100D01*
X11221400Y-7384100D02*
X11181400Y-7424100D01*
X11181400Y-10406700D02*
X11221400Y-10446700D01*
X11221400Y-10406700D02*
X11181400Y-10446700D01*
X11181400Y-12514900D02*
X11221400Y-12554900D01*
X11221400Y-12514900D02*
X11181400Y-12554900D01*
X12222800Y-12514900D02*
X12262800Y-12554900D01*
X12262800Y-12514900D02*
X12222800Y-12554900D01*
X12349800Y-7384100D02*
X12389800Y-7424100D01*
X12389800Y-7384100D02*
X12349800Y-7424100D01*
X12349800Y-9924100D02*
X12389800Y-9964100D01*
X12389800Y-9924100D02*
X12349800Y-9964100D01*
X12349800Y-10406700D02*
X12389800Y-10446700D01*
X12389800Y-10406700D02*
X12349800Y-10446700D01*
X12349800Y-10889300D02*
X12389800Y-10929300D01*
X12389800Y-10889300D02*
X12349800Y-10929300D01*
X12730800Y-12514900D02*
X12770800Y-12554900D01*
X12770800Y-12514900D02*
X12730800Y-12554900D01*
X12857800Y-7384100D02*
X12897800Y-7424100D01*
X12897800Y-7384100D02*
X12857800Y-7424100D01*
X12857800Y-7688900D02*
X12897800Y-7728900D01*
X12897800Y-7688900D02*
X12857800Y-7728900D01*
X13746800Y-9924100D02*
X13786800Y-9964100D01*
X13786800Y-9924100D02*
X13746800Y-9964100D01*
X13746800Y-10279700D02*
X13786800Y-10319700D01*
X13786800Y-10279700D02*
X13746800Y-10319700D01*
X13746800Y-10533700D02*
X13786800Y-10573700D01*
X13786800Y-10533700D02*
X13746800Y-10573700D01*
X13746800Y-10889300D02*
X13786800Y-10929300D01*
X13786800Y-10889300D02*
X13746800Y-10929300D01*
X13746800Y-12514900D02*
X13786800Y-12554900D01*
X13786800Y-12514900D02*
X13746800Y-12554900D01*
X14280200Y-10254300D02*
X14320200Y-10294300D01*
X14320200Y-10254300D02*
X14280200Y-10294300D01*
X14280200Y-10559100D02*
X14320200Y-10599100D01*
X14320200Y-10559100D02*
X14280200Y-10599100D01*
X14712000Y-10101900D02*
X14752000Y-10141900D01*
X14752000Y-10101900D02*
X14712000Y-10141900D01*
X14712000Y-10711500D02*
X14752000Y-10751500D01*
X14752000Y-10711500D02*
X14712000Y-10751500D01*
X14762800Y-12184700D02*
X14802800Y-12224700D01*
X14802800Y-12184700D02*
X14762800Y-12224700D01*
X14991400Y-10635300D02*
X15031400Y-10675300D01*
X15031400Y-10635300D02*
X14991400Y-10675300D01*
X15118400Y-10203500D02*
X15158400Y-10243500D01*
X15158400Y-10203500D02*
X15118400Y-10243500D01*
X15270800Y-10584500D02*
X15310800Y-10624500D01*
X15310800Y-10584500D02*
X15270800Y-10624500D01*
X15448600Y-7384100D02*
X15488600Y-7424100D01*
X15488600Y-7384100D02*
X15448600Y-7424100D01*
X15905800Y-12514900D02*
X15945800Y-12554900D01*
X15945800Y-12514900D02*
X15905800Y-12554900D01*
X15931200Y-10609900D02*
X15971200Y-10649900D01*
X15971200Y-10609900D02*
X15931200Y-10649900D01*
X16286800Y-12210100D02*
X16326800Y-12250100D01*
X16326800Y-12210100D02*
X16286800Y-12250100D01*
X17302800Y-7384100D02*
X17342800Y-7424100D01*
X17342800Y-7384100D02*
X17302800Y-7424100D01*
X17582200Y-7688900D02*
X17622200Y-7728900D01*
X17622200Y-7688900D02*
X17582200Y-7728900D01*
X17582200Y-12514900D02*
X17622200Y-12554900D01*
X17622200Y-12514900D02*
X17582200Y-12554900D01*
X17734600Y-12159300D02*
X17774600Y-12199300D01*
X17774600Y-12159300D02*
X17734600Y-12199300D01*
X17760000Y-8781100D02*
X17800000Y-8821100D01*
X17800000Y-8781100D02*
X17760000Y-8821100D01*
X17836200Y-9314500D02*
X17876200Y-9354500D01*
X17876200Y-9314500D02*
X17836200Y-9354500D01*
X17836200Y-10559100D02*
X17876200Y-10599100D01*
X17876200Y-10559100D02*
X17836200Y-10599100D01*
X17836200Y-11117900D02*
X17876200Y-11157900D01*
X17876200Y-11117900D02*
X17836200Y-11157900D01*
X17836200Y-11600500D02*
X17876200Y-11640500D01*
X17876200Y-11600500D02*
X17836200Y-11640500D01*
X15722600Y-7556500D02*
G75*
G03X15722600Y-7556500I-50800J0D01*
G01*
X15976600Y-7556500D02*
G75*
G03X15976600Y-7556500I-50800J0D01*
G01*
X16230600Y-7556500D02*
G75*
G03X16230600Y-7556500I-50800J0D01*
G01*
X16484600Y-7556500D02*
G75*
G03X16484600Y-7556500I-50800J0D01*
G01*
X16738600Y-7556500D02*
G75*
G03X16738600Y-7556500I-50800J0D01*
G01*
X16992600Y-7556500D02*
G75*
G03X16992600Y-7556500I-50800J0D01*
G01*
X17246600Y-7556500D02*
G75*
G03X17246600Y-7556500I-50800J0D01*
G01*
X17500600Y-7556500D02*
G75*
G03X17500600Y-7556500I-50800J0D01*
G01*
X13944600Y-12382500D02*
G75*
G03X13944600Y-12382500I-50800J0D01*
G01*
X14198600Y-12382500D02*
G75*
G03X14198600Y-12382500I-50800J0D01*
G01*
X14452600Y-12382500D02*
G75*
G03X14452600Y-12382500I-50800J0D01*
G01*
X14706600Y-12382500D02*
G75*
G03X14706600Y-12382500I-50800J0D01*
G01*
X14960600Y-12382500D02*
G75*
G03X14960600Y-12382500I-50800J0D01*
G01*
X15214600Y-12382500D02*
G75*
G03X15214600Y-12382500I-50800J0D01*
G01*
X15468600Y-12382500D02*
G75*
G03X15468600Y-12382500I-50800J0D01*
G01*
X15722600Y-12382500D02*
G75*
G03X15722600Y-12382500I-50800J0D01*
G01*
X13030200Y-7556500D02*
G75*
G03X13030200Y-7556500I-50800J0D01*
G01*
X13284200Y-7556500D02*
G75*
G03X13284200Y-7556500I-50800J0D01*
G01*
X13538200Y-7556500D02*
G75*
G03X13538200Y-7556500I-50800J0D01*
G01*
X13792200Y-7556500D02*
G75*
G03X13792200Y-7556500I-50800J0D01*
G01*
X14046200Y-7556500D02*
G75*
G03X14046200Y-7556500I-50800J0D01*
G01*
X14300200Y-7556500D02*
G75*
G03X14300200Y-7556500I-50800J0D01*
G01*
X14554200Y-7556500D02*
G75*
G03X14554200Y-7556500I-50800J0D01*
G01*
X14808200Y-7556500D02*
G75*
G03X14808200Y-7556500I-50800J0D01*
G01*
X15062200Y-7556500D02*
G75*
G03X15062200Y-7556500I-50800J0D01*
G01*
X15316200Y-7556500D02*
G75*
G03X15316200Y-7556500I-50800J0D01*
G01*
X16230600Y-12382500D02*
G75*
G03X16230600Y-12382500I-50800J0D01*
G01*
X16484600Y-12382500D02*
G75*
G03X16484600Y-12382500I-50800J0D01*
G01*
X16738600Y-12382500D02*
G75*
G03X16738600Y-12382500I-50800J0D01*
G01*
X16992600Y-12382500D02*
G75*
G03X16992600Y-12382500I-50800J0D01*
G01*
X17246600Y-12382500D02*
G75*
G03X17246600Y-12382500I-50800J0D01*
G01*
X17500600Y-12382500D02*
G75*
G03X17500600Y-12382500I-50800J0D01*
G01*
X11861800Y-9599700D02*
X11861800Y-9729700D01*
X11796800Y-9664700D02*
X11926800Y-9664700D01*
X11861800Y-10107700D02*
X11861800Y-10237700D01*
X11796800Y-10172700D02*
X11926800Y-10172700D01*
X11861800Y-10615700D02*
X11861800Y-10745700D01*
X11796800Y-10680700D02*
X11926800Y-10680700D01*
X11861800Y-11123700D02*
X11861800Y-11253700D01*
X11796800Y-11188700D02*
X11926800Y-11188700D01*
X12604564Y-12490264D02*
X12604564Y-12274736D01*
X12389036Y-12274736D01*
X12389036Y-12490264D01*
X12604564Y-12490264D01*
X17811564Y-11982264D02*
X17811564Y-11766736D01*
X17596036Y-11766736D01*
X17596036Y-11982264D01*
X17811564Y-11982264D01*
X12731564Y-7664264D02*
X12731564Y-7448736D01*
X12516036Y-7448736D01*
X12516036Y-7664264D01*
X12731564Y-7664264D01*
X17811564Y-9188264D02*
X17811564Y-8972736D01*
X17596036Y-8972736D01*
X17596036Y-9188264D01*
X17811564Y-9188264D01*
D12*
X11378728Y-13109714D02*
X11378728Y-12809714D01*
X11450157Y-12809714D01*
X11493014Y-12824000D01*
X11521586Y-12852571D01*
X11535871Y-12881143D01*
X11550157Y-12938286D01*
X11550157Y-12981143D01*
X11535871Y-13038286D01*
X11521586Y-13066857D01*
X11493014Y-13095429D01*
X11450157Y-13109714D01*
X11378728Y-13109714D01*
X11678728Y-13109714D02*
X11678728Y-12909714D01*
X11678728Y-12966857D02*
X11693014Y-12938286D01*
X11707300Y-12924000D01*
X11735871Y-12909714D01*
X11764443Y-12909714D01*
X11864443Y-13109714D02*
X11864443Y-12909714D01*
X11864443Y-12809714D02*
X11850157Y-12824000D01*
X11864443Y-12838286D01*
X11878728Y-12824000D01*
X11864443Y-12809714D01*
X11864443Y-12838286D01*
X12050157Y-13109714D02*
X12021586Y-13095429D01*
X12007300Y-13066857D01*
X12007300Y-12809714D01*
X12207300Y-13109714D02*
X12178728Y-13095429D01*
X12164443Y-13066857D01*
X12164443Y-12809714D01*
X12550157Y-13109714D02*
X12550157Y-12809714D01*
X12650157Y-13024000D01*
X12750157Y-12809714D01*
X12750157Y-13109714D01*
X13021586Y-13109714D02*
X13021586Y-12952571D01*
X13007300Y-12924000D01*
X12978728Y-12909714D01*
X12921586Y-12909714D01*
X12893014Y-12924000D01*
X13021586Y-13095429D02*
X12993014Y-13109714D01*
X12921586Y-13109714D01*
X12893014Y-13095429D01*
X12878728Y-13066857D01*
X12878728Y-13038286D01*
X12893014Y-13009714D01*
X12921586Y-12995429D01*
X12993014Y-12995429D01*
X13021586Y-12981143D01*
X13164443Y-12909714D02*
X13164443Y-13209714D01*
X13164443Y-12924000D02*
X13193014Y-12909714D01*
X13250157Y-12909714D01*
X13278728Y-12924000D01*
X13293014Y-12938286D01*
X13307300Y-12966857D01*
X13307300Y-13052571D01*
X13293014Y-13081143D01*
X13278728Y-13095429D01*
X13250157Y-13109714D01*
X13193014Y-13109714D01*
X13164443Y-13095429D01*
X13435871Y-13081143D02*
X13450157Y-13095429D01*
X13435871Y-13109714D01*
X13421586Y-13095429D01*
X13435871Y-13081143D01*
X13435871Y-13109714D01*
X13435871Y-12924000D02*
X13450157Y-12938286D01*
X13435871Y-12952571D01*
X13421586Y-12938286D01*
X13435871Y-12924000D01*
X13435871Y-12952571D01*
X11052300Y-13584000D02*
X11092300Y-13624000D01*
X11092300Y-13584000D02*
X11052300Y-13624000D01*
X11435871Y-13439714D02*
X11464443Y-13439714D01*
X11493014Y-13454000D01*
X11507300Y-13468286D01*
X11521586Y-13496857D01*
X11535871Y-13554000D01*
X11535871Y-13625429D01*
X11521586Y-13682571D01*
X11507300Y-13711143D01*
X11493014Y-13725429D01*
X11464443Y-13739714D01*
X11435871Y-13739714D01*
X11407300Y-13725429D01*
X11393014Y-13711143D01*
X11378728Y-13682571D01*
X11364443Y-13625429D01*
X11364443Y-13554000D01*
X11378728Y-13496857D01*
X11393014Y-13468286D01*
X11407300Y-13454000D01*
X11435871Y-13439714D01*
X11664443Y-13711143D02*
X11678728Y-13725429D01*
X11664443Y-13739714D01*
X11650157Y-13725429D01*
X11664443Y-13711143D01*
X11664443Y-13739714D01*
X11935871Y-13539714D02*
X11935871Y-13739714D01*
X11864443Y-13425429D02*
X11793014Y-13639714D01*
X11978728Y-13639714D01*
X12150157Y-13439714D02*
X12178728Y-13439714D01*
X12207300Y-13454000D01*
X12221586Y-13468286D01*
X12235871Y-13496857D01*
X12250157Y-13554000D01*
X12250157Y-13625429D01*
X12235871Y-13682571D01*
X12221586Y-13711143D01*
X12207300Y-13725429D01*
X12178728Y-13739714D01*
X12150157Y-13739714D01*
X12121586Y-13725429D01*
X12107300Y-13711143D01*
X12093014Y-13682571D01*
X12078728Y-13625429D01*
X12078728Y-13554000D01*
X12093014Y-13496857D01*
X12107300Y-13468286D01*
X12121586Y-13454000D01*
X12150157Y-13439714D01*
X12378728Y-13739714D02*
X12378728Y-13539714D01*
X12378728Y-13568286D02*
X12393014Y-13554000D01*
X12421586Y-13539714D01*
X12464443Y-13539714D01*
X12493014Y-13554000D01*
X12507300Y-13582571D01*
X12507300Y-13739714D01*
X12507300Y-13582571D02*
X12521586Y-13554000D01*
X12550157Y-13539714D01*
X12593014Y-13539714D01*
X12621586Y-13554000D01*
X12635871Y-13582571D01*
X12635871Y-13739714D01*
X12778728Y-13739714D02*
X12778728Y-13539714D01*
X12778728Y-13568286D02*
X12793014Y-13554000D01*
X12821586Y-13539714D01*
X12864443Y-13539714D01*
X12893014Y-13554000D01*
X12907300Y-13582571D01*
X12907300Y-13739714D01*
X12907300Y-13582571D02*
X12921586Y-13554000D01*
X12950157Y-13539714D01*
X12993014Y-13539714D01*
X13021586Y-13554000D01*
X13035871Y-13582571D01*
X13035871Y-13739714D01*
X13621586Y-13425429D02*
X13364443Y-13811143D01*
X14007300Y-13439714D02*
X14035871Y-13439714D01*
X14064443Y-13454000D01*
X14078728Y-13468286D01*
X14093014Y-13496857D01*
X14107300Y-13554000D01*
X14107300Y-13625429D01*
X14093014Y-13682571D01*
X14078728Y-13711143D01*
X14064443Y-13725429D01*
X14035871Y-13739714D01*
X14007300Y-13739714D01*
X13978728Y-13725429D01*
X13964443Y-13711143D01*
X13950157Y-13682571D01*
X13935871Y-13625429D01*
X13935871Y-13554000D01*
X13950157Y-13496857D01*
X13964443Y-13468286D01*
X13978728Y-13454000D01*
X14007300Y-13439714D01*
X14235871Y-13711143D02*
X14250157Y-13725429D01*
X14235871Y-13739714D01*
X14221586Y-13725429D01*
X14235871Y-13711143D01*
X14235871Y-13739714D01*
X14435871Y-13439714D02*
X14464443Y-13439714D01*
X14493014Y-13454000D01*
X14507300Y-13468286D01*
X14521586Y-13496857D01*
X14535871Y-13554000D01*
X14535871Y-13625429D01*
X14521586Y-13682571D01*
X14507300Y-13711143D01*
X14493014Y-13725429D01*
X14464443Y-13739714D01*
X14435871Y-13739714D01*
X14407300Y-13725429D01*
X14393014Y-13711143D01*
X14378728Y-13682571D01*
X14364443Y-13625429D01*
X14364443Y-13554000D01*
X14378728Y-13496857D01*
X14393014Y-13468286D01*
X14407300Y-13454000D01*
X14435871Y-13439714D01*
X14821586Y-13739714D02*
X14650157Y-13739714D01*
X14735871Y-13739714D02*
X14735871Y-13439714D01*
X14707300Y-13482571D01*
X14678728Y-13511143D01*
X14650157Y-13525429D01*
X15078728Y-13439714D02*
X15021586Y-13439714D01*
X14993014Y-13454000D01*
X14978728Y-13468286D01*
X14950157Y-13511143D01*
X14935871Y-13568286D01*
X14935871Y-13682571D01*
X14950157Y-13711143D01*
X14964443Y-13725429D01*
X14993014Y-13739714D01*
X15050157Y-13739714D01*
X15078728Y-13725429D01*
X15093014Y-13711143D01*
X15107300Y-13682571D01*
X15107300Y-13611143D01*
X15093014Y-13582571D01*
X15078728Y-13568286D01*
X15050157Y-13554000D01*
X14993014Y-13554000D01*
X14964443Y-13568286D01*
X14950157Y-13582571D01*
X14935871Y-13611143D01*
X15221586Y-13439714D02*
X15221586Y-13496857D01*
X15335871Y-13439714D02*
X15335871Y-13496857D01*
X15778728Y-13854000D02*
X15764443Y-13839714D01*
X15735871Y-13796857D01*
X15721586Y-13768286D01*
X15707300Y-13725429D01*
X15693014Y-13654000D01*
X15693014Y-13596857D01*
X15707300Y-13525429D01*
X15721586Y-13482571D01*
X15735871Y-13454000D01*
X15764443Y-13411143D01*
X15778728Y-13396857D01*
X15864443Y-13439714D02*
X16050157Y-13439714D01*
X15950157Y-13554000D01*
X15993014Y-13554000D01*
X16021586Y-13568286D01*
X16035871Y-13582571D01*
X16050157Y-13611143D01*
X16050157Y-13682571D01*
X16035871Y-13711143D01*
X16021586Y-13725429D01*
X15993014Y-13739714D01*
X15907300Y-13739714D01*
X15878728Y-13725429D01*
X15864443Y-13711143D01*
X16150157Y-13439714D02*
X16350157Y-13439714D01*
X16221586Y-13739714D01*
X16693014Y-13739714D02*
X16693014Y-13439714D01*
X16821586Y-13739714D02*
X16821586Y-13582571D01*
X16807300Y-13554000D01*
X16778728Y-13539714D01*
X16735871Y-13539714D01*
X16707300Y-13554000D01*
X16693014Y-13568286D01*
X17007300Y-13739714D02*
X16978728Y-13725429D01*
X16964443Y-13711143D01*
X16950157Y-13682571D01*
X16950157Y-13596857D01*
X16964443Y-13568286D01*
X16978728Y-13554000D01*
X17007300Y-13539714D01*
X17050157Y-13539714D01*
X17078728Y-13554000D01*
X17093014Y-13568286D01*
X17107300Y-13596857D01*
X17107300Y-13682571D01*
X17093014Y-13711143D01*
X17078728Y-13725429D01*
X17050157Y-13739714D01*
X17007300Y-13739714D01*
X17278728Y-13739714D02*
X17250157Y-13725429D01*
X17235871Y-13696857D01*
X17235871Y-13439714D01*
X17507300Y-13725429D02*
X17478728Y-13739714D01*
X17421586Y-13739714D01*
X17393014Y-13725429D01*
X17378728Y-13696857D01*
X17378728Y-13582571D01*
X17393014Y-13554000D01*
X17421586Y-13539714D01*
X17478728Y-13539714D01*
X17507300Y-13554000D01*
X17521586Y-13582571D01*
X17521586Y-13611143D01*
X17378728Y-13639714D01*
X17635871Y-13725429D02*
X17664443Y-13739714D01*
X17721586Y-13739714D01*
X17750157Y-13725429D01*
X17764443Y-13696857D01*
X17764443Y-13682571D01*
X17750157Y-13654000D01*
X17721586Y-13639714D01*
X17678728Y-13639714D01*
X17650157Y-13625429D01*
X17635871Y-13596857D01*
X17635871Y-13582571D01*
X17650157Y-13554000D01*
X17678728Y-13539714D01*
X17721586Y-13539714D01*
X17750157Y-13554000D01*
X17864443Y-13854000D02*
X17878728Y-13839714D01*
X17907300Y-13796857D01*
X17921586Y-13768286D01*
X17935871Y-13725429D01*
X17950157Y-13654000D01*
X17950157Y-13596857D01*
X17935871Y-13525429D01*
X17921586Y-13482571D01*
X17907300Y-13454000D01*
X17878728Y-13411143D01*
X17864443Y-13396857D01*
X11092300Y-14000000D02*
G75*
G03X11092300Y-14000000I-50800J0D01*
G01*
X11535871Y-14135714D02*
X11364443Y-14135714D01*
X11450157Y-14135714D02*
X11450157Y-13835714D01*
X11421586Y-13878571D01*
X11393014Y-13907143D01*
X11364443Y-13921429D01*
X11664443Y-14107143D02*
X11678728Y-14121429D01*
X11664443Y-14135714D01*
X11650157Y-14121429D01*
X11664443Y-14107143D01*
X11664443Y-14135714D01*
X11864443Y-13835714D02*
X11893014Y-13835714D01*
X11921586Y-13850000D01*
X11935871Y-13864286D01*
X11950157Y-13892857D01*
X11964443Y-13950000D01*
X11964443Y-14021429D01*
X11950157Y-14078571D01*
X11935871Y-14107143D01*
X11921586Y-14121429D01*
X11893014Y-14135714D01*
X11864443Y-14135714D01*
X11835871Y-14121429D01*
X11821586Y-14107143D01*
X11807300Y-14078571D01*
X11793014Y-14021429D01*
X11793014Y-13950000D01*
X11807300Y-13892857D01*
X11821586Y-13864286D01*
X11835871Y-13850000D01*
X11864443Y-13835714D01*
X12078728Y-13864286D02*
X12093014Y-13850000D01*
X12121586Y-13835714D01*
X12193014Y-13835714D01*
X12221586Y-13850000D01*
X12235871Y-13864286D01*
X12250157Y-13892857D01*
X12250157Y-13921429D01*
X12235871Y-13964286D01*
X12064443Y-14135714D01*
X12250157Y-14135714D01*
X12378728Y-14135714D02*
X12378728Y-13935714D01*
X12378728Y-13964286D02*
X12393014Y-13950000D01*
X12421586Y-13935714D01*
X12464443Y-13935714D01*
X12493014Y-13950000D01*
X12507300Y-13978571D01*
X12507300Y-14135714D01*
X12507300Y-13978571D02*
X12521586Y-13950000D01*
X12550157Y-13935714D01*
X12593014Y-13935714D01*
X12621586Y-13950000D01*
X12635871Y-13978571D01*
X12635871Y-14135714D01*
X12778728Y-14135714D02*
X12778728Y-13935714D01*
X12778728Y-13964286D02*
X12793014Y-13950000D01*
X12821586Y-13935714D01*
X12864443Y-13935714D01*
X12893014Y-13950000D01*
X12907300Y-13978571D01*
X12907300Y-14135714D01*
X12907300Y-13978571D02*
X12921586Y-13950000D01*
X12950157Y-13935714D01*
X12993014Y-13935714D01*
X13021586Y-13950000D01*
X13035871Y-13978571D01*
X13035871Y-14135714D01*
X13621586Y-13821429D02*
X13364443Y-14207143D01*
X14007300Y-13835714D02*
X14035871Y-13835714D01*
X14064443Y-13850000D01*
X14078728Y-13864286D01*
X14093014Y-13892857D01*
X14107300Y-13950000D01*
X14107300Y-14021429D01*
X14093014Y-14078571D01*
X14078728Y-14107143D01*
X14064443Y-14121429D01*
X14035871Y-14135714D01*
X14007300Y-14135714D01*
X13978728Y-14121429D01*
X13964443Y-14107143D01*
X13950157Y-14078571D01*
X13935871Y-14021429D01*
X13935871Y-13950000D01*
X13950157Y-13892857D01*
X13964443Y-13864286D01*
X13978728Y-13850000D01*
X14007300Y-13835714D01*
X14235871Y-14107143D02*
X14250157Y-14121429D01*
X14235871Y-14135714D01*
X14221586Y-14121429D01*
X14235871Y-14107143D01*
X14235871Y-14135714D01*
X14435871Y-13835714D02*
X14464443Y-13835714D01*
X14493014Y-13850000D01*
X14507300Y-13864286D01*
X14521586Y-13892857D01*
X14535871Y-13950000D01*
X14535871Y-14021429D01*
X14521586Y-14078571D01*
X14507300Y-14107143D01*
X14493014Y-14121429D01*
X14464443Y-14135714D01*
X14435871Y-14135714D01*
X14407300Y-14121429D01*
X14393014Y-14107143D01*
X14378728Y-14078571D01*
X14364443Y-14021429D01*
X14364443Y-13950000D01*
X14378728Y-13892857D01*
X14393014Y-13864286D01*
X14407300Y-13850000D01*
X14435871Y-13835714D01*
X14793014Y-13935714D02*
X14793014Y-14135714D01*
X14721586Y-13821429D02*
X14650157Y-14035714D01*
X14835871Y-14035714D01*
X15007300Y-13835714D02*
X15035871Y-13835714D01*
X15064443Y-13850000D01*
X15078728Y-13864286D01*
X15093014Y-13892857D01*
X15107300Y-13950000D01*
X15107300Y-14021429D01*
X15093014Y-14078571D01*
X15078728Y-14107143D01*
X15064443Y-14121429D01*
X15035871Y-14135714D01*
X15007300Y-14135714D01*
X14978728Y-14121429D01*
X14964443Y-14107143D01*
X14950157Y-14078571D01*
X14935871Y-14021429D01*
X14935871Y-13950000D01*
X14950157Y-13892857D01*
X14964443Y-13864286D01*
X14978728Y-13850000D01*
X15007300Y-13835714D01*
X15221586Y-13835714D02*
X15221586Y-13892857D01*
X15335871Y-13835714D02*
X15335871Y-13892857D01*
X15778728Y-14250000D02*
X15764443Y-14235714D01*
X15735871Y-14192857D01*
X15721586Y-14164286D01*
X15707300Y-14121429D01*
X15693014Y-14050000D01*
X15693014Y-13992857D01*
X15707300Y-13921429D01*
X15721586Y-13878571D01*
X15735871Y-13850000D01*
X15764443Y-13807143D01*
X15778728Y-13792857D01*
X15864443Y-13835714D02*
X16050157Y-13835714D01*
X15950157Y-13950000D01*
X15993014Y-13950000D01*
X16021586Y-13964286D01*
X16035871Y-13978571D01*
X16050157Y-14007143D01*
X16050157Y-14078571D01*
X16035871Y-14107143D01*
X16021586Y-14121429D01*
X15993014Y-14135714D01*
X15907300Y-14135714D01*
X15878728Y-14121429D01*
X15864443Y-14107143D01*
X16164443Y-13864286D02*
X16178728Y-13850000D01*
X16207300Y-13835714D01*
X16278728Y-13835714D01*
X16307300Y-13850000D01*
X16321586Y-13864286D01*
X16335871Y-13892857D01*
X16335871Y-13921429D01*
X16321586Y-13964286D01*
X16150157Y-14135714D01*
X16335871Y-14135714D01*
X16693014Y-14135714D02*
X16693014Y-13835714D01*
X16821586Y-14135714D02*
X16821586Y-13978571D01*
X16807300Y-13950000D01*
X16778728Y-13935714D01*
X16735871Y-13935714D01*
X16707300Y-13950000D01*
X16693014Y-13964286D01*
X17007300Y-14135714D02*
X16978728Y-14121429D01*
X16964443Y-14107143D01*
X16950157Y-14078571D01*
X16950157Y-13992857D01*
X16964443Y-13964286D01*
X16978728Y-13950000D01*
X17007300Y-13935714D01*
X17050157Y-13935714D01*
X17078728Y-13950000D01*
X17093014Y-13964286D01*
X17107300Y-13992857D01*
X17107300Y-14078571D01*
X17093014Y-14107143D01*
X17078728Y-14121429D01*
X17050157Y-14135714D01*
X17007300Y-14135714D01*
X17278728Y-14135714D02*
X17250157Y-14121429D01*
X17235871Y-14092857D01*
X17235871Y-13835714D01*
X17507300Y-14121429D02*
X17478728Y-14135714D01*
X17421586Y-14135714D01*
X17393014Y-14121429D01*
X17378728Y-14092857D01*
X17378728Y-13978571D01*
X17393014Y-13950000D01*
X17421586Y-13935714D01*
X17478728Y-13935714D01*
X17507300Y-13950000D01*
X17521586Y-13978571D01*
X17521586Y-14007143D01*
X17378728Y-14035714D01*
X17635871Y-14121429D02*
X17664443Y-14135714D01*
X17721586Y-14135714D01*
X17750157Y-14121429D01*
X17764443Y-14092857D01*
X17764443Y-14078571D01*
X17750157Y-14050000D01*
X17721586Y-14035714D01*
X17678728Y-14035714D01*
X17650157Y-14021429D01*
X17635871Y-13992857D01*
X17635871Y-13978571D01*
X17650157Y-13950000D01*
X17678728Y-13935714D01*
X17721586Y-13935714D01*
X17750157Y-13950000D01*
X17864443Y-14250000D02*
X17878728Y-14235714D01*
X17907300Y-14192857D01*
X17921586Y-14164286D01*
X17935871Y-14121429D01*
X17950157Y-14050000D01*
X17950157Y-13992857D01*
X17935871Y-13921429D01*
X17921586Y-13878571D01*
X17907300Y-13850000D01*
X17878728Y-13807143D01*
X17864443Y-13792857D01*
X11027300Y-14331000D02*
X11027300Y-14461000D01*
X10962300Y-14396000D02*
X11092300Y-14396000D01*
X11535871Y-14531714D02*
X11364443Y-14531714D01*
X11450157Y-14531714D02*
X11450157Y-14231714D01*
X11421586Y-14274571D01*
X11393014Y-14303143D01*
X11364443Y-14317429D01*
X11664443Y-14503143D02*
X11678728Y-14517429D01*
X11664443Y-14531714D01*
X11650157Y-14517429D01*
X11664443Y-14503143D01*
X11664443Y-14531714D01*
X11778728Y-14231714D02*
X11964443Y-14231714D01*
X11864443Y-14346000D01*
X11907300Y-14346000D01*
X11935871Y-14360286D01*
X11950157Y-14374571D01*
X11964443Y-14403143D01*
X11964443Y-14474571D01*
X11950157Y-14503143D01*
X11935871Y-14517429D01*
X11907300Y-14531714D01*
X11821586Y-14531714D01*
X11793014Y-14517429D01*
X11778728Y-14503143D01*
X12150157Y-14231714D02*
X12178728Y-14231714D01*
X12207300Y-14246000D01*
X12221586Y-14260286D01*
X12235871Y-14288857D01*
X12250157Y-14346000D01*
X12250157Y-14417429D01*
X12235871Y-14474571D01*
X12221586Y-14503143D01*
X12207300Y-14517429D01*
X12178728Y-14531714D01*
X12150157Y-14531714D01*
X12121586Y-14517429D01*
X12107300Y-14503143D01*
X12093014Y-14474571D01*
X12078728Y-14417429D01*
X12078728Y-14346000D01*
X12093014Y-14288857D01*
X12107300Y-14260286D01*
X12121586Y-14246000D01*
X12150157Y-14231714D01*
X12378728Y-14531714D02*
X12378728Y-14331714D01*
X12378728Y-14360286D02*
X12393014Y-14346000D01*
X12421586Y-14331714D01*
X12464443Y-14331714D01*
X12493014Y-14346000D01*
X12507300Y-14374571D01*
X12507300Y-14531714D01*
X12507300Y-14374571D02*
X12521586Y-14346000D01*
X12550157Y-14331714D01*
X12593014Y-14331714D01*
X12621586Y-14346000D01*
X12635871Y-14374571D01*
X12635871Y-14531714D01*
X12778728Y-14531714D02*
X12778728Y-14331714D01*
X12778728Y-14360286D02*
X12793014Y-14346000D01*
X12821586Y-14331714D01*
X12864443Y-14331714D01*
X12893014Y-14346000D01*
X12907300Y-14374571D01*
X12907300Y-14531714D01*
X12907300Y-14374571D02*
X12921586Y-14346000D01*
X12950157Y-14331714D01*
X12993014Y-14331714D01*
X13021586Y-14346000D01*
X13035871Y-14374571D01*
X13035871Y-14531714D01*
X13621586Y-14217429D02*
X13364443Y-14603143D01*
X14007300Y-14231714D02*
X14035871Y-14231714D01*
X14064443Y-14246000D01*
X14078728Y-14260286D01*
X14093014Y-14288857D01*
X14107300Y-14346000D01*
X14107300Y-14417429D01*
X14093014Y-14474571D01*
X14078728Y-14503143D01*
X14064443Y-14517429D01*
X14035871Y-14531714D01*
X14007300Y-14531714D01*
X13978728Y-14517429D01*
X13964443Y-14503143D01*
X13950157Y-14474571D01*
X13935871Y-14417429D01*
X13935871Y-14346000D01*
X13950157Y-14288857D01*
X13964443Y-14260286D01*
X13978728Y-14246000D01*
X14007300Y-14231714D01*
X14235871Y-14503143D02*
X14250157Y-14517429D01*
X14235871Y-14531714D01*
X14221586Y-14517429D01*
X14235871Y-14503143D01*
X14235871Y-14531714D01*
X14435871Y-14231714D02*
X14464443Y-14231714D01*
X14493014Y-14246000D01*
X14507300Y-14260286D01*
X14521586Y-14288857D01*
X14535871Y-14346000D01*
X14535871Y-14417429D01*
X14521586Y-14474571D01*
X14507300Y-14503143D01*
X14493014Y-14517429D01*
X14464443Y-14531714D01*
X14435871Y-14531714D01*
X14407300Y-14517429D01*
X14393014Y-14503143D01*
X14378728Y-14474571D01*
X14364443Y-14417429D01*
X14364443Y-14346000D01*
X14378728Y-14288857D01*
X14393014Y-14260286D01*
X14407300Y-14246000D01*
X14435871Y-14231714D01*
X14807300Y-14231714D02*
X14664443Y-14231714D01*
X14650157Y-14374571D01*
X14664443Y-14360286D01*
X14693014Y-14346000D01*
X14764443Y-14346000D01*
X14793014Y-14360286D01*
X14807300Y-14374571D01*
X14821586Y-14403143D01*
X14821586Y-14474571D01*
X14807300Y-14503143D01*
X14793014Y-14517429D01*
X14764443Y-14531714D01*
X14693014Y-14531714D01*
X14664443Y-14517429D01*
X14650157Y-14503143D01*
X15107300Y-14531714D02*
X14935871Y-14531714D01*
X15021586Y-14531714D02*
X15021586Y-14231714D01*
X14993014Y-14274571D01*
X14964443Y-14303143D01*
X14935871Y-14317429D01*
X15221586Y-14231714D02*
X15221586Y-14288857D01*
X15335871Y-14231714D02*
X15335871Y-14288857D01*
X15778728Y-14646000D02*
X15764443Y-14631714D01*
X15735871Y-14588857D01*
X15721586Y-14560286D01*
X15707300Y-14517429D01*
X15693014Y-14446000D01*
X15693014Y-14388857D01*
X15707300Y-14317429D01*
X15721586Y-14274571D01*
X15735871Y-14246000D01*
X15764443Y-14203143D01*
X15778728Y-14188857D01*
X16021586Y-14331714D02*
X16021586Y-14531714D01*
X15950157Y-14217429D02*
X15878728Y-14431714D01*
X16064443Y-14431714D01*
X16407300Y-14531714D02*
X16407300Y-14231714D01*
X16535871Y-14531714D02*
X16535871Y-14374571D01*
X16521586Y-14346000D01*
X16493014Y-14331714D01*
X16450157Y-14331714D01*
X16421586Y-14346000D01*
X16407300Y-14360286D01*
X16721586Y-14531714D02*
X16693014Y-14517429D01*
X16678728Y-14503143D01*
X16664443Y-14474571D01*
X16664443Y-14388857D01*
X16678728Y-14360286D01*
X16693014Y-14346000D01*
X16721586Y-14331714D01*
X16764443Y-14331714D01*
X16793014Y-14346000D01*
X16807300Y-14360286D01*
X16821586Y-14388857D01*
X16821586Y-14474571D01*
X16807300Y-14503143D01*
X16793014Y-14517429D01*
X16764443Y-14531714D01*
X16721586Y-14531714D01*
X16993014Y-14531714D02*
X16964443Y-14517429D01*
X16950157Y-14488857D01*
X16950157Y-14231714D01*
X17221586Y-14517429D02*
X17193014Y-14531714D01*
X17135871Y-14531714D01*
X17107300Y-14517429D01*
X17093014Y-14488857D01*
X17093014Y-14374571D01*
X17107300Y-14346000D01*
X17135871Y-14331714D01*
X17193014Y-14331714D01*
X17221586Y-14346000D01*
X17235871Y-14374571D01*
X17235871Y-14403143D01*
X17093014Y-14431714D01*
X17350157Y-14517429D02*
X17378728Y-14531714D01*
X17435871Y-14531714D01*
X17464443Y-14517429D01*
X17478728Y-14488857D01*
X17478728Y-14474571D01*
X17464443Y-14446000D01*
X17435871Y-14431714D01*
X17393014Y-14431714D01*
X17364443Y-14417429D01*
X17350157Y-14388857D01*
X17350157Y-14374571D01*
X17364443Y-14346000D01*
X17393014Y-14331714D01*
X17435871Y-14331714D01*
X17464443Y-14346000D01*
X17578728Y-14646000D02*
X17593014Y-14631714D01*
X17621586Y-14588857D01*
X17635871Y-14560286D01*
X17650157Y-14517429D01*
X17664443Y-14446000D01*
X17664443Y-14388857D01*
X17650157Y-14317429D01*
X17635871Y-14274571D01*
X17621586Y-14246000D01*
X17593014Y-14203143D01*
X17578728Y-14188857D01*
X11047664Y-14899764D02*
X11047664Y-14684236D01*
X10832136Y-14684236D01*
X10832136Y-14899764D01*
X11047664Y-14899764D01*
X11350157Y-14627714D02*
X11535871Y-14627714D01*
X11435871Y-14742000D01*
X11478728Y-14742000D01*
X11507300Y-14756286D01*
X11521586Y-14770571D01*
X11535871Y-14799143D01*
X11535871Y-14870571D01*
X11521586Y-14899143D01*
X11507300Y-14913429D01*
X11478728Y-14927714D01*
X11393014Y-14927714D01*
X11364443Y-14913429D01*
X11350157Y-14899143D01*
X11664443Y-14899143D02*
X11678728Y-14913429D01*
X11664443Y-14927714D01*
X11650157Y-14913429D01*
X11664443Y-14899143D01*
X11664443Y-14927714D01*
X11864443Y-14627714D02*
X11893014Y-14627714D01*
X11921586Y-14642000D01*
X11935871Y-14656286D01*
X11950157Y-14684857D01*
X11964443Y-14742000D01*
X11964443Y-14813429D01*
X11950157Y-14870571D01*
X11935871Y-14899143D01*
X11921586Y-14913429D01*
X11893014Y-14927714D01*
X11864443Y-14927714D01*
X11835871Y-14913429D01*
X11821586Y-14899143D01*
X11807300Y-14870571D01*
X11793014Y-14813429D01*
X11793014Y-14742000D01*
X11807300Y-14684857D01*
X11821586Y-14656286D01*
X11835871Y-14642000D01*
X11864443Y-14627714D01*
X12235871Y-14627714D02*
X12093014Y-14627714D01*
X12078728Y-14770571D01*
X12093014Y-14756286D01*
X12121586Y-14742000D01*
X12193014Y-14742000D01*
X12221586Y-14756286D01*
X12235871Y-14770571D01*
X12250157Y-14799143D01*
X12250157Y-14870571D01*
X12235871Y-14899143D01*
X12221586Y-14913429D01*
X12193014Y-14927714D01*
X12121586Y-14927714D01*
X12093014Y-14913429D01*
X12078728Y-14899143D01*
X12378728Y-14927714D02*
X12378728Y-14727714D01*
X12378728Y-14756286D02*
X12393014Y-14742000D01*
X12421586Y-14727714D01*
X12464443Y-14727714D01*
X12493014Y-14742000D01*
X12507300Y-14770571D01*
X12507300Y-14927714D01*
X12507300Y-14770571D02*
X12521586Y-14742000D01*
X12550157Y-14727714D01*
X12593014Y-14727714D01*
X12621586Y-14742000D01*
X12635871Y-14770571D01*
X12635871Y-14927714D01*
X12778728Y-14927714D02*
X12778728Y-14727714D01*
X12778728Y-14756286D02*
X12793014Y-14742000D01*
X12821586Y-14727714D01*
X12864443Y-14727714D01*
X12893014Y-14742000D01*
X12907300Y-14770571D01*
X12907300Y-14927714D01*
X12907300Y-14770571D02*
X12921586Y-14742000D01*
X12950157Y-14727714D01*
X12993014Y-14727714D01*
X13021586Y-14742000D01*
X13035871Y-14770571D01*
X13035871Y-14927714D01*
X13621586Y-14613429D02*
X13364443Y-14999143D01*
X14007300Y-14627714D02*
X14035871Y-14627714D01*
X14064443Y-14642000D01*
X14078728Y-14656286D01*
X14093014Y-14684857D01*
X14107300Y-14742000D01*
X14107300Y-14813429D01*
X14093014Y-14870571D01*
X14078728Y-14899143D01*
X14064443Y-14913429D01*
X14035871Y-14927714D01*
X14007300Y-14927714D01*
X13978728Y-14913429D01*
X13964443Y-14899143D01*
X13950157Y-14870571D01*
X13935871Y-14813429D01*
X13935871Y-14742000D01*
X13950157Y-14684857D01*
X13964443Y-14656286D01*
X13978728Y-14642000D01*
X14007300Y-14627714D01*
X14235871Y-14899143D02*
X14250157Y-14913429D01*
X14235871Y-14927714D01*
X14221586Y-14913429D01*
X14235871Y-14899143D01*
X14235871Y-14927714D01*
X14535871Y-14927714D02*
X14364443Y-14927714D01*
X14450157Y-14927714D02*
X14450157Y-14627714D01*
X14421586Y-14670571D01*
X14393014Y-14699143D01*
X14364443Y-14713429D01*
X14650157Y-14656286D02*
X14664443Y-14642000D01*
X14693014Y-14627714D01*
X14764443Y-14627714D01*
X14793014Y-14642000D01*
X14807300Y-14656286D01*
X14821586Y-14684857D01*
X14821586Y-14713429D01*
X14807300Y-14756286D01*
X14635871Y-14927714D01*
X14821586Y-14927714D01*
X15007300Y-14627714D02*
X15035871Y-14627714D01*
X15064443Y-14642000D01*
X15078728Y-14656286D01*
X15093014Y-14684857D01*
X15107300Y-14742000D01*
X15107300Y-14813429D01*
X15093014Y-14870571D01*
X15078728Y-14899143D01*
X15064443Y-14913429D01*
X15035871Y-14927714D01*
X15007300Y-14927714D01*
X14978728Y-14913429D01*
X14964443Y-14899143D01*
X14950157Y-14870571D01*
X14935871Y-14813429D01*
X14935871Y-14742000D01*
X14950157Y-14684857D01*
X14964443Y-14656286D01*
X14978728Y-14642000D01*
X15007300Y-14627714D01*
X15221586Y-14627714D02*
X15221586Y-14684857D01*
X15335871Y-14627714D02*
X15335871Y-14684857D01*
X15778728Y-15042000D02*
X15764443Y-15027714D01*
X15735871Y-14984857D01*
X15721586Y-14956286D01*
X15707300Y-14913429D01*
X15693014Y-14842000D01*
X15693014Y-14784857D01*
X15707300Y-14713429D01*
X15721586Y-14670571D01*
X15735871Y-14642000D01*
X15764443Y-14599143D01*
X15778728Y-14584857D01*
X16021586Y-14727714D02*
X16021586Y-14927714D01*
X15950157Y-14613429D02*
X15878728Y-14827714D01*
X16064443Y-14827714D01*
X16407300Y-14927714D02*
X16407300Y-14627714D01*
X16535871Y-14927714D02*
X16535871Y-14770571D01*
X16521586Y-14742000D01*
X16493014Y-14727714D01*
X16450157Y-14727714D01*
X16421586Y-14742000D01*
X16407300Y-14756286D01*
X16721586Y-14927714D02*
X16693014Y-14913429D01*
X16678728Y-14899143D01*
X16664443Y-14870571D01*
X16664443Y-14784857D01*
X16678728Y-14756286D01*
X16693014Y-14742000D01*
X16721586Y-14727714D01*
X16764443Y-14727714D01*
X16793014Y-14742000D01*
X16807300Y-14756286D01*
X16821586Y-14784857D01*
X16821586Y-14870571D01*
X16807300Y-14899143D01*
X16793014Y-14913429D01*
X16764443Y-14927714D01*
X16721586Y-14927714D01*
X16993014Y-14927714D02*
X16964443Y-14913429D01*
X16950157Y-14884857D01*
X16950157Y-14627714D01*
X17221586Y-14913429D02*
X17193014Y-14927714D01*
X17135871Y-14927714D01*
X17107300Y-14913429D01*
X17093014Y-14884857D01*
X17093014Y-14770571D01*
X17107300Y-14742000D01*
X17135871Y-14727714D01*
X17193014Y-14727714D01*
X17221586Y-14742000D01*
X17235871Y-14770571D01*
X17235871Y-14799143D01*
X17093014Y-14827714D01*
X17350157Y-14913429D02*
X17378728Y-14927714D01*
X17435871Y-14927714D01*
X17464443Y-14913429D01*
X17478728Y-14884857D01*
X17478728Y-14870571D01*
X17464443Y-14842000D01*
X17435871Y-14827714D01*
X17393014Y-14827714D01*
X17364443Y-14813429D01*
X17350157Y-14784857D01*
X17350157Y-14770571D01*
X17364443Y-14742000D01*
X17393014Y-14727714D01*
X17435871Y-14727714D01*
X17464443Y-14742000D01*
X17578728Y-15042000D02*
X17593014Y-15027714D01*
X17621586Y-14984857D01*
X17635871Y-14956286D01*
X17650157Y-14913429D01*
X17664443Y-14842000D01*
X17664443Y-14784857D01*
X17650157Y-14713429D01*
X17635871Y-14670571D01*
X17621586Y-14642000D01*
X17593014Y-14599143D01*
X17578728Y-14584857D01*
M02*
