G04 #@! TF.GenerationSoftware,KiCad,Pcbnew,5.1.5-52549c5~84~ubuntu16.04.1*
G04 #@! TF.CreationDate,2020-03-02T18:44:08+01:00*
G04 #@! TF.ProjectId,AE01.01.01.001,41453031-2e30-4312-9e30-312e3030312e,1*
G04 #@! TF.SameCoordinates,Original*
G04 #@! TF.FileFunction,Other,Fab,Top*
%FSLAX46Y46*%
G04 Gerber Fmt 4.6, Leading zero omitted, Abs format (unit mm)*
G04 Created by KiCad (PCBNEW 5.1.5-52549c5~84~ubuntu16.04.1) date 2020-03-02 18:44:08*
%MOMM*%
%LPD*%
G04 APERTURE LIST*
%ADD10C,0.100000*%
%ADD11C,0.150000*%
%ADD12C,0.300000*%
%ADD13C,0.400000*%
%ADD14C,0.080000*%
%ADD15C,0.075000*%
G04 APERTURE END LIST*
D10*
D11*
X177002200Y-166007200D02*
X177002200Y-198007200D01*
X285002200Y-198007200D01*
X285002200Y-166007200D01*
X177002200Y-166007200D01*
D10*
D11*
X10000000Y-10000000D02*
X10000000Y-200007200D01*
X287002200Y-200007200D01*
X287002200Y-10000000D01*
X10000000Y-10000000D01*
D10*
D11*
X12000000Y-12000000D02*
X12000000Y-198007200D01*
X285002200Y-198007200D01*
X285002200Y-12000000D01*
X12000000Y-12000000D01*
D10*
D11*
X60000000Y-12000000D02*
X60000000Y-10000000D01*
D10*
D11*
X110000000Y-12000000D02*
X110000000Y-10000000D01*
D10*
D11*
X160000000Y-12000000D02*
X160000000Y-10000000D01*
D10*
D11*
X210000000Y-12000000D02*
X210000000Y-10000000D01*
D10*
D11*
X260000000Y-12000000D02*
X260000000Y-10000000D01*
D10*
D11*
X36065476Y-11588095D02*
X35322619Y-11588095D01*
X35694047Y-11588095D02*
X35694047Y-10288095D01*
X35570238Y-10473809D01*
X35446428Y-10597619D01*
X35322619Y-10659523D01*
D10*
D11*
X85322619Y-10411904D02*
X85384523Y-10350000D01*
X85508333Y-10288095D01*
X85817857Y-10288095D01*
X85941666Y-10350000D01*
X86003571Y-10411904D01*
X86065476Y-10535714D01*
X86065476Y-10659523D01*
X86003571Y-10845238D01*
X85260714Y-11588095D01*
X86065476Y-11588095D01*
D10*
D11*
X135260714Y-10288095D02*
X136065476Y-10288095D01*
X135632142Y-10783333D01*
X135817857Y-10783333D01*
X135941666Y-10845238D01*
X136003571Y-10907142D01*
X136065476Y-11030952D01*
X136065476Y-11340476D01*
X136003571Y-11464285D01*
X135941666Y-11526190D01*
X135817857Y-11588095D01*
X135446428Y-11588095D01*
X135322619Y-11526190D01*
X135260714Y-11464285D01*
D10*
D11*
X185941666Y-10721428D02*
X185941666Y-11588095D01*
X185632142Y-10226190D02*
X185322619Y-11154761D01*
X186127380Y-11154761D01*
D10*
D11*
X236003571Y-10288095D02*
X235384523Y-10288095D01*
X235322619Y-10907142D01*
X235384523Y-10845238D01*
X235508333Y-10783333D01*
X235817857Y-10783333D01*
X235941666Y-10845238D01*
X236003571Y-10907142D01*
X236065476Y-11030952D01*
X236065476Y-11340476D01*
X236003571Y-11464285D01*
X235941666Y-11526190D01*
X235817857Y-11588095D01*
X235508333Y-11588095D01*
X235384523Y-11526190D01*
X235322619Y-11464285D01*
D10*
D11*
X285941666Y-10288095D02*
X285694047Y-10288095D01*
X285570238Y-10350000D01*
X285508333Y-10411904D01*
X285384523Y-10597619D01*
X285322619Y-10845238D01*
X285322619Y-11340476D01*
X285384523Y-11464285D01*
X285446428Y-11526190D01*
X285570238Y-11588095D01*
X285817857Y-11588095D01*
X285941666Y-11526190D01*
X286003571Y-11464285D01*
X286065476Y-11340476D01*
X286065476Y-11030952D01*
X286003571Y-10907142D01*
X285941666Y-10845238D01*
X285817857Y-10783333D01*
X285570238Y-10783333D01*
X285446428Y-10845238D01*
X285384523Y-10907142D01*
X285322619Y-11030952D01*
D10*
D11*
X60000000Y-198007200D02*
X60000000Y-200007200D01*
D10*
D11*
X110000000Y-198007200D02*
X110000000Y-200007200D01*
D10*
D11*
X160000000Y-198007200D02*
X160000000Y-200007200D01*
D10*
D11*
X210000000Y-198007200D02*
X210000000Y-200007200D01*
D10*
D11*
X260000000Y-198007200D02*
X260000000Y-200007200D01*
D10*
D11*
X36065476Y-199595295D02*
X35322619Y-199595295D01*
X35694047Y-199595295D02*
X35694047Y-198295295D01*
X35570238Y-198481009D01*
X35446428Y-198604819D01*
X35322619Y-198666723D01*
D10*
D11*
X85322619Y-198419104D02*
X85384523Y-198357200D01*
X85508333Y-198295295D01*
X85817857Y-198295295D01*
X85941666Y-198357200D01*
X86003571Y-198419104D01*
X86065476Y-198542914D01*
X86065476Y-198666723D01*
X86003571Y-198852438D01*
X85260714Y-199595295D01*
X86065476Y-199595295D01*
D10*
D11*
X135260714Y-198295295D02*
X136065476Y-198295295D01*
X135632142Y-198790533D01*
X135817857Y-198790533D01*
X135941666Y-198852438D01*
X136003571Y-198914342D01*
X136065476Y-199038152D01*
X136065476Y-199347676D01*
X136003571Y-199471485D01*
X135941666Y-199533390D01*
X135817857Y-199595295D01*
X135446428Y-199595295D01*
X135322619Y-199533390D01*
X135260714Y-199471485D01*
D10*
D11*
X185941666Y-198728628D02*
X185941666Y-199595295D01*
X185632142Y-198233390D02*
X185322619Y-199161961D01*
X186127380Y-199161961D01*
D10*
D11*
X236003571Y-198295295D02*
X235384523Y-198295295D01*
X235322619Y-198914342D01*
X235384523Y-198852438D01*
X235508333Y-198790533D01*
X235817857Y-198790533D01*
X235941666Y-198852438D01*
X236003571Y-198914342D01*
X236065476Y-199038152D01*
X236065476Y-199347676D01*
X236003571Y-199471485D01*
X235941666Y-199533390D01*
X235817857Y-199595295D01*
X235508333Y-199595295D01*
X235384523Y-199533390D01*
X235322619Y-199471485D01*
D10*
D11*
X285941666Y-198295295D02*
X285694047Y-198295295D01*
X285570238Y-198357200D01*
X285508333Y-198419104D01*
X285384523Y-198604819D01*
X285322619Y-198852438D01*
X285322619Y-199347676D01*
X285384523Y-199471485D01*
X285446428Y-199533390D01*
X285570238Y-199595295D01*
X285817857Y-199595295D01*
X285941666Y-199533390D01*
X286003571Y-199471485D01*
X286065476Y-199347676D01*
X286065476Y-199038152D01*
X286003571Y-198914342D01*
X285941666Y-198852438D01*
X285817857Y-198790533D01*
X285570238Y-198790533D01*
X285446428Y-198852438D01*
X285384523Y-198914342D01*
X285322619Y-199038152D01*
D10*
D11*
X10000000Y-60000000D02*
X12000000Y-60000000D01*
D10*
D11*
X10000000Y-110000000D02*
X12000000Y-110000000D01*
D10*
D11*
X10000000Y-160000000D02*
X12000000Y-160000000D01*
D10*
D11*
X10690476Y-35216666D02*
X11309523Y-35216666D01*
X10566666Y-35588095D02*
X11000000Y-34288095D01*
X11433333Y-35588095D01*
D10*
D11*
X11092857Y-84907142D02*
X11278571Y-84969047D01*
X11340476Y-85030952D01*
X11402380Y-85154761D01*
X11402380Y-85340476D01*
X11340476Y-85464285D01*
X11278571Y-85526190D01*
X11154761Y-85588095D01*
X10659523Y-85588095D01*
X10659523Y-84288095D01*
X11092857Y-84288095D01*
X11216666Y-84350000D01*
X11278571Y-84411904D01*
X11340476Y-84535714D01*
X11340476Y-84659523D01*
X11278571Y-84783333D01*
X11216666Y-84845238D01*
X11092857Y-84907142D01*
X10659523Y-84907142D01*
D10*
D11*
X11402380Y-135464285D02*
X11340476Y-135526190D01*
X11154761Y-135588095D01*
X11030952Y-135588095D01*
X10845238Y-135526190D01*
X10721428Y-135402380D01*
X10659523Y-135278571D01*
X10597619Y-135030952D01*
X10597619Y-134845238D01*
X10659523Y-134597619D01*
X10721428Y-134473809D01*
X10845238Y-134350000D01*
X11030952Y-134288095D01*
X11154761Y-134288095D01*
X11340476Y-134350000D01*
X11402380Y-134411904D01*
D10*
D11*
X10659523Y-185588095D02*
X10659523Y-184288095D01*
X10969047Y-184288095D01*
X11154761Y-184350000D01*
X11278571Y-184473809D01*
X11340476Y-184597619D01*
X11402380Y-184845238D01*
X11402380Y-185030952D01*
X11340476Y-185278571D01*
X11278571Y-185402380D01*
X11154761Y-185526190D01*
X10969047Y-185588095D01*
X10659523Y-185588095D01*
D10*
D11*
X287002200Y-60000000D02*
X285002200Y-60000000D01*
D10*
D11*
X287002200Y-110000000D02*
X285002200Y-110000000D01*
D10*
D11*
X287002200Y-160000000D02*
X285002200Y-160000000D01*
D10*
D11*
X285692676Y-35216666D02*
X286311723Y-35216666D01*
X285568866Y-35588095D02*
X286002200Y-34288095D01*
X286435533Y-35588095D01*
D10*
D11*
X286095057Y-84907142D02*
X286280771Y-84969047D01*
X286342676Y-85030952D01*
X286404580Y-85154761D01*
X286404580Y-85340476D01*
X286342676Y-85464285D01*
X286280771Y-85526190D01*
X286156961Y-85588095D01*
X285661723Y-85588095D01*
X285661723Y-84288095D01*
X286095057Y-84288095D01*
X286218866Y-84350000D01*
X286280771Y-84411904D01*
X286342676Y-84535714D01*
X286342676Y-84659523D01*
X286280771Y-84783333D01*
X286218866Y-84845238D01*
X286095057Y-84907142D01*
X285661723Y-84907142D01*
D10*
D11*
X286404580Y-135464285D02*
X286342676Y-135526190D01*
X286156961Y-135588095D01*
X286033152Y-135588095D01*
X285847438Y-135526190D01*
X285723628Y-135402380D01*
X285661723Y-135278571D01*
X285599819Y-135030952D01*
X285599819Y-134845238D01*
X285661723Y-134597619D01*
X285723628Y-134473809D01*
X285847438Y-134350000D01*
X286033152Y-134288095D01*
X286156961Y-134288095D01*
X286342676Y-134350000D01*
X286404580Y-134411904D01*
D10*
D11*
X285661723Y-185588095D02*
X285661723Y-184288095D01*
X285971247Y-184288095D01*
X286156961Y-184350000D01*
X286280771Y-184473809D01*
X286342676Y-184597619D01*
X286404580Y-184845238D01*
X286404580Y-185030952D01*
X286342676Y-185278571D01*
X286280771Y-185402380D01*
X286156961Y-185526190D01*
X285971247Y-185588095D01*
X285661723Y-185588095D01*
D10*
D11*
X200434342Y-193785771D02*
X200434342Y-192285771D01*
X200791485Y-192285771D01*
X201005771Y-192357200D01*
X201148628Y-192500057D01*
X201220057Y-192642914D01*
X201291485Y-192928628D01*
X201291485Y-193142914D01*
X201220057Y-193428628D01*
X201148628Y-193571485D01*
X201005771Y-193714342D01*
X200791485Y-193785771D01*
X200434342Y-193785771D01*
X202577200Y-193785771D02*
X202577200Y-193000057D01*
X202505771Y-192857200D01*
X202362914Y-192785771D01*
X202077200Y-192785771D01*
X201934342Y-192857200D01*
X202577200Y-193714342D02*
X202434342Y-193785771D01*
X202077200Y-193785771D01*
X201934342Y-193714342D01*
X201862914Y-193571485D01*
X201862914Y-193428628D01*
X201934342Y-193285771D01*
X202077200Y-193214342D01*
X202434342Y-193214342D01*
X202577200Y-193142914D01*
X203077200Y-192785771D02*
X203648628Y-192785771D01*
X203291485Y-192285771D02*
X203291485Y-193571485D01*
X203362914Y-193714342D01*
X203505771Y-193785771D01*
X203648628Y-193785771D01*
X204720057Y-193714342D02*
X204577200Y-193785771D01*
X204291485Y-193785771D01*
X204148628Y-193714342D01*
X204077200Y-193571485D01*
X204077200Y-193000057D01*
X204148628Y-192857200D01*
X204291485Y-192785771D01*
X204577200Y-192785771D01*
X204720057Y-192857200D01*
X204791485Y-193000057D01*
X204791485Y-193142914D01*
X204077200Y-193285771D01*
X205434342Y-193642914D02*
X205505771Y-193714342D01*
X205434342Y-193785771D01*
X205362914Y-193714342D01*
X205434342Y-193642914D01*
X205434342Y-193785771D01*
X205434342Y-192857200D02*
X205505771Y-192928628D01*
X205434342Y-193000057D01*
X205362914Y-192928628D01*
X205434342Y-192857200D01*
X205434342Y-193000057D01*
X207220057Y-192428628D02*
X207291485Y-192357200D01*
X207434342Y-192285771D01*
X207791485Y-192285771D01*
X207934342Y-192357200D01*
X208005771Y-192428628D01*
X208077200Y-192571485D01*
X208077200Y-192714342D01*
X208005771Y-192928628D01*
X207148628Y-193785771D01*
X208077200Y-193785771D01*
X209005771Y-192285771D02*
X209148628Y-192285771D01*
X209291485Y-192357200D01*
X209362914Y-192428628D01*
X209434342Y-192571485D01*
X209505771Y-192857200D01*
X209505771Y-193214342D01*
X209434342Y-193500057D01*
X209362914Y-193642914D01*
X209291485Y-193714342D01*
X209148628Y-193785771D01*
X209005771Y-193785771D01*
X208862914Y-193714342D01*
X208791485Y-193642914D01*
X208720057Y-193500057D01*
X208648628Y-193214342D01*
X208648628Y-192857200D01*
X208720057Y-192571485D01*
X208791485Y-192428628D01*
X208862914Y-192357200D01*
X209005771Y-192285771D01*
X210077200Y-192428628D02*
X210148628Y-192357200D01*
X210291485Y-192285771D01*
X210648628Y-192285771D01*
X210791485Y-192357200D01*
X210862914Y-192428628D01*
X210934342Y-192571485D01*
X210934342Y-192714342D01*
X210862914Y-192928628D01*
X210005771Y-193785771D01*
X210934342Y-193785771D01*
X211862914Y-192285771D02*
X212005771Y-192285771D01*
X212148628Y-192357200D01*
X212220057Y-192428628D01*
X212291485Y-192571485D01*
X212362914Y-192857200D01*
X212362914Y-193214342D01*
X212291485Y-193500057D01*
X212220057Y-193642914D01*
X212148628Y-193714342D01*
X212005771Y-193785771D01*
X211862914Y-193785771D01*
X211720057Y-193714342D01*
X211648628Y-193642914D01*
X211577200Y-193500057D01*
X211505771Y-193214342D01*
X211505771Y-192857200D01*
X211577200Y-192571485D01*
X211648628Y-192428628D01*
X211720057Y-192357200D01*
X211862914Y-192285771D01*
X213005771Y-193214342D02*
X214148628Y-193214342D01*
X215148628Y-192285771D02*
X215291485Y-192285771D01*
X215434342Y-192357200D01*
X215505771Y-192428628D01*
X215577200Y-192571485D01*
X215648628Y-192857200D01*
X215648628Y-193214342D01*
X215577200Y-193500057D01*
X215505771Y-193642914D01*
X215434342Y-193714342D01*
X215291485Y-193785771D01*
X215148628Y-193785771D01*
X215005771Y-193714342D01*
X214934342Y-193642914D01*
X214862914Y-193500057D01*
X214791485Y-193214342D01*
X214791485Y-192857200D01*
X214862914Y-192571485D01*
X214934342Y-192428628D01*
X215005771Y-192357200D01*
X215148628Y-192285771D01*
X216148628Y-192285771D02*
X217077200Y-192285771D01*
X216577200Y-192857200D01*
X216791485Y-192857200D01*
X216934342Y-192928628D01*
X217005771Y-193000057D01*
X217077200Y-193142914D01*
X217077200Y-193500057D01*
X217005771Y-193642914D01*
X216934342Y-193714342D01*
X216791485Y-193785771D01*
X216362914Y-193785771D01*
X216220057Y-193714342D01*
X216148628Y-193642914D01*
X217720057Y-193214342D02*
X218862914Y-193214342D01*
X219862914Y-192285771D02*
X220005771Y-192285771D01*
X220148628Y-192357200D01*
X220220057Y-192428628D01*
X220291485Y-192571485D01*
X220362914Y-192857200D01*
X220362914Y-193214342D01*
X220291485Y-193500057D01*
X220220057Y-193642914D01*
X220148628Y-193714342D01*
X220005771Y-193785771D01*
X219862914Y-193785771D01*
X219720057Y-193714342D01*
X219648628Y-193642914D01*
X219577200Y-193500057D01*
X219505771Y-193214342D01*
X219505771Y-192857200D01*
X219577200Y-192571485D01*
X219648628Y-192428628D01*
X219720057Y-192357200D01*
X219862914Y-192285771D01*
X220934342Y-192428628D02*
X221005771Y-192357200D01*
X221148628Y-192285771D01*
X221505771Y-192285771D01*
X221648628Y-192357200D01*
X221720057Y-192428628D01*
X221791485Y-192571485D01*
X221791485Y-192714342D01*
X221720057Y-192928628D01*
X220862914Y-193785771D01*
X221791485Y-193785771D01*
D10*
D11*
X177002200Y-194507200D02*
X285002200Y-194507200D01*
D10*
D11*
X178434342Y-196585771D02*
X178434342Y-195085771D01*
X179291485Y-196585771D02*
X178648628Y-195728628D01*
X179291485Y-195085771D02*
X178434342Y-195942914D01*
X179934342Y-196585771D02*
X179934342Y-195585771D01*
X179934342Y-195085771D02*
X179862914Y-195157200D01*
X179934342Y-195228628D01*
X180005771Y-195157200D01*
X179934342Y-195085771D01*
X179934342Y-195228628D01*
X181505771Y-196442914D02*
X181434342Y-196514342D01*
X181220057Y-196585771D01*
X181077200Y-196585771D01*
X180862914Y-196514342D01*
X180720057Y-196371485D01*
X180648628Y-196228628D01*
X180577200Y-195942914D01*
X180577200Y-195728628D01*
X180648628Y-195442914D01*
X180720057Y-195300057D01*
X180862914Y-195157200D01*
X181077200Y-195085771D01*
X181220057Y-195085771D01*
X181434342Y-195157200D01*
X181505771Y-195228628D01*
X182791485Y-196585771D02*
X182791485Y-195800057D01*
X182720057Y-195657200D01*
X182577200Y-195585771D01*
X182291485Y-195585771D01*
X182148628Y-195657200D01*
X182791485Y-196514342D02*
X182648628Y-196585771D01*
X182291485Y-196585771D01*
X182148628Y-196514342D01*
X182077200Y-196371485D01*
X182077200Y-196228628D01*
X182148628Y-196085771D01*
X182291485Y-196014342D01*
X182648628Y-196014342D01*
X182791485Y-195942914D01*
X184148628Y-196585771D02*
X184148628Y-195085771D01*
X184148628Y-196514342D02*
X184005771Y-196585771D01*
X183720057Y-196585771D01*
X183577200Y-196514342D01*
X183505771Y-196442914D01*
X183434342Y-196300057D01*
X183434342Y-195871485D01*
X183505771Y-195728628D01*
X183577200Y-195657200D01*
X183720057Y-195585771D01*
X184005771Y-195585771D01*
X184148628Y-195657200D01*
X186005771Y-195800057D02*
X186505771Y-195800057D01*
X186720057Y-196585771D02*
X186005771Y-196585771D01*
X186005771Y-195085771D01*
X186720057Y-195085771D01*
X187362914Y-196442914D02*
X187434342Y-196514342D01*
X187362914Y-196585771D01*
X187291485Y-196514342D01*
X187362914Y-196442914D01*
X187362914Y-196585771D01*
X188077200Y-196585771D02*
X188077200Y-195085771D01*
X188434342Y-195085771D01*
X188648628Y-195157200D01*
X188791485Y-195300057D01*
X188862914Y-195442914D01*
X188934342Y-195728628D01*
X188934342Y-195942914D01*
X188862914Y-196228628D01*
X188791485Y-196371485D01*
X188648628Y-196514342D01*
X188434342Y-196585771D01*
X188077200Y-196585771D01*
X189577200Y-196442914D02*
X189648628Y-196514342D01*
X189577200Y-196585771D01*
X189505771Y-196514342D01*
X189577200Y-196442914D01*
X189577200Y-196585771D01*
X190220057Y-196157200D02*
X190934342Y-196157200D01*
X190077200Y-196585771D02*
X190577200Y-195085771D01*
X191077200Y-196585771D01*
X191577200Y-196442914D02*
X191648628Y-196514342D01*
X191577200Y-196585771D01*
X191505771Y-196514342D01*
X191577200Y-196442914D01*
X191577200Y-196585771D01*
X194577200Y-196585771D02*
X194577200Y-195085771D01*
X194720057Y-196014342D02*
X195148628Y-196585771D01*
X195148628Y-195585771D02*
X194577200Y-196157200D01*
X195791485Y-196585771D02*
X195791485Y-195585771D01*
X195791485Y-195085771D02*
X195720057Y-195157200D01*
X195791485Y-195228628D01*
X195862914Y-195157200D01*
X195791485Y-195085771D01*
X195791485Y-195228628D01*
X197148628Y-196514342D02*
X197005771Y-196585771D01*
X196720057Y-196585771D01*
X196577200Y-196514342D01*
X196505771Y-196442914D01*
X196434342Y-196300057D01*
X196434342Y-195871485D01*
X196505771Y-195728628D01*
X196577200Y-195657200D01*
X196720057Y-195585771D01*
X197005771Y-195585771D01*
X197148628Y-195657200D01*
X198434342Y-196585771D02*
X198434342Y-195800057D01*
X198362914Y-195657200D01*
X198220057Y-195585771D01*
X197934342Y-195585771D01*
X197791485Y-195657200D01*
X198434342Y-196514342D02*
X198291485Y-196585771D01*
X197934342Y-196585771D01*
X197791485Y-196514342D01*
X197720057Y-196371485D01*
X197720057Y-196228628D01*
X197791485Y-196085771D01*
X197934342Y-196014342D01*
X198291485Y-196014342D01*
X198434342Y-195942914D01*
X199791485Y-196585771D02*
X199791485Y-195085771D01*
X199791485Y-196514342D02*
X199648628Y-196585771D01*
X199362914Y-196585771D01*
X199220057Y-196514342D01*
X199148628Y-196442914D01*
X199077200Y-196300057D01*
X199077200Y-195871485D01*
X199148628Y-195728628D01*
X199220057Y-195657200D01*
X199362914Y-195585771D01*
X199648628Y-195585771D01*
X199791485Y-195657200D01*
X202362914Y-195085771D02*
X201648628Y-195085771D01*
X201577200Y-195800057D01*
X201648628Y-195728628D01*
X201791485Y-195657200D01*
X202148628Y-195657200D01*
X202291485Y-195728628D01*
X202362914Y-195800057D01*
X202434342Y-195942914D01*
X202434342Y-196300057D01*
X202362914Y-196442914D01*
X202291485Y-196514342D01*
X202148628Y-196585771D01*
X201791485Y-196585771D01*
X201648628Y-196514342D01*
X201577200Y-196442914D01*
X203077200Y-196442914D02*
X203148628Y-196514342D01*
X203077200Y-196585771D01*
X203005771Y-196514342D01*
X203077200Y-196442914D01*
X203077200Y-196585771D01*
X204577200Y-196585771D02*
X203720057Y-196585771D01*
X204148628Y-196585771D02*
X204148628Y-195085771D01*
X204005771Y-195300057D01*
X203862914Y-195442914D01*
X203720057Y-195514342D01*
X205220057Y-196442914D02*
X205291485Y-196514342D01*
X205220057Y-196585771D01*
X205148628Y-196514342D01*
X205220057Y-196442914D01*
X205220057Y-196585771D01*
X206648628Y-195085771D02*
X205934342Y-195085771D01*
X205862914Y-195800057D01*
X205934342Y-195728628D01*
X206077200Y-195657200D01*
X206434342Y-195657200D01*
X206577200Y-195728628D01*
X206648628Y-195800057D01*
X206720057Y-195942914D01*
X206720057Y-196300057D01*
X206648628Y-196442914D01*
X206577200Y-196514342D01*
X206434342Y-196585771D01*
X206077200Y-196585771D01*
X205934342Y-196514342D01*
X205862914Y-196442914D01*
X207362914Y-196014342D02*
X208505771Y-196014342D01*
X209934342Y-195085771D02*
X209220057Y-195085771D01*
X209148628Y-195800057D01*
X209220057Y-195728628D01*
X209362914Y-195657200D01*
X209720057Y-195657200D01*
X209862914Y-195728628D01*
X209934342Y-195800057D01*
X210005771Y-195942914D01*
X210005771Y-196300057D01*
X209934342Y-196442914D01*
X209862914Y-196514342D01*
X209720057Y-196585771D01*
X209362914Y-196585771D01*
X209220057Y-196514342D01*
X209148628Y-196442914D01*
X210577200Y-195228628D02*
X210648628Y-195157200D01*
X210791485Y-195085771D01*
X211148628Y-195085771D01*
X211291485Y-195157200D01*
X211362914Y-195228628D01*
X211434342Y-195371485D01*
X211434342Y-195514342D01*
X211362914Y-195728628D01*
X210505771Y-196585771D01*
X211434342Y-196585771D01*
X212791485Y-195085771D02*
X212077200Y-195085771D01*
X212005771Y-195800057D01*
X212077200Y-195728628D01*
X212220057Y-195657200D01*
X212577200Y-195657200D01*
X212720057Y-195728628D01*
X212791485Y-195800057D01*
X212862914Y-195942914D01*
X212862914Y-196300057D01*
X212791485Y-196442914D01*
X212720057Y-196514342D01*
X212577200Y-196585771D01*
X212220057Y-196585771D01*
X212077200Y-196514342D01*
X212005771Y-196442914D01*
X214148628Y-195585771D02*
X214148628Y-196585771D01*
X213791485Y-195014342D02*
X213434342Y-196085771D01*
X214362914Y-196085771D01*
X215005771Y-196585771D02*
X215291485Y-196585771D01*
X215434342Y-196514342D01*
X215505771Y-196442914D01*
X215648628Y-196228628D01*
X215720057Y-195942914D01*
X215720057Y-195371485D01*
X215648628Y-195228628D01*
X215577200Y-195157200D01*
X215434342Y-195085771D01*
X215148628Y-195085771D01*
X215005771Y-195157200D01*
X214934342Y-195228628D01*
X214862914Y-195371485D01*
X214862914Y-195728628D01*
X214934342Y-195871485D01*
X215005771Y-195942914D01*
X215148628Y-196014342D01*
X215434342Y-196014342D01*
X215577200Y-195942914D01*
X215648628Y-195871485D01*
X215720057Y-195728628D01*
X217005771Y-196514342D02*
X216862914Y-196585771D01*
X216577200Y-196585771D01*
X216434342Y-196514342D01*
X216362914Y-196442914D01*
X216291485Y-196300057D01*
X216291485Y-195871485D01*
X216362914Y-195728628D01*
X216434342Y-195657200D01*
X216577200Y-195585771D01*
X216862914Y-195585771D01*
X217005771Y-195657200D01*
X218362914Y-195085771D02*
X217648628Y-195085771D01*
X217577200Y-195800057D01*
X217648628Y-195728628D01*
X217791485Y-195657200D01*
X218148628Y-195657200D01*
X218291485Y-195728628D01*
X218362914Y-195800057D01*
X218434342Y-195942914D01*
X218434342Y-196300057D01*
X218362914Y-196442914D01*
X218291485Y-196514342D01*
X218148628Y-196585771D01*
X217791485Y-196585771D01*
X217648628Y-196514342D01*
X217577200Y-196442914D01*
X218720057Y-194677200D02*
X220148628Y-194677200D01*
X219291485Y-195728628D02*
X219148628Y-195657200D01*
X219077200Y-195585771D01*
X219005771Y-195442914D01*
X219005771Y-195371485D01*
X219077200Y-195228628D01*
X219148628Y-195157200D01*
X219291485Y-195085771D01*
X219577200Y-195085771D01*
X219720057Y-195157200D01*
X219791485Y-195228628D01*
X219862914Y-195371485D01*
X219862914Y-195442914D01*
X219791485Y-195585771D01*
X219720057Y-195657200D01*
X219577200Y-195728628D01*
X219291485Y-195728628D01*
X219148628Y-195800057D01*
X219077200Y-195871485D01*
X219005771Y-196014342D01*
X219005771Y-196300057D01*
X219077200Y-196442914D01*
X219148628Y-196514342D01*
X219291485Y-196585771D01*
X219577200Y-196585771D01*
X219720057Y-196514342D01*
X219791485Y-196442914D01*
X219862914Y-196300057D01*
X219862914Y-196014342D01*
X219791485Y-195871485D01*
X219720057Y-195800057D01*
X219577200Y-195728628D01*
X220148628Y-194677200D02*
X221577199Y-194677200D01*
X221148628Y-195585771D02*
X221148628Y-196585771D01*
X220791485Y-195014342D02*
X220434342Y-196085771D01*
X221362914Y-196085771D01*
X222577199Y-195585771D02*
X222577199Y-196585771D01*
X221934342Y-195585771D02*
X221934342Y-196371485D01*
X222005771Y-196514342D01*
X222148628Y-196585771D01*
X222362914Y-196585771D01*
X222505771Y-196514342D01*
X222577199Y-196442914D01*
X223291485Y-196585771D02*
X223291485Y-195085771D01*
X223291485Y-195657200D02*
X223434342Y-195585771D01*
X223720057Y-195585771D01*
X223862914Y-195657200D01*
X223934342Y-195728628D01*
X224005771Y-195871485D01*
X224005771Y-196300057D01*
X223934342Y-196442914D01*
X223862914Y-196514342D01*
X223720057Y-196585771D01*
X223434342Y-196585771D01*
X223291485Y-196514342D01*
X225291485Y-195585771D02*
X225291485Y-196585771D01*
X224648628Y-195585771D02*
X224648628Y-196371485D01*
X224720057Y-196514342D01*
X224862914Y-196585771D01*
X225077199Y-196585771D01*
X225220057Y-196514342D01*
X225291485Y-196442914D01*
X226005771Y-195585771D02*
X226005771Y-196585771D01*
X226005771Y-195728628D02*
X226077199Y-195657200D01*
X226220057Y-195585771D01*
X226434342Y-195585771D01*
X226577199Y-195657200D01*
X226648628Y-195800057D01*
X226648628Y-196585771D01*
X227148628Y-195585771D02*
X227720057Y-195585771D01*
X227362914Y-195085771D02*
X227362914Y-196371485D01*
X227434342Y-196514342D01*
X227577200Y-196585771D01*
X227720057Y-196585771D01*
X228862914Y-195585771D02*
X228862914Y-196585771D01*
X228220057Y-195585771D02*
X228220057Y-196371485D01*
X228291485Y-196514342D01*
X228434342Y-196585771D01*
X228648628Y-196585771D01*
X228791485Y-196514342D01*
X228862914Y-196442914D01*
X230362914Y-196585771D02*
X229505771Y-196585771D01*
X229934342Y-196585771D02*
X229934342Y-195085771D01*
X229791485Y-195300057D01*
X229648628Y-195442914D01*
X229505771Y-195514342D01*
X231648628Y-195085771D02*
X231362914Y-195085771D01*
X231220057Y-195157200D01*
X231148628Y-195228628D01*
X231005771Y-195442914D01*
X230934342Y-195728628D01*
X230934342Y-196300057D01*
X231005771Y-196442914D01*
X231077199Y-196514342D01*
X231220057Y-196585771D01*
X231505771Y-196585771D01*
X231648628Y-196514342D01*
X231720057Y-196442914D01*
X231791485Y-196300057D01*
X231791485Y-195942914D01*
X231720057Y-195800057D01*
X231648628Y-195728628D01*
X231505771Y-195657200D01*
X231220057Y-195657200D01*
X231077199Y-195728628D01*
X231005771Y-195800057D01*
X230934342Y-195942914D01*
X232434342Y-196442914D02*
X232505771Y-196514342D01*
X232434342Y-196585771D01*
X232362914Y-196514342D01*
X232434342Y-196442914D01*
X232434342Y-196585771D01*
X233434342Y-195085771D02*
X233577199Y-195085771D01*
X233720057Y-195157200D01*
X233791485Y-195228628D01*
X233862914Y-195371485D01*
X233934342Y-195657200D01*
X233934342Y-196014342D01*
X233862914Y-196300057D01*
X233791485Y-196442914D01*
X233720057Y-196514342D01*
X233577199Y-196585771D01*
X233434342Y-196585771D01*
X233291485Y-196514342D01*
X233220057Y-196442914D01*
X233148628Y-196300057D01*
X233077199Y-196014342D01*
X233077199Y-195657200D01*
X233148628Y-195371485D01*
X233220057Y-195228628D01*
X233291485Y-195157200D01*
X233434342Y-195085771D01*
X235220057Y-195585771D02*
X235220057Y-196585771D01*
X234862914Y-195014342D02*
X234505771Y-196085771D01*
X235434342Y-196085771D01*
X236005771Y-196442914D02*
X236077199Y-196514342D01*
X236005771Y-196585771D01*
X235934342Y-196514342D01*
X236005771Y-196442914D01*
X236005771Y-196585771D01*
X237505771Y-196585771D02*
X236648628Y-196585771D01*
X237077199Y-196585771D02*
X237077199Y-195085771D01*
X236934342Y-195300057D01*
X236791485Y-195442914D01*
X236648628Y-195514342D01*
D10*
D11*
X177002200Y-191507200D02*
X285002200Y-191507200D01*
D10*
D12*
X264411485Y-193785771D02*
X263911485Y-193071485D01*
X263554342Y-193785771D02*
X263554342Y-192285771D01*
X264125771Y-192285771D01*
X264268628Y-192357200D01*
X264340057Y-192428628D01*
X264411485Y-192571485D01*
X264411485Y-192785771D01*
X264340057Y-192928628D01*
X264268628Y-193000057D01*
X264125771Y-193071485D01*
X263554342Y-193071485D01*
X265625771Y-193714342D02*
X265482914Y-193785771D01*
X265197200Y-193785771D01*
X265054342Y-193714342D01*
X264982914Y-193571485D01*
X264982914Y-193000057D01*
X265054342Y-192857200D01*
X265197200Y-192785771D01*
X265482914Y-192785771D01*
X265625771Y-192857200D01*
X265697200Y-193000057D01*
X265697200Y-193142914D01*
X264982914Y-193285771D01*
X266197200Y-192785771D02*
X266554342Y-193785771D01*
X266911485Y-192785771D01*
X267482914Y-193642914D02*
X267554342Y-193714342D01*
X267482914Y-193785771D01*
X267411485Y-193714342D01*
X267482914Y-193642914D01*
X267482914Y-193785771D01*
X267482914Y-192857200D02*
X267554342Y-192928628D01*
X267482914Y-193000057D01*
X267411485Y-192928628D01*
X267482914Y-192857200D01*
X267482914Y-193000057D01*
X270125771Y-193785771D02*
X269268628Y-193785771D01*
X269697200Y-193785771D02*
X269697200Y-192285771D01*
X269554342Y-192500057D01*
X269411485Y-192642914D01*
X269268628Y-192714342D01*
D10*
D11*
X178362914Y-193714342D02*
X178577200Y-193785771D01*
X178934342Y-193785771D01*
X179077200Y-193714342D01*
X179148628Y-193642914D01*
X179220057Y-193500057D01*
X179220057Y-193357200D01*
X179148628Y-193214342D01*
X179077200Y-193142914D01*
X178934342Y-193071485D01*
X178648628Y-193000057D01*
X178505771Y-192928628D01*
X178434342Y-192857200D01*
X178362914Y-192714342D01*
X178362914Y-192571485D01*
X178434342Y-192428628D01*
X178505771Y-192357200D01*
X178648628Y-192285771D01*
X179005771Y-192285771D01*
X179220057Y-192357200D01*
X179862914Y-193785771D02*
X179862914Y-192785771D01*
X179862914Y-192285771D02*
X179791485Y-192357200D01*
X179862914Y-192428628D01*
X179934342Y-192357200D01*
X179862914Y-192285771D01*
X179862914Y-192428628D01*
X180434342Y-192785771D02*
X181220057Y-192785771D01*
X180434342Y-193785771D01*
X181220057Y-193785771D01*
X182362914Y-193714342D02*
X182220057Y-193785771D01*
X181934342Y-193785771D01*
X181791485Y-193714342D01*
X181720057Y-193571485D01*
X181720057Y-193000057D01*
X181791485Y-192857200D01*
X181934342Y-192785771D01*
X182220057Y-192785771D01*
X182362914Y-192857200D01*
X182434342Y-193000057D01*
X182434342Y-193142914D01*
X181720057Y-193285771D01*
X183077200Y-193642914D02*
X183148628Y-193714342D01*
X183077200Y-193785771D01*
X183005771Y-193714342D01*
X183077200Y-193642914D01*
X183077200Y-193785771D01*
X183077200Y-192857200D02*
X183148628Y-192928628D01*
X183077200Y-193000057D01*
X183005771Y-192928628D01*
X183077200Y-192857200D01*
X183077200Y-193000057D01*
X184862914Y-193357200D02*
X185577200Y-193357200D01*
X184720057Y-193785771D02*
X185220057Y-192285771D01*
X185720057Y-193785771D01*
X186862914Y-192785771D02*
X186862914Y-193785771D01*
X186505771Y-192214342D02*
X186148628Y-193285771D01*
X187077200Y-193285771D01*
D10*
D11*
X263434342Y-196585771D02*
X263434342Y-195085771D01*
X264791485Y-196585771D02*
X264791485Y-195085771D01*
X264791485Y-196514342D02*
X264648628Y-196585771D01*
X264362914Y-196585771D01*
X264220057Y-196514342D01*
X264148628Y-196442914D01*
X264077200Y-196300057D01*
X264077200Y-195871485D01*
X264148628Y-195728628D01*
X264220057Y-195657200D01*
X264362914Y-195585771D01*
X264648628Y-195585771D01*
X264791485Y-195657200D01*
X265505771Y-196442914D02*
X265577200Y-196514342D01*
X265505771Y-196585771D01*
X265434342Y-196514342D01*
X265505771Y-196442914D01*
X265505771Y-196585771D01*
X265505771Y-195657200D02*
X265577200Y-195728628D01*
X265505771Y-195800057D01*
X265434342Y-195728628D01*
X265505771Y-195657200D01*
X265505771Y-195800057D01*
X268148628Y-196585771D02*
X267291485Y-196585771D01*
X267720057Y-196585771D02*
X267720057Y-195085771D01*
X267577200Y-195300057D01*
X267434342Y-195442914D01*
X267291485Y-195514342D01*
X269862914Y-195014342D02*
X268577200Y-196942914D01*
X271148628Y-196585771D02*
X270291485Y-196585771D01*
X270720057Y-196585771D02*
X270720057Y-195085771D01*
X270577200Y-195300057D01*
X270434342Y-195442914D01*
X270291485Y-195514342D01*
D10*
D11*
X177002200Y-187507200D02*
X285002200Y-187507200D01*
D10*
D13*
X178714580Y-188211961D02*
X179857438Y-188211961D01*
X179036009Y-190211961D02*
X179286009Y-188211961D01*
X180274104Y-190211961D02*
X180440771Y-188878628D01*
X180524104Y-188211961D02*
X180416961Y-188307200D01*
X180500295Y-188402438D01*
X180607438Y-188307200D01*
X180524104Y-188211961D01*
X180500295Y-188402438D01*
X181107438Y-188878628D02*
X181869342Y-188878628D01*
X181476485Y-188211961D02*
X181262200Y-189926247D01*
X181333628Y-190116723D01*
X181512200Y-190211961D01*
X181702676Y-190211961D01*
X182655057Y-190211961D02*
X182476485Y-190116723D01*
X182405057Y-189926247D01*
X182619342Y-188211961D01*
X184190771Y-190116723D02*
X183988390Y-190211961D01*
X183607438Y-190211961D01*
X183428866Y-190116723D01*
X183357438Y-189926247D01*
X183452676Y-189164342D01*
X183571723Y-188973866D01*
X183774104Y-188878628D01*
X184155057Y-188878628D01*
X184333628Y-188973866D01*
X184405057Y-189164342D01*
X184381247Y-189354819D01*
X183405057Y-189545295D01*
X185155057Y-190021485D02*
X185238390Y-190116723D01*
X185131247Y-190211961D01*
X185047914Y-190116723D01*
X185155057Y-190021485D01*
X185131247Y-190211961D01*
X185286009Y-188973866D02*
X185369342Y-189069104D01*
X185262200Y-189164342D01*
X185178866Y-189069104D01*
X185286009Y-188973866D01*
X185262200Y-189164342D01*
X187666961Y-188211961D02*
X189000295Y-188211961D01*
X187416961Y-190211961D01*
X188750295Y-190211961D01*
X189571723Y-188211961D02*
X190655057Y-190211961D01*
X190905057Y-188211961D02*
X189321723Y-190211961D01*
X192583628Y-190021485D02*
X192476485Y-190116723D01*
X192178866Y-190211961D01*
X191988390Y-190211961D01*
X191714580Y-190116723D01*
X191547914Y-189926247D01*
X191476485Y-189735771D01*
X191428866Y-189354819D01*
X191464580Y-189069104D01*
X191607438Y-188688152D01*
X191726485Y-188497676D01*
X191940771Y-188307200D01*
X192238390Y-188211961D01*
X192428866Y-188211961D01*
X192702676Y-188307200D01*
X192786009Y-188402438D01*
X193381247Y-188211961D02*
X194524104Y-188211961D01*
X193702676Y-190211961D02*
X193952676Y-188211961D01*
X195988390Y-190211961D02*
X194845533Y-190211961D01*
X195416961Y-190211961D02*
X195666961Y-188211961D01*
X195440771Y-188497676D01*
X195226485Y-188688152D01*
X195024104Y-188783390D01*
X197476485Y-188211961D02*
X197666961Y-188211961D01*
X197845533Y-188307200D01*
X197928866Y-188402438D01*
X198000295Y-188592914D01*
X198047914Y-188973866D01*
X197988390Y-189450057D01*
X197845533Y-189831009D01*
X197726485Y-190021485D01*
X197619342Y-190116723D01*
X197416961Y-190211961D01*
X197226485Y-190211961D01*
X197047914Y-190116723D01*
X196964580Y-190021485D01*
X196893152Y-189831009D01*
X196845533Y-189450057D01*
X196905057Y-188973866D01*
X197047914Y-188592914D01*
X197166961Y-188402438D01*
X197274104Y-188307200D01*
X197476485Y-188211961D01*
X199178866Y-189069104D02*
X199000295Y-188973866D01*
X198916961Y-188878628D01*
X198845533Y-188688152D01*
X198857438Y-188592914D01*
X198976485Y-188402438D01*
X199083628Y-188307200D01*
X199286009Y-188211961D01*
X199666961Y-188211961D01*
X199845533Y-188307200D01*
X199928866Y-188402438D01*
X200000295Y-188592914D01*
X199988390Y-188688152D01*
X199869342Y-188878628D01*
X199762200Y-188973866D01*
X199559819Y-189069104D01*
X199178866Y-189069104D01*
X198976485Y-189164342D01*
X198869342Y-189259580D01*
X198750295Y-189450057D01*
X198702676Y-189831009D01*
X198774104Y-190021485D01*
X198857438Y-190116723D01*
X199036009Y-190211961D01*
X199416961Y-190211961D01*
X199619342Y-190116723D01*
X199726485Y-190021485D01*
X199845533Y-189831009D01*
X199893152Y-189450057D01*
X199821723Y-189259580D01*
X199738390Y-189164342D01*
X199559819Y-189069104D01*
X201286009Y-188211961D02*
X201476485Y-188211961D01*
X201655057Y-188307200D01*
X201738390Y-188402438D01*
X201809819Y-188592914D01*
X201857438Y-188973866D01*
X201797914Y-189450057D01*
X201655057Y-189831009D01*
X201536009Y-190021485D01*
X201428866Y-190116723D01*
X201226485Y-190211961D01*
X201036009Y-190211961D01*
X200857438Y-190116723D01*
X200774104Y-190021485D01*
X200702676Y-189831009D01*
X200655057Y-189450057D01*
X200714580Y-188973866D01*
X200857438Y-188592914D01*
X200976485Y-188402438D01*
X201083628Y-188307200D01*
X201286009Y-188211961D01*
X204059819Y-188878628D02*
X204369342Y-190211961D01*
X205012200Y-188878628D01*
X205893152Y-190211961D02*
X205714580Y-190116723D01*
X205631247Y-190021485D01*
X205559819Y-189831009D01*
X205631247Y-189259580D01*
X205750295Y-189069104D01*
X205857438Y-188973866D01*
X206059819Y-188878628D01*
X206345533Y-188878628D01*
X206524104Y-188973866D01*
X206607438Y-189069104D01*
X206678866Y-189259580D01*
X206607438Y-189831009D01*
X206488390Y-190021485D01*
X206381247Y-190116723D01*
X206178866Y-190211961D01*
X205893152Y-190211961D01*
X207702676Y-190211961D02*
X207524104Y-190116723D01*
X207452676Y-189926247D01*
X207666961Y-188211961D01*
X208345533Y-188878628D02*
X209107438Y-188878628D01*
X208714580Y-188211961D02*
X208500295Y-189926247D01*
X208571723Y-190116723D01*
X208750295Y-190211961D01*
X208940771Y-190211961D01*
X210464580Y-190211961D02*
X210595533Y-189164342D01*
X210524104Y-188973866D01*
X210345533Y-188878628D01*
X209964580Y-188878628D01*
X209762200Y-188973866D01*
X210476485Y-190116723D02*
X210274104Y-190211961D01*
X209797914Y-190211961D01*
X209619342Y-190116723D01*
X209547914Y-189926247D01*
X209571723Y-189735771D01*
X209690771Y-189545295D01*
X209893152Y-189450057D01*
X210369342Y-189450057D01*
X210571723Y-189354819D01*
X212440771Y-188878628D02*
X212238390Y-190497676D01*
X212119342Y-190688152D01*
X212012200Y-190783390D01*
X211809819Y-190878628D01*
X211524104Y-190878628D01*
X211345533Y-190783390D01*
X212286009Y-190116723D02*
X212083628Y-190211961D01*
X211702676Y-190211961D01*
X211524104Y-190116723D01*
X211440771Y-190021485D01*
X211369342Y-189831009D01*
X211440771Y-189259580D01*
X211559819Y-189069104D01*
X211666961Y-188973866D01*
X211869342Y-188878628D01*
X212250295Y-188878628D01*
X212428866Y-188973866D01*
X214000295Y-190116723D02*
X213797914Y-190211961D01*
X213416961Y-190211961D01*
X213238390Y-190116723D01*
X213166961Y-189926247D01*
X213262200Y-189164342D01*
X213381247Y-188973866D01*
X213583628Y-188878628D01*
X213964580Y-188878628D01*
X214143152Y-188973866D01*
X214214580Y-189164342D01*
X214190771Y-189354819D01*
X213214580Y-189545295D01*
X216750295Y-190211961D02*
X216571723Y-190116723D01*
X216488390Y-190021485D01*
X216416961Y-189831009D01*
X216488390Y-189259580D01*
X216607438Y-189069104D01*
X216714580Y-188973866D01*
X216916961Y-188878628D01*
X217202676Y-188878628D01*
X217381247Y-188973866D01*
X217464580Y-189069104D01*
X217536009Y-189259580D01*
X217464580Y-189831009D01*
X217345533Y-190021485D01*
X217238390Y-190116723D01*
X217036009Y-190211961D01*
X216750295Y-190211961D01*
X219297914Y-188878628D02*
X219131247Y-190211961D01*
X218440771Y-188878628D02*
X218309819Y-189926247D01*
X218381247Y-190116723D01*
X218559819Y-190211961D01*
X218845533Y-190211961D01*
X219047914Y-190116723D01*
X219155057Y-190021485D01*
X219964580Y-188878628D02*
X220726485Y-188878628D01*
X220333628Y-188211961D02*
X220119342Y-189926247D01*
X220190771Y-190116723D01*
X220369342Y-190211961D01*
X220559819Y-190211961D01*
X221393152Y-188878628D02*
X221143152Y-190878628D01*
X221381247Y-188973866D02*
X221583628Y-188878628D01*
X221964580Y-188878628D01*
X222143152Y-188973866D01*
X222226485Y-189069104D01*
X222297914Y-189259580D01*
X222226485Y-189831009D01*
X222107438Y-190021485D01*
X222000295Y-190116723D01*
X221797914Y-190211961D01*
X221416961Y-190211961D01*
X221238390Y-190116723D01*
X224059819Y-188878628D02*
X223893152Y-190211961D01*
X223202676Y-188878628D02*
X223071723Y-189926247D01*
X223143152Y-190116723D01*
X223321723Y-190211961D01*
X223607438Y-190211961D01*
X223809819Y-190116723D01*
X223916961Y-190021485D01*
X224726485Y-188878628D02*
X225488390Y-188878628D01*
X225095533Y-188211961D02*
X224881247Y-189926247D01*
X224952676Y-190116723D01*
X225131247Y-190211961D01*
X225321723Y-190211961D01*
X228381247Y-190116723D02*
X228178866Y-190211961D01*
X227797914Y-190211961D01*
X227619342Y-190116723D01*
X227536009Y-190021485D01*
X227464580Y-189831009D01*
X227536009Y-189259580D01*
X227655057Y-189069104D01*
X227762199Y-188973866D01*
X227964580Y-188878628D01*
X228345533Y-188878628D01*
X228524104Y-188973866D01*
X230250295Y-188878628D02*
X230083628Y-190211961D01*
X229393152Y-188878628D02*
X229262199Y-189926247D01*
X229333628Y-190116723D01*
X229512199Y-190211961D01*
X229797914Y-190211961D01*
X230000295Y-190116723D01*
X230107438Y-190021485D01*
X231036009Y-190211961D02*
X231202676Y-188878628D01*
X231155057Y-189259580D02*
X231274104Y-189069104D01*
X231381247Y-188973866D01*
X231583628Y-188878628D01*
X231774104Y-188878628D01*
X232274104Y-190211961D02*
X232440771Y-188878628D01*
X232393152Y-189259580D02*
X232512199Y-189069104D01*
X232619342Y-188973866D01*
X232821723Y-188878628D01*
X233012199Y-188878628D01*
X234286009Y-190116723D02*
X234083628Y-190211961D01*
X233702676Y-190211961D01*
X233524104Y-190116723D01*
X233452676Y-189926247D01*
X233547914Y-189164342D01*
X233666961Y-188973866D01*
X233869342Y-188878628D01*
X234250295Y-188878628D01*
X234428866Y-188973866D01*
X234500295Y-189164342D01*
X234476485Y-189354819D01*
X233500295Y-189545295D01*
X235393152Y-188878628D02*
X235226485Y-190211961D01*
X235369342Y-189069104D02*
X235476485Y-188973866D01*
X235678866Y-188878628D01*
X235964580Y-188878628D01*
X236143152Y-188973866D01*
X236214580Y-189164342D01*
X236083628Y-190211961D01*
X236916961Y-188878628D02*
X237678866Y-188878628D01*
X237286009Y-188211961D02*
X237071723Y-189926247D01*
X237143152Y-190116723D01*
X237321723Y-190211961D01*
X237512199Y-190211961D01*
X239702676Y-190211961D02*
X239869342Y-188878628D01*
X239845533Y-189069104D02*
X239952676Y-188973866D01*
X240155057Y-188878628D01*
X240440771Y-188878628D01*
X240619342Y-188973866D01*
X240690771Y-189164342D01*
X240559819Y-190211961D01*
X240690771Y-189164342D02*
X240809819Y-188973866D01*
X241012199Y-188878628D01*
X241297914Y-188878628D01*
X241476485Y-188973866D01*
X241547914Y-189164342D01*
X241416961Y-190211961D01*
X242655057Y-190211961D02*
X242476485Y-190116723D01*
X242393152Y-190021485D01*
X242321723Y-189831009D01*
X242393152Y-189259580D01*
X242512199Y-189069104D01*
X242619342Y-188973866D01*
X242821723Y-188878628D01*
X243107438Y-188878628D01*
X243286009Y-188973866D01*
X243369342Y-189069104D01*
X243440771Y-189259580D01*
X243369342Y-189831009D01*
X243250295Y-190021485D01*
X243143152Y-190116723D01*
X242940771Y-190211961D01*
X242655057Y-190211961D01*
X244345533Y-188878628D02*
X244178866Y-190211961D01*
X244321723Y-189069104D02*
X244428866Y-188973866D01*
X244631247Y-188878628D01*
X244916961Y-188878628D01*
X245095533Y-188973866D01*
X245166961Y-189164342D01*
X245036009Y-190211961D01*
X245988390Y-190211961D02*
X246155057Y-188878628D01*
X246238390Y-188211961D02*
X246131247Y-188307200D01*
X246214580Y-188402438D01*
X246321723Y-188307200D01*
X246238390Y-188211961D01*
X246214580Y-188402438D01*
X246821723Y-188878628D02*
X247583628Y-188878628D01*
X247190771Y-188211961D02*
X246976485Y-189926247D01*
X247047914Y-190116723D01*
X247226485Y-190211961D01*
X247416961Y-190211961D01*
X248369342Y-190211961D02*
X248190771Y-190116723D01*
X248107438Y-190021485D01*
X248036009Y-189831009D01*
X248107438Y-189259580D01*
X248226485Y-189069104D01*
X248333628Y-188973866D01*
X248536009Y-188878628D01*
X248821723Y-188878628D01*
X249000295Y-188973866D01*
X249083628Y-189069104D01*
X249155057Y-189259580D01*
X249083628Y-189831009D01*
X248964580Y-190021485D01*
X248857438Y-190116723D01*
X248655057Y-190211961D01*
X248369342Y-190211961D01*
X249893152Y-190211961D02*
X250059819Y-188878628D01*
X250012199Y-189259580D02*
X250131247Y-189069104D01*
X250238390Y-188973866D01*
X250440771Y-188878628D01*
X250631247Y-188878628D01*
D10*
D11*
X178934342Y-185600057D02*
X178434342Y-185600057D01*
X178434342Y-186385771D02*
X178434342Y-184885771D01*
X179148628Y-184885771D01*
X179720057Y-186385771D02*
X179720057Y-185385771D01*
X179720057Y-184885771D02*
X179648628Y-184957200D01*
X179720057Y-185028628D01*
X179791485Y-184957200D01*
X179720057Y-184885771D01*
X179720057Y-185028628D01*
X180648628Y-186385771D02*
X180505771Y-186314342D01*
X180434342Y-186171485D01*
X180434342Y-184885771D01*
X181791485Y-186314342D02*
X181648628Y-186385771D01*
X181362914Y-186385771D01*
X181220057Y-186314342D01*
X181148628Y-186171485D01*
X181148628Y-185600057D01*
X181220057Y-185457200D01*
X181362914Y-185385771D01*
X181648628Y-185385771D01*
X181791485Y-185457200D01*
X181862914Y-185600057D01*
X181862914Y-185742914D01*
X181148628Y-185885771D01*
X182505771Y-186242914D02*
X182577200Y-186314342D01*
X182505771Y-186385771D01*
X182434342Y-186314342D01*
X182505771Y-186242914D01*
X182505771Y-186385771D01*
X182505771Y-185457200D02*
X182577200Y-185528628D01*
X182505771Y-185600057D01*
X182434342Y-185528628D01*
X182505771Y-185457200D01*
X182505771Y-185600057D01*
X184291485Y-185957200D02*
X185005771Y-185957200D01*
X184148628Y-186385771D02*
X184648628Y-184885771D01*
X185148628Y-186385771D01*
X185648628Y-185600057D02*
X186148628Y-185600057D01*
X186362914Y-186385771D02*
X185648628Y-186385771D01*
X185648628Y-184885771D01*
X186362914Y-184885771D01*
X187291485Y-184885771D02*
X187434342Y-184885771D01*
X187577200Y-184957200D01*
X187648628Y-185028628D01*
X187720057Y-185171485D01*
X187791485Y-185457200D01*
X187791485Y-185814342D01*
X187720057Y-186100057D01*
X187648628Y-186242914D01*
X187577200Y-186314342D01*
X187434342Y-186385771D01*
X187291485Y-186385771D01*
X187148628Y-186314342D01*
X187077200Y-186242914D01*
X187005771Y-186100057D01*
X186934342Y-185814342D01*
X186934342Y-185457200D01*
X187005771Y-185171485D01*
X187077200Y-185028628D01*
X187148628Y-184957200D01*
X187291485Y-184885771D01*
X189220057Y-186385771D02*
X188362914Y-186385771D01*
X188791485Y-186385771D02*
X188791485Y-184885771D01*
X188648628Y-185100057D01*
X188505771Y-185242914D01*
X188362914Y-185314342D01*
X189862914Y-186242914D02*
X189934342Y-186314342D01*
X189862914Y-186385771D01*
X189791485Y-186314342D01*
X189862914Y-186242914D01*
X189862914Y-186385771D01*
X190862914Y-184885771D02*
X191005771Y-184885771D01*
X191148628Y-184957200D01*
X191220057Y-185028628D01*
X191291485Y-185171485D01*
X191362914Y-185457200D01*
X191362914Y-185814342D01*
X191291485Y-186100057D01*
X191220057Y-186242914D01*
X191148628Y-186314342D01*
X191005771Y-186385771D01*
X190862914Y-186385771D01*
X190720057Y-186314342D01*
X190648628Y-186242914D01*
X190577200Y-186100057D01*
X190505771Y-185814342D01*
X190505771Y-185457200D01*
X190577200Y-185171485D01*
X190648628Y-185028628D01*
X190720057Y-184957200D01*
X190862914Y-184885771D01*
X192791485Y-186385771D02*
X191934342Y-186385771D01*
X192362914Y-186385771D02*
X192362914Y-184885771D01*
X192220057Y-185100057D01*
X192077200Y-185242914D01*
X191934342Y-185314342D01*
X193434342Y-186242914D02*
X193505771Y-186314342D01*
X193434342Y-186385771D01*
X193362914Y-186314342D01*
X193434342Y-186242914D01*
X193434342Y-186385771D01*
X194434342Y-184885771D02*
X194577200Y-184885771D01*
X194720057Y-184957200D01*
X194791485Y-185028628D01*
X194862914Y-185171485D01*
X194934342Y-185457200D01*
X194934342Y-185814342D01*
X194862914Y-186100057D01*
X194791485Y-186242914D01*
X194720057Y-186314342D01*
X194577200Y-186385771D01*
X194434342Y-186385771D01*
X194291485Y-186314342D01*
X194220057Y-186242914D01*
X194148628Y-186100057D01*
X194077200Y-185814342D01*
X194077200Y-185457200D01*
X194148628Y-185171485D01*
X194220057Y-185028628D01*
X194291485Y-184957200D01*
X194434342Y-184885771D01*
X196362914Y-186385771D02*
X195505771Y-186385771D01*
X195934342Y-186385771D02*
X195934342Y-184885771D01*
X195791485Y-185100057D01*
X195648628Y-185242914D01*
X195505771Y-185314342D01*
X197005771Y-186242914D02*
X197077200Y-186314342D01*
X197005771Y-186385771D01*
X196934342Y-186314342D01*
X197005771Y-186242914D01*
X197005771Y-186385771D01*
X198005771Y-184885771D02*
X198148628Y-184885771D01*
X198291485Y-184957200D01*
X198362914Y-185028628D01*
X198434342Y-185171485D01*
X198505771Y-185457200D01*
X198505771Y-185814342D01*
X198434342Y-186100057D01*
X198362914Y-186242914D01*
X198291485Y-186314342D01*
X198148628Y-186385771D01*
X198005771Y-186385771D01*
X197862914Y-186314342D01*
X197791485Y-186242914D01*
X197720057Y-186100057D01*
X197648628Y-185814342D01*
X197648628Y-185457200D01*
X197720057Y-185171485D01*
X197791485Y-185028628D01*
X197862914Y-184957200D01*
X198005771Y-184885771D01*
X199434342Y-184885771D02*
X199577200Y-184885771D01*
X199720057Y-184957200D01*
X199791485Y-185028628D01*
X199862914Y-185171485D01*
X199934342Y-185457200D01*
X199934342Y-185814342D01*
X199862914Y-186100057D01*
X199791485Y-186242914D01*
X199720057Y-186314342D01*
X199577200Y-186385771D01*
X199434342Y-186385771D01*
X199291485Y-186314342D01*
X199220057Y-186242914D01*
X199148628Y-186100057D01*
X199077200Y-185814342D01*
X199077200Y-185457200D01*
X199148628Y-185171485D01*
X199220057Y-185028628D01*
X199291485Y-184957200D01*
X199434342Y-184885771D01*
X201362914Y-186385771D02*
X200505771Y-186385771D01*
X200934342Y-186385771D02*
X200934342Y-184885771D01*
X200791485Y-185100057D01*
X200648628Y-185242914D01*
X200505771Y-185314342D01*
X202005771Y-186242914D02*
X202077200Y-186314342D01*
X202005771Y-186385771D01*
X201934342Y-186314342D01*
X202005771Y-186242914D01*
X202005771Y-186385771D01*
X202720057Y-186385771D02*
X202720057Y-184885771D01*
X202862914Y-185814342D02*
X203291485Y-186385771D01*
X203291485Y-185385771D02*
X202720057Y-185957200D01*
X203934342Y-186385771D02*
X203934342Y-185385771D01*
X203934342Y-184885771D02*
X203862914Y-184957200D01*
X203934342Y-185028628D01*
X204005771Y-184957200D01*
X203934342Y-184885771D01*
X203934342Y-185028628D01*
X205291485Y-186314342D02*
X205148628Y-186385771D01*
X204862914Y-186385771D01*
X204720057Y-186314342D01*
X204648628Y-186242914D01*
X204577200Y-186100057D01*
X204577200Y-185671485D01*
X204648628Y-185528628D01*
X204720057Y-185457200D01*
X204862914Y-185385771D01*
X205148628Y-185385771D01*
X205291485Y-185457200D01*
X206577200Y-186385771D02*
X206577200Y-185600057D01*
X206505771Y-185457200D01*
X206362914Y-185385771D01*
X206077200Y-185385771D01*
X205934342Y-185457200D01*
X206577200Y-186314342D02*
X206434342Y-186385771D01*
X206077200Y-186385771D01*
X205934342Y-186314342D01*
X205862914Y-186171485D01*
X205862914Y-186028628D01*
X205934342Y-185885771D01*
X206077200Y-185814342D01*
X206434342Y-185814342D01*
X206577200Y-185742914D01*
X207934342Y-186385771D02*
X207934342Y-184885771D01*
X207934342Y-186314342D02*
X207791485Y-186385771D01*
X207505771Y-186385771D01*
X207362914Y-186314342D01*
X207291485Y-186242914D01*
X207220057Y-186100057D01*
X207220057Y-185671485D01*
X207291485Y-185528628D01*
X207362914Y-185457200D01*
X207505771Y-185385771D01*
X207791485Y-185385771D01*
X207934342Y-185457200D01*
X208291485Y-186528628D02*
X209434342Y-186528628D01*
X209791485Y-185385771D02*
X209791485Y-186885771D01*
X209791485Y-185457200D02*
X209934342Y-185385771D01*
X210220057Y-185385771D01*
X210362914Y-185457200D01*
X210434342Y-185528628D01*
X210505771Y-185671485D01*
X210505771Y-186100057D01*
X210434342Y-186242914D01*
X210362914Y-186314342D01*
X210220057Y-186385771D01*
X209934342Y-186385771D01*
X209791485Y-186314342D01*
X211791485Y-186314342D02*
X211648628Y-186385771D01*
X211362914Y-186385771D01*
X211220057Y-186314342D01*
X211148628Y-186242914D01*
X211077200Y-186100057D01*
X211077200Y-185671485D01*
X211148628Y-185528628D01*
X211220057Y-185457200D01*
X211362914Y-185385771D01*
X211648628Y-185385771D01*
X211791485Y-185457200D01*
X212434342Y-186385771D02*
X212434342Y-184885771D01*
X212434342Y-185457200D02*
X212577200Y-185385771D01*
X212862914Y-185385771D01*
X213005771Y-185457200D01*
X213077200Y-185528628D01*
X213148628Y-185671485D01*
X213148628Y-186100057D01*
X213077200Y-186242914D01*
X213005771Y-186314342D01*
X212862914Y-186385771D01*
X212577200Y-186385771D01*
X212434342Y-186314342D01*
D10*
D11*
X177002200Y-181507200D02*
X285002200Y-181507200D01*
D10*
D11*
X178362914Y-183614342D02*
X178577200Y-183685771D01*
X178934342Y-183685771D01*
X179077200Y-183614342D01*
X179148628Y-183542914D01*
X179220057Y-183400057D01*
X179220057Y-183257200D01*
X179148628Y-183114342D01*
X179077200Y-183042914D01*
X178934342Y-182971485D01*
X178648628Y-182900057D01*
X178505771Y-182828628D01*
X178434342Y-182757200D01*
X178362914Y-182614342D01*
X178362914Y-182471485D01*
X178434342Y-182328628D01*
X178505771Y-182257200D01*
X178648628Y-182185771D01*
X179005771Y-182185771D01*
X179220057Y-182257200D01*
X179862914Y-183685771D02*
X179862914Y-182185771D01*
X180505771Y-183685771D02*
X180505771Y-182900057D01*
X180434342Y-182757200D01*
X180291485Y-182685771D01*
X180077200Y-182685771D01*
X179934342Y-182757200D01*
X179862914Y-182828628D01*
X181791485Y-183614342D02*
X181648628Y-183685771D01*
X181362914Y-183685771D01*
X181220057Y-183614342D01*
X181148628Y-183471485D01*
X181148628Y-182900057D01*
X181220057Y-182757200D01*
X181362914Y-182685771D01*
X181648628Y-182685771D01*
X181791485Y-182757200D01*
X181862914Y-182900057D01*
X181862914Y-183042914D01*
X181148628Y-183185771D01*
X183077200Y-183614342D02*
X182934342Y-183685771D01*
X182648628Y-183685771D01*
X182505771Y-183614342D01*
X182434342Y-183471485D01*
X182434342Y-182900057D01*
X182505771Y-182757200D01*
X182648628Y-182685771D01*
X182934342Y-182685771D01*
X183077200Y-182757200D01*
X183148628Y-182900057D01*
X183148628Y-183042914D01*
X182434342Y-183185771D01*
X183577200Y-182685771D02*
X184148628Y-182685771D01*
X183791485Y-182185771D02*
X183791485Y-183471485D01*
X183862914Y-183614342D01*
X184005771Y-183685771D01*
X184148628Y-183685771D01*
X184648628Y-183542914D02*
X184720057Y-183614342D01*
X184648628Y-183685771D01*
X184577200Y-183614342D01*
X184648628Y-183542914D01*
X184648628Y-183685771D01*
X184648628Y-182757200D02*
X184720057Y-182828628D01*
X184648628Y-182900057D01*
X184577200Y-182828628D01*
X184648628Y-182757200D01*
X184648628Y-182900057D01*
D10*
D12*
X179197200Y-180685771D02*
X179197200Y-179900057D01*
X179125771Y-179757200D01*
X178982914Y-179685771D01*
X178697200Y-179685771D01*
X178554342Y-179757200D01*
X179197200Y-180614342D02*
X179054342Y-180685771D01*
X178697200Y-180685771D01*
X178554342Y-180614342D01*
X178482914Y-180471485D01*
X178482914Y-180328628D01*
X178554342Y-180185771D01*
X178697200Y-180114342D01*
X179054342Y-180114342D01*
X179197200Y-180042914D01*
X179840057Y-180614342D02*
X179982914Y-180685771D01*
X180268628Y-180685771D01*
X180411485Y-180614342D01*
X180482914Y-180471485D01*
X180482914Y-180400057D01*
X180411485Y-180257200D01*
X180268628Y-180185771D01*
X180054342Y-180185771D01*
X179911485Y-180114342D01*
X179840057Y-179971485D01*
X179840057Y-179900057D01*
X179911485Y-179757200D01*
X180054342Y-179685771D01*
X180268628Y-179685771D01*
X180411485Y-179757200D01*
X180911485Y-179685771D02*
X181482914Y-179685771D01*
X181125771Y-179185771D02*
X181125771Y-180471485D01*
X181197200Y-180614342D01*
X181340057Y-180685771D01*
X181482914Y-180685771D01*
X181982914Y-180685771D02*
X181982914Y-179685771D01*
X181982914Y-179971485D02*
X182054342Y-179828628D01*
X182125771Y-179757200D01*
X182268628Y-179685771D01*
X182411485Y-179685771D01*
X183125771Y-180685771D02*
X182982914Y-180614342D01*
X182911485Y-180542914D01*
X182840057Y-180400057D01*
X182840057Y-179971485D01*
X182911485Y-179828628D01*
X182982914Y-179757200D01*
X183125771Y-179685771D01*
X183340057Y-179685771D01*
X183482914Y-179757200D01*
X183554342Y-179828628D01*
X183625771Y-179971485D01*
X183625771Y-180400057D01*
X183554342Y-180542914D01*
X183482914Y-180614342D01*
X183340057Y-180685771D01*
X183125771Y-180685771D01*
X184840057Y-180614342D02*
X184697200Y-180685771D01*
X184411485Y-180685771D01*
X184268628Y-180614342D01*
X184197200Y-180471485D01*
X184197200Y-179900057D01*
X184268628Y-179757200D01*
X184411485Y-179685771D01*
X184697200Y-179685771D01*
X184840057Y-179757200D01*
X184911485Y-179900057D01*
X184911485Y-180042914D01*
X184197200Y-180185771D01*
X185768628Y-180685771D02*
X185625771Y-180614342D01*
X185554342Y-180471485D01*
X185554342Y-179185771D01*
X186911485Y-180614342D02*
X186768628Y-180685771D01*
X186482914Y-180685771D01*
X186340057Y-180614342D01*
X186268628Y-180471485D01*
X186268628Y-179900057D01*
X186340057Y-179757200D01*
X186482914Y-179685771D01*
X186768628Y-179685771D01*
X186911485Y-179757200D01*
X186982914Y-179900057D01*
X186982914Y-180042914D01*
X186268628Y-180185771D01*
X188268628Y-180614342D02*
X188125771Y-180685771D01*
X187840057Y-180685771D01*
X187697200Y-180614342D01*
X187625771Y-180542914D01*
X187554342Y-180400057D01*
X187554342Y-179971485D01*
X187625771Y-179828628D01*
X187697200Y-179757200D01*
X187840057Y-179685771D01*
X188125771Y-179685771D01*
X188268628Y-179757200D01*
X188697200Y-179685771D02*
X189268628Y-179685771D01*
X188911485Y-179185771D02*
X188911485Y-180471485D01*
X188982914Y-180614342D01*
X189125771Y-180685771D01*
X189268628Y-180685771D01*
X189768628Y-180685771D02*
X189768628Y-179685771D01*
X189768628Y-179971485D02*
X189840057Y-179828628D01*
X189911485Y-179757200D01*
X190054342Y-179685771D01*
X190197200Y-179685771D01*
X190911485Y-180685771D02*
X190768628Y-180614342D01*
X190697200Y-180542914D01*
X190625771Y-180400057D01*
X190625771Y-179971485D01*
X190697200Y-179828628D01*
X190768628Y-179757200D01*
X190911485Y-179685771D01*
X191125771Y-179685771D01*
X191268628Y-179757200D01*
X191340057Y-179828628D01*
X191411485Y-179971485D01*
X191411485Y-180400057D01*
X191340057Y-180542914D01*
X191268628Y-180614342D01*
X191125771Y-180685771D01*
X190911485Y-180685771D01*
X192054342Y-179685771D02*
X192054342Y-180685771D01*
X192054342Y-179828628D02*
X192125771Y-179757200D01*
X192268628Y-179685771D01*
X192482914Y-179685771D01*
X192625771Y-179757200D01*
X192697200Y-179900057D01*
X192697200Y-180685771D01*
X193411485Y-180685771D02*
X193411485Y-179685771D01*
X193411485Y-179185771D02*
X193340057Y-179257200D01*
X193411485Y-179328628D01*
X193482914Y-179257200D01*
X193411485Y-179185771D01*
X193411485Y-179328628D01*
X194768628Y-180614342D02*
X194625771Y-180685771D01*
X194340057Y-180685771D01*
X194197200Y-180614342D01*
X194125771Y-180542914D01*
X194054342Y-180400057D01*
X194054342Y-179971485D01*
X194125771Y-179828628D01*
X194197200Y-179757200D01*
X194340057Y-179685771D01*
X194625771Y-179685771D01*
X194768628Y-179757200D01*
X196340057Y-179971485D02*
X196268628Y-179900057D01*
X196125771Y-179828628D01*
X195982914Y-179828628D01*
X195840057Y-179900057D01*
X195768628Y-179971485D01*
X195697200Y-180114342D01*
X195697200Y-180257200D01*
X195768628Y-180400057D01*
X195840057Y-180471485D01*
X195982914Y-180542914D01*
X196125771Y-180542914D01*
X196268628Y-180471485D01*
X196340057Y-180400057D01*
X196340057Y-179828628D02*
X196340057Y-180400057D01*
X196411485Y-180471485D01*
X196482914Y-180471485D01*
X196625771Y-180400057D01*
X196697200Y-180257200D01*
X196697200Y-179900057D01*
X196554342Y-179685771D01*
X196340057Y-179542914D01*
X196054342Y-179471485D01*
X195768628Y-179542914D01*
X195554342Y-179685771D01*
X195411485Y-179900057D01*
X195340057Y-180185771D01*
X195411485Y-180471485D01*
X195554342Y-180685771D01*
X195768628Y-180828628D01*
X196054342Y-180900057D01*
X196340057Y-180828628D01*
X196554342Y-180685771D01*
D10*
D11*
X197002200Y-191507200D02*
X197002200Y-194507200D01*
D10*
D11*
X261002200Y-191507200D02*
X261002200Y-198007200D01*
X177038000Y-74549000D02*
X175514000Y-73025000D01*
X177038000Y-85979000D02*
X177038000Y-74549000D01*
X179578000Y-88519000D02*
X177038000Y-85979000D01*
X179578000Y-121285000D02*
X179578000Y-88519000D01*
X177038000Y-123825000D02*
X179578000Y-121285000D01*
X177038000Y-126365000D02*
X177038000Y-123825000D01*
X110998000Y-126365000D02*
X177038000Y-126365000D01*
X110998000Y-73025000D02*
X110998000Y-126365000D01*
X175514000Y-73025000D02*
X110998000Y-73025000D01*
D10*
X151984000Y-103267000D02*
X151984000Y-105267000D01*
X150784000Y-103267000D02*
X151984000Y-103267000D01*
X150784000Y-105267000D02*
X150784000Y-103267000D01*
X151984000Y-105267000D02*
X150784000Y-105267000D01*
X145126000Y-105267000D02*
X143926000Y-105267000D01*
X143926000Y-105267000D02*
X143926000Y-103267000D01*
X143926000Y-103267000D02*
X145126000Y-103267000D01*
X145126000Y-103267000D02*
X145126000Y-105267000D01*
X158912000Y-103267000D02*
X160112000Y-103267000D01*
X160112000Y-103267000D02*
X160112000Y-105267000D01*
X160112000Y-105267000D02*
X158912000Y-105267000D01*
X158912000Y-105267000D02*
X158912000Y-103267000D01*
X129108000Y-101117000D02*
X129108000Y-107417000D01*
X125908000Y-101117000D02*
X129108000Y-101117000D01*
X125908000Y-107417000D02*
X125908000Y-101117000D01*
X129108000Y-107417000D02*
X125908000Y-107417000D01*
X134950000Y-107417000D02*
X131750000Y-107417000D01*
X131750000Y-107417000D02*
X131750000Y-101117000D01*
X131750000Y-101117000D02*
X134950000Y-101117000D01*
X134950000Y-101117000D02*
X134950000Y-107417000D01*
X137176000Y-101819000D02*
X137176000Y-100619000D01*
X137176000Y-100619000D02*
X139176000Y-100619000D01*
X139176000Y-100619000D02*
X139176000Y-101819000D01*
X139176000Y-101819000D02*
X137176000Y-101819000D01*
X157572000Y-103267000D02*
X157572000Y-105267000D01*
X156372000Y-103267000D02*
X157572000Y-103267000D01*
X156372000Y-105267000D02*
X156372000Y-103267000D01*
X157572000Y-105267000D02*
X156372000Y-105267000D01*
X137176000Y-107915000D02*
X137176000Y-106715000D01*
X137176000Y-106715000D02*
X139176000Y-106715000D01*
X139176000Y-106715000D02*
X139176000Y-107915000D01*
X139176000Y-107915000D02*
X137176000Y-107915000D01*
X148982000Y-105167000D02*
X148332000Y-105817000D01*
X147182000Y-105817000D02*
X148332000Y-105817000D01*
X148982000Y-105167000D02*
X148982000Y-102717000D01*
X147182000Y-102717000D02*
X148982000Y-102717000D01*
X147182000Y-105817000D02*
X147182000Y-102717000D01*
X120118000Y-111887000D02*
G75*
G03X120118000Y-111887000I-1500000J0D01*
G01*
X120118000Y-106807000D02*
G75*
G03X120118000Y-106807000I-1500000J0D01*
G01*
X120118000Y-101727000D02*
G75*
G03X120118000Y-101727000I-1500000J0D01*
G01*
X120118000Y-96647000D02*
G75*
G03X120118000Y-96647000I-1500000J0D01*
G01*
X113418000Y-114427000D02*
X113418000Y-94107000D01*
X113418000Y-94107000D02*
X123218000Y-94107000D01*
X123218000Y-94107000D02*
X123218000Y-113927000D01*
X123218000Y-113927000D02*
X122718000Y-114427000D01*
X122718000Y-114427000D02*
X113418000Y-114427000D01*
X122718000Y-114427000D02*
X122718000Y-94107000D01*
X121218000Y-114427000D02*
X121218000Y-94107000D01*
X116318000Y-114427000D02*
X116318000Y-94107000D01*
X117663000Y-110749000D02*
X119756000Y-112842000D01*
X117480000Y-110932000D02*
X119573000Y-113025000D01*
X117663000Y-105669000D02*
X119756000Y-107761000D01*
X117480000Y-105852000D02*
X119573000Y-107944000D01*
X117663000Y-100589000D02*
X119756000Y-102681000D01*
X117480000Y-100772000D02*
X119573000Y-102864000D01*
X117663000Y-95509000D02*
X119756000Y-97601000D01*
X117480000Y-95692000D02*
X119573000Y-97784000D01*
X144288000Y-107915000D02*
X144288000Y-106715000D01*
X144288000Y-106715000D02*
X146288000Y-106715000D01*
X146288000Y-106715000D02*
X146288000Y-107915000D01*
X146288000Y-107915000D02*
X144288000Y-107915000D01*
X146288000Y-101819000D02*
X144288000Y-101819000D01*
X146288000Y-100619000D02*
X146288000Y-101819000D01*
X144288000Y-100619000D02*
X146288000Y-100619000D01*
X144288000Y-101819000D02*
X144288000Y-100619000D01*
D11*
X161306000Y-105769380D02*
X161496476Y-105769380D01*
X161591714Y-105817000D01*
X161686952Y-105912238D01*
X161734571Y-106102714D01*
X161734571Y-106436047D01*
X161686952Y-106626523D01*
X161591714Y-106721761D01*
X161496476Y-106769380D01*
X161306000Y-106769380D01*
X161210761Y-106721761D01*
X161115523Y-106626523D01*
X161067904Y-106436047D01*
X161067904Y-106102714D01*
X161115523Y-105912238D01*
X161210761Y-105817000D01*
X161306000Y-105769380D01*
X162163142Y-105769380D02*
X162163142Y-106578904D01*
X162210761Y-106674142D01*
X162258380Y-106721761D01*
X162353619Y-106769380D01*
X162544095Y-106769380D01*
X162639333Y-106721761D01*
X162686952Y-106674142D01*
X162734571Y-106578904D01*
X162734571Y-105769380D01*
X163067904Y-105769380D02*
X163639333Y-105769380D01*
X163353619Y-106769380D02*
X163353619Y-105769380D01*
X161044095Y-101719380D02*
X161615523Y-101719380D01*
X161329809Y-102719380D02*
X161329809Y-101719380D01*
X161948857Y-102719380D02*
X161948857Y-101719380D01*
X162329809Y-101719380D01*
X162425047Y-101767000D01*
X162472666Y-101814619D01*
X162520285Y-101909857D01*
X162520285Y-102052714D01*
X162472666Y-102147952D01*
X162425047Y-102195571D01*
X162329809Y-102243190D01*
X161948857Y-102243190D01*
X163472666Y-102719380D02*
X162901238Y-102719380D01*
X163186952Y-102719380D02*
X163186952Y-101719380D01*
X163091714Y-101862238D01*
X162996476Y-101957476D01*
X162901238Y-102005095D01*
X145851809Y-120213380D02*
X145851809Y-119213380D01*
X146232761Y-119213380D01*
X146328000Y-119261000D01*
X146375619Y-119308619D01*
X146423238Y-119403857D01*
X146423238Y-119546714D01*
X146375619Y-119641952D01*
X146328000Y-119689571D01*
X146232761Y-119737190D01*
X145851809Y-119737190D01*
X146994666Y-120213380D02*
X146899428Y-120165761D01*
X146851809Y-120118142D01*
X146804190Y-120022904D01*
X146804190Y-119737190D01*
X146851809Y-119641952D01*
X146899428Y-119594333D01*
X146994666Y-119546714D01*
X147137523Y-119546714D01*
X147232761Y-119594333D01*
X147280380Y-119641952D01*
X147328000Y-119737190D01*
X147328000Y-120022904D01*
X147280380Y-120118142D01*
X147232761Y-120165761D01*
X147137523Y-120213380D01*
X146994666Y-120213380D01*
X147661333Y-119546714D02*
X147851809Y-120213380D01*
X148042285Y-119737190D01*
X148232761Y-120213380D01*
X148423238Y-119546714D01*
X149185142Y-120165761D02*
X149089904Y-120213380D01*
X148899428Y-120213380D01*
X148804190Y-120165761D01*
X148756571Y-120070523D01*
X148756571Y-119689571D01*
X148804190Y-119594333D01*
X148899428Y-119546714D01*
X149089904Y-119546714D01*
X149185142Y-119594333D01*
X149232761Y-119689571D01*
X149232761Y-119784809D01*
X148756571Y-119880047D01*
X149661333Y-120213380D02*
X149661333Y-119546714D01*
X149661333Y-119737190D02*
X149708952Y-119641952D01*
X149756571Y-119594333D01*
X149851809Y-119546714D01*
X149947047Y-119546714D01*
X166092476Y-119927666D02*
X166568666Y-119927666D01*
X165997238Y-120213380D02*
X166330571Y-119213380D01*
X166663904Y-120213380D01*
X166997238Y-119546714D02*
X166997238Y-120213380D01*
X166997238Y-119641952D02*
X167044857Y-119594333D01*
X167140095Y-119546714D01*
X167282952Y-119546714D01*
X167378190Y-119594333D01*
X167425809Y-119689571D01*
X167425809Y-120213380D01*
X168330571Y-120213380D02*
X168330571Y-119689571D01*
X168282952Y-119594333D01*
X168187714Y-119546714D01*
X167997238Y-119546714D01*
X167902000Y-119594333D01*
X168330571Y-120165761D02*
X168235333Y-120213380D01*
X167997238Y-120213380D01*
X167902000Y-120165761D01*
X167854380Y-120070523D01*
X167854380Y-119975285D01*
X167902000Y-119880047D01*
X167997238Y-119832428D01*
X168235333Y-119832428D01*
X168330571Y-119784809D01*
X168949619Y-120213380D02*
X168854380Y-120165761D01*
X168806761Y-120070523D01*
X168806761Y-119213380D01*
X169473428Y-120213380D02*
X169378190Y-120165761D01*
X169330571Y-120118142D01*
X169282952Y-120022904D01*
X169282952Y-119737190D01*
X169330571Y-119641952D01*
X169378190Y-119594333D01*
X169473428Y-119546714D01*
X169616285Y-119546714D01*
X169711523Y-119594333D01*
X169759142Y-119641952D01*
X169806761Y-119737190D01*
X169806761Y-120022904D01*
X169759142Y-120118142D01*
X169711523Y-120165761D01*
X169616285Y-120213380D01*
X169473428Y-120213380D01*
X170663904Y-119546714D02*
X170663904Y-120356238D01*
X170616285Y-120451476D01*
X170568666Y-120499095D01*
X170473428Y-120546714D01*
X170330571Y-120546714D01*
X170235333Y-120499095D01*
X170663904Y-120165761D02*
X170568666Y-120213380D01*
X170378190Y-120213380D01*
X170282952Y-120165761D01*
X170235333Y-120118142D01*
X170187714Y-120022904D01*
X170187714Y-119737190D01*
X170235333Y-119641952D01*
X170282952Y-119594333D01*
X170378190Y-119546714D01*
X170568666Y-119546714D01*
X170663904Y-119594333D01*
X139033523Y-80335380D02*
X139033523Y-79335380D01*
X139271619Y-79335380D01*
X139414476Y-79383000D01*
X139509714Y-79478238D01*
X139557333Y-79573476D01*
X139604952Y-79763952D01*
X139604952Y-79906809D01*
X139557333Y-80097285D01*
X139509714Y-80192523D01*
X139414476Y-80287761D01*
X139271619Y-80335380D01*
X139033523Y-80335380D01*
X140033523Y-80335380D02*
X140033523Y-79668714D01*
X140033523Y-79335380D02*
X139985904Y-79383000D01*
X140033523Y-79430619D01*
X140081142Y-79383000D01*
X140033523Y-79335380D01*
X140033523Y-79430619D01*
X140938285Y-79668714D02*
X140938285Y-80478238D01*
X140890666Y-80573476D01*
X140843047Y-80621095D01*
X140747809Y-80668714D01*
X140604952Y-80668714D01*
X140509714Y-80621095D01*
X140938285Y-80287761D02*
X140843047Y-80335380D01*
X140652571Y-80335380D01*
X140557333Y-80287761D01*
X140509714Y-80240142D01*
X140462095Y-80144904D01*
X140462095Y-79859190D01*
X140509714Y-79763952D01*
X140557333Y-79716333D01*
X140652571Y-79668714D01*
X140843047Y-79668714D01*
X140938285Y-79716333D01*
X141414476Y-80335380D02*
X141414476Y-79668714D01*
X141414476Y-79335380D02*
X141366857Y-79383000D01*
X141414476Y-79430619D01*
X141462095Y-79383000D01*
X141414476Y-79335380D01*
X141414476Y-79430619D01*
X141747809Y-79668714D02*
X142128761Y-79668714D01*
X141890666Y-79335380D02*
X141890666Y-80192523D01*
X141938285Y-80287761D01*
X142033523Y-80335380D01*
X142128761Y-80335380D01*
X142890666Y-80335380D02*
X142890666Y-79811571D01*
X142843047Y-79716333D01*
X142747809Y-79668714D01*
X142557333Y-79668714D01*
X142462095Y-79716333D01*
X142890666Y-80287761D02*
X142795428Y-80335380D01*
X142557333Y-80335380D01*
X142462095Y-80287761D01*
X142414476Y-80192523D01*
X142414476Y-80097285D01*
X142462095Y-80002047D01*
X142557333Y-79954428D01*
X142795428Y-79954428D01*
X142890666Y-79906809D01*
X143509714Y-80335380D02*
X143414476Y-80287761D01*
X143366857Y-80192523D01*
X143366857Y-79335380D01*
X163417523Y-80335380D02*
X163417523Y-79335380D01*
X163655619Y-79335380D01*
X163798476Y-79383000D01*
X163893714Y-79478238D01*
X163941333Y-79573476D01*
X163988952Y-79763952D01*
X163988952Y-79906809D01*
X163941333Y-80097285D01*
X163893714Y-80192523D01*
X163798476Y-80287761D01*
X163655619Y-80335380D01*
X163417523Y-80335380D01*
X164417523Y-80335380D02*
X164417523Y-79668714D01*
X164417523Y-79335380D02*
X164369904Y-79383000D01*
X164417523Y-79430619D01*
X164465142Y-79383000D01*
X164417523Y-79335380D01*
X164417523Y-79430619D01*
X165322285Y-79668714D02*
X165322285Y-80478238D01*
X165274666Y-80573476D01*
X165227047Y-80621095D01*
X165131809Y-80668714D01*
X164988952Y-80668714D01*
X164893714Y-80621095D01*
X165322285Y-80287761D02*
X165227047Y-80335380D01*
X165036571Y-80335380D01*
X164941333Y-80287761D01*
X164893714Y-80240142D01*
X164846095Y-80144904D01*
X164846095Y-79859190D01*
X164893714Y-79763952D01*
X164941333Y-79716333D01*
X165036571Y-79668714D01*
X165227047Y-79668714D01*
X165322285Y-79716333D01*
X165798476Y-80335380D02*
X165798476Y-79668714D01*
X165798476Y-79335380D02*
X165750857Y-79383000D01*
X165798476Y-79430619D01*
X165846095Y-79383000D01*
X165798476Y-79335380D01*
X165798476Y-79430619D01*
X166131809Y-79668714D02*
X166512761Y-79668714D01*
X166274666Y-79335380D02*
X166274666Y-80192523D01*
X166322285Y-80287761D01*
X166417523Y-80335380D01*
X166512761Y-80335380D01*
X167274666Y-80335380D02*
X167274666Y-79811571D01*
X167227047Y-79716333D01*
X167131809Y-79668714D01*
X166941333Y-79668714D01*
X166846095Y-79716333D01*
X167274666Y-80287761D02*
X167179428Y-80335380D01*
X166941333Y-80335380D01*
X166846095Y-80287761D01*
X166798476Y-80192523D01*
X166798476Y-80097285D01*
X166846095Y-80002047D01*
X166941333Y-79954428D01*
X167179428Y-79954428D01*
X167274666Y-79906809D01*
X167893714Y-80335380D02*
X167798476Y-80287761D01*
X167750857Y-80192523D01*
X167750857Y-79335380D01*
X153486380Y-105386047D02*
X153486380Y-105957476D01*
X153486380Y-105671761D02*
X152486380Y-105671761D01*
X152629238Y-105767000D01*
X152724476Y-105862238D01*
X152772095Y-105957476D01*
X152486380Y-104767000D02*
X152486380Y-104671761D01*
X152534000Y-104576523D01*
X152581619Y-104528904D01*
X152676857Y-104481285D01*
X152867333Y-104433666D01*
X153105428Y-104433666D01*
X153295904Y-104481285D01*
X153391142Y-104528904D01*
X153438761Y-104576523D01*
X153486380Y-104671761D01*
X153486380Y-104767000D01*
X153438761Y-104862238D01*
X153391142Y-104909857D01*
X153295904Y-104957476D01*
X153105428Y-105005095D01*
X152867333Y-105005095D01*
X152676857Y-104957476D01*
X152581619Y-104909857D01*
X152534000Y-104862238D01*
X152486380Y-104767000D01*
X152486380Y-103814619D02*
X152486380Y-103719380D01*
X152534000Y-103624142D01*
X152581619Y-103576523D01*
X152676857Y-103528904D01*
X152867333Y-103481285D01*
X153105428Y-103481285D01*
X153295904Y-103528904D01*
X153391142Y-103576523D01*
X153438761Y-103624142D01*
X153486380Y-103719380D01*
X153486380Y-103814619D01*
X153438761Y-103909857D01*
X153391142Y-103957476D01*
X153295904Y-104005095D01*
X153105428Y-104052714D01*
X152867333Y-104052714D01*
X152676857Y-104005095D01*
X152581619Y-103957476D01*
X152534000Y-103909857D01*
X152486380Y-103814619D01*
X152819714Y-103052714D02*
X153486380Y-103052714D01*
X152914952Y-103052714D02*
X152867333Y-103005095D01*
X152819714Y-102909857D01*
X152819714Y-102767000D01*
X152867333Y-102671761D01*
X152962571Y-102624142D01*
X153486380Y-102624142D01*
D14*
X151562571Y-104350333D02*
X151586380Y-104374142D01*
X151610190Y-104445571D01*
X151610190Y-104493190D01*
X151586380Y-104564619D01*
X151538761Y-104612238D01*
X151491142Y-104636047D01*
X151395904Y-104659857D01*
X151324476Y-104659857D01*
X151229238Y-104636047D01*
X151181619Y-104612238D01*
X151134000Y-104564619D01*
X151110190Y-104493190D01*
X151110190Y-104445571D01*
X151134000Y-104374142D01*
X151157809Y-104350333D01*
X151610190Y-103874142D02*
X151610190Y-104159857D01*
X151610190Y-104017000D02*
X151110190Y-104017000D01*
X151181619Y-104064619D01*
X151229238Y-104112238D01*
X151253047Y-104159857D01*
D11*
X146628380Y-105814619D02*
X146628380Y-106386047D01*
X146628380Y-106100333D02*
X145628380Y-106100333D01*
X145771238Y-106195571D01*
X145866476Y-106290809D01*
X145914095Y-106386047D01*
X145628380Y-105195571D02*
X145628380Y-105100333D01*
X145676000Y-105005095D01*
X145723619Y-104957476D01*
X145818857Y-104909857D01*
X146009333Y-104862238D01*
X146247428Y-104862238D01*
X146437904Y-104909857D01*
X146533142Y-104957476D01*
X146580761Y-105005095D01*
X146628380Y-105100333D01*
X146628380Y-105195571D01*
X146580761Y-105290809D01*
X146533142Y-105338428D01*
X146437904Y-105386047D01*
X146247428Y-105433666D01*
X146009333Y-105433666D01*
X145818857Y-105386047D01*
X145723619Y-105338428D01*
X145676000Y-105290809D01*
X145628380Y-105195571D01*
X145628380Y-104243190D02*
X145628380Y-104147952D01*
X145676000Y-104052714D01*
X145723619Y-104005095D01*
X145818857Y-103957476D01*
X146009333Y-103909857D01*
X146247428Y-103909857D01*
X146437904Y-103957476D01*
X146533142Y-104005095D01*
X146580761Y-104052714D01*
X146628380Y-104147952D01*
X146628380Y-104243190D01*
X146580761Y-104338428D01*
X146533142Y-104386047D01*
X146437904Y-104433666D01*
X146247428Y-104481285D01*
X146009333Y-104481285D01*
X145818857Y-104433666D01*
X145723619Y-104386047D01*
X145676000Y-104338428D01*
X145628380Y-104243190D01*
X145961714Y-103481285D02*
X146961714Y-103481285D01*
X146009333Y-103481285D02*
X145961714Y-103386047D01*
X145961714Y-103195571D01*
X146009333Y-103100333D01*
X146056952Y-103052714D01*
X146152190Y-103005095D01*
X146437904Y-103005095D01*
X146533142Y-103052714D01*
X146580761Y-103100333D01*
X146628380Y-103195571D01*
X146628380Y-103386047D01*
X146580761Y-103481285D01*
X146104571Y-102243190D02*
X146104571Y-102576523D01*
X146628380Y-102576523D02*
X145628380Y-102576523D01*
X145628380Y-102100333D01*
D14*
X144704571Y-104350333D02*
X144728380Y-104374142D01*
X144752190Y-104445571D01*
X144752190Y-104493190D01*
X144728380Y-104564619D01*
X144680761Y-104612238D01*
X144633142Y-104636047D01*
X144537904Y-104659857D01*
X144466476Y-104659857D01*
X144371238Y-104636047D01*
X144323619Y-104612238D01*
X144276000Y-104564619D01*
X144252190Y-104493190D01*
X144252190Y-104445571D01*
X144276000Y-104374142D01*
X144299809Y-104350333D01*
X144299809Y-104159857D02*
X144276000Y-104136047D01*
X144252190Y-104088428D01*
X144252190Y-103969380D01*
X144276000Y-103921761D01*
X144299809Y-103897952D01*
X144347428Y-103874142D01*
X144395047Y-103874142D01*
X144466476Y-103897952D01*
X144752190Y-104183666D01*
X144752190Y-103874142D01*
D11*
X158314380Y-105338428D02*
X158314380Y-105909857D01*
X158314380Y-105624142D02*
X157314380Y-105624142D01*
X157457238Y-105719380D01*
X157552476Y-105814619D01*
X157600095Y-105909857D01*
X157314380Y-104719380D02*
X157314380Y-104624142D01*
X157362000Y-104528904D01*
X157409619Y-104481285D01*
X157504857Y-104433666D01*
X157695333Y-104386047D01*
X157933428Y-104386047D01*
X158123904Y-104433666D01*
X158219142Y-104481285D01*
X158266761Y-104528904D01*
X158314380Y-104624142D01*
X158314380Y-104719380D01*
X158266761Y-104814619D01*
X158219142Y-104862238D01*
X158123904Y-104909857D01*
X157933428Y-104957476D01*
X157695333Y-104957476D01*
X157504857Y-104909857D01*
X157409619Y-104862238D01*
X157362000Y-104814619D01*
X157314380Y-104719380D01*
X157647714Y-103957476D02*
X158314380Y-103957476D01*
X157742952Y-103957476D02*
X157695333Y-103909857D01*
X157647714Y-103814619D01*
X157647714Y-103671761D01*
X157695333Y-103576523D01*
X157790571Y-103528904D01*
X158314380Y-103528904D01*
X157790571Y-102719380D02*
X157790571Y-103052714D01*
X158314380Y-103052714D02*
X157314380Y-103052714D01*
X157314380Y-102576523D01*
D14*
X159690571Y-104350333D02*
X159714380Y-104374142D01*
X159738190Y-104445571D01*
X159738190Y-104493190D01*
X159714380Y-104564619D01*
X159666761Y-104612238D01*
X159619142Y-104636047D01*
X159523904Y-104659857D01*
X159452476Y-104659857D01*
X159357238Y-104636047D01*
X159309619Y-104612238D01*
X159262000Y-104564619D01*
X159238190Y-104493190D01*
X159238190Y-104445571D01*
X159262000Y-104374142D01*
X159285809Y-104350333D01*
X159238190Y-104183666D02*
X159238190Y-103874142D01*
X159428666Y-104040809D01*
X159428666Y-103969380D01*
X159452476Y-103921761D01*
X159476285Y-103897952D01*
X159523904Y-103874142D01*
X159642952Y-103874142D01*
X159690571Y-103897952D01*
X159714380Y-103921761D01*
X159738190Y-103969380D01*
X159738190Y-104112238D01*
X159714380Y-104159857D01*
X159690571Y-104183666D01*
D11*
X170847047Y-86613571D02*
X170513714Y-86613571D01*
X170513714Y-87137380D02*
X170513714Y-86137380D01*
X170989904Y-86137380D01*
X171370857Y-87137380D02*
X171370857Y-86470714D01*
X171370857Y-86137380D02*
X171323238Y-86185000D01*
X171370857Y-86232619D01*
X171418476Y-86185000D01*
X171370857Y-86137380D01*
X171370857Y-86232619D01*
X172275619Y-87137380D02*
X172275619Y-86137380D01*
X172275619Y-87089761D02*
X172180380Y-87137380D01*
X171989904Y-87137380D01*
X171894666Y-87089761D01*
X171847047Y-87042142D01*
X171799428Y-86946904D01*
X171799428Y-86661190D01*
X171847047Y-86565952D01*
X171894666Y-86518333D01*
X171989904Y-86470714D01*
X172180380Y-86470714D01*
X172275619Y-86518333D01*
X173180380Y-86470714D02*
X173180380Y-87137380D01*
X172751809Y-86470714D02*
X172751809Y-86994523D01*
X172799428Y-87089761D01*
X172894666Y-87137380D01*
X173037523Y-87137380D01*
X173132761Y-87089761D01*
X173180380Y-87042142D01*
X174085142Y-87089761D02*
X173989904Y-87137380D01*
X173799428Y-87137380D01*
X173704190Y-87089761D01*
X173656571Y-87042142D01*
X173608952Y-86946904D01*
X173608952Y-86661190D01*
X173656571Y-86565952D01*
X173704190Y-86518333D01*
X173799428Y-86470714D01*
X173989904Y-86470714D01*
X174085142Y-86518333D01*
X174513714Y-87137380D02*
X174513714Y-86470714D01*
X174513714Y-86137380D02*
X174466095Y-86185000D01*
X174513714Y-86232619D01*
X174561333Y-86185000D01*
X174513714Y-86137380D01*
X174513714Y-86232619D01*
X175418476Y-87137380D02*
X175418476Y-86613571D01*
X175370857Y-86518333D01*
X175275619Y-86470714D01*
X175085142Y-86470714D01*
X174989904Y-86518333D01*
X175418476Y-87089761D02*
X175323238Y-87137380D01*
X175085142Y-87137380D01*
X174989904Y-87089761D01*
X174942285Y-86994523D01*
X174942285Y-86899285D01*
X174989904Y-86804047D01*
X175085142Y-86756428D01*
X175323238Y-86756428D01*
X175418476Y-86708809D01*
X176037523Y-87137380D02*
X175942285Y-87089761D01*
X175894666Y-86994523D01*
X175894666Y-86137380D01*
X172156571Y-83113571D02*
X171823238Y-83113571D01*
X171823238Y-83637380D02*
X171823238Y-82637380D01*
X172299428Y-82637380D01*
X172680380Y-83637380D02*
X172680380Y-82637380D01*
X173156571Y-83637380D02*
X173156571Y-82637380D01*
X173394666Y-82637380D01*
X173537523Y-82685000D01*
X173632761Y-82780238D01*
X173680380Y-82875476D01*
X173728000Y-83065952D01*
X173728000Y-83208809D01*
X173680380Y-83399285D01*
X173632761Y-83494523D01*
X173537523Y-83589761D01*
X173394666Y-83637380D01*
X173156571Y-83637380D01*
X174680380Y-83637380D02*
X174108952Y-83637380D01*
X174394666Y-83637380D02*
X174394666Y-82637380D01*
X174299428Y-82780238D01*
X174204190Y-82875476D01*
X174108952Y-82923095D01*
X114967047Y-80263571D02*
X114633714Y-80263571D01*
X114633714Y-80787380D02*
X114633714Y-79787380D01*
X115109904Y-79787380D01*
X115490857Y-80787380D02*
X115490857Y-80120714D01*
X115490857Y-79787380D02*
X115443238Y-79835000D01*
X115490857Y-79882619D01*
X115538476Y-79835000D01*
X115490857Y-79787380D01*
X115490857Y-79882619D01*
X116395619Y-80787380D02*
X116395619Y-79787380D01*
X116395619Y-80739761D02*
X116300380Y-80787380D01*
X116109904Y-80787380D01*
X116014666Y-80739761D01*
X115967047Y-80692142D01*
X115919428Y-80596904D01*
X115919428Y-80311190D01*
X115967047Y-80215952D01*
X116014666Y-80168333D01*
X116109904Y-80120714D01*
X116300380Y-80120714D01*
X116395619Y-80168333D01*
X117300380Y-80120714D02*
X117300380Y-80787380D01*
X116871809Y-80120714D02*
X116871809Y-80644523D01*
X116919428Y-80739761D01*
X117014666Y-80787380D01*
X117157523Y-80787380D01*
X117252761Y-80739761D01*
X117300380Y-80692142D01*
X118205142Y-80739761D02*
X118109904Y-80787380D01*
X117919428Y-80787380D01*
X117824190Y-80739761D01*
X117776571Y-80692142D01*
X117728952Y-80596904D01*
X117728952Y-80311190D01*
X117776571Y-80215952D01*
X117824190Y-80168333D01*
X117919428Y-80120714D01*
X118109904Y-80120714D01*
X118205142Y-80168333D01*
X118633714Y-80787380D02*
X118633714Y-80120714D01*
X118633714Y-79787380D02*
X118586095Y-79835000D01*
X118633714Y-79882619D01*
X118681333Y-79835000D01*
X118633714Y-79787380D01*
X118633714Y-79882619D01*
X119538476Y-80787380D02*
X119538476Y-80263571D01*
X119490857Y-80168333D01*
X119395619Y-80120714D01*
X119205142Y-80120714D01*
X119109904Y-80168333D01*
X119538476Y-80739761D02*
X119443238Y-80787380D01*
X119205142Y-80787380D01*
X119109904Y-80739761D01*
X119062285Y-80644523D01*
X119062285Y-80549285D01*
X119109904Y-80454047D01*
X119205142Y-80406428D01*
X119443238Y-80406428D01*
X119538476Y-80358809D01*
X120157523Y-80787380D02*
X120062285Y-80739761D01*
X120014666Y-80644523D01*
X120014666Y-79787380D01*
X116276571Y-76763571D02*
X115943238Y-76763571D01*
X115943238Y-77287380D02*
X115943238Y-76287380D01*
X116419428Y-76287380D01*
X116800380Y-77287380D02*
X116800380Y-76287380D01*
X117276571Y-77287380D02*
X117276571Y-76287380D01*
X117514666Y-76287380D01*
X117657523Y-76335000D01*
X117752761Y-76430238D01*
X117800380Y-76525476D01*
X117848000Y-76715952D01*
X117848000Y-76858809D01*
X117800380Y-77049285D01*
X117752761Y-77144523D01*
X117657523Y-77239761D01*
X117514666Y-77287380D01*
X117276571Y-77287380D01*
X118228952Y-76382619D02*
X118276571Y-76335000D01*
X118371809Y-76287380D01*
X118609904Y-76287380D01*
X118705142Y-76335000D01*
X118752761Y-76382619D01*
X118800380Y-76477857D01*
X118800380Y-76573095D01*
X118752761Y-76715952D01*
X118181333Y-77287380D01*
X118800380Y-77287380D01*
X130207047Y-125983571D02*
X129873714Y-125983571D01*
X129873714Y-126507380D02*
X129873714Y-125507380D01*
X130349904Y-125507380D01*
X130730857Y-126507380D02*
X130730857Y-125840714D01*
X130730857Y-125507380D02*
X130683238Y-125555000D01*
X130730857Y-125602619D01*
X130778476Y-125555000D01*
X130730857Y-125507380D01*
X130730857Y-125602619D01*
X131635619Y-126507380D02*
X131635619Y-125507380D01*
X131635619Y-126459761D02*
X131540380Y-126507380D01*
X131349904Y-126507380D01*
X131254666Y-126459761D01*
X131207047Y-126412142D01*
X131159428Y-126316904D01*
X131159428Y-126031190D01*
X131207047Y-125935952D01*
X131254666Y-125888333D01*
X131349904Y-125840714D01*
X131540380Y-125840714D01*
X131635619Y-125888333D01*
X132540380Y-125840714D02*
X132540380Y-126507380D01*
X132111809Y-125840714D02*
X132111809Y-126364523D01*
X132159428Y-126459761D01*
X132254666Y-126507380D01*
X132397523Y-126507380D01*
X132492761Y-126459761D01*
X132540380Y-126412142D01*
X133445142Y-126459761D02*
X133349904Y-126507380D01*
X133159428Y-126507380D01*
X133064190Y-126459761D01*
X133016571Y-126412142D01*
X132968952Y-126316904D01*
X132968952Y-126031190D01*
X133016571Y-125935952D01*
X133064190Y-125888333D01*
X133159428Y-125840714D01*
X133349904Y-125840714D01*
X133445142Y-125888333D01*
X133873714Y-126507380D02*
X133873714Y-125840714D01*
X133873714Y-125507380D02*
X133826095Y-125555000D01*
X133873714Y-125602619D01*
X133921333Y-125555000D01*
X133873714Y-125507380D01*
X133873714Y-125602619D01*
X134778476Y-126507380D02*
X134778476Y-125983571D01*
X134730857Y-125888333D01*
X134635619Y-125840714D01*
X134445142Y-125840714D01*
X134349904Y-125888333D01*
X134778476Y-126459761D02*
X134683238Y-126507380D01*
X134445142Y-126507380D01*
X134349904Y-126459761D01*
X134302285Y-126364523D01*
X134302285Y-126269285D01*
X134349904Y-126174047D01*
X134445142Y-126126428D01*
X134683238Y-126126428D01*
X134778476Y-126078809D01*
X135397523Y-126507380D02*
X135302285Y-126459761D01*
X135254666Y-126364523D01*
X135254666Y-125507380D01*
X131516571Y-122483571D02*
X131183238Y-122483571D01*
X131183238Y-123007380D02*
X131183238Y-122007380D01*
X131659428Y-122007380D01*
X132040380Y-123007380D02*
X132040380Y-122007380D01*
X132516571Y-123007380D02*
X132516571Y-122007380D01*
X132754666Y-122007380D01*
X132897523Y-122055000D01*
X132992761Y-122150238D01*
X133040380Y-122245476D01*
X133088000Y-122435952D01*
X133088000Y-122578809D01*
X133040380Y-122769285D01*
X132992761Y-122864523D01*
X132897523Y-122959761D01*
X132754666Y-123007380D01*
X132516571Y-123007380D01*
X133421333Y-122007380D02*
X134040380Y-122007380D01*
X133707047Y-122388333D01*
X133849904Y-122388333D01*
X133945142Y-122435952D01*
X133992761Y-122483571D01*
X134040380Y-122578809D01*
X134040380Y-122816904D01*
X133992761Y-122912142D01*
X133945142Y-122959761D01*
X133849904Y-123007380D01*
X133564190Y-123007380D01*
X133468952Y-122959761D01*
X133421333Y-122912142D01*
X129580380Y-105028904D02*
X129580380Y-104933666D01*
X129628000Y-104838428D01*
X129675619Y-104790809D01*
X129770857Y-104743190D01*
X129961333Y-104695571D01*
X130199428Y-104695571D01*
X130389904Y-104743190D01*
X130485142Y-104790809D01*
X130532761Y-104838428D01*
X130580380Y-104933666D01*
X130580380Y-105028904D01*
X130532761Y-105124142D01*
X130485142Y-105171761D01*
X130389904Y-105219380D01*
X130199428Y-105267000D01*
X129961333Y-105267000D01*
X129770857Y-105219380D01*
X129675619Y-105171761D01*
X129628000Y-105124142D01*
X129580380Y-105028904D01*
X130485142Y-104267000D02*
X130532761Y-104219380D01*
X130580380Y-104267000D01*
X130532761Y-104314619D01*
X130485142Y-104267000D01*
X130580380Y-104267000D01*
X130580380Y-103267000D02*
X130580380Y-103838428D01*
X130580380Y-103552714D02*
X129580380Y-103552714D01*
X129723238Y-103647952D01*
X129818476Y-103743190D01*
X129866095Y-103838428D01*
X127960380Y-104433666D02*
X127484190Y-104767000D01*
X127960380Y-105005095D02*
X126960380Y-105005095D01*
X126960380Y-104624142D01*
X127008000Y-104528904D01*
X127055619Y-104481285D01*
X127150857Y-104433666D01*
X127293714Y-104433666D01*
X127388952Y-104481285D01*
X127436571Y-104528904D01*
X127484190Y-104624142D01*
X127484190Y-105005095D01*
X127960380Y-103481285D02*
X127960380Y-104052714D01*
X127960380Y-103767000D02*
X126960380Y-103767000D01*
X127103238Y-103862238D01*
X127198476Y-103957476D01*
X127246095Y-104052714D01*
X135422380Y-105028904D02*
X135422380Y-104933666D01*
X135470000Y-104838428D01*
X135517619Y-104790809D01*
X135612857Y-104743190D01*
X135803333Y-104695571D01*
X136041428Y-104695571D01*
X136231904Y-104743190D01*
X136327142Y-104790809D01*
X136374761Y-104838428D01*
X136422380Y-104933666D01*
X136422380Y-105028904D01*
X136374761Y-105124142D01*
X136327142Y-105171761D01*
X136231904Y-105219380D01*
X136041428Y-105267000D01*
X135803333Y-105267000D01*
X135612857Y-105219380D01*
X135517619Y-105171761D01*
X135470000Y-105124142D01*
X135422380Y-105028904D01*
X136327142Y-104267000D02*
X136374761Y-104219380D01*
X136422380Y-104267000D01*
X136374761Y-104314619D01*
X136327142Y-104267000D01*
X136422380Y-104267000D01*
X136422380Y-103267000D02*
X136422380Y-103838428D01*
X136422380Y-103552714D02*
X135422380Y-103552714D01*
X135565238Y-103647952D01*
X135660476Y-103743190D01*
X135708095Y-103838428D01*
X133802380Y-104433666D02*
X133326190Y-104767000D01*
X133802380Y-105005095D02*
X132802380Y-105005095D01*
X132802380Y-104624142D01*
X132850000Y-104528904D01*
X132897619Y-104481285D01*
X132992857Y-104433666D01*
X133135714Y-104433666D01*
X133230952Y-104481285D01*
X133278571Y-104528904D01*
X133326190Y-104624142D01*
X133326190Y-105005095D01*
X132897619Y-104052714D02*
X132850000Y-104005095D01*
X132802380Y-103909857D01*
X132802380Y-103671761D01*
X132850000Y-103576523D01*
X132897619Y-103528904D01*
X132992857Y-103481285D01*
X133088095Y-103481285D01*
X133230952Y-103528904D01*
X133802380Y-104100333D01*
X133802380Y-103481285D01*
X137485523Y-103321380D02*
X136914095Y-103321380D01*
X137199809Y-103321380D02*
X137199809Y-102321380D01*
X137104571Y-102464238D01*
X137009333Y-102559476D01*
X136914095Y-102607095D01*
X138104571Y-102321380D02*
X138199809Y-102321380D01*
X138295047Y-102369000D01*
X138342666Y-102416619D01*
X138390285Y-102511857D01*
X138437904Y-102702333D01*
X138437904Y-102940428D01*
X138390285Y-103130904D01*
X138342666Y-103226142D01*
X138295047Y-103273761D01*
X138199809Y-103321380D01*
X138104571Y-103321380D01*
X138009333Y-103273761D01*
X137961714Y-103226142D01*
X137914095Y-103130904D01*
X137866476Y-102940428D01*
X137866476Y-102702333D01*
X137914095Y-102511857D01*
X137961714Y-102416619D01*
X138009333Y-102369000D01*
X138104571Y-102321380D01*
X138866476Y-103321380D02*
X138866476Y-102321380D01*
X139437904Y-103321380D02*
X139009333Y-102749952D01*
X139437904Y-102321380D02*
X138866476Y-102892809D01*
D14*
X138092666Y-101445190D02*
X137926000Y-101207095D01*
X137806952Y-101445190D02*
X137806952Y-100945190D01*
X137997428Y-100945190D01*
X138045047Y-100969000D01*
X138068857Y-100992809D01*
X138092666Y-101040428D01*
X138092666Y-101111857D01*
X138068857Y-101159476D01*
X138045047Y-101183285D01*
X137997428Y-101207095D01*
X137806952Y-101207095D01*
X138259333Y-100945190D02*
X138568857Y-100945190D01*
X138402190Y-101135666D01*
X138473619Y-101135666D01*
X138521238Y-101159476D01*
X138545047Y-101183285D01*
X138568857Y-101230904D01*
X138568857Y-101349952D01*
X138545047Y-101397571D01*
X138521238Y-101421380D01*
X138473619Y-101445190D01*
X138330761Y-101445190D01*
X138283142Y-101421380D01*
X138259333Y-101397571D01*
D11*
X159074380Y-104933666D02*
X159074380Y-105505095D01*
X159074380Y-105219380D02*
X158074380Y-105219380D01*
X158217238Y-105314619D01*
X158312476Y-105409857D01*
X158360095Y-105505095D01*
X158074380Y-104314619D02*
X158074380Y-104219380D01*
X158122000Y-104124142D01*
X158169619Y-104076523D01*
X158264857Y-104028904D01*
X158455333Y-103981285D01*
X158693428Y-103981285D01*
X158883904Y-104028904D01*
X158979142Y-104076523D01*
X159026761Y-104124142D01*
X159074380Y-104219380D01*
X159074380Y-104314619D01*
X159026761Y-104409857D01*
X158979142Y-104457476D01*
X158883904Y-104505095D01*
X158693428Y-104552714D01*
X158455333Y-104552714D01*
X158264857Y-104505095D01*
X158169619Y-104457476D01*
X158122000Y-104409857D01*
X158074380Y-104314619D01*
X158074380Y-103362238D02*
X158074380Y-103267000D01*
X158122000Y-103171761D01*
X158169619Y-103124142D01*
X158264857Y-103076523D01*
X158455333Y-103028904D01*
X158693428Y-103028904D01*
X158883904Y-103076523D01*
X158979142Y-103124142D01*
X159026761Y-103171761D01*
X159074380Y-103267000D01*
X159074380Y-103362238D01*
X159026761Y-103457476D01*
X158979142Y-103505095D01*
X158883904Y-103552714D01*
X158693428Y-103600333D01*
X158455333Y-103600333D01*
X158264857Y-103552714D01*
X158169619Y-103505095D01*
X158122000Y-103457476D01*
X158074380Y-103362238D01*
D14*
X157198190Y-104350333D02*
X156960095Y-104517000D01*
X157198190Y-104636047D02*
X156698190Y-104636047D01*
X156698190Y-104445571D01*
X156722000Y-104397952D01*
X156745809Y-104374142D01*
X156793428Y-104350333D01*
X156864857Y-104350333D01*
X156912476Y-104374142D01*
X156936285Y-104397952D01*
X156960095Y-104445571D01*
X156960095Y-104636047D01*
X156698190Y-103897952D02*
X156698190Y-104136047D01*
X156936285Y-104159857D01*
X156912476Y-104136047D01*
X156888666Y-104088428D01*
X156888666Y-103969380D01*
X156912476Y-103921761D01*
X156936285Y-103897952D01*
X156983904Y-103874142D01*
X157102952Y-103874142D01*
X157150571Y-103897952D01*
X157174380Y-103921761D01*
X157198190Y-103969380D01*
X157198190Y-104088428D01*
X157174380Y-104136047D01*
X157150571Y-104159857D01*
D11*
X152249428Y-105769380D02*
X152582761Y-106769380D01*
X152916095Y-105769380D01*
X153439904Y-105769380D02*
X153630380Y-105769380D01*
X153725619Y-105817000D01*
X153820857Y-105912238D01*
X153868476Y-106102714D01*
X153868476Y-106436047D01*
X153820857Y-106626523D01*
X153725619Y-106721761D01*
X153630380Y-106769380D01*
X153439904Y-106769380D01*
X153344666Y-106721761D01*
X153249428Y-106626523D01*
X153201809Y-106436047D01*
X153201809Y-106102714D01*
X153249428Y-105912238D01*
X153344666Y-105817000D01*
X153439904Y-105769380D01*
X154868476Y-106674142D02*
X154820857Y-106721761D01*
X154678000Y-106769380D01*
X154582761Y-106769380D01*
X154439904Y-106721761D01*
X154344666Y-106626523D01*
X154297047Y-106531285D01*
X154249428Y-106340809D01*
X154249428Y-106197952D01*
X154297047Y-106007476D01*
X154344666Y-105912238D01*
X154439904Y-105817000D01*
X154582761Y-105769380D01*
X154678000Y-105769380D01*
X154820857Y-105817000D01*
X154868476Y-105864619D01*
X155297047Y-106769380D02*
X155297047Y-105769380D01*
X155630380Y-106483666D01*
X155963714Y-105769380D01*
X155963714Y-106769380D01*
X152916095Y-101719380D02*
X153487523Y-101719380D01*
X153201809Y-102719380D02*
X153201809Y-101719380D01*
X153820857Y-102719380D02*
X153820857Y-101719380D01*
X154201809Y-101719380D01*
X154297047Y-101767000D01*
X154344666Y-101814619D01*
X154392285Y-101909857D01*
X154392285Y-102052714D01*
X154344666Y-102147952D01*
X154297047Y-102195571D01*
X154201809Y-102243190D01*
X153820857Y-102243190D01*
X154773238Y-101814619D02*
X154820857Y-101767000D01*
X154916095Y-101719380D01*
X155154190Y-101719380D01*
X155249428Y-101767000D01*
X155297047Y-101814619D01*
X155344666Y-101909857D01*
X155344666Y-102005095D01*
X155297047Y-102147952D01*
X154725619Y-102719380D01*
X155344666Y-102719380D01*
X140946285Y-109769761D02*
X141089142Y-109817380D01*
X141327238Y-109817380D01*
X141422476Y-109769761D01*
X141470095Y-109722142D01*
X141517714Y-109626904D01*
X141517714Y-109531666D01*
X141470095Y-109436428D01*
X141422476Y-109388809D01*
X141327238Y-109341190D01*
X141136761Y-109293571D01*
X141041523Y-109245952D01*
X140993904Y-109198333D01*
X140946285Y-109103095D01*
X140946285Y-109007857D01*
X140993904Y-108912619D01*
X141041523Y-108865000D01*
X141136761Y-108817380D01*
X141374857Y-108817380D01*
X141517714Y-108865000D01*
X141946285Y-109817380D02*
X141946285Y-108817380D01*
X142327238Y-108817380D01*
X142422476Y-108865000D01*
X142470095Y-108912619D01*
X142517714Y-109007857D01*
X142517714Y-109150714D01*
X142470095Y-109245952D01*
X142422476Y-109293571D01*
X142327238Y-109341190D01*
X141946285Y-109341190D01*
X140470095Y-104767380D02*
X141041523Y-104767380D01*
X140755809Y-105767380D02*
X140755809Y-104767380D01*
X141374857Y-105767380D02*
X141374857Y-104767380D01*
X141755809Y-104767380D01*
X141851047Y-104815000D01*
X141898666Y-104862619D01*
X141946285Y-104957857D01*
X141946285Y-105100714D01*
X141898666Y-105195952D01*
X141851047Y-105243571D01*
X141755809Y-105291190D01*
X141374857Y-105291190D01*
X142279619Y-104767380D02*
X142898666Y-104767380D01*
X142565333Y-105148333D01*
X142708190Y-105148333D01*
X142803428Y-105195952D01*
X142851047Y-105243571D01*
X142898666Y-105338809D01*
X142898666Y-105576904D01*
X142851047Y-105672142D01*
X142803428Y-105719761D01*
X142708190Y-105767380D01*
X142422476Y-105767380D01*
X142327238Y-105719761D01*
X142279619Y-105672142D01*
X140922476Y-103673761D02*
X141065333Y-103721380D01*
X141303428Y-103721380D01*
X141398666Y-103673761D01*
X141446285Y-103626142D01*
X141493904Y-103530904D01*
X141493904Y-103435666D01*
X141446285Y-103340428D01*
X141398666Y-103292809D01*
X141303428Y-103245190D01*
X141112952Y-103197571D01*
X141017714Y-103149952D01*
X140970095Y-103102333D01*
X140922476Y-103007095D01*
X140922476Y-102911857D01*
X140970095Y-102816619D01*
X141017714Y-102769000D01*
X141112952Y-102721380D01*
X141351047Y-102721380D01*
X141493904Y-102769000D01*
X141922476Y-103721380D02*
X141922476Y-102721380D01*
X142493904Y-103721380D01*
X142493904Y-102721380D01*
X140470095Y-98671380D02*
X141041523Y-98671380D01*
X140755809Y-99671380D02*
X140755809Y-98671380D01*
X141374857Y-99671380D02*
X141374857Y-98671380D01*
X141755809Y-98671380D01*
X141851047Y-98719000D01*
X141898666Y-98766619D01*
X141946285Y-98861857D01*
X141946285Y-99004714D01*
X141898666Y-99099952D01*
X141851047Y-99147571D01*
X141755809Y-99195190D01*
X141374857Y-99195190D01*
X142803428Y-99004714D02*
X142803428Y-99671380D01*
X142565333Y-98623761D02*
X142327238Y-99338047D01*
X142946285Y-99338047D01*
X137628380Y-108417380D02*
X137723619Y-108417380D01*
X137818857Y-108465000D01*
X137866476Y-108512619D01*
X137914095Y-108607857D01*
X137961714Y-108798333D01*
X137961714Y-109036428D01*
X137914095Y-109226904D01*
X137866476Y-109322142D01*
X137818857Y-109369761D01*
X137723619Y-109417380D01*
X137628380Y-109417380D01*
X137533142Y-109369761D01*
X137485523Y-109322142D01*
X137437904Y-109226904D01*
X137390285Y-109036428D01*
X137390285Y-108798333D01*
X137437904Y-108607857D01*
X137485523Y-108512619D01*
X137533142Y-108465000D01*
X137628380Y-108417380D01*
X138961714Y-109417380D02*
X138628380Y-108941190D01*
X138390285Y-109417380D02*
X138390285Y-108417380D01*
X138771238Y-108417380D01*
X138866476Y-108465000D01*
X138914095Y-108512619D01*
X138961714Y-108607857D01*
X138961714Y-108750714D01*
X138914095Y-108845952D01*
X138866476Y-108893571D01*
X138771238Y-108941190D01*
X138390285Y-108941190D01*
D14*
X138092666Y-107541190D02*
X137926000Y-107303095D01*
X137806952Y-107541190D02*
X137806952Y-107041190D01*
X137997428Y-107041190D01*
X138045047Y-107065000D01*
X138068857Y-107088809D01*
X138092666Y-107136428D01*
X138092666Y-107207857D01*
X138068857Y-107255476D01*
X138045047Y-107279285D01*
X137997428Y-107303095D01*
X137806952Y-107303095D01*
X138521238Y-107207857D02*
X138521238Y-107541190D01*
X138402190Y-107017380D02*
X138283142Y-107374523D01*
X138592666Y-107374523D01*
D11*
X142748666Y-100819380D02*
X143415333Y-100819380D01*
X142748666Y-101819380D01*
X143415333Y-101819380D01*
X143701047Y-100819380D02*
X144367714Y-101819380D01*
X144367714Y-100819380D02*
X143701047Y-101819380D01*
X145320095Y-101724142D02*
X145272476Y-101771761D01*
X145129619Y-101819380D01*
X145034380Y-101819380D01*
X144891523Y-101771761D01*
X144796285Y-101676523D01*
X144748666Y-101581285D01*
X144701047Y-101390809D01*
X144701047Y-101247952D01*
X144748666Y-101057476D01*
X144796285Y-100962238D01*
X144891523Y-100867000D01*
X145034380Y-100819380D01*
X145129619Y-100819380D01*
X145272476Y-100867000D01*
X145320095Y-100914619D01*
X145605809Y-100819380D02*
X146177238Y-100819380D01*
X145891523Y-101819380D02*
X145891523Y-100819380D01*
X147034380Y-101819380D02*
X146462952Y-101819380D01*
X146748666Y-101819380D02*
X146748666Y-100819380D01*
X146653428Y-100962238D01*
X146558190Y-101057476D01*
X146462952Y-101105095D01*
X147653428Y-100819380D02*
X147748666Y-100819380D01*
X147843904Y-100867000D01*
X147891523Y-100914619D01*
X147939142Y-101009857D01*
X147986761Y-101200333D01*
X147986761Y-101438428D01*
X147939142Y-101628904D01*
X147891523Y-101724142D01*
X147843904Y-101771761D01*
X147748666Y-101819380D01*
X147653428Y-101819380D01*
X147558190Y-101771761D01*
X147510571Y-101724142D01*
X147462952Y-101628904D01*
X147415333Y-101438428D01*
X147415333Y-101200333D01*
X147462952Y-101009857D01*
X147510571Y-100914619D01*
X147558190Y-100867000D01*
X147653428Y-100819380D01*
X148558190Y-101247952D02*
X148462952Y-101200333D01*
X148415333Y-101152714D01*
X148367714Y-101057476D01*
X148367714Y-101009857D01*
X148415333Y-100914619D01*
X148462952Y-100867000D01*
X148558190Y-100819380D01*
X148748666Y-100819380D01*
X148843904Y-100867000D01*
X148891523Y-100914619D01*
X148939142Y-101009857D01*
X148939142Y-101057476D01*
X148891523Y-101152714D01*
X148843904Y-101200333D01*
X148748666Y-101247952D01*
X148558190Y-101247952D01*
X148462952Y-101295571D01*
X148415333Y-101343190D01*
X148367714Y-101438428D01*
X148367714Y-101628904D01*
X148415333Y-101724142D01*
X148462952Y-101771761D01*
X148558190Y-101819380D01*
X148748666Y-101819380D01*
X148843904Y-101771761D01*
X148891523Y-101724142D01*
X148939142Y-101628904D01*
X148939142Y-101438428D01*
X148891523Y-101343190D01*
X148843904Y-101295571D01*
X148748666Y-101247952D01*
X149558190Y-100819380D02*
X149653428Y-100819380D01*
X149748666Y-100867000D01*
X149796285Y-100914619D01*
X149843904Y-101009857D01*
X149891523Y-101200333D01*
X149891523Y-101438428D01*
X149843904Y-101628904D01*
X149796285Y-101724142D01*
X149748666Y-101771761D01*
X149653428Y-101819380D01*
X149558190Y-101819380D01*
X149462952Y-101771761D01*
X149415333Y-101724142D01*
X149367714Y-101628904D01*
X149320095Y-101438428D01*
X149320095Y-101200333D01*
X149367714Y-101009857D01*
X149415333Y-100914619D01*
X149462952Y-100867000D01*
X149558190Y-100819380D01*
X150320095Y-101295571D02*
X150653428Y-101295571D01*
X150796285Y-101819380D02*
X150320095Y-101819380D01*
X150320095Y-100819380D01*
X150796285Y-100819380D01*
X151701047Y-100819380D02*
X151224857Y-100819380D01*
X151177238Y-101295571D01*
X151224857Y-101247952D01*
X151320095Y-101200333D01*
X151558190Y-101200333D01*
X151653428Y-101247952D01*
X151701047Y-101295571D01*
X151748666Y-101390809D01*
X151748666Y-101628904D01*
X151701047Y-101724142D01*
X151653428Y-101771761D01*
X151558190Y-101819380D01*
X151320095Y-101819380D01*
X151224857Y-101771761D01*
X151177238Y-101724142D01*
X152034380Y-100819380D02*
X152605809Y-100819380D01*
X152320095Y-101819380D02*
X152320095Y-100819380D01*
X152891523Y-101533666D02*
X153367714Y-101533666D01*
X152796285Y-101819380D02*
X153129619Y-100819380D01*
X153462952Y-101819380D01*
D15*
X147808190Y-104647952D02*
X148212952Y-104647952D01*
X148260571Y-104624142D01*
X148284380Y-104600333D01*
X148308190Y-104552714D01*
X148308190Y-104457476D01*
X148284380Y-104409857D01*
X148260571Y-104386047D01*
X148212952Y-104362238D01*
X147808190Y-104362238D01*
X148308190Y-103862238D02*
X148308190Y-104147952D01*
X148308190Y-104005095D02*
X147808190Y-104005095D01*
X147879619Y-104052714D01*
X147927238Y-104100333D01*
X147951047Y-104147952D01*
D11*
X124730380Y-105600333D02*
X123730380Y-105600333D01*
X123730380Y-105219380D01*
X123778000Y-105124142D01*
X123825619Y-105076523D01*
X123920857Y-105028904D01*
X124063714Y-105028904D01*
X124158952Y-105076523D01*
X124206571Y-105124142D01*
X124254190Y-105219380D01*
X124254190Y-105600333D01*
X123730380Y-104695571D02*
X124730380Y-104457476D01*
X124016095Y-104267000D01*
X124730380Y-104076523D01*
X123730380Y-103838428D01*
X124730380Y-102886047D02*
X124254190Y-103219380D01*
X124730380Y-103457476D02*
X123730380Y-103457476D01*
X123730380Y-103076523D01*
X123778000Y-102981285D01*
X123825619Y-102933666D01*
X123920857Y-102886047D01*
X124063714Y-102886047D01*
X124158952Y-102933666D01*
X124206571Y-102981285D01*
X124254190Y-103076523D01*
X124254190Y-103457476D01*
X121270380Y-104600333D02*
X121984666Y-104600333D01*
X122127523Y-104647952D01*
X122222761Y-104743190D01*
X122270380Y-104886047D01*
X122270380Y-104981285D01*
X122270380Y-103600333D02*
X122270380Y-104171761D01*
X122270380Y-103886047D02*
X121270380Y-103886047D01*
X121413238Y-103981285D01*
X121508476Y-104076523D01*
X121556095Y-104171761D01*
X144002285Y-109417380D02*
X144002285Y-108417380D01*
X144240380Y-108417380D01*
X144383238Y-108465000D01*
X144478476Y-108560238D01*
X144526095Y-108655476D01*
X144573714Y-108845952D01*
X144573714Y-108988809D01*
X144526095Y-109179285D01*
X144478476Y-109274523D01*
X144383238Y-109369761D01*
X144240380Y-109417380D01*
X144002285Y-109417380D01*
X145002285Y-109417380D02*
X145002285Y-108417380D01*
X145573714Y-109417380D01*
X145573714Y-108417380D01*
X146049904Y-109417380D02*
X146049904Y-108417380D01*
X146430857Y-108417380D01*
X146526095Y-108465000D01*
X146573714Y-108512619D01*
X146621333Y-108607857D01*
X146621333Y-108750714D01*
X146573714Y-108845952D01*
X146526095Y-108893571D01*
X146430857Y-108941190D01*
X146049904Y-108941190D01*
D14*
X145204666Y-107541190D02*
X145038000Y-107303095D01*
X144918952Y-107541190D02*
X144918952Y-107041190D01*
X145109428Y-107041190D01*
X145157047Y-107065000D01*
X145180857Y-107088809D01*
X145204666Y-107136428D01*
X145204666Y-107207857D01*
X145180857Y-107255476D01*
X145157047Y-107279285D01*
X145109428Y-107303095D01*
X144918952Y-107303095D01*
X145633238Y-107041190D02*
X145538000Y-107041190D01*
X145490380Y-107065000D01*
X145466571Y-107088809D01*
X145418952Y-107160238D01*
X145395142Y-107255476D01*
X145395142Y-107445952D01*
X145418952Y-107493571D01*
X145442761Y-107517380D01*
X145490380Y-107541190D01*
X145585619Y-107541190D01*
X145633238Y-107517380D01*
X145657047Y-107493571D01*
X145680857Y-107445952D01*
X145680857Y-107326904D01*
X145657047Y-107279285D01*
X145633238Y-107255476D01*
X145585619Y-107231666D01*
X145490380Y-107231666D01*
X145442761Y-107255476D01*
X145418952Y-107279285D01*
X145395142Y-107326904D01*
D11*
X144002285Y-103321380D02*
X144002285Y-102321380D01*
X144240380Y-102321380D01*
X144383238Y-102369000D01*
X144478476Y-102464238D01*
X144526095Y-102559476D01*
X144573714Y-102749952D01*
X144573714Y-102892809D01*
X144526095Y-103083285D01*
X144478476Y-103178523D01*
X144383238Y-103273761D01*
X144240380Y-103321380D01*
X144002285Y-103321380D01*
X145002285Y-103321380D02*
X145002285Y-102321380D01*
X145573714Y-103321380D01*
X145573714Y-102321380D01*
X146049904Y-103321380D02*
X146049904Y-102321380D01*
X146430857Y-102321380D01*
X146526095Y-102369000D01*
X146573714Y-102416619D01*
X146621333Y-102511857D01*
X146621333Y-102654714D01*
X146573714Y-102749952D01*
X146526095Y-102797571D01*
X146430857Y-102845190D01*
X146049904Y-102845190D01*
D14*
X145204666Y-101445190D02*
X145038000Y-101207095D01*
X144918952Y-101445190D02*
X144918952Y-100945190D01*
X145109428Y-100945190D01*
X145157047Y-100969000D01*
X145180857Y-100992809D01*
X145204666Y-101040428D01*
X145204666Y-101111857D01*
X145180857Y-101159476D01*
X145157047Y-101183285D01*
X145109428Y-101207095D01*
X144918952Y-101207095D01*
X145371333Y-100945190D02*
X145704666Y-100945190D01*
X145490380Y-101445190D01*
D11*
X157480095Y-109373000D02*
X157384857Y-109325380D01*
X157242000Y-109325380D01*
X157099142Y-109373000D01*
X157003904Y-109468238D01*
X156956285Y-109563476D01*
X156908666Y-109753952D01*
X156908666Y-109896809D01*
X156956285Y-110087285D01*
X157003904Y-110182523D01*
X157099142Y-110277761D01*
X157242000Y-110325380D01*
X157337238Y-110325380D01*
X157480095Y-110277761D01*
X157527714Y-110230142D01*
X157527714Y-109896809D01*
X157337238Y-109896809D01*
X157956285Y-110325380D02*
X157956285Y-109325380D01*
X158527714Y-110325380D01*
X158527714Y-109325380D01*
X159003904Y-110325380D02*
X159003904Y-109325380D01*
X159242000Y-109325380D01*
X159384857Y-109373000D01*
X159480095Y-109468238D01*
X159527714Y-109563476D01*
X159575333Y-109753952D01*
X159575333Y-109896809D01*
X159527714Y-110087285D01*
X159480095Y-110182523D01*
X159384857Y-110277761D01*
X159242000Y-110325380D01*
X159003904Y-110325380D01*
X156980095Y-105275380D02*
X157551523Y-105275380D01*
X157265809Y-106275380D02*
X157265809Y-105275380D01*
X157884857Y-106275380D02*
X157884857Y-105275380D01*
X158265809Y-105275380D01*
X158361047Y-105323000D01*
X158408666Y-105370619D01*
X158456285Y-105465857D01*
X158456285Y-105608714D01*
X158408666Y-105703952D01*
X158361047Y-105751571D01*
X158265809Y-105799190D01*
X157884857Y-105799190D01*
X159361047Y-105275380D02*
X158884857Y-105275380D01*
X158837238Y-105751571D01*
X158884857Y-105703952D01*
X158980095Y-105656333D01*
X159218190Y-105656333D01*
X159313428Y-105703952D01*
X159361047Y-105751571D01*
X159408666Y-105846809D01*
X159408666Y-106084904D01*
X159361047Y-106180142D01*
X159313428Y-106227761D01*
X159218190Y-106275380D01*
X158980095Y-106275380D01*
X158884857Y-106227761D01*
X158837238Y-106180142D01*
M02*
