G04 #@! TF.GenerationSoftware,KiCad,Pcbnew,5.1.5-52549c5~84~ubuntu16.04.1*
G04 #@! TF.CreationDate,2020-03-02T18:44:08+01:00*
G04 #@! TF.ProjectId,AE01.01.01.001,41453031-2e30-4312-9e30-312e3030312e,1*
G04 #@! TF.SameCoordinates,Original*
G04 #@! TF.FileFunction,Copper,L1,Top*
G04 #@! TF.FilePolarity,Positive*
%FSLAX46Y46*%
G04 Gerber Fmt 4.6, Leading zero omitted, Abs format (unit mm)*
G04 Created by KiCad (PCBNEW 5.1.5-52549c5~84~ubuntu16.04.1) date 2020-03-02 18:44:08*
%MOMM*%
%LPD*%
G04 APERTURE LIST*
%ADD10C,0.100000*%
%ADD11C,0.150000*%
%ADD12C,0.300000*%
%ADD13C,0.400000*%
%ADD14C,0.650000*%
%ADD15C,2.000000*%
%ADD16O,1.727200X2.032000*%
%ADD17C,4.064000*%
%ADD18R,1.060000X0.650000*%
%ADD19R,2.600000X2.600000*%
%ADD20C,2.600000*%
%ADD21C,0.600000*%
%ADD22C,0.250000*%
%ADD23C,0.254000*%
G04 APERTURE END LIST*
D10*
D11*
X177002200Y-166007200D02*
X177002200Y-198007200D01*
X285002200Y-198007200D01*
X285002200Y-166007200D01*
X177002200Y-166007200D01*
D10*
D11*
X10000000Y-10000000D02*
X10000000Y-200007200D01*
X287002200Y-200007200D01*
X287002200Y-10000000D01*
X10000000Y-10000000D01*
D10*
D11*
X12000000Y-12000000D02*
X12000000Y-198007200D01*
X285002200Y-198007200D01*
X285002200Y-12000000D01*
X12000000Y-12000000D01*
D10*
D11*
X60000000Y-12000000D02*
X60000000Y-10000000D01*
D10*
D11*
X110000000Y-12000000D02*
X110000000Y-10000000D01*
D10*
D11*
X160000000Y-12000000D02*
X160000000Y-10000000D01*
D10*
D11*
X210000000Y-12000000D02*
X210000000Y-10000000D01*
D10*
D11*
X260000000Y-12000000D02*
X260000000Y-10000000D01*
D10*
D11*
X36065476Y-11588095D02*
X35322619Y-11588095D01*
X35694047Y-11588095D02*
X35694047Y-10288095D01*
X35570238Y-10473809D01*
X35446428Y-10597619D01*
X35322619Y-10659523D01*
D10*
D11*
X85322619Y-10411904D02*
X85384523Y-10350000D01*
X85508333Y-10288095D01*
X85817857Y-10288095D01*
X85941666Y-10350000D01*
X86003571Y-10411904D01*
X86065476Y-10535714D01*
X86065476Y-10659523D01*
X86003571Y-10845238D01*
X85260714Y-11588095D01*
X86065476Y-11588095D01*
D10*
D11*
X135260714Y-10288095D02*
X136065476Y-10288095D01*
X135632142Y-10783333D01*
X135817857Y-10783333D01*
X135941666Y-10845238D01*
X136003571Y-10907142D01*
X136065476Y-11030952D01*
X136065476Y-11340476D01*
X136003571Y-11464285D01*
X135941666Y-11526190D01*
X135817857Y-11588095D01*
X135446428Y-11588095D01*
X135322619Y-11526190D01*
X135260714Y-11464285D01*
D10*
D11*
X185941666Y-10721428D02*
X185941666Y-11588095D01*
X185632142Y-10226190D02*
X185322619Y-11154761D01*
X186127380Y-11154761D01*
D10*
D11*
X236003571Y-10288095D02*
X235384523Y-10288095D01*
X235322619Y-10907142D01*
X235384523Y-10845238D01*
X235508333Y-10783333D01*
X235817857Y-10783333D01*
X235941666Y-10845238D01*
X236003571Y-10907142D01*
X236065476Y-11030952D01*
X236065476Y-11340476D01*
X236003571Y-11464285D01*
X235941666Y-11526190D01*
X235817857Y-11588095D01*
X235508333Y-11588095D01*
X235384523Y-11526190D01*
X235322619Y-11464285D01*
D10*
D11*
X285941666Y-10288095D02*
X285694047Y-10288095D01*
X285570238Y-10350000D01*
X285508333Y-10411904D01*
X285384523Y-10597619D01*
X285322619Y-10845238D01*
X285322619Y-11340476D01*
X285384523Y-11464285D01*
X285446428Y-11526190D01*
X285570238Y-11588095D01*
X285817857Y-11588095D01*
X285941666Y-11526190D01*
X286003571Y-11464285D01*
X286065476Y-11340476D01*
X286065476Y-11030952D01*
X286003571Y-10907142D01*
X285941666Y-10845238D01*
X285817857Y-10783333D01*
X285570238Y-10783333D01*
X285446428Y-10845238D01*
X285384523Y-10907142D01*
X285322619Y-11030952D01*
D10*
D11*
X60000000Y-198007200D02*
X60000000Y-200007200D01*
D10*
D11*
X110000000Y-198007200D02*
X110000000Y-200007200D01*
D10*
D11*
X160000000Y-198007200D02*
X160000000Y-200007200D01*
D10*
D11*
X210000000Y-198007200D02*
X210000000Y-200007200D01*
D10*
D11*
X260000000Y-198007200D02*
X260000000Y-200007200D01*
D10*
D11*
X36065476Y-199595295D02*
X35322619Y-199595295D01*
X35694047Y-199595295D02*
X35694047Y-198295295D01*
X35570238Y-198481009D01*
X35446428Y-198604819D01*
X35322619Y-198666723D01*
D10*
D11*
X85322619Y-198419104D02*
X85384523Y-198357200D01*
X85508333Y-198295295D01*
X85817857Y-198295295D01*
X85941666Y-198357200D01*
X86003571Y-198419104D01*
X86065476Y-198542914D01*
X86065476Y-198666723D01*
X86003571Y-198852438D01*
X85260714Y-199595295D01*
X86065476Y-199595295D01*
D10*
D11*
X135260714Y-198295295D02*
X136065476Y-198295295D01*
X135632142Y-198790533D01*
X135817857Y-198790533D01*
X135941666Y-198852438D01*
X136003571Y-198914342D01*
X136065476Y-199038152D01*
X136065476Y-199347676D01*
X136003571Y-199471485D01*
X135941666Y-199533390D01*
X135817857Y-199595295D01*
X135446428Y-199595295D01*
X135322619Y-199533390D01*
X135260714Y-199471485D01*
D10*
D11*
X185941666Y-198728628D02*
X185941666Y-199595295D01*
X185632142Y-198233390D02*
X185322619Y-199161961D01*
X186127380Y-199161961D01*
D10*
D11*
X236003571Y-198295295D02*
X235384523Y-198295295D01*
X235322619Y-198914342D01*
X235384523Y-198852438D01*
X235508333Y-198790533D01*
X235817857Y-198790533D01*
X235941666Y-198852438D01*
X236003571Y-198914342D01*
X236065476Y-199038152D01*
X236065476Y-199347676D01*
X236003571Y-199471485D01*
X235941666Y-199533390D01*
X235817857Y-199595295D01*
X235508333Y-199595295D01*
X235384523Y-199533390D01*
X235322619Y-199471485D01*
D10*
D11*
X285941666Y-198295295D02*
X285694047Y-198295295D01*
X285570238Y-198357200D01*
X285508333Y-198419104D01*
X285384523Y-198604819D01*
X285322619Y-198852438D01*
X285322619Y-199347676D01*
X285384523Y-199471485D01*
X285446428Y-199533390D01*
X285570238Y-199595295D01*
X285817857Y-199595295D01*
X285941666Y-199533390D01*
X286003571Y-199471485D01*
X286065476Y-199347676D01*
X286065476Y-199038152D01*
X286003571Y-198914342D01*
X285941666Y-198852438D01*
X285817857Y-198790533D01*
X285570238Y-198790533D01*
X285446428Y-198852438D01*
X285384523Y-198914342D01*
X285322619Y-199038152D01*
D10*
D11*
X10000000Y-60000000D02*
X12000000Y-60000000D01*
D10*
D11*
X10000000Y-110000000D02*
X12000000Y-110000000D01*
D10*
D11*
X10000000Y-160000000D02*
X12000000Y-160000000D01*
D10*
D11*
X10690476Y-35216666D02*
X11309523Y-35216666D01*
X10566666Y-35588095D02*
X11000000Y-34288095D01*
X11433333Y-35588095D01*
D10*
D11*
X11092857Y-84907142D02*
X11278571Y-84969047D01*
X11340476Y-85030952D01*
X11402380Y-85154761D01*
X11402380Y-85340476D01*
X11340476Y-85464285D01*
X11278571Y-85526190D01*
X11154761Y-85588095D01*
X10659523Y-85588095D01*
X10659523Y-84288095D01*
X11092857Y-84288095D01*
X11216666Y-84350000D01*
X11278571Y-84411904D01*
X11340476Y-84535714D01*
X11340476Y-84659523D01*
X11278571Y-84783333D01*
X11216666Y-84845238D01*
X11092857Y-84907142D01*
X10659523Y-84907142D01*
D10*
D11*
X11402380Y-135464285D02*
X11340476Y-135526190D01*
X11154761Y-135588095D01*
X11030952Y-135588095D01*
X10845238Y-135526190D01*
X10721428Y-135402380D01*
X10659523Y-135278571D01*
X10597619Y-135030952D01*
X10597619Y-134845238D01*
X10659523Y-134597619D01*
X10721428Y-134473809D01*
X10845238Y-134350000D01*
X11030952Y-134288095D01*
X11154761Y-134288095D01*
X11340476Y-134350000D01*
X11402380Y-134411904D01*
D10*
D11*
X10659523Y-185588095D02*
X10659523Y-184288095D01*
X10969047Y-184288095D01*
X11154761Y-184350000D01*
X11278571Y-184473809D01*
X11340476Y-184597619D01*
X11402380Y-184845238D01*
X11402380Y-185030952D01*
X11340476Y-185278571D01*
X11278571Y-185402380D01*
X11154761Y-185526190D01*
X10969047Y-185588095D01*
X10659523Y-185588095D01*
D10*
D11*
X287002200Y-60000000D02*
X285002200Y-60000000D01*
D10*
D11*
X287002200Y-110000000D02*
X285002200Y-110000000D01*
D10*
D11*
X287002200Y-160000000D02*
X285002200Y-160000000D01*
D10*
D11*
X285692676Y-35216666D02*
X286311723Y-35216666D01*
X285568866Y-35588095D02*
X286002200Y-34288095D01*
X286435533Y-35588095D01*
D10*
D11*
X286095057Y-84907142D02*
X286280771Y-84969047D01*
X286342676Y-85030952D01*
X286404580Y-85154761D01*
X286404580Y-85340476D01*
X286342676Y-85464285D01*
X286280771Y-85526190D01*
X286156961Y-85588095D01*
X285661723Y-85588095D01*
X285661723Y-84288095D01*
X286095057Y-84288095D01*
X286218866Y-84350000D01*
X286280771Y-84411904D01*
X286342676Y-84535714D01*
X286342676Y-84659523D01*
X286280771Y-84783333D01*
X286218866Y-84845238D01*
X286095057Y-84907142D01*
X285661723Y-84907142D01*
D10*
D11*
X286404580Y-135464285D02*
X286342676Y-135526190D01*
X286156961Y-135588095D01*
X286033152Y-135588095D01*
X285847438Y-135526190D01*
X285723628Y-135402380D01*
X285661723Y-135278571D01*
X285599819Y-135030952D01*
X285599819Y-134845238D01*
X285661723Y-134597619D01*
X285723628Y-134473809D01*
X285847438Y-134350000D01*
X286033152Y-134288095D01*
X286156961Y-134288095D01*
X286342676Y-134350000D01*
X286404580Y-134411904D01*
D10*
D11*
X285661723Y-185588095D02*
X285661723Y-184288095D01*
X285971247Y-184288095D01*
X286156961Y-184350000D01*
X286280771Y-184473809D01*
X286342676Y-184597619D01*
X286404580Y-184845238D01*
X286404580Y-185030952D01*
X286342676Y-185278571D01*
X286280771Y-185402380D01*
X286156961Y-185526190D01*
X285971247Y-185588095D01*
X285661723Y-185588095D01*
D10*
D11*
X200434342Y-193785771D02*
X200434342Y-192285771D01*
X200791485Y-192285771D01*
X201005771Y-192357200D01*
X201148628Y-192500057D01*
X201220057Y-192642914D01*
X201291485Y-192928628D01*
X201291485Y-193142914D01*
X201220057Y-193428628D01*
X201148628Y-193571485D01*
X201005771Y-193714342D01*
X200791485Y-193785771D01*
X200434342Y-193785771D01*
X202577200Y-193785771D02*
X202577200Y-193000057D01*
X202505771Y-192857200D01*
X202362914Y-192785771D01*
X202077200Y-192785771D01*
X201934342Y-192857200D01*
X202577200Y-193714342D02*
X202434342Y-193785771D01*
X202077200Y-193785771D01*
X201934342Y-193714342D01*
X201862914Y-193571485D01*
X201862914Y-193428628D01*
X201934342Y-193285771D01*
X202077200Y-193214342D01*
X202434342Y-193214342D01*
X202577200Y-193142914D01*
X203077200Y-192785771D02*
X203648628Y-192785771D01*
X203291485Y-192285771D02*
X203291485Y-193571485D01*
X203362914Y-193714342D01*
X203505771Y-193785771D01*
X203648628Y-193785771D01*
X204720057Y-193714342D02*
X204577200Y-193785771D01*
X204291485Y-193785771D01*
X204148628Y-193714342D01*
X204077200Y-193571485D01*
X204077200Y-193000057D01*
X204148628Y-192857200D01*
X204291485Y-192785771D01*
X204577200Y-192785771D01*
X204720057Y-192857200D01*
X204791485Y-193000057D01*
X204791485Y-193142914D01*
X204077200Y-193285771D01*
X205434342Y-193642914D02*
X205505771Y-193714342D01*
X205434342Y-193785771D01*
X205362914Y-193714342D01*
X205434342Y-193642914D01*
X205434342Y-193785771D01*
X205434342Y-192857200D02*
X205505771Y-192928628D01*
X205434342Y-193000057D01*
X205362914Y-192928628D01*
X205434342Y-192857200D01*
X205434342Y-193000057D01*
X207220057Y-192428628D02*
X207291485Y-192357200D01*
X207434342Y-192285771D01*
X207791485Y-192285771D01*
X207934342Y-192357200D01*
X208005771Y-192428628D01*
X208077200Y-192571485D01*
X208077200Y-192714342D01*
X208005771Y-192928628D01*
X207148628Y-193785771D01*
X208077200Y-193785771D01*
X209005771Y-192285771D02*
X209148628Y-192285771D01*
X209291485Y-192357200D01*
X209362914Y-192428628D01*
X209434342Y-192571485D01*
X209505771Y-192857200D01*
X209505771Y-193214342D01*
X209434342Y-193500057D01*
X209362914Y-193642914D01*
X209291485Y-193714342D01*
X209148628Y-193785771D01*
X209005771Y-193785771D01*
X208862914Y-193714342D01*
X208791485Y-193642914D01*
X208720057Y-193500057D01*
X208648628Y-193214342D01*
X208648628Y-192857200D01*
X208720057Y-192571485D01*
X208791485Y-192428628D01*
X208862914Y-192357200D01*
X209005771Y-192285771D01*
X210077200Y-192428628D02*
X210148628Y-192357200D01*
X210291485Y-192285771D01*
X210648628Y-192285771D01*
X210791485Y-192357200D01*
X210862914Y-192428628D01*
X210934342Y-192571485D01*
X210934342Y-192714342D01*
X210862914Y-192928628D01*
X210005771Y-193785771D01*
X210934342Y-193785771D01*
X211862914Y-192285771D02*
X212005771Y-192285771D01*
X212148628Y-192357200D01*
X212220057Y-192428628D01*
X212291485Y-192571485D01*
X212362914Y-192857200D01*
X212362914Y-193214342D01*
X212291485Y-193500057D01*
X212220057Y-193642914D01*
X212148628Y-193714342D01*
X212005771Y-193785771D01*
X211862914Y-193785771D01*
X211720057Y-193714342D01*
X211648628Y-193642914D01*
X211577200Y-193500057D01*
X211505771Y-193214342D01*
X211505771Y-192857200D01*
X211577200Y-192571485D01*
X211648628Y-192428628D01*
X211720057Y-192357200D01*
X211862914Y-192285771D01*
X213005771Y-193214342D02*
X214148628Y-193214342D01*
X215148628Y-192285771D02*
X215291485Y-192285771D01*
X215434342Y-192357200D01*
X215505771Y-192428628D01*
X215577200Y-192571485D01*
X215648628Y-192857200D01*
X215648628Y-193214342D01*
X215577200Y-193500057D01*
X215505771Y-193642914D01*
X215434342Y-193714342D01*
X215291485Y-193785771D01*
X215148628Y-193785771D01*
X215005771Y-193714342D01*
X214934342Y-193642914D01*
X214862914Y-193500057D01*
X214791485Y-193214342D01*
X214791485Y-192857200D01*
X214862914Y-192571485D01*
X214934342Y-192428628D01*
X215005771Y-192357200D01*
X215148628Y-192285771D01*
X216148628Y-192285771D02*
X217077200Y-192285771D01*
X216577200Y-192857200D01*
X216791485Y-192857200D01*
X216934342Y-192928628D01*
X217005771Y-193000057D01*
X217077200Y-193142914D01*
X217077200Y-193500057D01*
X217005771Y-193642914D01*
X216934342Y-193714342D01*
X216791485Y-193785771D01*
X216362914Y-193785771D01*
X216220057Y-193714342D01*
X216148628Y-193642914D01*
X217720057Y-193214342D02*
X218862914Y-193214342D01*
X219862914Y-192285771D02*
X220005771Y-192285771D01*
X220148628Y-192357200D01*
X220220057Y-192428628D01*
X220291485Y-192571485D01*
X220362914Y-192857200D01*
X220362914Y-193214342D01*
X220291485Y-193500057D01*
X220220057Y-193642914D01*
X220148628Y-193714342D01*
X220005771Y-193785771D01*
X219862914Y-193785771D01*
X219720057Y-193714342D01*
X219648628Y-193642914D01*
X219577200Y-193500057D01*
X219505771Y-193214342D01*
X219505771Y-192857200D01*
X219577200Y-192571485D01*
X219648628Y-192428628D01*
X219720057Y-192357200D01*
X219862914Y-192285771D01*
X220934342Y-192428628D02*
X221005771Y-192357200D01*
X221148628Y-192285771D01*
X221505771Y-192285771D01*
X221648628Y-192357200D01*
X221720057Y-192428628D01*
X221791485Y-192571485D01*
X221791485Y-192714342D01*
X221720057Y-192928628D01*
X220862914Y-193785771D01*
X221791485Y-193785771D01*
D10*
D11*
X177002200Y-194507200D02*
X285002200Y-194507200D01*
D10*
D11*
X178434342Y-196585771D02*
X178434342Y-195085771D01*
X179291485Y-196585771D02*
X178648628Y-195728628D01*
X179291485Y-195085771D02*
X178434342Y-195942914D01*
X179934342Y-196585771D02*
X179934342Y-195585771D01*
X179934342Y-195085771D02*
X179862914Y-195157200D01*
X179934342Y-195228628D01*
X180005771Y-195157200D01*
X179934342Y-195085771D01*
X179934342Y-195228628D01*
X181505771Y-196442914D02*
X181434342Y-196514342D01*
X181220057Y-196585771D01*
X181077200Y-196585771D01*
X180862914Y-196514342D01*
X180720057Y-196371485D01*
X180648628Y-196228628D01*
X180577200Y-195942914D01*
X180577200Y-195728628D01*
X180648628Y-195442914D01*
X180720057Y-195300057D01*
X180862914Y-195157200D01*
X181077200Y-195085771D01*
X181220057Y-195085771D01*
X181434342Y-195157200D01*
X181505771Y-195228628D01*
X182791485Y-196585771D02*
X182791485Y-195800057D01*
X182720057Y-195657200D01*
X182577200Y-195585771D01*
X182291485Y-195585771D01*
X182148628Y-195657200D01*
X182791485Y-196514342D02*
X182648628Y-196585771D01*
X182291485Y-196585771D01*
X182148628Y-196514342D01*
X182077200Y-196371485D01*
X182077200Y-196228628D01*
X182148628Y-196085771D01*
X182291485Y-196014342D01*
X182648628Y-196014342D01*
X182791485Y-195942914D01*
X184148628Y-196585771D02*
X184148628Y-195085771D01*
X184148628Y-196514342D02*
X184005771Y-196585771D01*
X183720057Y-196585771D01*
X183577200Y-196514342D01*
X183505771Y-196442914D01*
X183434342Y-196300057D01*
X183434342Y-195871485D01*
X183505771Y-195728628D01*
X183577200Y-195657200D01*
X183720057Y-195585771D01*
X184005771Y-195585771D01*
X184148628Y-195657200D01*
X186005771Y-195800057D02*
X186505771Y-195800057D01*
X186720057Y-196585771D02*
X186005771Y-196585771D01*
X186005771Y-195085771D01*
X186720057Y-195085771D01*
X187362914Y-196442914D02*
X187434342Y-196514342D01*
X187362914Y-196585771D01*
X187291485Y-196514342D01*
X187362914Y-196442914D01*
X187362914Y-196585771D01*
X188077200Y-196585771D02*
X188077200Y-195085771D01*
X188434342Y-195085771D01*
X188648628Y-195157200D01*
X188791485Y-195300057D01*
X188862914Y-195442914D01*
X188934342Y-195728628D01*
X188934342Y-195942914D01*
X188862914Y-196228628D01*
X188791485Y-196371485D01*
X188648628Y-196514342D01*
X188434342Y-196585771D01*
X188077200Y-196585771D01*
X189577200Y-196442914D02*
X189648628Y-196514342D01*
X189577200Y-196585771D01*
X189505771Y-196514342D01*
X189577200Y-196442914D01*
X189577200Y-196585771D01*
X190220057Y-196157200D02*
X190934342Y-196157200D01*
X190077200Y-196585771D02*
X190577200Y-195085771D01*
X191077200Y-196585771D01*
X191577200Y-196442914D02*
X191648628Y-196514342D01*
X191577200Y-196585771D01*
X191505771Y-196514342D01*
X191577200Y-196442914D01*
X191577200Y-196585771D01*
X194577200Y-196585771D02*
X194577200Y-195085771D01*
X194720057Y-196014342D02*
X195148628Y-196585771D01*
X195148628Y-195585771D02*
X194577200Y-196157200D01*
X195791485Y-196585771D02*
X195791485Y-195585771D01*
X195791485Y-195085771D02*
X195720057Y-195157200D01*
X195791485Y-195228628D01*
X195862914Y-195157200D01*
X195791485Y-195085771D01*
X195791485Y-195228628D01*
X197148628Y-196514342D02*
X197005771Y-196585771D01*
X196720057Y-196585771D01*
X196577200Y-196514342D01*
X196505771Y-196442914D01*
X196434342Y-196300057D01*
X196434342Y-195871485D01*
X196505771Y-195728628D01*
X196577200Y-195657200D01*
X196720057Y-195585771D01*
X197005771Y-195585771D01*
X197148628Y-195657200D01*
X198434342Y-196585771D02*
X198434342Y-195800057D01*
X198362914Y-195657200D01*
X198220057Y-195585771D01*
X197934342Y-195585771D01*
X197791485Y-195657200D01*
X198434342Y-196514342D02*
X198291485Y-196585771D01*
X197934342Y-196585771D01*
X197791485Y-196514342D01*
X197720057Y-196371485D01*
X197720057Y-196228628D01*
X197791485Y-196085771D01*
X197934342Y-196014342D01*
X198291485Y-196014342D01*
X198434342Y-195942914D01*
X199791485Y-196585771D02*
X199791485Y-195085771D01*
X199791485Y-196514342D02*
X199648628Y-196585771D01*
X199362914Y-196585771D01*
X199220057Y-196514342D01*
X199148628Y-196442914D01*
X199077200Y-196300057D01*
X199077200Y-195871485D01*
X199148628Y-195728628D01*
X199220057Y-195657200D01*
X199362914Y-195585771D01*
X199648628Y-195585771D01*
X199791485Y-195657200D01*
X202362914Y-195085771D02*
X201648628Y-195085771D01*
X201577200Y-195800057D01*
X201648628Y-195728628D01*
X201791485Y-195657200D01*
X202148628Y-195657200D01*
X202291485Y-195728628D01*
X202362914Y-195800057D01*
X202434342Y-195942914D01*
X202434342Y-196300057D01*
X202362914Y-196442914D01*
X202291485Y-196514342D01*
X202148628Y-196585771D01*
X201791485Y-196585771D01*
X201648628Y-196514342D01*
X201577200Y-196442914D01*
X203077200Y-196442914D02*
X203148628Y-196514342D01*
X203077200Y-196585771D01*
X203005771Y-196514342D01*
X203077200Y-196442914D01*
X203077200Y-196585771D01*
X204577200Y-196585771D02*
X203720057Y-196585771D01*
X204148628Y-196585771D02*
X204148628Y-195085771D01*
X204005771Y-195300057D01*
X203862914Y-195442914D01*
X203720057Y-195514342D01*
X205220057Y-196442914D02*
X205291485Y-196514342D01*
X205220057Y-196585771D01*
X205148628Y-196514342D01*
X205220057Y-196442914D01*
X205220057Y-196585771D01*
X206648628Y-195085771D02*
X205934342Y-195085771D01*
X205862914Y-195800057D01*
X205934342Y-195728628D01*
X206077200Y-195657200D01*
X206434342Y-195657200D01*
X206577200Y-195728628D01*
X206648628Y-195800057D01*
X206720057Y-195942914D01*
X206720057Y-196300057D01*
X206648628Y-196442914D01*
X206577200Y-196514342D01*
X206434342Y-196585771D01*
X206077200Y-196585771D01*
X205934342Y-196514342D01*
X205862914Y-196442914D01*
X207362914Y-196014342D02*
X208505771Y-196014342D01*
X209934342Y-195085771D02*
X209220057Y-195085771D01*
X209148628Y-195800057D01*
X209220057Y-195728628D01*
X209362914Y-195657200D01*
X209720057Y-195657200D01*
X209862914Y-195728628D01*
X209934342Y-195800057D01*
X210005771Y-195942914D01*
X210005771Y-196300057D01*
X209934342Y-196442914D01*
X209862914Y-196514342D01*
X209720057Y-196585771D01*
X209362914Y-196585771D01*
X209220057Y-196514342D01*
X209148628Y-196442914D01*
X210577200Y-195228628D02*
X210648628Y-195157200D01*
X210791485Y-195085771D01*
X211148628Y-195085771D01*
X211291485Y-195157200D01*
X211362914Y-195228628D01*
X211434342Y-195371485D01*
X211434342Y-195514342D01*
X211362914Y-195728628D01*
X210505771Y-196585771D01*
X211434342Y-196585771D01*
X212791485Y-195085771D02*
X212077200Y-195085771D01*
X212005771Y-195800057D01*
X212077200Y-195728628D01*
X212220057Y-195657200D01*
X212577200Y-195657200D01*
X212720057Y-195728628D01*
X212791485Y-195800057D01*
X212862914Y-195942914D01*
X212862914Y-196300057D01*
X212791485Y-196442914D01*
X212720057Y-196514342D01*
X212577200Y-196585771D01*
X212220057Y-196585771D01*
X212077200Y-196514342D01*
X212005771Y-196442914D01*
X214148628Y-195585771D02*
X214148628Y-196585771D01*
X213791485Y-195014342D02*
X213434342Y-196085771D01*
X214362914Y-196085771D01*
X215005771Y-196585771D02*
X215291485Y-196585771D01*
X215434342Y-196514342D01*
X215505771Y-196442914D01*
X215648628Y-196228628D01*
X215720057Y-195942914D01*
X215720057Y-195371485D01*
X215648628Y-195228628D01*
X215577200Y-195157200D01*
X215434342Y-195085771D01*
X215148628Y-195085771D01*
X215005771Y-195157200D01*
X214934342Y-195228628D01*
X214862914Y-195371485D01*
X214862914Y-195728628D01*
X214934342Y-195871485D01*
X215005771Y-195942914D01*
X215148628Y-196014342D01*
X215434342Y-196014342D01*
X215577200Y-195942914D01*
X215648628Y-195871485D01*
X215720057Y-195728628D01*
X217005771Y-196514342D02*
X216862914Y-196585771D01*
X216577200Y-196585771D01*
X216434342Y-196514342D01*
X216362914Y-196442914D01*
X216291485Y-196300057D01*
X216291485Y-195871485D01*
X216362914Y-195728628D01*
X216434342Y-195657200D01*
X216577200Y-195585771D01*
X216862914Y-195585771D01*
X217005771Y-195657200D01*
X218362914Y-195085771D02*
X217648628Y-195085771D01*
X217577200Y-195800057D01*
X217648628Y-195728628D01*
X217791485Y-195657200D01*
X218148628Y-195657200D01*
X218291485Y-195728628D01*
X218362914Y-195800057D01*
X218434342Y-195942914D01*
X218434342Y-196300057D01*
X218362914Y-196442914D01*
X218291485Y-196514342D01*
X218148628Y-196585771D01*
X217791485Y-196585771D01*
X217648628Y-196514342D01*
X217577200Y-196442914D01*
X218720057Y-194677200D02*
X220148628Y-194677200D01*
X219291485Y-195728628D02*
X219148628Y-195657200D01*
X219077200Y-195585771D01*
X219005771Y-195442914D01*
X219005771Y-195371485D01*
X219077200Y-195228628D01*
X219148628Y-195157200D01*
X219291485Y-195085771D01*
X219577200Y-195085771D01*
X219720057Y-195157200D01*
X219791485Y-195228628D01*
X219862914Y-195371485D01*
X219862914Y-195442914D01*
X219791485Y-195585771D01*
X219720057Y-195657200D01*
X219577200Y-195728628D01*
X219291485Y-195728628D01*
X219148628Y-195800057D01*
X219077200Y-195871485D01*
X219005771Y-196014342D01*
X219005771Y-196300057D01*
X219077200Y-196442914D01*
X219148628Y-196514342D01*
X219291485Y-196585771D01*
X219577200Y-196585771D01*
X219720057Y-196514342D01*
X219791485Y-196442914D01*
X219862914Y-196300057D01*
X219862914Y-196014342D01*
X219791485Y-195871485D01*
X219720057Y-195800057D01*
X219577200Y-195728628D01*
X220148628Y-194677200D02*
X221577199Y-194677200D01*
X221148628Y-195585771D02*
X221148628Y-196585771D01*
X220791485Y-195014342D02*
X220434342Y-196085771D01*
X221362914Y-196085771D01*
X222577199Y-195585771D02*
X222577199Y-196585771D01*
X221934342Y-195585771D02*
X221934342Y-196371485D01*
X222005771Y-196514342D01*
X222148628Y-196585771D01*
X222362914Y-196585771D01*
X222505771Y-196514342D01*
X222577199Y-196442914D01*
X223291485Y-196585771D02*
X223291485Y-195085771D01*
X223291485Y-195657200D02*
X223434342Y-195585771D01*
X223720057Y-195585771D01*
X223862914Y-195657200D01*
X223934342Y-195728628D01*
X224005771Y-195871485D01*
X224005771Y-196300057D01*
X223934342Y-196442914D01*
X223862914Y-196514342D01*
X223720057Y-196585771D01*
X223434342Y-196585771D01*
X223291485Y-196514342D01*
X225291485Y-195585771D02*
X225291485Y-196585771D01*
X224648628Y-195585771D02*
X224648628Y-196371485D01*
X224720057Y-196514342D01*
X224862914Y-196585771D01*
X225077199Y-196585771D01*
X225220057Y-196514342D01*
X225291485Y-196442914D01*
X226005771Y-195585771D02*
X226005771Y-196585771D01*
X226005771Y-195728628D02*
X226077199Y-195657200D01*
X226220057Y-195585771D01*
X226434342Y-195585771D01*
X226577199Y-195657200D01*
X226648628Y-195800057D01*
X226648628Y-196585771D01*
X227148628Y-195585771D02*
X227720057Y-195585771D01*
X227362914Y-195085771D02*
X227362914Y-196371485D01*
X227434342Y-196514342D01*
X227577200Y-196585771D01*
X227720057Y-196585771D01*
X228862914Y-195585771D02*
X228862914Y-196585771D01*
X228220057Y-195585771D02*
X228220057Y-196371485D01*
X228291485Y-196514342D01*
X228434342Y-196585771D01*
X228648628Y-196585771D01*
X228791485Y-196514342D01*
X228862914Y-196442914D01*
X230362914Y-196585771D02*
X229505771Y-196585771D01*
X229934342Y-196585771D02*
X229934342Y-195085771D01*
X229791485Y-195300057D01*
X229648628Y-195442914D01*
X229505771Y-195514342D01*
X231648628Y-195085771D02*
X231362914Y-195085771D01*
X231220057Y-195157200D01*
X231148628Y-195228628D01*
X231005771Y-195442914D01*
X230934342Y-195728628D01*
X230934342Y-196300057D01*
X231005771Y-196442914D01*
X231077199Y-196514342D01*
X231220057Y-196585771D01*
X231505771Y-196585771D01*
X231648628Y-196514342D01*
X231720057Y-196442914D01*
X231791485Y-196300057D01*
X231791485Y-195942914D01*
X231720057Y-195800057D01*
X231648628Y-195728628D01*
X231505771Y-195657200D01*
X231220057Y-195657200D01*
X231077199Y-195728628D01*
X231005771Y-195800057D01*
X230934342Y-195942914D01*
X232434342Y-196442914D02*
X232505771Y-196514342D01*
X232434342Y-196585771D01*
X232362914Y-196514342D01*
X232434342Y-196442914D01*
X232434342Y-196585771D01*
X233434342Y-195085771D02*
X233577199Y-195085771D01*
X233720057Y-195157200D01*
X233791485Y-195228628D01*
X233862914Y-195371485D01*
X233934342Y-195657200D01*
X233934342Y-196014342D01*
X233862914Y-196300057D01*
X233791485Y-196442914D01*
X233720057Y-196514342D01*
X233577199Y-196585771D01*
X233434342Y-196585771D01*
X233291485Y-196514342D01*
X233220057Y-196442914D01*
X233148628Y-196300057D01*
X233077199Y-196014342D01*
X233077199Y-195657200D01*
X233148628Y-195371485D01*
X233220057Y-195228628D01*
X233291485Y-195157200D01*
X233434342Y-195085771D01*
X235220057Y-195585771D02*
X235220057Y-196585771D01*
X234862914Y-195014342D02*
X234505771Y-196085771D01*
X235434342Y-196085771D01*
X236005771Y-196442914D02*
X236077199Y-196514342D01*
X236005771Y-196585771D01*
X235934342Y-196514342D01*
X236005771Y-196442914D01*
X236005771Y-196585771D01*
X237505771Y-196585771D02*
X236648628Y-196585771D01*
X237077199Y-196585771D02*
X237077199Y-195085771D01*
X236934342Y-195300057D01*
X236791485Y-195442914D01*
X236648628Y-195514342D01*
D10*
D11*
X177002200Y-191507200D02*
X285002200Y-191507200D01*
D10*
D12*
X264411485Y-193785771D02*
X263911485Y-193071485D01*
X263554342Y-193785771D02*
X263554342Y-192285771D01*
X264125771Y-192285771D01*
X264268628Y-192357200D01*
X264340057Y-192428628D01*
X264411485Y-192571485D01*
X264411485Y-192785771D01*
X264340057Y-192928628D01*
X264268628Y-193000057D01*
X264125771Y-193071485D01*
X263554342Y-193071485D01*
X265625771Y-193714342D02*
X265482914Y-193785771D01*
X265197200Y-193785771D01*
X265054342Y-193714342D01*
X264982914Y-193571485D01*
X264982914Y-193000057D01*
X265054342Y-192857200D01*
X265197200Y-192785771D01*
X265482914Y-192785771D01*
X265625771Y-192857200D01*
X265697200Y-193000057D01*
X265697200Y-193142914D01*
X264982914Y-193285771D01*
X266197200Y-192785771D02*
X266554342Y-193785771D01*
X266911485Y-192785771D01*
X267482914Y-193642914D02*
X267554342Y-193714342D01*
X267482914Y-193785771D01*
X267411485Y-193714342D01*
X267482914Y-193642914D01*
X267482914Y-193785771D01*
X267482914Y-192857200D02*
X267554342Y-192928628D01*
X267482914Y-193000057D01*
X267411485Y-192928628D01*
X267482914Y-192857200D01*
X267482914Y-193000057D01*
X270125771Y-193785771D02*
X269268628Y-193785771D01*
X269697200Y-193785771D02*
X269697200Y-192285771D01*
X269554342Y-192500057D01*
X269411485Y-192642914D01*
X269268628Y-192714342D01*
D10*
D11*
X178362914Y-193714342D02*
X178577200Y-193785771D01*
X178934342Y-193785771D01*
X179077200Y-193714342D01*
X179148628Y-193642914D01*
X179220057Y-193500057D01*
X179220057Y-193357200D01*
X179148628Y-193214342D01*
X179077200Y-193142914D01*
X178934342Y-193071485D01*
X178648628Y-193000057D01*
X178505771Y-192928628D01*
X178434342Y-192857200D01*
X178362914Y-192714342D01*
X178362914Y-192571485D01*
X178434342Y-192428628D01*
X178505771Y-192357200D01*
X178648628Y-192285771D01*
X179005771Y-192285771D01*
X179220057Y-192357200D01*
X179862914Y-193785771D02*
X179862914Y-192785771D01*
X179862914Y-192285771D02*
X179791485Y-192357200D01*
X179862914Y-192428628D01*
X179934342Y-192357200D01*
X179862914Y-192285771D01*
X179862914Y-192428628D01*
X180434342Y-192785771D02*
X181220057Y-192785771D01*
X180434342Y-193785771D01*
X181220057Y-193785771D01*
X182362914Y-193714342D02*
X182220057Y-193785771D01*
X181934342Y-193785771D01*
X181791485Y-193714342D01*
X181720057Y-193571485D01*
X181720057Y-193000057D01*
X181791485Y-192857200D01*
X181934342Y-192785771D01*
X182220057Y-192785771D01*
X182362914Y-192857200D01*
X182434342Y-193000057D01*
X182434342Y-193142914D01*
X181720057Y-193285771D01*
X183077200Y-193642914D02*
X183148628Y-193714342D01*
X183077200Y-193785771D01*
X183005771Y-193714342D01*
X183077200Y-193642914D01*
X183077200Y-193785771D01*
X183077200Y-192857200D02*
X183148628Y-192928628D01*
X183077200Y-193000057D01*
X183005771Y-192928628D01*
X183077200Y-192857200D01*
X183077200Y-193000057D01*
X184862914Y-193357200D02*
X185577200Y-193357200D01*
X184720057Y-193785771D02*
X185220057Y-192285771D01*
X185720057Y-193785771D01*
X186862914Y-192785771D02*
X186862914Y-193785771D01*
X186505771Y-192214342D02*
X186148628Y-193285771D01*
X187077200Y-193285771D01*
D10*
D11*
X263434342Y-196585771D02*
X263434342Y-195085771D01*
X264791485Y-196585771D02*
X264791485Y-195085771D01*
X264791485Y-196514342D02*
X264648628Y-196585771D01*
X264362914Y-196585771D01*
X264220057Y-196514342D01*
X264148628Y-196442914D01*
X264077200Y-196300057D01*
X264077200Y-195871485D01*
X264148628Y-195728628D01*
X264220057Y-195657200D01*
X264362914Y-195585771D01*
X264648628Y-195585771D01*
X264791485Y-195657200D01*
X265505771Y-196442914D02*
X265577200Y-196514342D01*
X265505771Y-196585771D01*
X265434342Y-196514342D01*
X265505771Y-196442914D01*
X265505771Y-196585771D01*
X265505771Y-195657200D02*
X265577200Y-195728628D01*
X265505771Y-195800057D01*
X265434342Y-195728628D01*
X265505771Y-195657200D01*
X265505771Y-195800057D01*
X268148628Y-196585771D02*
X267291485Y-196585771D01*
X267720057Y-196585771D02*
X267720057Y-195085771D01*
X267577200Y-195300057D01*
X267434342Y-195442914D01*
X267291485Y-195514342D01*
X269862914Y-195014342D02*
X268577200Y-196942914D01*
X271148628Y-196585771D02*
X270291485Y-196585771D01*
X270720057Y-196585771D02*
X270720057Y-195085771D01*
X270577200Y-195300057D01*
X270434342Y-195442914D01*
X270291485Y-195514342D01*
D10*
D11*
X177002200Y-187507200D02*
X285002200Y-187507200D01*
D10*
D13*
X178714580Y-188211961D02*
X179857438Y-188211961D01*
X179036009Y-190211961D02*
X179286009Y-188211961D01*
X180274104Y-190211961D02*
X180440771Y-188878628D01*
X180524104Y-188211961D02*
X180416961Y-188307200D01*
X180500295Y-188402438D01*
X180607438Y-188307200D01*
X180524104Y-188211961D01*
X180500295Y-188402438D01*
X181107438Y-188878628D02*
X181869342Y-188878628D01*
X181476485Y-188211961D02*
X181262200Y-189926247D01*
X181333628Y-190116723D01*
X181512200Y-190211961D01*
X181702676Y-190211961D01*
X182655057Y-190211961D02*
X182476485Y-190116723D01*
X182405057Y-189926247D01*
X182619342Y-188211961D01*
X184190771Y-190116723D02*
X183988390Y-190211961D01*
X183607438Y-190211961D01*
X183428866Y-190116723D01*
X183357438Y-189926247D01*
X183452676Y-189164342D01*
X183571723Y-188973866D01*
X183774104Y-188878628D01*
X184155057Y-188878628D01*
X184333628Y-188973866D01*
X184405057Y-189164342D01*
X184381247Y-189354819D01*
X183405057Y-189545295D01*
X185155057Y-190021485D02*
X185238390Y-190116723D01*
X185131247Y-190211961D01*
X185047914Y-190116723D01*
X185155057Y-190021485D01*
X185131247Y-190211961D01*
X185286009Y-188973866D02*
X185369342Y-189069104D01*
X185262200Y-189164342D01*
X185178866Y-189069104D01*
X185286009Y-188973866D01*
X185262200Y-189164342D01*
X187666961Y-188211961D02*
X189000295Y-188211961D01*
X187416961Y-190211961D01*
X188750295Y-190211961D01*
X189571723Y-188211961D02*
X190655057Y-190211961D01*
X190905057Y-188211961D02*
X189321723Y-190211961D01*
X192583628Y-190021485D02*
X192476485Y-190116723D01*
X192178866Y-190211961D01*
X191988390Y-190211961D01*
X191714580Y-190116723D01*
X191547914Y-189926247D01*
X191476485Y-189735771D01*
X191428866Y-189354819D01*
X191464580Y-189069104D01*
X191607438Y-188688152D01*
X191726485Y-188497676D01*
X191940771Y-188307200D01*
X192238390Y-188211961D01*
X192428866Y-188211961D01*
X192702676Y-188307200D01*
X192786009Y-188402438D01*
X193381247Y-188211961D02*
X194524104Y-188211961D01*
X193702676Y-190211961D02*
X193952676Y-188211961D01*
X195988390Y-190211961D02*
X194845533Y-190211961D01*
X195416961Y-190211961D02*
X195666961Y-188211961D01*
X195440771Y-188497676D01*
X195226485Y-188688152D01*
X195024104Y-188783390D01*
X197476485Y-188211961D02*
X197666961Y-188211961D01*
X197845533Y-188307200D01*
X197928866Y-188402438D01*
X198000295Y-188592914D01*
X198047914Y-188973866D01*
X197988390Y-189450057D01*
X197845533Y-189831009D01*
X197726485Y-190021485D01*
X197619342Y-190116723D01*
X197416961Y-190211961D01*
X197226485Y-190211961D01*
X197047914Y-190116723D01*
X196964580Y-190021485D01*
X196893152Y-189831009D01*
X196845533Y-189450057D01*
X196905057Y-188973866D01*
X197047914Y-188592914D01*
X197166961Y-188402438D01*
X197274104Y-188307200D01*
X197476485Y-188211961D01*
X199178866Y-189069104D02*
X199000295Y-188973866D01*
X198916961Y-188878628D01*
X198845533Y-188688152D01*
X198857438Y-188592914D01*
X198976485Y-188402438D01*
X199083628Y-188307200D01*
X199286009Y-188211961D01*
X199666961Y-188211961D01*
X199845533Y-188307200D01*
X199928866Y-188402438D01*
X200000295Y-188592914D01*
X199988390Y-188688152D01*
X199869342Y-188878628D01*
X199762200Y-188973866D01*
X199559819Y-189069104D01*
X199178866Y-189069104D01*
X198976485Y-189164342D01*
X198869342Y-189259580D01*
X198750295Y-189450057D01*
X198702676Y-189831009D01*
X198774104Y-190021485D01*
X198857438Y-190116723D01*
X199036009Y-190211961D01*
X199416961Y-190211961D01*
X199619342Y-190116723D01*
X199726485Y-190021485D01*
X199845533Y-189831009D01*
X199893152Y-189450057D01*
X199821723Y-189259580D01*
X199738390Y-189164342D01*
X199559819Y-189069104D01*
X201286009Y-188211961D02*
X201476485Y-188211961D01*
X201655057Y-188307200D01*
X201738390Y-188402438D01*
X201809819Y-188592914D01*
X201857438Y-188973866D01*
X201797914Y-189450057D01*
X201655057Y-189831009D01*
X201536009Y-190021485D01*
X201428866Y-190116723D01*
X201226485Y-190211961D01*
X201036009Y-190211961D01*
X200857438Y-190116723D01*
X200774104Y-190021485D01*
X200702676Y-189831009D01*
X200655057Y-189450057D01*
X200714580Y-188973866D01*
X200857438Y-188592914D01*
X200976485Y-188402438D01*
X201083628Y-188307200D01*
X201286009Y-188211961D01*
X204059819Y-188878628D02*
X204369342Y-190211961D01*
X205012200Y-188878628D01*
X205893152Y-190211961D02*
X205714580Y-190116723D01*
X205631247Y-190021485D01*
X205559819Y-189831009D01*
X205631247Y-189259580D01*
X205750295Y-189069104D01*
X205857438Y-188973866D01*
X206059819Y-188878628D01*
X206345533Y-188878628D01*
X206524104Y-188973866D01*
X206607438Y-189069104D01*
X206678866Y-189259580D01*
X206607438Y-189831009D01*
X206488390Y-190021485D01*
X206381247Y-190116723D01*
X206178866Y-190211961D01*
X205893152Y-190211961D01*
X207702676Y-190211961D02*
X207524104Y-190116723D01*
X207452676Y-189926247D01*
X207666961Y-188211961D01*
X208345533Y-188878628D02*
X209107438Y-188878628D01*
X208714580Y-188211961D02*
X208500295Y-189926247D01*
X208571723Y-190116723D01*
X208750295Y-190211961D01*
X208940771Y-190211961D01*
X210464580Y-190211961D02*
X210595533Y-189164342D01*
X210524104Y-188973866D01*
X210345533Y-188878628D01*
X209964580Y-188878628D01*
X209762200Y-188973866D01*
X210476485Y-190116723D02*
X210274104Y-190211961D01*
X209797914Y-190211961D01*
X209619342Y-190116723D01*
X209547914Y-189926247D01*
X209571723Y-189735771D01*
X209690771Y-189545295D01*
X209893152Y-189450057D01*
X210369342Y-189450057D01*
X210571723Y-189354819D01*
X212440771Y-188878628D02*
X212238390Y-190497676D01*
X212119342Y-190688152D01*
X212012200Y-190783390D01*
X211809819Y-190878628D01*
X211524104Y-190878628D01*
X211345533Y-190783390D01*
X212286009Y-190116723D02*
X212083628Y-190211961D01*
X211702676Y-190211961D01*
X211524104Y-190116723D01*
X211440771Y-190021485D01*
X211369342Y-189831009D01*
X211440771Y-189259580D01*
X211559819Y-189069104D01*
X211666961Y-188973866D01*
X211869342Y-188878628D01*
X212250295Y-188878628D01*
X212428866Y-188973866D01*
X214000295Y-190116723D02*
X213797914Y-190211961D01*
X213416961Y-190211961D01*
X213238390Y-190116723D01*
X213166961Y-189926247D01*
X213262200Y-189164342D01*
X213381247Y-188973866D01*
X213583628Y-188878628D01*
X213964580Y-188878628D01*
X214143152Y-188973866D01*
X214214580Y-189164342D01*
X214190771Y-189354819D01*
X213214580Y-189545295D01*
X216750295Y-190211961D02*
X216571723Y-190116723D01*
X216488390Y-190021485D01*
X216416961Y-189831009D01*
X216488390Y-189259580D01*
X216607438Y-189069104D01*
X216714580Y-188973866D01*
X216916961Y-188878628D01*
X217202676Y-188878628D01*
X217381247Y-188973866D01*
X217464580Y-189069104D01*
X217536009Y-189259580D01*
X217464580Y-189831009D01*
X217345533Y-190021485D01*
X217238390Y-190116723D01*
X217036009Y-190211961D01*
X216750295Y-190211961D01*
X219297914Y-188878628D02*
X219131247Y-190211961D01*
X218440771Y-188878628D02*
X218309819Y-189926247D01*
X218381247Y-190116723D01*
X218559819Y-190211961D01*
X218845533Y-190211961D01*
X219047914Y-190116723D01*
X219155057Y-190021485D01*
X219964580Y-188878628D02*
X220726485Y-188878628D01*
X220333628Y-188211961D02*
X220119342Y-189926247D01*
X220190771Y-190116723D01*
X220369342Y-190211961D01*
X220559819Y-190211961D01*
X221393152Y-188878628D02*
X221143152Y-190878628D01*
X221381247Y-188973866D02*
X221583628Y-188878628D01*
X221964580Y-188878628D01*
X222143152Y-188973866D01*
X222226485Y-189069104D01*
X222297914Y-189259580D01*
X222226485Y-189831009D01*
X222107438Y-190021485D01*
X222000295Y-190116723D01*
X221797914Y-190211961D01*
X221416961Y-190211961D01*
X221238390Y-190116723D01*
X224059819Y-188878628D02*
X223893152Y-190211961D01*
X223202676Y-188878628D02*
X223071723Y-189926247D01*
X223143152Y-190116723D01*
X223321723Y-190211961D01*
X223607438Y-190211961D01*
X223809819Y-190116723D01*
X223916961Y-190021485D01*
X224726485Y-188878628D02*
X225488390Y-188878628D01*
X225095533Y-188211961D02*
X224881247Y-189926247D01*
X224952676Y-190116723D01*
X225131247Y-190211961D01*
X225321723Y-190211961D01*
X228381247Y-190116723D02*
X228178866Y-190211961D01*
X227797914Y-190211961D01*
X227619342Y-190116723D01*
X227536009Y-190021485D01*
X227464580Y-189831009D01*
X227536009Y-189259580D01*
X227655057Y-189069104D01*
X227762199Y-188973866D01*
X227964580Y-188878628D01*
X228345533Y-188878628D01*
X228524104Y-188973866D01*
X230250295Y-188878628D02*
X230083628Y-190211961D01*
X229393152Y-188878628D02*
X229262199Y-189926247D01*
X229333628Y-190116723D01*
X229512199Y-190211961D01*
X229797914Y-190211961D01*
X230000295Y-190116723D01*
X230107438Y-190021485D01*
X231036009Y-190211961D02*
X231202676Y-188878628D01*
X231155057Y-189259580D02*
X231274104Y-189069104D01*
X231381247Y-188973866D01*
X231583628Y-188878628D01*
X231774104Y-188878628D01*
X232274104Y-190211961D02*
X232440771Y-188878628D01*
X232393152Y-189259580D02*
X232512199Y-189069104D01*
X232619342Y-188973866D01*
X232821723Y-188878628D01*
X233012199Y-188878628D01*
X234286009Y-190116723D02*
X234083628Y-190211961D01*
X233702676Y-190211961D01*
X233524104Y-190116723D01*
X233452676Y-189926247D01*
X233547914Y-189164342D01*
X233666961Y-188973866D01*
X233869342Y-188878628D01*
X234250295Y-188878628D01*
X234428866Y-188973866D01*
X234500295Y-189164342D01*
X234476485Y-189354819D01*
X233500295Y-189545295D01*
X235393152Y-188878628D02*
X235226485Y-190211961D01*
X235369342Y-189069104D02*
X235476485Y-188973866D01*
X235678866Y-188878628D01*
X235964580Y-188878628D01*
X236143152Y-188973866D01*
X236214580Y-189164342D01*
X236083628Y-190211961D01*
X236916961Y-188878628D02*
X237678866Y-188878628D01*
X237286009Y-188211961D02*
X237071723Y-189926247D01*
X237143152Y-190116723D01*
X237321723Y-190211961D01*
X237512199Y-190211961D01*
X239702676Y-190211961D02*
X239869342Y-188878628D01*
X239845533Y-189069104D02*
X239952676Y-188973866D01*
X240155057Y-188878628D01*
X240440771Y-188878628D01*
X240619342Y-188973866D01*
X240690771Y-189164342D01*
X240559819Y-190211961D01*
X240690771Y-189164342D02*
X240809819Y-188973866D01*
X241012199Y-188878628D01*
X241297914Y-188878628D01*
X241476485Y-188973866D01*
X241547914Y-189164342D01*
X241416961Y-190211961D01*
X242655057Y-190211961D02*
X242476485Y-190116723D01*
X242393152Y-190021485D01*
X242321723Y-189831009D01*
X242393152Y-189259580D01*
X242512199Y-189069104D01*
X242619342Y-188973866D01*
X242821723Y-188878628D01*
X243107438Y-188878628D01*
X243286009Y-188973866D01*
X243369342Y-189069104D01*
X243440771Y-189259580D01*
X243369342Y-189831009D01*
X243250295Y-190021485D01*
X243143152Y-190116723D01*
X242940771Y-190211961D01*
X242655057Y-190211961D01*
X244345533Y-188878628D02*
X244178866Y-190211961D01*
X244321723Y-189069104D02*
X244428866Y-188973866D01*
X244631247Y-188878628D01*
X244916961Y-188878628D01*
X245095533Y-188973866D01*
X245166961Y-189164342D01*
X245036009Y-190211961D01*
X245988390Y-190211961D02*
X246155057Y-188878628D01*
X246238390Y-188211961D02*
X246131247Y-188307200D01*
X246214580Y-188402438D01*
X246321723Y-188307200D01*
X246238390Y-188211961D01*
X246214580Y-188402438D01*
X246821723Y-188878628D02*
X247583628Y-188878628D01*
X247190771Y-188211961D02*
X246976485Y-189926247D01*
X247047914Y-190116723D01*
X247226485Y-190211961D01*
X247416961Y-190211961D01*
X248369342Y-190211961D02*
X248190771Y-190116723D01*
X248107438Y-190021485D01*
X248036009Y-189831009D01*
X248107438Y-189259580D01*
X248226485Y-189069104D01*
X248333628Y-188973866D01*
X248536009Y-188878628D01*
X248821723Y-188878628D01*
X249000295Y-188973866D01*
X249083628Y-189069104D01*
X249155057Y-189259580D01*
X249083628Y-189831009D01*
X248964580Y-190021485D01*
X248857438Y-190116723D01*
X248655057Y-190211961D01*
X248369342Y-190211961D01*
X249893152Y-190211961D02*
X250059819Y-188878628D01*
X250012199Y-189259580D02*
X250131247Y-189069104D01*
X250238390Y-188973866D01*
X250440771Y-188878628D01*
X250631247Y-188878628D01*
D10*
D11*
X178934342Y-185600057D02*
X178434342Y-185600057D01*
X178434342Y-186385771D02*
X178434342Y-184885771D01*
X179148628Y-184885771D01*
X179720057Y-186385771D02*
X179720057Y-185385771D01*
X179720057Y-184885771D02*
X179648628Y-184957200D01*
X179720057Y-185028628D01*
X179791485Y-184957200D01*
X179720057Y-184885771D01*
X179720057Y-185028628D01*
X180648628Y-186385771D02*
X180505771Y-186314342D01*
X180434342Y-186171485D01*
X180434342Y-184885771D01*
X181791485Y-186314342D02*
X181648628Y-186385771D01*
X181362914Y-186385771D01*
X181220057Y-186314342D01*
X181148628Y-186171485D01*
X181148628Y-185600057D01*
X181220057Y-185457200D01*
X181362914Y-185385771D01*
X181648628Y-185385771D01*
X181791485Y-185457200D01*
X181862914Y-185600057D01*
X181862914Y-185742914D01*
X181148628Y-185885771D01*
X182505771Y-186242914D02*
X182577200Y-186314342D01*
X182505771Y-186385771D01*
X182434342Y-186314342D01*
X182505771Y-186242914D01*
X182505771Y-186385771D01*
X182505771Y-185457200D02*
X182577200Y-185528628D01*
X182505771Y-185600057D01*
X182434342Y-185528628D01*
X182505771Y-185457200D01*
X182505771Y-185600057D01*
X184291485Y-185957200D02*
X185005771Y-185957200D01*
X184148628Y-186385771D02*
X184648628Y-184885771D01*
X185148628Y-186385771D01*
X185648628Y-185600057D02*
X186148628Y-185600057D01*
X186362914Y-186385771D02*
X185648628Y-186385771D01*
X185648628Y-184885771D01*
X186362914Y-184885771D01*
X187291485Y-184885771D02*
X187434342Y-184885771D01*
X187577200Y-184957200D01*
X187648628Y-185028628D01*
X187720057Y-185171485D01*
X187791485Y-185457200D01*
X187791485Y-185814342D01*
X187720057Y-186100057D01*
X187648628Y-186242914D01*
X187577200Y-186314342D01*
X187434342Y-186385771D01*
X187291485Y-186385771D01*
X187148628Y-186314342D01*
X187077200Y-186242914D01*
X187005771Y-186100057D01*
X186934342Y-185814342D01*
X186934342Y-185457200D01*
X187005771Y-185171485D01*
X187077200Y-185028628D01*
X187148628Y-184957200D01*
X187291485Y-184885771D01*
X189220057Y-186385771D02*
X188362914Y-186385771D01*
X188791485Y-186385771D02*
X188791485Y-184885771D01*
X188648628Y-185100057D01*
X188505771Y-185242914D01*
X188362914Y-185314342D01*
X189862914Y-186242914D02*
X189934342Y-186314342D01*
X189862914Y-186385771D01*
X189791485Y-186314342D01*
X189862914Y-186242914D01*
X189862914Y-186385771D01*
X190862914Y-184885771D02*
X191005771Y-184885771D01*
X191148628Y-184957200D01*
X191220057Y-185028628D01*
X191291485Y-185171485D01*
X191362914Y-185457200D01*
X191362914Y-185814342D01*
X191291485Y-186100057D01*
X191220057Y-186242914D01*
X191148628Y-186314342D01*
X191005771Y-186385771D01*
X190862914Y-186385771D01*
X190720057Y-186314342D01*
X190648628Y-186242914D01*
X190577200Y-186100057D01*
X190505771Y-185814342D01*
X190505771Y-185457200D01*
X190577200Y-185171485D01*
X190648628Y-185028628D01*
X190720057Y-184957200D01*
X190862914Y-184885771D01*
X192791485Y-186385771D02*
X191934342Y-186385771D01*
X192362914Y-186385771D02*
X192362914Y-184885771D01*
X192220057Y-185100057D01*
X192077200Y-185242914D01*
X191934342Y-185314342D01*
X193434342Y-186242914D02*
X193505771Y-186314342D01*
X193434342Y-186385771D01*
X193362914Y-186314342D01*
X193434342Y-186242914D01*
X193434342Y-186385771D01*
X194434342Y-184885771D02*
X194577200Y-184885771D01*
X194720057Y-184957200D01*
X194791485Y-185028628D01*
X194862914Y-185171485D01*
X194934342Y-185457200D01*
X194934342Y-185814342D01*
X194862914Y-186100057D01*
X194791485Y-186242914D01*
X194720057Y-186314342D01*
X194577200Y-186385771D01*
X194434342Y-186385771D01*
X194291485Y-186314342D01*
X194220057Y-186242914D01*
X194148628Y-186100057D01*
X194077200Y-185814342D01*
X194077200Y-185457200D01*
X194148628Y-185171485D01*
X194220057Y-185028628D01*
X194291485Y-184957200D01*
X194434342Y-184885771D01*
X196362914Y-186385771D02*
X195505771Y-186385771D01*
X195934342Y-186385771D02*
X195934342Y-184885771D01*
X195791485Y-185100057D01*
X195648628Y-185242914D01*
X195505771Y-185314342D01*
X197005771Y-186242914D02*
X197077200Y-186314342D01*
X197005771Y-186385771D01*
X196934342Y-186314342D01*
X197005771Y-186242914D01*
X197005771Y-186385771D01*
X198005771Y-184885771D02*
X198148628Y-184885771D01*
X198291485Y-184957200D01*
X198362914Y-185028628D01*
X198434342Y-185171485D01*
X198505771Y-185457200D01*
X198505771Y-185814342D01*
X198434342Y-186100057D01*
X198362914Y-186242914D01*
X198291485Y-186314342D01*
X198148628Y-186385771D01*
X198005771Y-186385771D01*
X197862914Y-186314342D01*
X197791485Y-186242914D01*
X197720057Y-186100057D01*
X197648628Y-185814342D01*
X197648628Y-185457200D01*
X197720057Y-185171485D01*
X197791485Y-185028628D01*
X197862914Y-184957200D01*
X198005771Y-184885771D01*
X199434342Y-184885771D02*
X199577200Y-184885771D01*
X199720057Y-184957200D01*
X199791485Y-185028628D01*
X199862914Y-185171485D01*
X199934342Y-185457200D01*
X199934342Y-185814342D01*
X199862914Y-186100057D01*
X199791485Y-186242914D01*
X199720057Y-186314342D01*
X199577200Y-186385771D01*
X199434342Y-186385771D01*
X199291485Y-186314342D01*
X199220057Y-186242914D01*
X199148628Y-186100057D01*
X199077200Y-185814342D01*
X199077200Y-185457200D01*
X199148628Y-185171485D01*
X199220057Y-185028628D01*
X199291485Y-184957200D01*
X199434342Y-184885771D01*
X201362914Y-186385771D02*
X200505771Y-186385771D01*
X200934342Y-186385771D02*
X200934342Y-184885771D01*
X200791485Y-185100057D01*
X200648628Y-185242914D01*
X200505771Y-185314342D01*
X202005771Y-186242914D02*
X202077200Y-186314342D01*
X202005771Y-186385771D01*
X201934342Y-186314342D01*
X202005771Y-186242914D01*
X202005771Y-186385771D01*
X202720057Y-186385771D02*
X202720057Y-184885771D01*
X202862914Y-185814342D02*
X203291485Y-186385771D01*
X203291485Y-185385771D02*
X202720057Y-185957200D01*
X203934342Y-186385771D02*
X203934342Y-185385771D01*
X203934342Y-184885771D02*
X203862914Y-184957200D01*
X203934342Y-185028628D01*
X204005771Y-184957200D01*
X203934342Y-184885771D01*
X203934342Y-185028628D01*
X205291485Y-186314342D02*
X205148628Y-186385771D01*
X204862914Y-186385771D01*
X204720057Y-186314342D01*
X204648628Y-186242914D01*
X204577200Y-186100057D01*
X204577200Y-185671485D01*
X204648628Y-185528628D01*
X204720057Y-185457200D01*
X204862914Y-185385771D01*
X205148628Y-185385771D01*
X205291485Y-185457200D01*
X206577200Y-186385771D02*
X206577200Y-185600057D01*
X206505771Y-185457200D01*
X206362914Y-185385771D01*
X206077200Y-185385771D01*
X205934342Y-185457200D01*
X206577200Y-186314342D02*
X206434342Y-186385771D01*
X206077200Y-186385771D01*
X205934342Y-186314342D01*
X205862914Y-186171485D01*
X205862914Y-186028628D01*
X205934342Y-185885771D01*
X206077200Y-185814342D01*
X206434342Y-185814342D01*
X206577200Y-185742914D01*
X207934342Y-186385771D02*
X207934342Y-184885771D01*
X207934342Y-186314342D02*
X207791485Y-186385771D01*
X207505771Y-186385771D01*
X207362914Y-186314342D01*
X207291485Y-186242914D01*
X207220057Y-186100057D01*
X207220057Y-185671485D01*
X207291485Y-185528628D01*
X207362914Y-185457200D01*
X207505771Y-185385771D01*
X207791485Y-185385771D01*
X207934342Y-185457200D01*
X208291485Y-186528628D02*
X209434342Y-186528628D01*
X209791485Y-185385771D02*
X209791485Y-186885771D01*
X209791485Y-185457200D02*
X209934342Y-185385771D01*
X210220057Y-185385771D01*
X210362914Y-185457200D01*
X210434342Y-185528628D01*
X210505771Y-185671485D01*
X210505771Y-186100057D01*
X210434342Y-186242914D01*
X210362914Y-186314342D01*
X210220057Y-186385771D01*
X209934342Y-186385771D01*
X209791485Y-186314342D01*
X211791485Y-186314342D02*
X211648628Y-186385771D01*
X211362914Y-186385771D01*
X211220057Y-186314342D01*
X211148628Y-186242914D01*
X211077200Y-186100057D01*
X211077200Y-185671485D01*
X211148628Y-185528628D01*
X211220057Y-185457200D01*
X211362914Y-185385771D01*
X211648628Y-185385771D01*
X211791485Y-185457200D01*
X212434342Y-186385771D02*
X212434342Y-184885771D01*
X212434342Y-185457200D02*
X212577200Y-185385771D01*
X212862914Y-185385771D01*
X213005771Y-185457200D01*
X213077200Y-185528628D01*
X213148628Y-185671485D01*
X213148628Y-186100057D01*
X213077200Y-186242914D01*
X213005771Y-186314342D01*
X212862914Y-186385771D01*
X212577200Y-186385771D01*
X212434342Y-186314342D01*
D10*
D11*
X177002200Y-181507200D02*
X285002200Y-181507200D01*
D10*
D11*
X178362914Y-183614342D02*
X178577200Y-183685771D01*
X178934342Y-183685771D01*
X179077200Y-183614342D01*
X179148628Y-183542914D01*
X179220057Y-183400057D01*
X179220057Y-183257200D01*
X179148628Y-183114342D01*
X179077200Y-183042914D01*
X178934342Y-182971485D01*
X178648628Y-182900057D01*
X178505771Y-182828628D01*
X178434342Y-182757200D01*
X178362914Y-182614342D01*
X178362914Y-182471485D01*
X178434342Y-182328628D01*
X178505771Y-182257200D01*
X178648628Y-182185771D01*
X179005771Y-182185771D01*
X179220057Y-182257200D01*
X179862914Y-183685771D02*
X179862914Y-182185771D01*
X180505771Y-183685771D02*
X180505771Y-182900057D01*
X180434342Y-182757200D01*
X180291485Y-182685771D01*
X180077200Y-182685771D01*
X179934342Y-182757200D01*
X179862914Y-182828628D01*
X181791485Y-183614342D02*
X181648628Y-183685771D01*
X181362914Y-183685771D01*
X181220057Y-183614342D01*
X181148628Y-183471485D01*
X181148628Y-182900057D01*
X181220057Y-182757200D01*
X181362914Y-182685771D01*
X181648628Y-182685771D01*
X181791485Y-182757200D01*
X181862914Y-182900057D01*
X181862914Y-183042914D01*
X181148628Y-183185771D01*
X183077200Y-183614342D02*
X182934342Y-183685771D01*
X182648628Y-183685771D01*
X182505771Y-183614342D01*
X182434342Y-183471485D01*
X182434342Y-182900057D01*
X182505771Y-182757200D01*
X182648628Y-182685771D01*
X182934342Y-182685771D01*
X183077200Y-182757200D01*
X183148628Y-182900057D01*
X183148628Y-183042914D01*
X182434342Y-183185771D01*
X183577200Y-182685771D02*
X184148628Y-182685771D01*
X183791485Y-182185771D02*
X183791485Y-183471485D01*
X183862914Y-183614342D01*
X184005771Y-183685771D01*
X184148628Y-183685771D01*
X184648628Y-183542914D02*
X184720057Y-183614342D01*
X184648628Y-183685771D01*
X184577200Y-183614342D01*
X184648628Y-183542914D01*
X184648628Y-183685771D01*
X184648628Y-182757200D02*
X184720057Y-182828628D01*
X184648628Y-182900057D01*
X184577200Y-182828628D01*
X184648628Y-182757200D01*
X184648628Y-182900057D01*
D10*
D12*
X179197200Y-180685771D02*
X179197200Y-179900057D01*
X179125771Y-179757200D01*
X178982914Y-179685771D01*
X178697200Y-179685771D01*
X178554342Y-179757200D01*
X179197200Y-180614342D02*
X179054342Y-180685771D01*
X178697200Y-180685771D01*
X178554342Y-180614342D01*
X178482914Y-180471485D01*
X178482914Y-180328628D01*
X178554342Y-180185771D01*
X178697200Y-180114342D01*
X179054342Y-180114342D01*
X179197200Y-180042914D01*
X179840057Y-180614342D02*
X179982914Y-180685771D01*
X180268628Y-180685771D01*
X180411485Y-180614342D01*
X180482914Y-180471485D01*
X180482914Y-180400057D01*
X180411485Y-180257200D01*
X180268628Y-180185771D01*
X180054342Y-180185771D01*
X179911485Y-180114342D01*
X179840057Y-179971485D01*
X179840057Y-179900057D01*
X179911485Y-179757200D01*
X180054342Y-179685771D01*
X180268628Y-179685771D01*
X180411485Y-179757200D01*
X180911485Y-179685771D02*
X181482914Y-179685771D01*
X181125771Y-179185771D02*
X181125771Y-180471485D01*
X181197200Y-180614342D01*
X181340057Y-180685771D01*
X181482914Y-180685771D01*
X181982914Y-180685771D02*
X181982914Y-179685771D01*
X181982914Y-179971485D02*
X182054342Y-179828628D01*
X182125771Y-179757200D01*
X182268628Y-179685771D01*
X182411485Y-179685771D01*
X183125771Y-180685771D02*
X182982914Y-180614342D01*
X182911485Y-180542914D01*
X182840057Y-180400057D01*
X182840057Y-179971485D01*
X182911485Y-179828628D01*
X182982914Y-179757200D01*
X183125771Y-179685771D01*
X183340057Y-179685771D01*
X183482914Y-179757200D01*
X183554342Y-179828628D01*
X183625771Y-179971485D01*
X183625771Y-180400057D01*
X183554342Y-180542914D01*
X183482914Y-180614342D01*
X183340057Y-180685771D01*
X183125771Y-180685771D01*
X184840057Y-180614342D02*
X184697200Y-180685771D01*
X184411485Y-180685771D01*
X184268628Y-180614342D01*
X184197200Y-180471485D01*
X184197200Y-179900057D01*
X184268628Y-179757200D01*
X184411485Y-179685771D01*
X184697200Y-179685771D01*
X184840057Y-179757200D01*
X184911485Y-179900057D01*
X184911485Y-180042914D01*
X184197200Y-180185771D01*
X185768628Y-180685771D02*
X185625771Y-180614342D01*
X185554342Y-180471485D01*
X185554342Y-179185771D01*
X186911485Y-180614342D02*
X186768628Y-180685771D01*
X186482914Y-180685771D01*
X186340057Y-180614342D01*
X186268628Y-180471485D01*
X186268628Y-179900057D01*
X186340057Y-179757200D01*
X186482914Y-179685771D01*
X186768628Y-179685771D01*
X186911485Y-179757200D01*
X186982914Y-179900057D01*
X186982914Y-180042914D01*
X186268628Y-180185771D01*
X188268628Y-180614342D02*
X188125771Y-180685771D01*
X187840057Y-180685771D01*
X187697200Y-180614342D01*
X187625771Y-180542914D01*
X187554342Y-180400057D01*
X187554342Y-179971485D01*
X187625771Y-179828628D01*
X187697200Y-179757200D01*
X187840057Y-179685771D01*
X188125771Y-179685771D01*
X188268628Y-179757200D01*
X188697200Y-179685771D02*
X189268628Y-179685771D01*
X188911485Y-179185771D02*
X188911485Y-180471485D01*
X188982914Y-180614342D01*
X189125771Y-180685771D01*
X189268628Y-180685771D01*
X189768628Y-180685771D02*
X189768628Y-179685771D01*
X189768628Y-179971485D02*
X189840057Y-179828628D01*
X189911485Y-179757200D01*
X190054342Y-179685771D01*
X190197200Y-179685771D01*
X190911485Y-180685771D02*
X190768628Y-180614342D01*
X190697200Y-180542914D01*
X190625771Y-180400057D01*
X190625771Y-179971485D01*
X190697200Y-179828628D01*
X190768628Y-179757200D01*
X190911485Y-179685771D01*
X191125771Y-179685771D01*
X191268628Y-179757200D01*
X191340057Y-179828628D01*
X191411485Y-179971485D01*
X191411485Y-180400057D01*
X191340057Y-180542914D01*
X191268628Y-180614342D01*
X191125771Y-180685771D01*
X190911485Y-180685771D01*
X192054342Y-179685771D02*
X192054342Y-180685771D01*
X192054342Y-179828628D02*
X192125771Y-179757200D01*
X192268628Y-179685771D01*
X192482914Y-179685771D01*
X192625771Y-179757200D01*
X192697200Y-179900057D01*
X192697200Y-180685771D01*
X193411485Y-180685771D02*
X193411485Y-179685771D01*
X193411485Y-179185771D02*
X193340057Y-179257200D01*
X193411485Y-179328628D01*
X193482914Y-179257200D01*
X193411485Y-179185771D01*
X193411485Y-179328628D01*
X194768628Y-180614342D02*
X194625771Y-180685771D01*
X194340057Y-180685771D01*
X194197200Y-180614342D01*
X194125771Y-180542914D01*
X194054342Y-180400057D01*
X194054342Y-179971485D01*
X194125771Y-179828628D01*
X194197200Y-179757200D01*
X194340057Y-179685771D01*
X194625771Y-179685771D01*
X194768628Y-179757200D01*
X196340057Y-179971485D02*
X196268628Y-179900057D01*
X196125771Y-179828628D01*
X195982914Y-179828628D01*
X195840057Y-179900057D01*
X195768628Y-179971485D01*
X195697200Y-180114342D01*
X195697200Y-180257200D01*
X195768628Y-180400057D01*
X195840057Y-180471485D01*
X195982914Y-180542914D01*
X196125771Y-180542914D01*
X196268628Y-180471485D01*
X196340057Y-180400057D01*
X196340057Y-179828628D02*
X196340057Y-180400057D01*
X196411485Y-180471485D01*
X196482914Y-180471485D01*
X196625771Y-180400057D01*
X196697200Y-180257200D01*
X196697200Y-179900057D01*
X196554342Y-179685771D01*
X196340057Y-179542914D01*
X196054342Y-179471485D01*
X195768628Y-179542914D01*
X195554342Y-179685771D01*
X195411485Y-179900057D01*
X195340057Y-180185771D01*
X195411485Y-180471485D01*
X195554342Y-180685771D01*
X195768628Y-180828628D01*
X196054342Y-180900057D01*
X196340057Y-180828628D01*
X196554342Y-180685771D01*
D10*
D11*
X197002200Y-191507200D02*
X197002200Y-194507200D01*
D10*
D11*
X261002200Y-191507200D02*
X261002200Y-198007200D01*
D12*
X178111476Y-109243857D02*
X178111476Y-109958142D01*
X178111476Y-109601000D02*
X176861476Y-109601000D01*
X177040047Y-109720047D01*
X177159095Y-109839095D01*
X177218619Y-109958142D01*
D11*
X177038000Y-74549000D02*
X175514000Y-73025000D01*
X177038000Y-85979000D02*
X177038000Y-74549000D01*
X179578000Y-88519000D02*
X177038000Y-85979000D01*
X179578000Y-121285000D02*
X179578000Y-88519000D01*
X177038000Y-123825000D02*
X179578000Y-121285000D01*
X177038000Y-126365000D02*
X177038000Y-123825000D01*
X110998000Y-126365000D02*
X177038000Y-126365000D01*
X110998000Y-73025000D02*
X110998000Y-126365000D01*
X175514000Y-73025000D02*
X110998000Y-73025000D01*
D14*
X174893000Y-83185000D02*
G75*
G03X174893000Y-83185000I-1665000J0D01*
G01*
X119013000Y-76835000D02*
G75*
G03X119013000Y-76835000I-1665000J0D01*
G01*
X134253000Y-122555000D02*
G75*
G03X134253000Y-122555000I-1665000J0D01*
G01*
D15*
X162306000Y-104267000D03*
D16*
X138938000Y-123825000D03*
X141478000Y-123825000D03*
X144018000Y-123825000D03*
X146558000Y-123825000D03*
X149098000Y-123825000D03*
X151638000Y-123825000D03*
X154178000Y-123825000D03*
X156718000Y-123825000D03*
X161798000Y-123825000D03*
X164338000Y-123825000D03*
X166878000Y-123825000D03*
X169418000Y-123825000D03*
X171958000Y-123825000D03*
X174498000Y-123825000D03*
X129794000Y-75565000D03*
X132334000Y-75565000D03*
X134874000Y-75565000D03*
X137414000Y-75565000D03*
X139954000Y-75565000D03*
X142494000Y-75565000D03*
X145034000Y-75565000D03*
X147574000Y-75565000D03*
X150114000Y-75565000D03*
X152654000Y-75565000D03*
X156718000Y-75565000D03*
X159258000Y-75565000D03*
X161798000Y-75565000D03*
X164338000Y-75565000D03*
X166878000Y-75565000D03*
X169418000Y-75565000D03*
X171958000Y-75565000D03*
X174498000Y-75565000D03*
D17*
X124968000Y-123825000D03*
X177038000Y-118745000D03*
X126238000Y-75565000D03*
X177038000Y-90805000D03*
G04 #@! TA.AperFunction,SMDPad,CuDef*
D10*
G36*
X151864142Y-102843174D02*
G01*
X151887803Y-102846684D01*
X151911007Y-102852496D01*
X151933529Y-102860554D01*
X151955153Y-102870782D01*
X151975670Y-102883079D01*
X151994883Y-102897329D01*
X152012607Y-102913393D01*
X152028671Y-102931117D01*
X152042921Y-102950330D01*
X152055218Y-102970847D01*
X152065446Y-102992471D01*
X152073504Y-103014993D01*
X152079316Y-103038197D01*
X152082826Y-103061858D01*
X152084000Y-103085750D01*
X152084000Y-103573250D01*
X152082826Y-103597142D01*
X152079316Y-103620803D01*
X152073504Y-103644007D01*
X152065446Y-103666529D01*
X152055218Y-103688153D01*
X152042921Y-103708670D01*
X152028671Y-103727883D01*
X152012607Y-103745607D01*
X151994883Y-103761671D01*
X151975670Y-103775921D01*
X151955153Y-103788218D01*
X151933529Y-103798446D01*
X151911007Y-103806504D01*
X151887803Y-103812316D01*
X151864142Y-103815826D01*
X151840250Y-103817000D01*
X150927750Y-103817000D01*
X150903858Y-103815826D01*
X150880197Y-103812316D01*
X150856993Y-103806504D01*
X150834471Y-103798446D01*
X150812847Y-103788218D01*
X150792330Y-103775921D01*
X150773117Y-103761671D01*
X150755393Y-103745607D01*
X150739329Y-103727883D01*
X150725079Y-103708670D01*
X150712782Y-103688153D01*
X150702554Y-103666529D01*
X150694496Y-103644007D01*
X150688684Y-103620803D01*
X150685174Y-103597142D01*
X150684000Y-103573250D01*
X150684000Y-103085750D01*
X150685174Y-103061858D01*
X150688684Y-103038197D01*
X150694496Y-103014993D01*
X150702554Y-102992471D01*
X150712782Y-102970847D01*
X150725079Y-102950330D01*
X150739329Y-102931117D01*
X150755393Y-102913393D01*
X150773117Y-102897329D01*
X150792330Y-102883079D01*
X150812847Y-102870782D01*
X150834471Y-102860554D01*
X150856993Y-102852496D01*
X150880197Y-102846684D01*
X150903858Y-102843174D01*
X150927750Y-102842000D01*
X151840250Y-102842000D01*
X151864142Y-102843174D01*
G37*
G04 #@! TD.AperFunction*
G04 #@! TA.AperFunction,SMDPad,CuDef*
G36*
X151864142Y-104718174D02*
G01*
X151887803Y-104721684D01*
X151911007Y-104727496D01*
X151933529Y-104735554D01*
X151955153Y-104745782D01*
X151975670Y-104758079D01*
X151994883Y-104772329D01*
X152012607Y-104788393D01*
X152028671Y-104806117D01*
X152042921Y-104825330D01*
X152055218Y-104845847D01*
X152065446Y-104867471D01*
X152073504Y-104889993D01*
X152079316Y-104913197D01*
X152082826Y-104936858D01*
X152084000Y-104960750D01*
X152084000Y-105448250D01*
X152082826Y-105472142D01*
X152079316Y-105495803D01*
X152073504Y-105519007D01*
X152065446Y-105541529D01*
X152055218Y-105563153D01*
X152042921Y-105583670D01*
X152028671Y-105602883D01*
X152012607Y-105620607D01*
X151994883Y-105636671D01*
X151975670Y-105650921D01*
X151955153Y-105663218D01*
X151933529Y-105673446D01*
X151911007Y-105681504D01*
X151887803Y-105687316D01*
X151864142Y-105690826D01*
X151840250Y-105692000D01*
X150927750Y-105692000D01*
X150903858Y-105690826D01*
X150880197Y-105687316D01*
X150856993Y-105681504D01*
X150834471Y-105673446D01*
X150812847Y-105663218D01*
X150792330Y-105650921D01*
X150773117Y-105636671D01*
X150755393Y-105620607D01*
X150739329Y-105602883D01*
X150725079Y-105583670D01*
X150712782Y-105563153D01*
X150702554Y-105541529D01*
X150694496Y-105519007D01*
X150688684Y-105495803D01*
X150685174Y-105472142D01*
X150684000Y-105448250D01*
X150684000Y-104960750D01*
X150685174Y-104936858D01*
X150688684Y-104913197D01*
X150694496Y-104889993D01*
X150702554Y-104867471D01*
X150712782Y-104845847D01*
X150725079Y-104825330D01*
X150739329Y-104806117D01*
X150755393Y-104788393D01*
X150773117Y-104772329D01*
X150792330Y-104758079D01*
X150812847Y-104745782D01*
X150834471Y-104735554D01*
X150856993Y-104727496D01*
X150880197Y-104721684D01*
X150903858Y-104718174D01*
X150927750Y-104717000D01*
X151840250Y-104717000D01*
X151864142Y-104718174D01*
G37*
G04 #@! TD.AperFunction*
G04 #@! TA.AperFunction,SMDPad,CuDef*
G36*
X145006142Y-104718174D02*
G01*
X145029803Y-104721684D01*
X145053007Y-104727496D01*
X145075529Y-104735554D01*
X145097153Y-104745782D01*
X145117670Y-104758079D01*
X145136883Y-104772329D01*
X145154607Y-104788393D01*
X145170671Y-104806117D01*
X145184921Y-104825330D01*
X145197218Y-104845847D01*
X145207446Y-104867471D01*
X145215504Y-104889993D01*
X145221316Y-104913197D01*
X145224826Y-104936858D01*
X145226000Y-104960750D01*
X145226000Y-105448250D01*
X145224826Y-105472142D01*
X145221316Y-105495803D01*
X145215504Y-105519007D01*
X145207446Y-105541529D01*
X145197218Y-105563153D01*
X145184921Y-105583670D01*
X145170671Y-105602883D01*
X145154607Y-105620607D01*
X145136883Y-105636671D01*
X145117670Y-105650921D01*
X145097153Y-105663218D01*
X145075529Y-105673446D01*
X145053007Y-105681504D01*
X145029803Y-105687316D01*
X145006142Y-105690826D01*
X144982250Y-105692000D01*
X144069750Y-105692000D01*
X144045858Y-105690826D01*
X144022197Y-105687316D01*
X143998993Y-105681504D01*
X143976471Y-105673446D01*
X143954847Y-105663218D01*
X143934330Y-105650921D01*
X143915117Y-105636671D01*
X143897393Y-105620607D01*
X143881329Y-105602883D01*
X143867079Y-105583670D01*
X143854782Y-105563153D01*
X143844554Y-105541529D01*
X143836496Y-105519007D01*
X143830684Y-105495803D01*
X143827174Y-105472142D01*
X143826000Y-105448250D01*
X143826000Y-104960750D01*
X143827174Y-104936858D01*
X143830684Y-104913197D01*
X143836496Y-104889993D01*
X143844554Y-104867471D01*
X143854782Y-104845847D01*
X143867079Y-104825330D01*
X143881329Y-104806117D01*
X143897393Y-104788393D01*
X143915117Y-104772329D01*
X143934330Y-104758079D01*
X143954847Y-104745782D01*
X143976471Y-104735554D01*
X143998993Y-104727496D01*
X144022197Y-104721684D01*
X144045858Y-104718174D01*
X144069750Y-104717000D01*
X144982250Y-104717000D01*
X145006142Y-104718174D01*
G37*
G04 #@! TD.AperFunction*
G04 #@! TA.AperFunction,SMDPad,CuDef*
G36*
X145006142Y-102843174D02*
G01*
X145029803Y-102846684D01*
X145053007Y-102852496D01*
X145075529Y-102860554D01*
X145097153Y-102870782D01*
X145117670Y-102883079D01*
X145136883Y-102897329D01*
X145154607Y-102913393D01*
X145170671Y-102931117D01*
X145184921Y-102950330D01*
X145197218Y-102970847D01*
X145207446Y-102992471D01*
X145215504Y-103014993D01*
X145221316Y-103038197D01*
X145224826Y-103061858D01*
X145226000Y-103085750D01*
X145226000Y-103573250D01*
X145224826Y-103597142D01*
X145221316Y-103620803D01*
X145215504Y-103644007D01*
X145207446Y-103666529D01*
X145197218Y-103688153D01*
X145184921Y-103708670D01*
X145170671Y-103727883D01*
X145154607Y-103745607D01*
X145136883Y-103761671D01*
X145117670Y-103775921D01*
X145097153Y-103788218D01*
X145075529Y-103798446D01*
X145053007Y-103806504D01*
X145029803Y-103812316D01*
X145006142Y-103815826D01*
X144982250Y-103817000D01*
X144069750Y-103817000D01*
X144045858Y-103815826D01*
X144022197Y-103812316D01*
X143998993Y-103806504D01*
X143976471Y-103798446D01*
X143954847Y-103788218D01*
X143934330Y-103775921D01*
X143915117Y-103761671D01*
X143897393Y-103745607D01*
X143881329Y-103727883D01*
X143867079Y-103708670D01*
X143854782Y-103688153D01*
X143844554Y-103666529D01*
X143836496Y-103644007D01*
X143830684Y-103620803D01*
X143827174Y-103597142D01*
X143826000Y-103573250D01*
X143826000Y-103085750D01*
X143827174Y-103061858D01*
X143830684Y-103038197D01*
X143836496Y-103014993D01*
X143844554Y-102992471D01*
X143854782Y-102970847D01*
X143867079Y-102950330D01*
X143881329Y-102931117D01*
X143897393Y-102913393D01*
X143915117Y-102897329D01*
X143934330Y-102883079D01*
X143954847Y-102870782D01*
X143976471Y-102860554D01*
X143998993Y-102852496D01*
X144022197Y-102846684D01*
X144045858Y-102843174D01*
X144069750Y-102842000D01*
X144982250Y-102842000D01*
X145006142Y-102843174D01*
G37*
G04 #@! TD.AperFunction*
G04 #@! TA.AperFunction,SMDPad,CuDef*
G36*
X159992142Y-102843174D02*
G01*
X160015803Y-102846684D01*
X160039007Y-102852496D01*
X160061529Y-102860554D01*
X160083153Y-102870782D01*
X160103670Y-102883079D01*
X160122883Y-102897329D01*
X160140607Y-102913393D01*
X160156671Y-102931117D01*
X160170921Y-102950330D01*
X160183218Y-102970847D01*
X160193446Y-102992471D01*
X160201504Y-103014993D01*
X160207316Y-103038197D01*
X160210826Y-103061858D01*
X160212000Y-103085750D01*
X160212000Y-103573250D01*
X160210826Y-103597142D01*
X160207316Y-103620803D01*
X160201504Y-103644007D01*
X160193446Y-103666529D01*
X160183218Y-103688153D01*
X160170921Y-103708670D01*
X160156671Y-103727883D01*
X160140607Y-103745607D01*
X160122883Y-103761671D01*
X160103670Y-103775921D01*
X160083153Y-103788218D01*
X160061529Y-103798446D01*
X160039007Y-103806504D01*
X160015803Y-103812316D01*
X159992142Y-103815826D01*
X159968250Y-103817000D01*
X159055750Y-103817000D01*
X159031858Y-103815826D01*
X159008197Y-103812316D01*
X158984993Y-103806504D01*
X158962471Y-103798446D01*
X158940847Y-103788218D01*
X158920330Y-103775921D01*
X158901117Y-103761671D01*
X158883393Y-103745607D01*
X158867329Y-103727883D01*
X158853079Y-103708670D01*
X158840782Y-103688153D01*
X158830554Y-103666529D01*
X158822496Y-103644007D01*
X158816684Y-103620803D01*
X158813174Y-103597142D01*
X158812000Y-103573250D01*
X158812000Y-103085750D01*
X158813174Y-103061858D01*
X158816684Y-103038197D01*
X158822496Y-103014993D01*
X158830554Y-102992471D01*
X158840782Y-102970847D01*
X158853079Y-102950330D01*
X158867329Y-102931117D01*
X158883393Y-102913393D01*
X158901117Y-102897329D01*
X158920330Y-102883079D01*
X158940847Y-102870782D01*
X158962471Y-102860554D01*
X158984993Y-102852496D01*
X159008197Y-102846684D01*
X159031858Y-102843174D01*
X159055750Y-102842000D01*
X159968250Y-102842000D01*
X159992142Y-102843174D01*
G37*
G04 #@! TD.AperFunction*
G04 #@! TA.AperFunction,SMDPad,CuDef*
G36*
X159992142Y-104718174D02*
G01*
X160015803Y-104721684D01*
X160039007Y-104727496D01*
X160061529Y-104735554D01*
X160083153Y-104745782D01*
X160103670Y-104758079D01*
X160122883Y-104772329D01*
X160140607Y-104788393D01*
X160156671Y-104806117D01*
X160170921Y-104825330D01*
X160183218Y-104845847D01*
X160193446Y-104867471D01*
X160201504Y-104889993D01*
X160207316Y-104913197D01*
X160210826Y-104936858D01*
X160212000Y-104960750D01*
X160212000Y-105448250D01*
X160210826Y-105472142D01*
X160207316Y-105495803D01*
X160201504Y-105519007D01*
X160193446Y-105541529D01*
X160183218Y-105563153D01*
X160170921Y-105583670D01*
X160156671Y-105602883D01*
X160140607Y-105620607D01*
X160122883Y-105636671D01*
X160103670Y-105650921D01*
X160083153Y-105663218D01*
X160061529Y-105673446D01*
X160039007Y-105681504D01*
X160015803Y-105687316D01*
X159992142Y-105690826D01*
X159968250Y-105692000D01*
X159055750Y-105692000D01*
X159031858Y-105690826D01*
X159008197Y-105687316D01*
X158984993Y-105681504D01*
X158962471Y-105673446D01*
X158940847Y-105663218D01*
X158920330Y-105650921D01*
X158901117Y-105636671D01*
X158883393Y-105620607D01*
X158867329Y-105602883D01*
X158853079Y-105583670D01*
X158840782Y-105563153D01*
X158830554Y-105541529D01*
X158822496Y-105519007D01*
X158816684Y-105495803D01*
X158813174Y-105472142D01*
X158812000Y-105448250D01*
X158812000Y-104960750D01*
X158813174Y-104936858D01*
X158816684Y-104913197D01*
X158822496Y-104889993D01*
X158830554Y-104867471D01*
X158840782Y-104845847D01*
X158853079Y-104825330D01*
X158867329Y-104806117D01*
X158883393Y-104788393D01*
X158901117Y-104772329D01*
X158920330Y-104758079D01*
X158940847Y-104745782D01*
X158962471Y-104735554D01*
X158984993Y-104727496D01*
X159008197Y-104721684D01*
X159031858Y-104718174D01*
X159055750Y-104717000D01*
X159968250Y-104717000D01*
X159992142Y-104718174D01*
G37*
G04 #@! TD.AperFunction*
G04 #@! TA.AperFunction,SMDPad,CuDef*
G36*
X128957505Y-100693204D02*
G01*
X128981773Y-100696804D01*
X129005572Y-100702765D01*
X129028671Y-100711030D01*
X129050850Y-100721520D01*
X129071893Y-100734132D01*
X129091599Y-100748747D01*
X129109777Y-100765223D01*
X129126253Y-100783401D01*
X129140868Y-100803107D01*
X129153480Y-100824150D01*
X129163970Y-100846329D01*
X129172235Y-100869428D01*
X129178196Y-100893227D01*
X129181796Y-100917495D01*
X129183000Y-100941999D01*
X129183000Y-101792001D01*
X129181796Y-101816505D01*
X129178196Y-101840773D01*
X129172235Y-101864572D01*
X129163970Y-101887671D01*
X129153480Y-101909850D01*
X129140868Y-101930893D01*
X129126253Y-101950599D01*
X129109777Y-101968777D01*
X129091599Y-101985253D01*
X129071893Y-101999868D01*
X129050850Y-102012480D01*
X129028671Y-102022970D01*
X129005572Y-102031235D01*
X128981773Y-102037196D01*
X128957505Y-102040796D01*
X128933001Y-102042000D01*
X126082999Y-102042000D01*
X126058495Y-102040796D01*
X126034227Y-102037196D01*
X126010428Y-102031235D01*
X125987329Y-102022970D01*
X125965150Y-102012480D01*
X125944107Y-101999868D01*
X125924401Y-101985253D01*
X125906223Y-101968777D01*
X125889747Y-101950599D01*
X125875132Y-101930893D01*
X125862520Y-101909850D01*
X125852030Y-101887671D01*
X125843765Y-101864572D01*
X125837804Y-101840773D01*
X125834204Y-101816505D01*
X125833000Y-101792001D01*
X125833000Y-100941999D01*
X125834204Y-100917495D01*
X125837804Y-100893227D01*
X125843765Y-100869428D01*
X125852030Y-100846329D01*
X125862520Y-100824150D01*
X125875132Y-100803107D01*
X125889747Y-100783401D01*
X125906223Y-100765223D01*
X125924401Y-100748747D01*
X125944107Y-100734132D01*
X125965150Y-100721520D01*
X125987329Y-100711030D01*
X126010428Y-100702765D01*
X126034227Y-100696804D01*
X126058495Y-100693204D01*
X126082999Y-100692000D01*
X128933001Y-100692000D01*
X128957505Y-100693204D01*
G37*
G04 #@! TD.AperFunction*
G04 #@! TA.AperFunction,SMDPad,CuDef*
G36*
X128957505Y-106493204D02*
G01*
X128981773Y-106496804D01*
X129005572Y-106502765D01*
X129028671Y-106511030D01*
X129050850Y-106521520D01*
X129071893Y-106534132D01*
X129091599Y-106548747D01*
X129109777Y-106565223D01*
X129126253Y-106583401D01*
X129140868Y-106603107D01*
X129153480Y-106624150D01*
X129163970Y-106646329D01*
X129172235Y-106669428D01*
X129178196Y-106693227D01*
X129181796Y-106717495D01*
X129183000Y-106741999D01*
X129183000Y-107592001D01*
X129181796Y-107616505D01*
X129178196Y-107640773D01*
X129172235Y-107664572D01*
X129163970Y-107687671D01*
X129153480Y-107709850D01*
X129140868Y-107730893D01*
X129126253Y-107750599D01*
X129109777Y-107768777D01*
X129091599Y-107785253D01*
X129071893Y-107799868D01*
X129050850Y-107812480D01*
X129028671Y-107822970D01*
X129005572Y-107831235D01*
X128981773Y-107837196D01*
X128957505Y-107840796D01*
X128933001Y-107842000D01*
X126082999Y-107842000D01*
X126058495Y-107840796D01*
X126034227Y-107837196D01*
X126010428Y-107831235D01*
X125987329Y-107822970D01*
X125965150Y-107812480D01*
X125944107Y-107799868D01*
X125924401Y-107785253D01*
X125906223Y-107768777D01*
X125889747Y-107750599D01*
X125875132Y-107730893D01*
X125862520Y-107709850D01*
X125852030Y-107687671D01*
X125843765Y-107664572D01*
X125837804Y-107640773D01*
X125834204Y-107616505D01*
X125833000Y-107592001D01*
X125833000Y-106741999D01*
X125834204Y-106717495D01*
X125837804Y-106693227D01*
X125843765Y-106669428D01*
X125852030Y-106646329D01*
X125862520Y-106624150D01*
X125875132Y-106603107D01*
X125889747Y-106583401D01*
X125906223Y-106565223D01*
X125924401Y-106548747D01*
X125944107Y-106534132D01*
X125965150Y-106521520D01*
X125987329Y-106511030D01*
X126010428Y-106502765D01*
X126034227Y-106496804D01*
X126058495Y-106493204D01*
X126082999Y-106492000D01*
X128933001Y-106492000D01*
X128957505Y-106493204D01*
G37*
G04 #@! TD.AperFunction*
G04 #@! TA.AperFunction,SMDPad,CuDef*
G36*
X134799505Y-106493204D02*
G01*
X134823773Y-106496804D01*
X134847572Y-106502765D01*
X134870671Y-106511030D01*
X134892850Y-106521520D01*
X134913893Y-106534132D01*
X134933599Y-106548747D01*
X134951777Y-106565223D01*
X134968253Y-106583401D01*
X134982868Y-106603107D01*
X134995480Y-106624150D01*
X135005970Y-106646329D01*
X135014235Y-106669428D01*
X135020196Y-106693227D01*
X135023796Y-106717495D01*
X135025000Y-106741999D01*
X135025000Y-107592001D01*
X135023796Y-107616505D01*
X135020196Y-107640773D01*
X135014235Y-107664572D01*
X135005970Y-107687671D01*
X134995480Y-107709850D01*
X134982868Y-107730893D01*
X134968253Y-107750599D01*
X134951777Y-107768777D01*
X134933599Y-107785253D01*
X134913893Y-107799868D01*
X134892850Y-107812480D01*
X134870671Y-107822970D01*
X134847572Y-107831235D01*
X134823773Y-107837196D01*
X134799505Y-107840796D01*
X134775001Y-107842000D01*
X131924999Y-107842000D01*
X131900495Y-107840796D01*
X131876227Y-107837196D01*
X131852428Y-107831235D01*
X131829329Y-107822970D01*
X131807150Y-107812480D01*
X131786107Y-107799868D01*
X131766401Y-107785253D01*
X131748223Y-107768777D01*
X131731747Y-107750599D01*
X131717132Y-107730893D01*
X131704520Y-107709850D01*
X131694030Y-107687671D01*
X131685765Y-107664572D01*
X131679804Y-107640773D01*
X131676204Y-107616505D01*
X131675000Y-107592001D01*
X131675000Y-106741999D01*
X131676204Y-106717495D01*
X131679804Y-106693227D01*
X131685765Y-106669428D01*
X131694030Y-106646329D01*
X131704520Y-106624150D01*
X131717132Y-106603107D01*
X131731747Y-106583401D01*
X131748223Y-106565223D01*
X131766401Y-106548747D01*
X131786107Y-106534132D01*
X131807150Y-106521520D01*
X131829329Y-106511030D01*
X131852428Y-106502765D01*
X131876227Y-106496804D01*
X131900495Y-106493204D01*
X131924999Y-106492000D01*
X134775001Y-106492000D01*
X134799505Y-106493204D01*
G37*
G04 #@! TD.AperFunction*
G04 #@! TA.AperFunction,SMDPad,CuDef*
G36*
X134799505Y-100693204D02*
G01*
X134823773Y-100696804D01*
X134847572Y-100702765D01*
X134870671Y-100711030D01*
X134892850Y-100721520D01*
X134913893Y-100734132D01*
X134933599Y-100748747D01*
X134951777Y-100765223D01*
X134968253Y-100783401D01*
X134982868Y-100803107D01*
X134995480Y-100824150D01*
X135005970Y-100846329D01*
X135014235Y-100869428D01*
X135020196Y-100893227D01*
X135023796Y-100917495D01*
X135025000Y-100941999D01*
X135025000Y-101792001D01*
X135023796Y-101816505D01*
X135020196Y-101840773D01*
X135014235Y-101864572D01*
X135005970Y-101887671D01*
X134995480Y-101909850D01*
X134982868Y-101930893D01*
X134968253Y-101950599D01*
X134951777Y-101968777D01*
X134933599Y-101985253D01*
X134913893Y-101999868D01*
X134892850Y-102012480D01*
X134870671Y-102022970D01*
X134847572Y-102031235D01*
X134823773Y-102037196D01*
X134799505Y-102040796D01*
X134775001Y-102042000D01*
X131924999Y-102042000D01*
X131900495Y-102040796D01*
X131876227Y-102037196D01*
X131852428Y-102031235D01*
X131829329Y-102022970D01*
X131807150Y-102012480D01*
X131786107Y-101999868D01*
X131766401Y-101985253D01*
X131748223Y-101968777D01*
X131731747Y-101950599D01*
X131717132Y-101930893D01*
X131704520Y-101909850D01*
X131694030Y-101887671D01*
X131685765Y-101864572D01*
X131679804Y-101840773D01*
X131676204Y-101816505D01*
X131675000Y-101792001D01*
X131675000Y-100941999D01*
X131676204Y-100917495D01*
X131679804Y-100893227D01*
X131685765Y-100869428D01*
X131694030Y-100846329D01*
X131704520Y-100824150D01*
X131717132Y-100803107D01*
X131731747Y-100783401D01*
X131748223Y-100765223D01*
X131766401Y-100748747D01*
X131786107Y-100734132D01*
X131807150Y-100721520D01*
X131829329Y-100711030D01*
X131852428Y-100702765D01*
X131876227Y-100696804D01*
X131900495Y-100693204D01*
X131924999Y-100692000D01*
X134775001Y-100692000D01*
X134799505Y-100693204D01*
G37*
G04 #@! TD.AperFunction*
G04 #@! TA.AperFunction,SMDPad,CuDef*
G36*
X137506142Y-100520174D02*
G01*
X137529803Y-100523684D01*
X137553007Y-100529496D01*
X137575529Y-100537554D01*
X137597153Y-100547782D01*
X137617670Y-100560079D01*
X137636883Y-100574329D01*
X137654607Y-100590393D01*
X137670671Y-100608117D01*
X137684921Y-100627330D01*
X137697218Y-100647847D01*
X137707446Y-100669471D01*
X137715504Y-100691993D01*
X137721316Y-100715197D01*
X137724826Y-100738858D01*
X137726000Y-100762750D01*
X137726000Y-101675250D01*
X137724826Y-101699142D01*
X137721316Y-101722803D01*
X137715504Y-101746007D01*
X137707446Y-101768529D01*
X137697218Y-101790153D01*
X137684921Y-101810670D01*
X137670671Y-101829883D01*
X137654607Y-101847607D01*
X137636883Y-101863671D01*
X137617670Y-101877921D01*
X137597153Y-101890218D01*
X137575529Y-101900446D01*
X137553007Y-101908504D01*
X137529803Y-101914316D01*
X137506142Y-101917826D01*
X137482250Y-101919000D01*
X136994750Y-101919000D01*
X136970858Y-101917826D01*
X136947197Y-101914316D01*
X136923993Y-101908504D01*
X136901471Y-101900446D01*
X136879847Y-101890218D01*
X136859330Y-101877921D01*
X136840117Y-101863671D01*
X136822393Y-101847607D01*
X136806329Y-101829883D01*
X136792079Y-101810670D01*
X136779782Y-101790153D01*
X136769554Y-101768529D01*
X136761496Y-101746007D01*
X136755684Y-101722803D01*
X136752174Y-101699142D01*
X136751000Y-101675250D01*
X136751000Y-100762750D01*
X136752174Y-100738858D01*
X136755684Y-100715197D01*
X136761496Y-100691993D01*
X136769554Y-100669471D01*
X136779782Y-100647847D01*
X136792079Y-100627330D01*
X136806329Y-100608117D01*
X136822393Y-100590393D01*
X136840117Y-100574329D01*
X136859330Y-100560079D01*
X136879847Y-100547782D01*
X136901471Y-100537554D01*
X136923993Y-100529496D01*
X136947197Y-100523684D01*
X136970858Y-100520174D01*
X136994750Y-100519000D01*
X137482250Y-100519000D01*
X137506142Y-100520174D01*
G37*
G04 #@! TD.AperFunction*
G04 #@! TA.AperFunction,SMDPad,CuDef*
G36*
X139381142Y-100520174D02*
G01*
X139404803Y-100523684D01*
X139428007Y-100529496D01*
X139450529Y-100537554D01*
X139472153Y-100547782D01*
X139492670Y-100560079D01*
X139511883Y-100574329D01*
X139529607Y-100590393D01*
X139545671Y-100608117D01*
X139559921Y-100627330D01*
X139572218Y-100647847D01*
X139582446Y-100669471D01*
X139590504Y-100691993D01*
X139596316Y-100715197D01*
X139599826Y-100738858D01*
X139601000Y-100762750D01*
X139601000Y-101675250D01*
X139599826Y-101699142D01*
X139596316Y-101722803D01*
X139590504Y-101746007D01*
X139582446Y-101768529D01*
X139572218Y-101790153D01*
X139559921Y-101810670D01*
X139545671Y-101829883D01*
X139529607Y-101847607D01*
X139511883Y-101863671D01*
X139492670Y-101877921D01*
X139472153Y-101890218D01*
X139450529Y-101900446D01*
X139428007Y-101908504D01*
X139404803Y-101914316D01*
X139381142Y-101917826D01*
X139357250Y-101919000D01*
X138869750Y-101919000D01*
X138845858Y-101917826D01*
X138822197Y-101914316D01*
X138798993Y-101908504D01*
X138776471Y-101900446D01*
X138754847Y-101890218D01*
X138734330Y-101877921D01*
X138715117Y-101863671D01*
X138697393Y-101847607D01*
X138681329Y-101829883D01*
X138667079Y-101810670D01*
X138654782Y-101790153D01*
X138644554Y-101768529D01*
X138636496Y-101746007D01*
X138630684Y-101722803D01*
X138627174Y-101699142D01*
X138626000Y-101675250D01*
X138626000Y-100762750D01*
X138627174Y-100738858D01*
X138630684Y-100715197D01*
X138636496Y-100691993D01*
X138644554Y-100669471D01*
X138654782Y-100647847D01*
X138667079Y-100627330D01*
X138681329Y-100608117D01*
X138697393Y-100590393D01*
X138715117Y-100574329D01*
X138734330Y-100560079D01*
X138754847Y-100547782D01*
X138776471Y-100537554D01*
X138798993Y-100529496D01*
X138822197Y-100523684D01*
X138845858Y-100520174D01*
X138869750Y-100519000D01*
X139357250Y-100519000D01*
X139381142Y-100520174D01*
G37*
G04 #@! TD.AperFunction*
G04 #@! TA.AperFunction,SMDPad,CuDef*
G36*
X157452142Y-102843174D02*
G01*
X157475803Y-102846684D01*
X157499007Y-102852496D01*
X157521529Y-102860554D01*
X157543153Y-102870782D01*
X157563670Y-102883079D01*
X157582883Y-102897329D01*
X157600607Y-102913393D01*
X157616671Y-102931117D01*
X157630921Y-102950330D01*
X157643218Y-102970847D01*
X157653446Y-102992471D01*
X157661504Y-103014993D01*
X157667316Y-103038197D01*
X157670826Y-103061858D01*
X157672000Y-103085750D01*
X157672000Y-103573250D01*
X157670826Y-103597142D01*
X157667316Y-103620803D01*
X157661504Y-103644007D01*
X157653446Y-103666529D01*
X157643218Y-103688153D01*
X157630921Y-103708670D01*
X157616671Y-103727883D01*
X157600607Y-103745607D01*
X157582883Y-103761671D01*
X157563670Y-103775921D01*
X157543153Y-103788218D01*
X157521529Y-103798446D01*
X157499007Y-103806504D01*
X157475803Y-103812316D01*
X157452142Y-103815826D01*
X157428250Y-103817000D01*
X156515750Y-103817000D01*
X156491858Y-103815826D01*
X156468197Y-103812316D01*
X156444993Y-103806504D01*
X156422471Y-103798446D01*
X156400847Y-103788218D01*
X156380330Y-103775921D01*
X156361117Y-103761671D01*
X156343393Y-103745607D01*
X156327329Y-103727883D01*
X156313079Y-103708670D01*
X156300782Y-103688153D01*
X156290554Y-103666529D01*
X156282496Y-103644007D01*
X156276684Y-103620803D01*
X156273174Y-103597142D01*
X156272000Y-103573250D01*
X156272000Y-103085750D01*
X156273174Y-103061858D01*
X156276684Y-103038197D01*
X156282496Y-103014993D01*
X156290554Y-102992471D01*
X156300782Y-102970847D01*
X156313079Y-102950330D01*
X156327329Y-102931117D01*
X156343393Y-102913393D01*
X156361117Y-102897329D01*
X156380330Y-102883079D01*
X156400847Y-102870782D01*
X156422471Y-102860554D01*
X156444993Y-102852496D01*
X156468197Y-102846684D01*
X156491858Y-102843174D01*
X156515750Y-102842000D01*
X157428250Y-102842000D01*
X157452142Y-102843174D01*
G37*
G04 #@! TD.AperFunction*
G04 #@! TA.AperFunction,SMDPad,CuDef*
G36*
X157452142Y-104718174D02*
G01*
X157475803Y-104721684D01*
X157499007Y-104727496D01*
X157521529Y-104735554D01*
X157543153Y-104745782D01*
X157563670Y-104758079D01*
X157582883Y-104772329D01*
X157600607Y-104788393D01*
X157616671Y-104806117D01*
X157630921Y-104825330D01*
X157643218Y-104845847D01*
X157653446Y-104867471D01*
X157661504Y-104889993D01*
X157667316Y-104913197D01*
X157670826Y-104936858D01*
X157672000Y-104960750D01*
X157672000Y-105448250D01*
X157670826Y-105472142D01*
X157667316Y-105495803D01*
X157661504Y-105519007D01*
X157653446Y-105541529D01*
X157643218Y-105563153D01*
X157630921Y-105583670D01*
X157616671Y-105602883D01*
X157600607Y-105620607D01*
X157582883Y-105636671D01*
X157563670Y-105650921D01*
X157543153Y-105663218D01*
X157521529Y-105673446D01*
X157499007Y-105681504D01*
X157475803Y-105687316D01*
X157452142Y-105690826D01*
X157428250Y-105692000D01*
X156515750Y-105692000D01*
X156491858Y-105690826D01*
X156468197Y-105687316D01*
X156444993Y-105681504D01*
X156422471Y-105673446D01*
X156400847Y-105663218D01*
X156380330Y-105650921D01*
X156361117Y-105636671D01*
X156343393Y-105620607D01*
X156327329Y-105602883D01*
X156313079Y-105583670D01*
X156300782Y-105563153D01*
X156290554Y-105541529D01*
X156282496Y-105519007D01*
X156276684Y-105495803D01*
X156273174Y-105472142D01*
X156272000Y-105448250D01*
X156272000Y-104960750D01*
X156273174Y-104936858D01*
X156276684Y-104913197D01*
X156282496Y-104889993D01*
X156290554Y-104867471D01*
X156300782Y-104845847D01*
X156313079Y-104825330D01*
X156327329Y-104806117D01*
X156343393Y-104788393D01*
X156361117Y-104772329D01*
X156380330Y-104758079D01*
X156400847Y-104745782D01*
X156422471Y-104735554D01*
X156444993Y-104727496D01*
X156468197Y-104721684D01*
X156491858Y-104718174D01*
X156515750Y-104717000D01*
X157428250Y-104717000D01*
X157452142Y-104718174D01*
G37*
G04 #@! TD.AperFunction*
D15*
X154178000Y-104267000D03*
X141732000Y-107315000D03*
X141732000Y-101219000D03*
G04 #@! TA.AperFunction,SMDPad,CuDef*
D10*
G36*
X137506142Y-106616174D02*
G01*
X137529803Y-106619684D01*
X137553007Y-106625496D01*
X137575529Y-106633554D01*
X137597153Y-106643782D01*
X137617670Y-106656079D01*
X137636883Y-106670329D01*
X137654607Y-106686393D01*
X137670671Y-106704117D01*
X137684921Y-106723330D01*
X137697218Y-106743847D01*
X137707446Y-106765471D01*
X137715504Y-106787993D01*
X137721316Y-106811197D01*
X137724826Y-106834858D01*
X137726000Y-106858750D01*
X137726000Y-107771250D01*
X137724826Y-107795142D01*
X137721316Y-107818803D01*
X137715504Y-107842007D01*
X137707446Y-107864529D01*
X137697218Y-107886153D01*
X137684921Y-107906670D01*
X137670671Y-107925883D01*
X137654607Y-107943607D01*
X137636883Y-107959671D01*
X137617670Y-107973921D01*
X137597153Y-107986218D01*
X137575529Y-107996446D01*
X137553007Y-108004504D01*
X137529803Y-108010316D01*
X137506142Y-108013826D01*
X137482250Y-108015000D01*
X136994750Y-108015000D01*
X136970858Y-108013826D01*
X136947197Y-108010316D01*
X136923993Y-108004504D01*
X136901471Y-107996446D01*
X136879847Y-107986218D01*
X136859330Y-107973921D01*
X136840117Y-107959671D01*
X136822393Y-107943607D01*
X136806329Y-107925883D01*
X136792079Y-107906670D01*
X136779782Y-107886153D01*
X136769554Y-107864529D01*
X136761496Y-107842007D01*
X136755684Y-107818803D01*
X136752174Y-107795142D01*
X136751000Y-107771250D01*
X136751000Y-106858750D01*
X136752174Y-106834858D01*
X136755684Y-106811197D01*
X136761496Y-106787993D01*
X136769554Y-106765471D01*
X136779782Y-106743847D01*
X136792079Y-106723330D01*
X136806329Y-106704117D01*
X136822393Y-106686393D01*
X136840117Y-106670329D01*
X136859330Y-106656079D01*
X136879847Y-106643782D01*
X136901471Y-106633554D01*
X136923993Y-106625496D01*
X136947197Y-106619684D01*
X136970858Y-106616174D01*
X136994750Y-106615000D01*
X137482250Y-106615000D01*
X137506142Y-106616174D01*
G37*
G04 #@! TD.AperFunction*
G04 #@! TA.AperFunction,SMDPad,CuDef*
G36*
X139381142Y-106616174D02*
G01*
X139404803Y-106619684D01*
X139428007Y-106625496D01*
X139450529Y-106633554D01*
X139472153Y-106643782D01*
X139492670Y-106656079D01*
X139511883Y-106670329D01*
X139529607Y-106686393D01*
X139545671Y-106704117D01*
X139559921Y-106723330D01*
X139572218Y-106743847D01*
X139582446Y-106765471D01*
X139590504Y-106787993D01*
X139596316Y-106811197D01*
X139599826Y-106834858D01*
X139601000Y-106858750D01*
X139601000Y-107771250D01*
X139599826Y-107795142D01*
X139596316Y-107818803D01*
X139590504Y-107842007D01*
X139582446Y-107864529D01*
X139572218Y-107886153D01*
X139559921Y-107906670D01*
X139545671Y-107925883D01*
X139529607Y-107943607D01*
X139511883Y-107959671D01*
X139492670Y-107973921D01*
X139472153Y-107986218D01*
X139450529Y-107996446D01*
X139428007Y-108004504D01*
X139404803Y-108010316D01*
X139381142Y-108013826D01*
X139357250Y-108015000D01*
X138869750Y-108015000D01*
X138845858Y-108013826D01*
X138822197Y-108010316D01*
X138798993Y-108004504D01*
X138776471Y-107996446D01*
X138754847Y-107986218D01*
X138734330Y-107973921D01*
X138715117Y-107959671D01*
X138697393Y-107943607D01*
X138681329Y-107925883D01*
X138667079Y-107906670D01*
X138654782Y-107886153D01*
X138644554Y-107864529D01*
X138636496Y-107842007D01*
X138630684Y-107818803D01*
X138627174Y-107795142D01*
X138626000Y-107771250D01*
X138626000Y-106858750D01*
X138627174Y-106834858D01*
X138630684Y-106811197D01*
X138636496Y-106787993D01*
X138644554Y-106765471D01*
X138654782Y-106743847D01*
X138667079Y-106723330D01*
X138681329Y-106704117D01*
X138697393Y-106686393D01*
X138715117Y-106670329D01*
X138734330Y-106656079D01*
X138754847Y-106643782D01*
X138776471Y-106633554D01*
X138798993Y-106625496D01*
X138822197Y-106619684D01*
X138845858Y-106616174D01*
X138869750Y-106615000D01*
X139357250Y-106615000D01*
X139381142Y-106616174D01*
G37*
G04 #@! TD.AperFunction*
D18*
X149182000Y-105217000D03*
X149182000Y-104267000D03*
X149182000Y-103317000D03*
X146982000Y-103317000D03*
X146982000Y-105217000D03*
D19*
X118618000Y-111887000D03*
D20*
X118618000Y-106807000D03*
X118618000Y-101727000D03*
X118618000Y-96647000D03*
G04 #@! TA.AperFunction,SMDPad,CuDef*
D10*
G36*
X144618142Y-106616174D02*
G01*
X144641803Y-106619684D01*
X144665007Y-106625496D01*
X144687529Y-106633554D01*
X144709153Y-106643782D01*
X144729670Y-106656079D01*
X144748883Y-106670329D01*
X144766607Y-106686393D01*
X144782671Y-106704117D01*
X144796921Y-106723330D01*
X144809218Y-106743847D01*
X144819446Y-106765471D01*
X144827504Y-106787993D01*
X144833316Y-106811197D01*
X144836826Y-106834858D01*
X144838000Y-106858750D01*
X144838000Y-107771250D01*
X144836826Y-107795142D01*
X144833316Y-107818803D01*
X144827504Y-107842007D01*
X144819446Y-107864529D01*
X144809218Y-107886153D01*
X144796921Y-107906670D01*
X144782671Y-107925883D01*
X144766607Y-107943607D01*
X144748883Y-107959671D01*
X144729670Y-107973921D01*
X144709153Y-107986218D01*
X144687529Y-107996446D01*
X144665007Y-108004504D01*
X144641803Y-108010316D01*
X144618142Y-108013826D01*
X144594250Y-108015000D01*
X144106750Y-108015000D01*
X144082858Y-108013826D01*
X144059197Y-108010316D01*
X144035993Y-108004504D01*
X144013471Y-107996446D01*
X143991847Y-107986218D01*
X143971330Y-107973921D01*
X143952117Y-107959671D01*
X143934393Y-107943607D01*
X143918329Y-107925883D01*
X143904079Y-107906670D01*
X143891782Y-107886153D01*
X143881554Y-107864529D01*
X143873496Y-107842007D01*
X143867684Y-107818803D01*
X143864174Y-107795142D01*
X143863000Y-107771250D01*
X143863000Y-106858750D01*
X143864174Y-106834858D01*
X143867684Y-106811197D01*
X143873496Y-106787993D01*
X143881554Y-106765471D01*
X143891782Y-106743847D01*
X143904079Y-106723330D01*
X143918329Y-106704117D01*
X143934393Y-106686393D01*
X143952117Y-106670329D01*
X143971330Y-106656079D01*
X143991847Y-106643782D01*
X144013471Y-106633554D01*
X144035993Y-106625496D01*
X144059197Y-106619684D01*
X144082858Y-106616174D01*
X144106750Y-106615000D01*
X144594250Y-106615000D01*
X144618142Y-106616174D01*
G37*
G04 #@! TD.AperFunction*
G04 #@! TA.AperFunction,SMDPad,CuDef*
G36*
X146493142Y-106616174D02*
G01*
X146516803Y-106619684D01*
X146540007Y-106625496D01*
X146562529Y-106633554D01*
X146584153Y-106643782D01*
X146604670Y-106656079D01*
X146623883Y-106670329D01*
X146641607Y-106686393D01*
X146657671Y-106704117D01*
X146671921Y-106723330D01*
X146684218Y-106743847D01*
X146694446Y-106765471D01*
X146702504Y-106787993D01*
X146708316Y-106811197D01*
X146711826Y-106834858D01*
X146713000Y-106858750D01*
X146713000Y-107771250D01*
X146711826Y-107795142D01*
X146708316Y-107818803D01*
X146702504Y-107842007D01*
X146694446Y-107864529D01*
X146684218Y-107886153D01*
X146671921Y-107906670D01*
X146657671Y-107925883D01*
X146641607Y-107943607D01*
X146623883Y-107959671D01*
X146604670Y-107973921D01*
X146584153Y-107986218D01*
X146562529Y-107996446D01*
X146540007Y-108004504D01*
X146516803Y-108010316D01*
X146493142Y-108013826D01*
X146469250Y-108015000D01*
X145981750Y-108015000D01*
X145957858Y-108013826D01*
X145934197Y-108010316D01*
X145910993Y-108004504D01*
X145888471Y-107996446D01*
X145866847Y-107986218D01*
X145846330Y-107973921D01*
X145827117Y-107959671D01*
X145809393Y-107943607D01*
X145793329Y-107925883D01*
X145779079Y-107906670D01*
X145766782Y-107886153D01*
X145756554Y-107864529D01*
X145748496Y-107842007D01*
X145742684Y-107818803D01*
X145739174Y-107795142D01*
X145738000Y-107771250D01*
X145738000Y-106858750D01*
X145739174Y-106834858D01*
X145742684Y-106811197D01*
X145748496Y-106787993D01*
X145756554Y-106765471D01*
X145766782Y-106743847D01*
X145779079Y-106723330D01*
X145793329Y-106704117D01*
X145809393Y-106686393D01*
X145827117Y-106670329D01*
X145846330Y-106656079D01*
X145866847Y-106643782D01*
X145888471Y-106633554D01*
X145910993Y-106625496D01*
X145934197Y-106619684D01*
X145957858Y-106616174D01*
X145981750Y-106615000D01*
X146469250Y-106615000D01*
X146493142Y-106616174D01*
G37*
G04 #@! TD.AperFunction*
G04 #@! TA.AperFunction,SMDPad,CuDef*
G36*
X146493142Y-100520174D02*
G01*
X146516803Y-100523684D01*
X146540007Y-100529496D01*
X146562529Y-100537554D01*
X146584153Y-100547782D01*
X146604670Y-100560079D01*
X146623883Y-100574329D01*
X146641607Y-100590393D01*
X146657671Y-100608117D01*
X146671921Y-100627330D01*
X146684218Y-100647847D01*
X146694446Y-100669471D01*
X146702504Y-100691993D01*
X146708316Y-100715197D01*
X146711826Y-100738858D01*
X146713000Y-100762750D01*
X146713000Y-101675250D01*
X146711826Y-101699142D01*
X146708316Y-101722803D01*
X146702504Y-101746007D01*
X146694446Y-101768529D01*
X146684218Y-101790153D01*
X146671921Y-101810670D01*
X146657671Y-101829883D01*
X146641607Y-101847607D01*
X146623883Y-101863671D01*
X146604670Y-101877921D01*
X146584153Y-101890218D01*
X146562529Y-101900446D01*
X146540007Y-101908504D01*
X146516803Y-101914316D01*
X146493142Y-101917826D01*
X146469250Y-101919000D01*
X145981750Y-101919000D01*
X145957858Y-101917826D01*
X145934197Y-101914316D01*
X145910993Y-101908504D01*
X145888471Y-101900446D01*
X145866847Y-101890218D01*
X145846330Y-101877921D01*
X145827117Y-101863671D01*
X145809393Y-101847607D01*
X145793329Y-101829883D01*
X145779079Y-101810670D01*
X145766782Y-101790153D01*
X145756554Y-101768529D01*
X145748496Y-101746007D01*
X145742684Y-101722803D01*
X145739174Y-101699142D01*
X145738000Y-101675250D01*
X145738000Y-100762750D01*
X145739174Y-100738858D01*
X145742684Y-100715197D01*
X145748496Y-100691993D01*
X145756554Y-100669471D01*
X145766782Y-100647847D01*
X145779079Y-100627330D01*
X145793329Y-100608117D01*
X145809393Y-100590393D01*
X145827117Y-100574329D01*
X145846330Y-100560079D01*
X145866847Y-100547782D01*
X145888471Y-100537554D01*
X145910993Y-100529496D01*
X145934197Y-100523684D01*
X145957858Y-100520174D01*
X145981750Y-100519000D01*
X146469250Y-100519000D01*
X146493142Y-100520174D01*
G37*
G04 #@! TD.AperFunction*
G04 #@! TA.AperFunction,SMDPad,CuDef*
G36*
X144618142Y-100520174D02*
G01*
X144641803Y-100523684D01*
X144665007Y-100529496D01*
X144687529Y-100537554D01*
X144709153Y-100547782D01*
X144729670Y-100560079D01*
X144748883Y-100574329D01*
X144766607Y-100590393D01*
X144782671Y-100608117D01*
X144796921Y-100627330D01*
X144809218Y-100647847D01*
X144819446Y-100669471D01*
X144827504Y-100691993D01*
X144833316Y-100715197D01*
X144836826Y-100738858D01*
X144838000Y-100762750D01*
X144838000Y-101675250D01*
X144836826Y-101699142D01*
X144833316Y-101722803D01*
X144827504Y-101746007D01*
X144819446Y-101768529D01*
X144809218Y-101790153D01*
X144796921Y-101810670D01*
X144782671Y-101829883D01*
X144766607Y-101847607D01*
X144748883Y-101863671D01*
X144729670Y-101877921D01*
X144709153Y-101890218D01*
X144687529Y-101900446D01*
X144665007Y-101908504D01*
X144641803Y-101914316D01*
X144618142Y-101917826D01*
X144594250Y-101919000D01*
X144106750Y-101919000D01*
X144082858Y-101917826D01*
X144059197Y-101914316D01*
X144035993Y-101908504D01*
X144013471Y-101900446D01*
X143991847Y-101890218D01*
X143971330Y-101877921D01*
X143952117Y-101863671D01*
X143934393Y-101847607D01*
X143918329Y-101829883D01*
X143904079Y-101810670D01*
X143891782Y-101790153D01*
X143881554Y-101768529D01*
X143873496Y-101746007D01*
X143867684Y-101722803D01*
X143864174Y-101699142D01*
X143863000Y-101675250D01*
X143863000Y-100762750D01*
X143864174Y-100738858D01*
X143867684Y-100715197D01*
X143873496Y-100691993D01*
X143881554Y-100669471D01*
X143891782Y-100647847D01*
X143904079Y-100627330D01*
X143918329Y-100608117D01*
X143934393Y-100590393D01*
X143952117Y-100574329D01*
X143971330Y-100560079D01*
X143991847Y-100547782D01*
X144013471Y-100537554D01*
X144035993Y-100529496D01*
X144059197Y-100523684D01*
X144082858Y-100520174D01*
X144106750Y-100519000D01*
X144594250Y-100519000D01*
X144618142Y-100520174D01*
G37*
G04 #@! TD.AperFunction*
D15*
X158242000Y-107823000D03*
D21*
X151384000Y-102235000D03*
X147320000Y-101219000D03*
X147320000Y-107315000D03*
X159512000Y-106299000D03*
X112014000Y-74041000D03*
X112014000Y-125349000D03*
X122428000Y-125349000D03*
X127508000Y-125349000D03*
X123698000Y-74041000D03*
X128778000Y-74041000D03*
X177800000Y-88011000D03*
X178562000Y-93345000D03*
X178562000Y-116205000D03*
X177546000Y-121793000D03*
X176022000Y-125349000D03*
X159258000Y-125349000D03*
X137668000Y-125349000D03*
X154686000Y-74041000D03*
X176022000Y-77089000D03*
X173228000Y-74041000D03*
X123698000Y-99441000D03*
X123698000Y-109093000D03*
X112014000Y-104267000D03*
X143002000Y-102743000D03*
X143002000Y-105791000D03*
X137668000Y-102997000D03*
X137668000Y-105537000D03*
X137668000Y-99441000D03*
X137668000Y-109093000D03*
X150114000Y-106553000D03*
X152908000Y-106045000D03*
X147828000Y-122047000D03*
X163068000Y-122301000D03*
X178562000Y-111379000D03*
X178562000Y-105791000D03*
X128778000Y-77089000D03*
X123698000Y-104267000D03*
D22*
X149194500Y-105204500D02*
X149182000Y-105217000D01*
X151384000Y-105204500D02*
X149194500Y-105204500D01*
X151384000Y-105204500D02*
X151384000Y-117475000D01*
X149098000Y-119761000D02*
X149098000Y-123825000D01*
X151384000Y-117475000D02*
X149098000Y-119761000D01*
X149194500Y-103329500D02*
X149182000Y-103317000D01*
X151384000Y-103329500D02*
X149194500Y-103329500D01*
X151384000Y-103329500D02*
X151384000Y-102235000D01*
X146225500Y-101219000D02*
X147320000Y-101219000D01*
X146225500Y-107315000D02*
X147320000Y-107315000D01*
X159512000Y-105204500D02*
X159512000Y-106299000D01*
X137090500Y-107167000D02*
X137238500Y-107315000D01*
X133350000Y-107167000D02*
X137090500Y-107167000D01*
X139113500Y-101219000D02*
X141732000Y-101219000D01*
X141732000Y-101219000D02*
X144350500Y-101219000D01*
X144350500Y-103154000D02*
X144526000Y-103329500D01*
X144350500Y-101219000D02*
X144350500Y-103154000D01*
X146969500Y-103329500D02*
X146982000Y-103317000D01*
X144526000Y-103329500D02*
X146969500Y-103329500D01*
X157637000Y-105204500D02*
X159512000Y-103329500D01*
X156972000Y-105204500D02*
X157637000Y-105204500D01*
X161368500Y-103329500D02*
X162306000Y-104267000D01*
X159512000Y-103329500D02*
X161368500Y-103329500D01*
X162306000Y-104267000D02*
X162306000Y-120777000D01*
X161798000Y-121285000D02*
X161798000Y-123825000D01*
X162306000Y-120777000D02*
X161798000Y-121285000D01*
X137090500Y-101367000D02*
X137238500Y-101219000D01*
X133350000Y-101367000D02*
X137090500Y-101367000D01*
X149182000Y-104267000D02*
X154178000Y-104267000D01*
X155115500Y-103329500D02*
X154178000Y-104267000D01*
X156972000Y-103329500D02*
X155115500Y-103329500D01*
X139113500Y-107315000D02*
X141732000Y-107315000D01*
X141732000Y-107315000D02*
X144350500Y-107315000D01*
X144350500Y-105380000D02*
X144526000Y-105204500D01*
X144350500Y-107315000D02*
X144350500Y-105380000D01*
X146969500Y-105204500D02*
X146982000Y-105217000D01*
X144526000Y-105204500D02*
X146969500Y-105204500D01*
D23*
G36*
X134747000Y-95937606D02*
G01*
X134747000Y-101420394D01*
X134313394Y-101854000D01*
X126544606Y-101854000D01*
X126111000Y-101420394D01*
X126111000Y-98425000D01*
X126108560Y-98400224D01*
X126101333Y-98376399D01*
X126089597Y-98354443D01*
X126073803Y-98335197D01*
X125565803Y-97827197D01*
X125546557Y-97811403D01*
X125524601Y-97799667D01*
X125500776Y-97792440D01*
X125476000Y-97790000D01*
X117908606Y-97790000D01*
X117475000Y-97356394D01*
X117475000Y-95937606D01*
X117908606Y-95504000D01*
X134313394Y-95504000D01*
X134747000Y-95937606D01*
G37*
X134747000Y-95937606D02*
X134747000Y-101420394D01*
X134313394Y-101854000D01*
X126544606Y-101854000D01*
X126111000Y-101420394D01*
X126111000Y-98425000D01*
X126108560Y-98400224D01*
X126101333Y-98376399D01*
X126089597Y-98354443D01*
X126073803Y-98335197D01*
X125565803Y-97827197D01*
X125546557Y-97811403D01*
X125524601Y-97799667D01*
X125500776Y-97792440D01*
X125476000Y-97790000D01*
X117908606Y-97790000D01*
X117475000Y-97356394D01*
X117475000Y-95937606D01*
X117908606Y-95504000D01*
X134313394Y-95504000D01*
X134747000Y-95937606D01*
G36*
X134747000Y-107113606D02*
G01*
X134747000Y-112596394D01*
X134313394Y-113030000D01*
X117908606Y-113030000D01*
X117475000Y-112596394D01*
X117475000Y-111177606D01*
X117908606Y-110744000D01*
X125476000Y-110744000D01*
X125500776Y-110741560D01*
X125524601Y-110734333D01*
X125546557Y-110722597D01*
X125565803Y-110706803D01*
X126073803Y-110198803D01*
X126089597Y-110179557D01*
X126101333Y-110157601D01*
X126108560Y-110133776D01*
X126111000Y-110109000D01*
X126111000Y-107113606D01*
X126544606Y-106680000D01*
X134313394Y-106680000D01*
X134747000Y-107113606D01*
G37*
X134747000Y-107113606D02*
X134747000Y-112596394D01*
X134313394Y-113030000D01*
X117908606Y-113030000D01*
X117475000Y-112596394D01*
X117475000Y-111177606D01*
X117908606Y-110744000D01*
X125476000Y-110744000D01*
X125500776Y-110741560D01*
X125524601Y-110734333D01*
X125546557Y-110722597D01*
X125565803Y-110706803D01*
X126073803Y-110198803D01*
X126089597Y-110179557D01*
X126101333Y-110157601D01*
X126108560Y-110133776D01*
X126111000Y-110109000D01*
X126111000Y-107113606D01*
X126544606Y-106680000D01*
X134313394Y-106680000D01*
X134747000Y-107113606D01*
G36*
X124166406Y-73864887D02*
G01*
X123874536Y-74301702D01*
X123673492Y-74787065D01*
X123571000Y-75302323D01*
X123571000Y-75827677D01*
X123673492Y-76342935D01*
X123874536Y-76828298D01*
X124166406Y-77265113D01*
X124537887Y-77636594D01*
X124974702Y-77928464D01*
X125460065Y-78129508D01*
X125975323Y-78232000D01*
X126500677Y-78232000D01*
X127015935Y-78129508D01*
X127501298Y-77928464D01*
X127938113Y-77636594D01*
X128309594Y-77265113D01*
X128601464Y-76828298D01*
X128657001Y-76694219D01*
X128729203Y-76782197D01*
X128957395Y-76969469D01*
X129217737Y-77108625D01*
X129500224Y-77194316D01*
X129794000Y-77223251D01*
X130087777Y-77194316D01*
X130370264Y-77108625D01*
X130630606Y-76969469D01*
X130858797Y-76782197D01*
X131046069Y-76554006D01*
X131064000Y-76520459D01*
X131081931Y-76554006D01*
X131269203Y-76782197D01*
X131497395Y-76969469D01*
X131757737Y-77108625D01*
X132040224Y-77194316D01*
X132334000Y-77223251D01*
X132627777Y-77194316D01*
X132910264Y-77108625D01*
X133170606Y-76969469D01*
X133398797Y-76782197D01*
X133586069Y-76554006D01*
X133604000Y-76520459D01*
X133621931Y-76554006D01*
X133809203Y-76782197D01*
X134037395Y-76969469D01*
X134297737Y-77108625D01*
X134580224Y-77194316D01*
X134874000Y-77223251D01*
X135167777Y-77194316D01*
X135450264Y-77108625D01*
X135710606Y-76969469D01*
X135938797Y-76782197D01*
X136126069Y-76554006D01*
X136265225Y-76293663D01*
X136350916Y-76011176D01*
X136372600Y-75791018D01*
X136372600Y-75338982D01*
X138455400Y-75338982D01*
X138455400Y-75791019D01*
X138477084Y-76011177D01*
X138562775Y-76293664D01*
X138701931Y-76554006D01*
X138889203Y-76782197D01*
X139117395Y-76969469D01*
X139377737Y-77108625D01*
X139660224Y-77194316D01*
X139954000Y-77223251D01*
X140247777Y-77194316D01*
X140530264Y-77108625D01*
X140790606Y-76969469D01*
X141018797Y-76782197D01*
X141206069Y-76554006D01*
X141224000Y-76520459D01*
X141241931Y-76554006D01*
X141429203Y-76782197D01*
X141657395Y-76969469D01*
X141917737Y-77108625D01*
X142200224Y-77194316D01*
X142494000Y-77223251D01*
X142787777Y-77194316D01*
X143070264Y-77108625D01*
X143330606Y-76969469D01*
X143558797Y-76782197D01*
X143746069Y-76554006D01*
X143764000Y-76520459D01*
X143781931Y-76554006D01*
X143969203Y-76782197D01*
X144197395Y-76969469D01*
X144457737Y-77108625D01*
X144740224Y-77194316D01*
X145034000Y-77223251D01*
X145327777Y-77194316D01*
X145610264Y-77108625D01*
X145870606Y-76969469D01*
X146098797Y-76782197D01*
X146286069Y-76554006D01*
X146304000Y-76520459D01*
X146321931Y-76554006D01*
X146509203Y-76782197D01*
X146737395Y-76969469D01*
X146997737Y-77108625D01*
X147280224Y-77194316D01*
X147574000Y-77223251D01*
X147867777Y-77194316D01*
X148150264Y-77108625D01*
X148410606Y-76969469D01*
X148638797Y-76782197D01*
X148826069Y-76554006D01*
X148844000Y-76520459D01*
X148861931Y-76554006D01*
X149049203Y-76782197D01*
X149277395Y-76969469D01*
X149537737Y-77108625D01*
X149820224Y-77194316D01*
X150114000Y-77223251D01*
X150407777Y-77194316D01*
X150690264Y-77108625D01*
X150950606Y-76969469D01*
X151178797Y-76782197D01*
X151366069Y-76554006D01*
X151384000Y-76520459D01*
X151401931Y-76554006D01*
X151589203Y-76782197D01*
X151817395Y-76969469D01*
X152077737Y-77108625D01*
X152360224Y-77194316D01*
X152654000Y-77223251D01*
X152947777Y-77194316D01*
X153230264Y-77108625D01*
X153490606Y-76969469D01*
X153718797Y-76782197D01*
X153906069Y-76554006D01*
X154045225Y-76293663D01*
X154130916Y-76011176D01*
X154152600Y-75791018D01*
X154152600Y-75338982D01*
X155219400Y-75338982D01*
X155219400Y-75791019D01*
X155241084Y-76011177D01*
X155326775Y-76293664D01*
X155465931Y-76554006D01*
X155653203Y-76782197D01*
X155881395Y-76969469D01*
X156141737Y-77108625D01*
X156424224Y-77194316D01*
X156718000Y-77223251D01*
X157011777Y-77194316D01*
X157294264Y-77108625D01*
X157554606Y-76969469D01*
X157782797Y-76782197D01*
X157970069Y-76554006D01*
X157988000Y-76520459D01*
X158005931Y-76554006D01*
X158193203Y-76782197D01*
X158421395Y-76969469D01*
X158681737Y-77108625D01*
X158964224Y-77194316D01*
X159258000Y-77223251D01*
X159551777Y-77194316D01*
X159834264Y-77108625D01*
X160094606Y-76969469D01*
X160322797Y-76782197D01*
X160510069Y-76554006D01*
X160528000Y-76520459D01*
X160545931Y-76554006D01*
X160733203Y-76782197D01*
X160961395Y-76969469D01*
X161221737Y-77108625D01*
X161504224Y-77194316D01*
X161798000Y-77223251D01*
X162091777Y-77194316D01*
X162374264Y-77108625D01*
X162634606Y-76969469D01*
X162862797Y-76782197D01*
X163050069Y-76554006D01*
X163068000Y-76520459D01*
X163085931Y-76554006D01*
X163273203Y-76782197D01*
X163501395Y-76969469D01*
X163761737Y-77108625D01*
X164044224Y-77194316D01*
X164338000Y-77223251D01*
X164631777Y-77194316D01*
X164914264Y-77108625D01*
X165174606Y-76969469D01*
X165402797Y-76782197D01*
X165590069Y-76554006D01*
X165608000Y-76520459D01*
X165625931Y-76554006D01*
X165813203Y-76782197D01*
X166041395Y-76969469D01*
X166301737Y-77108625D01*
X166584224Y-77194316D01*
X166878000Y-77223251D01*
X167171777Y-77194316D01*
X167454264Y-77108625D01*
X167714606Y-76969469D01*
X167942797Y-76782197D01*
X168130069Y-76554006D01*
X168148000Y-76520459D01*
X168165931Y-76554006D01*
X168353203Y-76782197D01*
X168581395Y-76969469D01*
X168841737Y-77108625D01*
X169124224Y-77194316D01*
X169418000Y-77223251D01*
X169711777Y-77194316D01*
X169994264Y-77108625D01*
X170254606Y-76969469D01*
X170482797Y-76782197D01*
X170670069Y-76554006D01*
X170688000Y-76520459D01*
X170705931Y-76554006D01*
X170893203Y-76782197D01*
X171121395Y-76969469D01*
X171381737Y-77108625D01*
X171664224Y-77194316D01*
X171958000Y-77223251D01*
X172251777Y-77194316D01*
X172534264Y-77108625D01*
X172794606Y-76969469D01*
X173022797Y-76782197D01*
X173210069Y-76554006D01*
X173228000Y-76520459D01*
X173245931Y-76554006D01*
X173433203Y-76782197D01*
X173661395Y-76969469D01*
X173921737Y-77108625D01*
X174204224Y-77194316D01*
X174498000Y-77223251D01*
X174791777Y-77194316D01*
X175074264Y-77108625D01*
X175334606Y-76969469D01*
X175562797Y-76782197D01*
X175750069Y-76554006D01*
X175889225Y-76293663D01*
X175974916Y-76011176D01*
X175996600Y-75791018D01*
X175996600Y-75338981D01*
X175974916Y-75118823D01*
X175889225Y-74836336D01*
X175750069Y-74575994D01*
X175562797Y-74347803D01*
X175334605Y-74160531D01*
X175074263Y-74021375D01*
X174791776Y-73935684D01*
X174498000Y-73906749D01*
X174204223Y-73935684D01*
X173921736Y-74021375D01*
X173661394Y-74160531D01*
X173433203Y-74347803D01*
X173245931Y-74575995D01*
X173228000Y-74609541D01*
X173210069Y-74575994D01*
X173022797Y-74347803D01*
X172794605Y-74160531D01*
X172534263Y-74021375D01*
X172251776Y-73935684D01*
X171958000Y-73906749D01*
X171664223Y-73935684D01*
X171381736Y-74021375D01*
X171121394Y-74160531D01*
X170893203Y-74347803D01*
X170705931Y-74575995D01*
X170688000Y-74609541D01*
X170670069Y-74575994D01*
X170482797Y-74347803D01*
X170254605Y-74160531D01*
X169994263Y-74021375D01*
X169711776Y-73935684D01*
X169418000Y-73906749D01*
X169124223Y-73935684D01*
X168841736Y-74021375D01*
X168581394Y-74160531D01*
X168353203Y-74347803D01*
X168165931Y-74575995D01*
X168148000Y-74609541D01*
X168130069Y-74575994D01*
X167942797Y-74347803D01*
X167714605Y-74160531D01*
X167454263Y-74021375D01*
X167171776Y-73935684D01*
X166878000Y-73906749D01*
X166584223Y-73935684D01*
X166301736Y-74021375D01*
X166041394Y-74160531D01*
X165813203Y-74347803D01*
X165625931Y-74575995D01*
X165608000Y-74609541D01*
X165590069Y-74575994D01*
X165402797Y-74347803D01*
X165174605Y-74160531D01*
X164914263Y-74021375D01*
X164631776Y-73935684D01*
X164338000Y-73906749D01*
X164044223Y-73935684D01*
X163761736Y-74021375D01*
X163501394Y-74160531D01*
X163273203Y-74347803D01*
X163085931Y-74575995D01*
X163068000Y-74609541D01*
X163050069Y-74575994D01*
X162862797Y-74347803D01*
X162634605Y-74160531D01*
X162374263Y-74021375D01*
X162091776Y-73935684D01*
X161798000Y-73906749D01*
X161504223Y-73935684D01*
X161221736Y-74021375D01*
X160961394Y-74160531D01*
X160733203Y-74347803D01*
X160545931Y-74575995D01*
X160528000Y-74609541D01*
X160510069Y-74575994D01*
X160322797Y-74347803D01*
X160094605Y-74160531D01*
X159834263Y-74021375D01*
X159551776Y-73935684D01*
X159258000Y-73906749D01*
X158964223Y-73935684D01*
X158681736Y-74021375D01*
X158421394Y-74160531D01*
X158193203Y-74347803D01*
X158005931Y-74575995D01*
X157988000Y-74609541D01*
X157970069Y-74575994D01*
X157782797Y-74347803D01*
X157554605Y-74160531D01*
X157294263Y-74021375D01*
X157011776Y-73935684D01*
X156718000Y-73906749D01*
X156424223Y-73935684D01*
X156141736Y-74021375D01*
X155881394Y-74160531D01*
X155653203Y-74347803D01*
X155465931Y-74575995D01*
X155326775Y-74836337D01*
X155241084Y-75118824D01*
X155219400Y-75338982D01*
X154152600Y-75338982D01*
X154152600Y-75338981D01*
X154130916Y-75118823D01*
X154045225Y-74836336D01*
X153906069Y-74575994D01*
X153718797Y-74347803D01*
X153490605Y-74160531D01*
X153230263Y-74021375D01*
X152947776Y-73935684D01*
X152654000Y-73906749D01*
X152360223Y-73935684D01*
X152077736Y-74021375D01*
X151817394Y-74160531D01*
X151589203Y-74347803D01*
X151401931Y-74575995D01*
X151384000Y-74609541D01*
X151366069Y-74575994D01*
X151178797Y-74347803D01*
X150950605Y-74160531D01*
X150690263Y-74021375D01*
X150407776Y-73935684D01*
X150114000Y-73906749D01*
X149820223Y-73935684D01*
X149537736Y-74021375D01*
X149277394Y-74160531D01*
X149049203Y-74347803D01*
X148861931Y-74575995D01*
X148844000Y-74609541D01*
X148826069Y-74575994D01*
X148638797Y-74347803D01*
X148410605Y-74160531D01*
X148150263Y-74021375D01*
X147867776Y-73935684D01*
X147574000Y-73906749D01*
X147280223Y-73935684D01*
X146997736Y-74021375D01*
X146737394Y-74160531D01*
X146509203Y-74347803D01*
X146321931Y-74575995D01*
X146304000Y-74609541D01*
X146286069Y-74575994D01*
X146098797Y-74347803D01*
X145870605Y-74160531D01*
X145610263Y-74021375D01*
X145327776Y-73935684D01*
X145034000Y-73906749D01*
X144740223Y-73935684D01*
X144457736Y-74021375D01*
X144197394Y-74160531D01*
X143969203Y-74347803D01*
X143781931Y-74575995D01*
X143764000Y-74609541D01*
X143746069Y-74575994D01*
X143558797Y-74347803D01*
X143330605Y-74160531D01*
X143070263Y-74021375D01*
X142787776Y-73935684D01*
X142494000Y-73906749D01*
X142200223Y-73935684D01*
X141917736Y-74021375D01*
X141657394Y-74160531D01*
X141429203Y-74347803D01*
X141241931Y-74575995D01*
X141224000Y-74609541D01*
X141206069Y-74575994D01*
X141018797Y-74347803D01*
X140790605Y-74160531D01*
X140530263Y-74021375D01*
X140247776Y-73935684D01*
X139954000Y-73906749D01*
X139660223Y-73935684D01*
X139377736Y-74021375D01*
X139117394Y-74160531D01*
X138889203Y-74347803D01*
X138701931Y-74575995D01*
X138562775Y-74836337D01*
X138477084Y-75118824D01*
X138455400Y-75338982D01*
X136372600Y-75338982D01*
X136372600Y-75338981D01*
X136350916Y-75118823D01*
X136265225Y-74836336D01*
X136126069Y-74575994D01*
X135938797Y-74347803D01*
X135710605Y-74160531D01*
X135450263Y-74021375D01*
X135167776Y-73935684D01*
X134874000Y-73906749D01*
X134580223Y-73935684D01*
X134297736Y-74021375D01*
X134037394Y-74160531D01*
X133809203Y-74347803D01*
X133621931Y-74575995D01*
X133604000Y-74609541D01*
X133586069Y-74575994D01*
X133398797Y-74347803D01*
X133170605Y-74160531D01*
X132910263Y-74021375D01*
X132627776Y-73935684D01*
X132334000Y-73906749D01*
X132040223Y-73935684D01*
X131757736Y-74021375D01*
X131497394Y-74160531D01*
X131269203Y-74347803D01*
X131081931Y-74575995D01*
X131064000Y-74609541D01*
X131046069Y-74575994D01*
X130858797Y-74347803D01*
X130630605Y-74160531D01*
X130370263Y-74021375D01*
X130087776Y-73935684D01*
X129794000Y-73906749D01*
X129500223Y-73935684D01*
X129217736Y-74021375D01*
X128957394Y-74160531D01*
X128729203Y-74347803D01*
X128657001Y-74435781D01*
X128601464Y-74301702D01*
X128309594Y-73864887D01*
X128179707Y-73735000D01*
X175219909Y-73735000D01*
X176328001Y-74843093D01*
X176328000Y-85944125D01*
X176324565Y-85979000D01*
X176328000Y-86013875D01*
X176328000Y-86013876D01*
X176338273Y-86118183D01*
X176378872Y-86252019D01*
X176444800Y-86375362D01*
X176533525Y-86483474D01*
X176560617Y-86505708D01*
X178868001Y-88813093D01*
X178868001Y-88863294D01*
X178738113Y-88733406D01*
X178301298Y-88441536D01*
X177815935Y-88240492D01*
X177300677Y-88138000D01*
X176775323Y-88138000D01*
X176260065Y-88240492D01*
X175774702Y-88441536D01*
X175337887Y-88733406D01*
X174966406Y-89104887D01*
X174674536Y-89541702D01*
X174473492Y-90027065D01*
X174371000Y-90542323D01*
X174371000Y-91067677D01*
X174473492Y-91582935D01*
X174674536Y-92068298D01*
X174966406Y-92505113D01*
X175337887Y-92876594D01*
X175774702Y-93168464D01*
X176260065Y-93369508D01*
X176775323Y-93472000D01*
X177300677Y-93472000D01*
X177815935Y-93369508D01*
X178301298Y-93168464D01*
X178738113Y-92876594D01*
X178868001Y-92746706D01*
X178868000Y-106172000D01*
X176022000Y-106172000D01*
X175997224Y-106174440D01*
X175973399Y-106181667D01*
X175951443Y-106193403D01*
X175932197Y-106209197D01*
X175916403Y-106228443D01*
X175904667Y-106250399D01*
X175897440Y-106274224D01*
X175895000Y-106299000D01*
X175895000Y-110871000D01*
X175897440Y-110895776D01*
X175904667Y-110919601D01*
X175916403Y-110941557D01*
X175932197Y-110960803D01*
X175936000Y-110963924D01*
X175936000Y-110981238D01*
X175960125Y-110981238D01*
X175973399Y-110988333D01*
X175997224Y-110995560D01*
X176022000Y-110998000D01*
X178868000Y-110998000D01*
X178868000Y-116803293D01*
X178738113Y-116673406D01*
X178301298Y-116381536D01*
X177815935Y-116180492D01*
X177300677Y-116078000D01*
X176775323Y-116078000D01*
X176260065Y-116180492D01*
X175774702Y-116381536D01*
X175337887Y-116673406D01*
X174966406Y-117044887D01*
X174674536Y-117481702D01*
X174473492Y-117967065D01*
X174371000Y-118482323D01*
X174371000Y-119007677D01*
X174473492Y-119522935D01*
X174674536Y-120008298D01*
X174966406Y-120445113D01*
X175337887Y-120816594D01*
X175774702Y-121108464D01*
X176260065Y-121309508D01*
X176775323Y-121412000D01*
X177300677Y-121412000D01*
X177815935Y-121309508D01*
X178301298Y-121108464D01*
X178738113Y-120816594D01*
X178868000Y-120686707D01*
X178868000Y-120990908D01*
X176560617Y-123298292D01*
X176533526Y-123320525D01*
X176511293Y-123347616D01*
X176444801Y-123428637D01*
X176378872Y-123551981D01*
X176338274Y-123685816D01*
X176324565Y-123825000D01*
X176328001Y-123859885D01*
X176328000Y-125655000D01*
X126909707Y-125655000D01*
X127039594Y-125525113D01*
X127331464Y-125088298D01*
X127532508Y-124602935D01*
X127635000Y-124087677D01*
X127635000Y-123562323D01*
X127532508Y-123047065D01*
X127331464Y-122561702D01*
X127153758Y-122295745D01*
X129955736Y-122295745D01*
X129955736Y-122814255D01*
X130056893Y-123322803D01*
X130255318Y-123801844D01*
X130543387Y-124232970D01*
X130910030Y-124599613D01*
X131341156Y-124887682D01*
X131820197Y-125086107D01*
X132328745Y-125187264D01*
X132847255Y-125187264D01*
X133355803Y-125086107D01*
X133834844Y-124887682D01*
X134265970Y-124599613D01*
X134632613Y-124232970D01*
X134920682Y-123801844D01*
X135119107Y-123322803D01*
X135220264Y-122814255D01*
X135220264Y-122295745D01*
X135119107Y-121787197D01*
X134920682Y-121308156D01*
X134632613Y-120877030D01*
X134265970Y-120510387D01*
X133834844Y-120222318D01*
X133355803Y-120023893D01*
X132847255Y-119922736D01*
X132328745Y-119922736D01*
X131820197Y-120023893D01*
X131341156Y-120222318D01*
X130910030Y-120510387D01*
X130543387Y-120877030D01*
X130255318Y-121308156D01*
X130056893Y-121787197D01*
X129955736Y-122295745D01*
X127153758Y-122295745D01*
X127039594Y-122124887D01*
X126668113Y-121753406D01*
X126231298Y-121461536D01*
X125745935Y-121260492D01*
X125230677Y-121158000D01*
X124705323Y-121158000D01*
X124190065Y-121260492D01*
X123704702Y-121461536D01*
X123267887Y-121753406D01*
X122896406Y-122124887D01*
X122604536Y-122561702D01*
X122403492Y-123047065D01*
X122301000Y-123562323D01*
X122301000Y-124087677D01*
X122403492Y-124602935D01*
X122604536Y-125088298D01*
X122896406Y-125525113D01*
X123026293Y-125655000D01*
X111708000Y-125655000D01*
X111708000Y-94107000D01*
X116205000Y-94107000D01*
X116205000Y-98425000D01*
X116207440Y-98449776D01*
X116214667Y-98473601D01*
X116226403Y-98495557D01*
X116242197Y-98514803D01*
X116750197Y-99022803D01*
X116769443Y-99038597D01*
X116791399Y-99050333D01*
X116815224Y-99057560D01*
X116840000Y-99060000D01*
X123645394Y-99060000D01*
X124079000Y-99493606D01*
X124079000Y-109040394D01*
X123645394Y-109474000D01*
X116840000Y-109474000D01*
X116815224Y-109476440D01*
X116791399Y-109483667D01*
X116769443Y-109495403D01*
X116750197Y-109511197D01*
X116242197Y-110019197D01*
X116226403Y-110038443D01*
X116214667Y-110060399D01*
X116207440Y-110084224D01*
X116205000Y-110109000D01*
X116205000Y-114427000D01*
X116207440Y-114451776D01*
X116214667Y-114475601D01*
X116226403Y-114497557D01*
X116242197Y-114516803D01*
X116750197Y-115024803D01*
X116769443Y-115040597D01*
X116791399Y-115052333D01*
X116815224Y-115059560D01*
X116840000Y-115062000D01*
X136652000Y-115062000D01*
X136676776Y-115059560D01*
X136700601Y-115052333D01*
X136722557Y-115040597D01*
X136741803Y-115024803D01*
X137249803Y-114516803D01*
X137265597Y-114497557D01*
X137277333Y-114475601D01*
X137284560Y-114451776D01*
X137287000Y-114427000D01*
X137287000Y-108653072D01*
X137482250Y-108653072D01*
X137654285Y-108636128D01*
X137819709Y-108585947D01*
X137972164Y-108504458D01*
X138105792Y-108394792D01*
X138176000Y-108309244D01*
X138246208Y-108394792D01*
X138379836Y-108504458D01*
X138532291Y-108585947D01*
X138697715Y-108636128D01*
X138869750Y-108653072D01*
X139357250Y-108653072D01*
X139529285Y-108636128D01*
X139694709Y-108585947D01*
X139847164Y-108504458D01*
X139980792Y-108394792D01*
X140090458Y-108261164D01*
X140171947Y-108108709D01*
X140182173Y-108075000D01*
X140277091Y-108075000D01*
X140283082Y-108089463D01*
X140462013Y-108357252D01*
X140689748Y-108584987D01*
X140957537Y-108763918D01*
X141255088Y-108887168D01*
X141570967Y-108950000D01*
X141893033Y-108950000D01*
X142208912Y-108887168D01*
X142506463Y-108763918D01*
X142774252Y-108584987D01*
X143001987Y-108357252D01*
X143180918Y-108089463D01*
X143186909Y-108075000D01*
X143281827Y-108075000D01*
X143292053Y-108108709D01*
X143373542Y-108261164D01*
X143483208Y-108394792D01*
X143616836Y-108504458D01*
X143769291Y-108585947D01*
X143934715Y-108636128D01*
X144106750Y-108653072D01*
X144594250Y-108653072D01*
X144766285Y-108636128D01*
X144931709Y-108585947D01*
X145084164Y-108504458D01*
X145217792Y-108394792D01*
X145327458Y-108261164D01*
X145408947Y-108108709D01*
X145459128Y-107943285D01*
X145476072Y-107771250D01*
X145476072Y-106858750D01*
X145459128Y-106686715D01*
X145408947Y-106521291D01*
X145327458Y-106368836D01*
X145256334Y-106282172D01*
X145319709Y-106262947D01*
X145472164Y-106181458D01*
X145605792Y-106071792D01*
X145693845Y-105964500D01*
X145977274Y-105964500D01*
X146000815Y-105993185D01*
X146097506Y-106072537D01*
X146207820Y-106131502D01*
X146327518Y-106167812D01*
X146452000Y-106180072D01*
X147512000Y-106180072D01*
X147636482Y-106167812D01*
X147756180Y-106131502D01*
X147866494Y-106072537D01*
X147963185Y-105993185D01*
X148042537Y-105896494D01*
X148082000Y-105822665D01*
X148121463Y-105896494D01*
X148200815Y-105993185D01*
X148297506Y-106072537D01*
X148407820Y-106131502D01*
X148527518Y-106167812D01*
X148652000Y-106180072D01*
X149712000Y-106180072D01*
X149836482Y-106167812D01*
X149956180Y-106131502D01*
X150066494Y-106072537D01*
X150163185Y-105993185D01*
X150186726Y-105964500D01*
X150216155Y-105964500D01*
X150304208Y-106071792D01*
X150437836Y-106181458D01*
X150590291Y-106262947D01*
X150624000Y-106273173D01*
X150624001Y-117160197D01*
X148587003Y-119197196D01*
X148557999Y-119220999D01*
X148502871Y-119288174D01*
X148463026Y-119336724D01*
X148392455Y-119468753D01*
X148392454Y-119468754D01*
X148348997Y-119612015D01*
X148338000Y-119723668D01*
X148338000Y-119723678D01*
X148334324Y-119761000D01*
X148338000Y-119798323D01*
X148338001Y-122379584D01*
X148261394Y-122420531D01*
X148033203Y-122607803D01*
X147845931Y-122835995D01*
X147828000Y-122869541D01*
X147810069Y-122835994D01*
X147622797Y-122607803D01*
X147394605Y-122420531D01*
X147134263Y-122281375D01*
X146851776Y-122195684D01*
X146558000Y-122166749D01*
X146264223Y-122195684D01*
X145981736Y-122281375D01*
X145721394Y-122420531D01*
X145493203Y-122607803D01*
X145305931Y-122835995D01*
X145288000Y-122869541D01*
X145270069Y-122835994D01*
X145082797Y-122607803D01*
X144854605Y-122420531D01*
X144594263Y-122281375D01*
X144311776Y-122195684D01*
X144018000Y-122166749D01*
X143724223Y-122195684D01*
X143441736Y-122281375D01*
X143181394Y-122420531D01*
X142953203Y-122607803D01*
X142765931Y-122835995D01*
X142748000Y-122869541D01*
X142730069Y-122835994D01*
X142542797Y-122607803D01*
X142314605Y-122420531D01*
X142054263Y-122281375D01*
X141771776Y-122195684D01*
X141478000Y-122166749D01*
X141184223Y-122195684D01*
X140901736Y-122281375D01*
X140641394Y-122420531D01*
X140413203Y-122607803D01*
X140225931Y-122835995D01*
X140208000Y-122869541D01*
X140190069Y-122835994D01*
X140002797Y-122607803D01*
X139774605Y-122420531D01*
X139514263Y-122281375D01*
X139231776Y-122195684D01*
X138938000Y-122166749D01*
X138644223Y-122195684D01*
X138361736Y-122281375D01*
X138101394Y-122420531D01*
X137873203Y-122607803D01*
X137685931Y-122835995D01*
X137546775Y-123096337D01*
X137461084Y-123378824D01*
X137439400Y-123598982D01*
X137439400Y-124051019D01*
X137461084Y-124271177D01*
X137546775Y-124553664D01*
X137685931Y-124814006D01*
X137873203Y-125042197D01*
X138101395Y-125229469D01*
X138361737Y-125368625D01*
X138644224Y-125454316D01*
X138938000Y-125483251D01*
X139231777Y-125454316D01*
X139514264Y-125368625D01*
X139774606Y-125229469D01*
X140002797Y-125042197D01*
X140190069Y-124814006D01*
X140208000Y-124780459D01*
X140225931Y-124814006D01*
X140413203Y-125042197D01*
X140641395Y-125229469D01*
X140901737Y-125368625D01*
X141184224Y-125454316D01*
X141478000Y-125483251D01*
X141771777Y-125454316D01*
X142054264Y-125368625D01*
X142314606Y-125229469D01*
X142542797Y-125042197D01*
X142730069Y-124814006D01*
X142748000Y-124780459D01*
X142765931Y-124814006D01*
X142953203Y-125042197D01*
X143181395Y-125229469D01*
X143441737Y-125368625D01*
X143724224Y-125454316D01*
X144018000Y-125483251D01*
X144311777Y-125454316D01*
X144594264Y-125368625D01*
X144854606Y-125229469D01*
X145082797Y-125042197D01*
X145270069Y-124814006D01*
X145288000Y-124780459D01*
X145305931Y-124814006D01*
X145493203Y-125042197D01*
X145721395Y-125229469D01*
X145981737Y-125368625D01*
X146264224Y-125454316D01*
X146558000Y-125483251D01*
X146851777Y-125454316D01*
X147134264Y-125368625D01*
X147394606Y-125229469D01*
X147622797Y-125042197D01*
X147810069Y-124814006D01*
X147828000Y-124780459D01*
X147845931Y-124814006D01*
X148033203Y-125042197D01*
X148261395Y-125229469D01*
X148521737Y-125368625D01*
X148804224Y-125454316D01*
X149098000Y-125483251D01*
X149391777Y-125454316D01*
X149674264Y-125368625D01*
X149934606Y-125229469D01*
X150162797Y-125042197D01*
X150350069Y-124814006D01*
X150489225Y-124553663D01*
X150574916Y-124271176D01*
X150596600Y-124051018D01*
X150596600Y-123598982D01*
X155219400Y-123598982D01*
X155219400Y-124051019D01*
X155241084Y-124271177D01*
X155326775Y-124553664D01*
X155465931Y-124814006D01*
X155653203Y-125042197D01*
X155881395Y-125229469D01*
X156141737Y-125368625D01*
X156424224Y-125454316D01*
X156718000Y-125483251D01*
X157011777Y-125454316D01*
X157294264Y-125368625D01*
X157554606Y-125229469D01*
X157782797Y-125042197D01*
X157970069Y-124814006D01*
X158109225Y-124553663D01*
X158194916Y-124271176D01*
X158216600Y-124051018D01*
X158216600Y-123598981D01*
X158194916Y-123378823D01*
X158109225Y-123096336D01*
X157970069Y-122835994D01*
X157782797Y-122607803D01*
X157554605Y-122420531D01*
X157294263Y-122281375D01*
X157011776Y-122195684D01*
X156718000Y-122166749D01*
X156424223Y-122195684D01*
X156141736Y-122281375D01*
X155881394Y-122420531D01*
X155653203Y-122607803D01*
X155465931Y-122835995D01*
X155326775Y-123096337D01*
X155241084Y-123378824D01*
X155219400Y-123598982D01*
X150596600Y-123598982D01*
X150596600Y-123598981D01*
X150574916Y-123378823D01*
X150489225Y-123096336D01*
X150350069Y-122835994D01*
X150162797Y-122607803D01*
X149934605Y-122420531D01*
X149858000Y-122379585D01*
X149858000Y-120075801D01*
X151895003Y-118038799D01*
X151924001Y-118015001D01*
X152018974Y-117899276D01*
X152089546Y-117767247D01*
X152133003Y-117623986D01*
X152144000Y-117512333D01*
X152144000Y-117512324D01*
X152147676Y-117475001D01*
X152144000Y-117437678D01*
X152144000Y-106273173D01*
X152177709Y-106262947D01*
X152330164Y-106181458D01*
X152463792Y-106071792D01*
X152573458Y-105938164D01*
X152654947Y-105785709D01*
X152705128Y-105620285D01*
X152722072Y-105448250D01*
X152722072Y-105027000D01*
X152723091Y-105027000D01*
X152729082Y-105041463D01*
X152908013Y-105309252D01*
X153135748Y-105536987D01*
X153403537Y-105715918D01*
X153701088Y-105839168D01*
X154016967Y-105902000D01*
X154339033Y-105902000D01*
X154654912Y-105839168D01*
X154952463Y-105715918D01*
X155220252Y-105536987D01*
X155447987Y-105309252D01*
X155626918Y-105041463D01*
X155633928Y-105024539D01*
X155633928Y-105448250D01*
X155650872Y-105620285D01*
X155701053Y-105785709D01*
X155782542Y-105938164D01*
X155892208Y-106071792D01*
X156025836Y-106181458D01*
X156178291Y-106262947D01*
X156343715Y-106313128D01*
X156515750Y-106330072D01*
X157428250Y-106330072D01*
X157600285Y-106313128D01*
X157765709Y-106262947D01*
X157918164Y-106181458D01*
X158051792Y-106071792D01*
X158161458Y-105938164D01*
X158242947Y-105785709D01*
X158291870Y-105624431D01*
X159461230Y-104455072D01*
X159968250Y-104455072D01*
X160140285Y-104438128D01*
X160305709Y-104387947D01*
X160458164Y-104306458D01*
X160591792Y-104196792D01*
X160672494Y-104098457D01*
X160671000Y-104105967D01*
X160671000Y-104428033D01*
X160733832Y-104743912D01*
X160857082Y-105041463D01*
X161036013Y-105309252D01*
X161263748Y-105536987D01*
X161531537Y-105715918D01*
X161546000Y-105721909D01*
X161546001Y-120462197D01*
X161287002Y-120721197D01*
X161257999Y-120744999D01*
X161202871Y-120812174D01*
X161163026Y-120860724D01*
X161128142Y-120925987D01*
X161092454Y-120992754D01*
X161048997Y-121136015D01*
X161038000Y-121247668D01*
X161038000Y-121247678D01*
X161034324Y-121285000D01*
X161038000Y-121322323D01*
X161038000Y-122379584D01*
X160961394Y-122420531D01*
X160733203Y-122607803D01*
X160545931Y-122835995D01*
X160406775Y-123096337D01*
X160321084Y-123378824D01*
X160299400Y-123598982D01*
X160299400Y-124051019D01*
X160321084Y-124271177D01*
X160406775Y-124553664D01*
X160545931Y-124814006D01*
X160733203Y-125042197D01*
X160961395Y-125229469D01*
X161221737Y-125368625D01*
X161504224Y-125454316D01*
X161798000Y-125483251D01*
X162091777Y-125454316D01*
X162374264Y-125368625D01*
X162634606Y-125229469D01*
X162862797Y-125042197D01*
X163050069Y-124814006D01*
X163068000Y-124780459D01*
X163085931Y-124814006D01*
X163273203Y-125042197D01*
X163501395Y-125229469D01*
X163761737Y-125368625D01*
X164044224Y-125454316D01*
X164338000Y-125483251D01*
X164631777Y-125454316D01*
X164914264Y-125368625D01*
X165174606Y-125229469D01*
X165402797Y-125042197D01*
X165590069Y-124814006D01*
X165608000Y-124780459D01*
X165625931Y-124814006D01*
X165813203Y-125042197D01*
X166041395Y-125229469D01*
X166301737Y-125368625D01*
X166584224Y-125454316D01*
X166878000Y-125483251D01*
X167171777Y-125454316D01*
X167454264Y-125368625D01*
X167714606Y-125229469D01*
X167942797Y-125042197D01*
X168130069Y-124814006D01*
X168148000Y-124780459D01*
X168165931Y-124814006D01*
X168353203Y-125042197D01*
X168581395Y-125229469D01*
X168841737Y-125368625D01*
X169124224Y-125454316D01*
X169418000Y-125483251D01*
X169711777Y-125454316D01*
X169994264Y-125368625D01*
X170254606Y-125229469D01*
X170482797Y-125042197D01*
X170670069Y-124814006D01*
X170688000Y-124780459D01*
X170705931Y-124814006D01*
X170893203Y-125042197D01*
X171121395Y-125229469D01*
X171381737Y-125368625D01*
X171664224Y-125454316D01*
X171958000Y-125483251D01*
X172251777Y-125454316D01*
X172534264Y-125368625D01*
X172794606Y-125229469D01*
X173022797Y-125042197D01*
X173210069Y-124814006D01*
X173228000Y-124780459D01*
X173245931Y-124814006D01*
X173433203Y-125042197D01*
X173661395Y-125229469D01*
X173921737Y-125368625D01*
X174204224Y-125454316D01*
X174498000Y-125483251D01*
X174791777Y-125454316D01*
X175074264Y-125368625D01*
X175334606Y-125229469D01*
X175562797Y-125042197D01*
X175750069Y-124814006D01*
X175889225Y-124553663D01*
X175974916Y-124271176D01*
X175996600Y-124051018D01*
X175996600Y-123598981D01*
X175974916Y-123378823D01*
X175889225Y-123096336D01*
X175750069Y-122835994D01*
X175562797Y-122607803D01*
X175334605Y-122420531D01*
X175074263Y-122281375D01*
X174791776Y-122195684D01*
X174498000Y-122166749D01*
X174204223Y-122195684D01*
X173921736Y-122281375D01*
X173661394Y-122420531D01*
X173433203Y-122607803D01*
X173245931Y-122835995D01*
X173228000Y-122869541D01*
X173210069Y-122835994D01*
X173022797Y-122607803D01*
X172794605Y-122420531D01*
X172534263Y-122281375D01*
X172251776Y-122195684D01*
X171958000Y-122166749D01*
X171664223Y-122195684D01*
X171381736Y-122281375D01*
X171121394Y-122420531D01*
X170893203Y-122607803D01*
X170705931Y-122835995D01*
X170688000Y-122869541D01*
X170670069Y-122835994D01*
X170482797Y-122607803D01*
X170254605Y-122420531D01*
X169994263Y-122281375D01*
X169711776Y-122195684D01*
X169418000Y-122166749D01*
X169124223Y-122195684D01*
X168841736Y-122281375D01*
X168581394Y-122420531D01*
X168353203Y-122607803D01*
X168165931Y-122835995D01*
X168148000Y-122869541D01*
X168130069Y-122835994D01*
X167942797Y-122607803D01*
X167714605Y-122420531D01*
X167454263Y-122281375D01*
X167171776Y-122195684D01*
X166878000Y-122166749D01*
X166584223Y-122195684D01*
X166301736Y-122281375D01*
X166041394Y-122420531D01*
X165813203Y-122607803D01*
X165625931Y-122835995D01*
X165608000Y-122869541D01*
X165590069Y-122835994D01*
X165402797Y-122607803D01*
X165174605Y-122420531D01*
X164914263Y-122281375D01*
X164631776Y-122195684D01*
X164338000Y-122166749D01*
X164044223Y-122195684D01*
X163761736Y-122281375D01*
X163501394Y-122420531D01*
X163273203Y-122607803D01*
X163085931Y-122835995D01*
X163068000Y-122869541D01*
X163050069Y-122835994D01*
X162862797Y-122607803D01*
X162634605Y-122420531D01*
X162558000Y-122379585D01*
X162558000Y-121599801D01*
X162817002Y-121340800D01*
X162846001Y-121317001D01*
X162940974Y-121201276D01*
X163011546Y-121069247D01*
X163055003Y-120925986D01*
X163066000Y-120814333D01*
X163066000Y-120814324D01*
X163069676Y-120777001D01*
X163066000Y-120739678D01*
X163066000Y-105721909D01*
X163080463Y-105715918D01*
X163348252Y-105536987D01*
X163575987Y-105309252D01*
X163754918Y-105041463D01*
X163878168Y-104743912D01*
X163941000Y-104428033D01*
X163941000Y-104105967D01*
X163878168Y-103790088D01*
X163754918Y-103492537D01*
X163575987Y-103224748D01*
X163348252Y-102997013D01*
X163080463Y-102818082D01*
X162782912Y-102694832D01*
X162467033Y-102632000D01*
X162144967Y-102632000D01*
X161829088Y-102694832D01*
X161805204Y-102704725D01*
X161792776Y-102694526D01*
X161660747Y-102623954D01*
X161517486Y-102580497D01*
X161405833Y-102569500D01*
X161405822Y-102569500D01*
X161368500Y-102565824D01*
X161331178Y-102569500D01*
X160679845Y-102569500D01*
X160591792Y-102462208D01*
X160458164Y-102352542D01*
X160305709Y-102271053D01*
X160140285Y-102220872D01*
X159968250Y-102203928D01*
X159055750Y-102203928D01*
X158883715Y-102220872D01*
X158718291Y-102271053D01*
X158565836Y-102352542D01*
X158432208Y-102462208D01*
X158322542Y-102595836D01*
X158242000Y-102746519D01*
X158161458Y-102595836D01*
X158051792Y-102462208D01*
X157918164Y-102352542D01*
X157765709Y-102271053D01*
X157600285Y-102220872D01*
X157428250Y-102203928D01*
X156515750Y-102203928D01*
X156343715Y-102220872D01*
X156178291Y-102271053D01*
X156025836Y-102352542D01*
X155892208Y-102462208D01*
X155804155Y-102569500D01*
X155152822Y-102569500D01*
X155115499Y-102565824D01*
X155078176Y-102569500D01*
X155078167Y-102569500D01*
X154966514Y-102580497D01*
X154823253Y-102623954D01*
X154691224Y-102694526D01*
X154678796Y-102704725D01*
X154654912Y-102694832D01*
X154339033Y-102632000D01*
X154016967Y-102632000D01*
X153701088Y-102694832D01*
X153403537Y-102818082D01*
X153135748Y-102997013D01*
X152908013Y-103224748D01*
X152729082Y-103492537D01*
X152723091Y-103507000D01*
X150176468Y-103507000D01*
X150163185Y-103490815D01*
X150066494Y-103411463D01*
X149956180Y-103352498D01*
X149836482Y-103316188D01*
X149712000Y-103303928D01*
X148652000Y-103303928D01*
X148527518Y-103316188D01*
X148407820Y-103352498D01*
X148297506Y-103411463D01*
X148200815Y-103490815D01*
X148150072Y-103552646D01*
X148150072Y-102992000D01*
X148137812Y-102867518D01*
X148101502Y-102747820D01*
X148042537Y-102637506D01*
X147963185Y-102540815D01*
X147866494Y-102461463D01*
X147756180Y-102402498D01*
X147636482Y-102366188D01*
X147512000Y-102353928D01*
X146452000Y-102353928D01*
X146327518Y-102366188D01*
X146207820Y-102402498D01*
X146097506Y-102461463D01*
X146000815Y-102540815D01*
X145977274Y-102569500D01*
X145693845Y-102569500D01*
X145605792Y-102462208D01*
X145472164Y-102352542D01*
X145319709Y-102271053D01*
X145256334Y-102251828D01*
X145327458Y-102165164D01*
X145408947Y-102012709D01*
X145459128Y-101847285D01*
X145476072Y-101675250D01*
X145476072Y-100762750D01*
X145459128Y-100590715D01*
X145408947Y-100425291D01*
X145327458Y-100272836D01*
X145217792Y-100139208D01*
X145084164Y-100029542D01*
X144931709Y-99948053D01*
X144766285Y-99897872D01*
X144594250Y-99880928D01*
X144106750Y-99880928D01*
X143934715Y-99897872D01*
X143769291Y-99948053D01*
X143616836Y-100029542D01*
X143483208Y-100139208D01*
X143373542Y-100272836D01*
X143292053Y-100425291D01*
X143281827Y-100459000D01*
X143186909Y-100459000D01*
X143180918Y-100444537D01*
X143001987Y-100176748D01*
X142774252Y-99949013D01*
X142506463Y-99770082D01*
X142208912Y-99646832D01*
X141893033Y-99584000D01*
X141570967Y-99584000D01*
X141255088Y-99646832D01*
X140957537Y-99770082D01*
X140689748Y-99949013D01*
X140462013Y-100176748D01*
X140283082Y-100444537D01*
X140277091Y-100459000D01*
X140182173Y-100459000D01*
X140171947Y-100425291D01*
X140090458Y-100272836D01*
X139980792Y-100139208D01*
X139847164Y-100029542D01*
X139694709Y-99948053D01*
X139529285Y-99897872D01*
X139357250Y-99880928D01*
X138869750Y-99880928D01*
X138697715Y-99897872D01*
X138532291Y-99948053D01*
X138379836Y-100029542D01*
X138246208Y-100139208D01*
X138176000Y-100224756D01*
X138105792Y-100139208D01*
X137972164Y-100029542D01*
X137819709Y-99948053D01*
X137654285Y-99897872D01*
X137482250Y-99880928D01*
X137287000Y-99880928D01*
X137287000Y-94107000D01*
X137284560Y-94082224D01*
X137277333Y-94058399D01*
X137265597Y-94036443D01*
X137249803Y-94017197D01*
X136741803Y-93509197D01*
X136722557Y-93493403D01*
X136700601Y-93481667D01*
X136676776Y-93474440D01*
X136652000Y-93472000D01*
X116840000Y-93472000D01*
X116815224Y-93474440D01*
X116791399Y-93481667D01*
X116769443Y-93493403D01*
X116750197Y-93509197D01*
X116242197Y-94017197D01*
X116226403Y-94036443D01*
X116214667Y-94058399D01*
X116207440Y-94082224D01*
X116205000Y-94107000D01*
X111708000Y-94107000D01*
X111708000Y-82925745D01*
X170595736Y-82925745D01*
X170595736Y-83444255D01*
X170696893Y-83952803D01*
X170895318Y-84431844D01*
X171183387Y-84862970D01*
X171550030Y-85229613D01*
X171981156Y-85517682D01*
X172460197Y-85716107D01*
X172968745Y-85817264D01*
X173487255Y-85817264D01*
X173995803Y-85716107D01*
X174474844Y-85517682D01*
X174905970Y-85229613D01*
X175272613Y-84862970D01*
X175560682Y-84431844D01*
X175759107Y-83952803D01*
X175860264Y-83444255D01*
X175860264Y-82925745D01*
X175759107Y-82417197D01*
X175560682Y-81938156D01*
X175272613Y-81507030D01*
X174905970Y-81140387D01*
X174474844Y-80852318D01*
X173995803Y-80653893D01*
X173487255Y-80552736D01*
X172968745Y-80552736D01*
X172460197Y-80653893D01*
X171981156Y-80852318D01*
X171550030Y-81140387D01*
X171183387Y-81507030D01*
X170895318Y-81938156D01*
X170696893Y-82417197D01*
X170595736Y-82925745D01*
X111708000Y-82925745D01*
X111708000Y-76575745D01*
X114715736Y-76575745D01*
X114715736Y-77094255D01*
X114816893Y-77602803D01*
X115015318Y-78081844D01*
X115303387Y-78512970D01*
X115670030Y-78879613D01*
X116101156Y-79167682D01*
X116580197Y-79366107D01*
X117088745Y-79467264D01*
X117607255Y-79467264D01*
X118115803Y-79366107D01*
X118594844Y-79167682D01*
X119025970Y-78879613D01*
X119392613Y-78512970D01*
X119680682Y-78081844D01*
X119879107Y-77602803D01*
X119980264Y-77094255D01*
X119980264Y-76575745D01*
X119879107Y-76067197D01*
X119680682Y-75588156D01*
X119392613Y-75157030D01*
X119025970Y-74790387D01*
X118594844Y-74502318D01*
X118115803Y-74303893D01*
X117607255Y-74202736D01*
X117088745Y-74202736D01*
X116580197Y-74303893D01*
X116101156Y-74502318D01*
X115670030Y-74790387D01*
X115303387Y-75157030D01*
X115015318Y-75588156D01*
X114816893Y-76067197D01*
X114715736Y-76575745D01*
X111708000Y-76575745D01*
X111708000Y-73735000D01*
X124296293Y-73735000D01*
X124166406Y-73864887D01*
G37*
X124166406Y-73864887D02*
X123874536Y-74301702D01*
X123673492Y-74787065D01*
X123571000Y-75302323D01*
X123571000Y-75827677D01*
X123673492Y-76342935D01*
X123874536Y-76828298D01*
X124166406Y-77265113D01*
X124537887Y-77636594D01*
X124974702Y-77928464D01*
X125460065Y-78129508D01*
X125975323Y-78232000D01*
X126500677Y-78232000D01*
X127015935Y-78129508D01*
X127501298Y-77928464D01*
X127938113Y-77636594D01*
X128309594Y-77265113D01*
X128601464Y-76828298D01*
X128657001Y-76694219D01*
X128729203Y-76782197D01*
X128957395Y-76969469D01*
X129217737Y-77108625D01*
X129500224Y-77194316D01*
X129794000Y-77223251D01*
X130087777Y-77194316D01*
X130370264Y-77108625D01*
X130630606Y-76969469D01*
X130858797Y-76782197D01*
X131046069Y-76554006D01*
X131064000Y-76520459D01*
X131081931Y-76554006D01*
X131269203Y-76782197D01*
X131497395Y-76969469D01*
X131757737Y-77108625D01*
X132040224Y-77194316D01*
X132334000Y-77223251D01*
X132627777Y-77194316D01*
X132910264Y-77108625D01*
X133170606Y-76969469D01*
X133398797Y-76782197D01*
X133586069Y-76554006D01*
X133604000Y-76520459D01*
X133621931Y-76554006D01*
X133809203Y-76782197D01*
X134037395Y-76969469D01*
X134297737Y-77108625D01*
X134580224Y-77194316D01*
X134874000Y-77223251D01*
X135167777Y-77194316D01*
X135450264Y-77108625D01*
X135710606Y-76969469D01*
X135938797Y-76782197D01*
X136126069Y-76554006D01*
X136265225Y-76293663D01*
X136350916Y-76011176D01*
X136372600Y-75791018D01*
X136372600Y-75338982D01*
X138455400Y-75338982D01*
X138455400Y-75791019D01*
X138477084Y-76011177D01*
X138562775Y-76293664D01*
X138701931Y-76554006D01*
X138889203Y-76782197D01*
X139117395Y-76969469D01*
X139377737Y-77108625D01*
X139660224Y-77194316D01*
X139954000Y-77223251D01*
X140247777Y-77194316D01*
X140530264Y-77108625D01*
X140790606Y-76969469D01*
X141018797Y-76782197D01*
X141206069Y-76554006D01*
X141224000Y-76520459D01*
X141241931Y-76554006D01*
X141429203Y-76782197D01*
X141657395Y-76969469D01*
X141917737Y-77108625D01*
X142200224Y-77194316D01*
X142494000Y-77223251D01*
X142787777Y-77194316D01*
X143070264Y-77108625D01*
X143330606Y-76969469D01*
X143558797Y-76782197D01*
X143746069Y-76554006D01*
X143764000Y-76520459D01*
X143781931Y-76554006D01*
X143969203Y-76782197D01*
X144197395Y-76969469D01*
X144457737Y-77108625D01*
X144740224Y-77194316D01*
X145034000Y-77223251D01*
X145327777Y-77194316D01*
X145610264Y-77108625D01*
X145870606Y-76969469D01*
X146098797Y-76782197D01*
X146286069Y-76554006D01*
X146304000Y-76520459D01*
X146321931Y-76554006D01*
X146509203Y-76782197D01*
X146737395Y-76969469D01*
X146997737Y-77108625D01*
X147280224Y-77194316D01*
X147574000Y-77223251D01*
X147867777Y-77194316D01*
X148150264Y-77108625D01*
X148410606Y-76969469D01*
X148638797Y-76782197D01*
X148826069Y-76554006D01*
X148844000Y-76520459D01*
X148861931Y-76554006D01*
X149049203Y-76782197D01*
X149277395Y-76969469D01*
X149537737Y-77108625D01*
X149820224Y-77194316D01*
X150114000Y-77223251D01*
X150407777Y-77194316D01*
X150690264Y-77108625D01*
X150950606Y-76969469D01*
X151178797Y-76782197D01*
X151366069Y-76554006D01*
X151384000Y-76520459D01*
X151401931Y-76554006D01*
X151589203Y-76782197D01*
X151817395Y-76969469D01*
X152077737Y-77108625D01*
X152360224Y-77194316D01*
X152654000Y-77223251D01*
X152947777Y-77194316D01*
X153230264Y-77108625D01*
X153490606Y-76969469D01*
X153718797Y-76782197D01*
X153906069Y-76554006D01*
X154045225Y-76293663D01*
X154130916Y-76011176D01*
X154152600Y-75791018D01*
X154152600Y-75338982D01*
X155219400Y-75338982D01*
X155219400Y-75791019D01*
X155241084Y-76011177D01*
X155326775Y-76293664D01*
X155465931Y-76554006D01*
X155653203Y-76782197D01*
X155881395Y-76969469D01*
X156141737Y-77108625D01*
X156424224Y-77194316D01*
X156718000Y-77223251D01*
X157011777Y-77194316D01*
X157294264Y-77108625D01*
X157554606Y-76969469D01*
X157782797Y-76782197D01*
X157970069Y-76554006D01*
X157988000Y-76520459D01*
X158005931Y-76554006D01*
X158193203Y-76782197D01*
X158421395Y-76969469D01*
X158681737Y-77108625D01*
X158964224Y-77194316D01*
X159258000Y-77223251D01*
X159551777Y-77194316D01*
X159834264Y-77108625D01*
X160094606Y-76969469D01*
X160322797Y-76782197D01*
X160510069Y-76554006D01*
X160528000Y-76520459D01*
X160545931Y-76554006D01*
X160733203Y-76782197D01*
X160961395Y-76969469D01*
X161221737Y-77108625D01*
X161504224Y-77194316D01*
X161798000Y-77223251D01*
X162091777Y-77194316D01*
X162374264Y-77108625D01*
X162634606Y-76969469D01*
X162862797Y-76782197D01*
X163050069Y-76554006D01*
X163068000Y-76520459D01*
X163085931Y-76554006D01*
X163273203Y-76782197D01*
X163501395Y-76969469D01*
X163761737Y-77108625D01*
X164044224Y-77194316D01*
X164338000Y-77223251D01*
X164631777Y-77194316D01*
X164914264Y-77108625D01*
X165174606Y-76969469D01*
X165402797Y-76782197D01*
X165590069Y-76554006D01*
X165608000Y-76520459D01*
X165625931Y-76554006D01*
X165813203Y-76782197D01*
X166041395Y-76969469D01*
X166301737Y-77108625D01*
X166584224Y-77194316D01*
X166878000Y-77223251D01*
X167171777Y-77194316D01*
X167454264Y-77108625D01*
X167714606Y-76969469D01*
X167942797Y-76782197D01*
X168130069Y-76554006D01*
X168148000Y-76520459D01*
X168165931Y-76554006D01*
X168353203Y-76782197D01*
X168581395Y-76969469D01*
X168841737Y-77108625D01*
X169124224Y-77194316D01*
X169418000Y-77223251D01*
X169711777Y-77194316D01*
X169994264Y-77108625D01*
X170254606Y-76969469D01*
X170482797Y-76782197D01*
X170670069Y-76554006D01*
X170688000Y-76520459D01*
X170705931Y-76554006D01*
X170893203Y-76782197D01*
X171121395Y-76969469D01*
X171381737Y-77108625D01*
X171664224Y-77194316D01*
X171958000Y-77223251D01*
X172251777Y-77194316D01*
X172534264Y-77108625D01*
X172794606Y-76969469D01*
X173022797Y-76782197D01*
X173210069Y-76554006D01*
X173228000Y-76520459D01*
X173245931Y-76554006D01*
X173433203Y-76782197D01*
X173661395Y-76969469D01*
X173921737Y-77108625D01*
X174204224Y-77194316D01*
X174498000Y-77223251D01*
X174791777Y-77194316D01*
X175074264Y-77108625D01*
X175334606Y-76969469D01*
X175562797Y-76782197D01*
X175750069Y-76554006D01*
X175889225Y-76293663D01*
X175974916Y-76011176D01*
X175996600Y-75791018D01*
X175996600Y-75338981D01*
X175974916Y-75118823D01*
X175889225Y-74836336D01*
X175750069Y-74575994D01*
X175562797Y-74347803D01*
X175334605Y-74160531D01*
X175074263Y-74021375D01*
X174791776Y-73935684D01*
X174498000Y-73906749D01*
X174204223Y-73935684D01*
X173921736Y-74021375D01*
X173661394Y-74160531D01*
X173433203Y-74347803D01*
X173245931Y-74575995D01*
X173228000Y-74609541D01*
X173210069Y-74575994D01*
X173022797Y-74347803D01*
X172794605Y-74160531D01*
X172534263Y-74021375D01*
X172251776Y-73935684D01*
X171958000Y-73906749D01*
X171664223Y-73935684D01*
X171381736Y-74021375D01*
X171121394Y-74160531D01*
X170893203Y-74347803D01*
X170705931Y-74575995D01*
X170688000Y-74609541D01*
X170670069Y-74575994D01*
X170482797Y-74347803D01*
X170254605Y-74160531D01*
X169994263Y-74021375D01*
X169711776Y-73935684D01*
X169418000Y-73906749D01*
X169124223Y-73935684D01*
X168841736Y-74021375D01*
X168581394Y-74160531D01*
X168353203Y-74347803D01*
X168165931Y-74575995D01*
X168148000Y-74609541D01*
X168130069Y-74575994D01*
X167942797Y-74347803D01*
X167714605Y-74160531D01*
X167454263Y-74021375D01*
X167171776Y-73935684D01*
X166878000Y-73906749D01*
X166584223Y-73935684D01*
X166301736Y-74021375D01*
X166041394Y-74160531D01*
X165813203Y-74347803D01*
X165625931Y-74575995D01*
X165608000Y-74609541D01*
X165590069Y-74575994D01*
X165402797Y-74347803D01*
X165174605Y-74160531D01*
X164914263Y-74021375D01*
X164631776Y-73935684D01*
X164338000Y-73906749D01*
X164044223Y-73935684D01*
X163761736Y-74021375D01*
X163501394Y-74160531D01*
X163273203Y-74347803D01*
X163085931Y-74575995D01*
X163068000Y-74609541D01*
X163050069Y-74575994D01*
X162862797Y-74347803D01*
X162634605Y-74160531D01*
X162374263Y-74021375D01*
X162091776Y-73935684D01*
X161798000Y-73906749D01*
X161504223Y-73935684D01*
X161221736Y-74021375D01*
X160961394Y-74160531D01*
X160733203Y-74347803D01*
X160545931Y-74575995D01*
X160528000Y-74609541D01*
X160510069Y-74575994D01*
X160322797Y-74347803D01*
X160094605Y-74160531D01*
X159834263Y-74021375D01*
X159551776Y-73935684D01*
X159258000Y-73906749D01*
X158964223Y-73935684D01*
X158681736Y-74021375D01*
X158421394Y-74160531D01*
X158193203Y-74347803D01*
X158005931Y-74575995D01*
X157988000Y-74609541D01*
X157970069Y-74575994D01*
X157782797Y-74347803D01*
X157554605Y-74160531D01*
X157294263Y-74021375D01*
X157011776Y-73935684D01*
X156718000Y-73906749D01*
X156424223Y-73935684D01*
X156141736Y-74021375D01*
X155881394Y-74160531D01*
X155653203Y-74347803D01*
X155465931Y-74575995D01*
X155326775Y-74836337D01*
X155241084Y-75118824D01*
X155219400Y-75338982D01*
X154152600Y-75338982D01*
X154152600Y-75338981D01*
X154130916Y-75118823D01*
X154045225Y-74836336D01*
X153906069Y-74575994D01*
X153718797Y-74347803D01*
X153490605Y-74160531D01*
X153230263Y-74021375D01*
X152947776Y-73935684D01*
X152654000Y-73906749D01*
X152360223Y-73935684D01*
X152077736Y-74021375D01*
X151817394Y-74160531D01*
X151589203Y-74347803D01*
X151401931Y-74575995D01*
X151384000Y-74609541D01*
X151366069Y-74575994D01*
X151178797Y-74347803D01*
X150950605Y-74160531D01*
X150690263Y-74021375D01*
X150407776Y-73935684D01*
X150114000Y-73906749D01*
X149820223Y-73935684D01*
X149537736Y-74021375D01*
X149277394Y-74160531D01*
X149049203Y-74347803D01*
X148861931Y-74575995D01*
X148844000Y-74609541D01*
X148826069Y-74575994D01*
X148638797Y-74347803D01*
X148410605Y-74160531D01*
X148150263Y-74021375D01*
X147867776Y-73935684D01*
X147574000Y-73906749D01*
X147280223Y-73935684D01*
X146997736Y-74021375D01*
X146737394Y-74160531D01*
X146509203Y-74347803D01*
X146321931Y-74575995D01*
X146304000Y-74609541D01*
X146286069Y-74575994D01*
X146098797Y-74347803D01*
X145870605Y-74160531D01*
X145610263Y-74021375D01*
X145327776Y-73935684D01*
X145034000Y-73906749D01*
X144740223Y-73935684D01*
X144457736Y-74021375D01*
X144197394Y-74160531D01*
X143969203Y-74347803D01*
X143781931Y-74575995D01*
X143764000Y-74609541D01*
X143746069Y-74575994D01*
X143558797Y-74347803D01*
X143330605Y-74160531D01*
X143070263Y-74021375D01*
X142787776Y-73935684D01*
X142494000Y-73906749D01*
X142200223Y-73935684D01*
X141917736Y-74021375D01*
X141657394Y-74160531D01*
X141429203Y-74347803D01*
X141241931Y-74575995D01*
X141224000Y-74609541D01*
X141206069Y-74575994D01*
X141018797Y-74347803D01*
X140790605Y-74160531D01*
X140530263Y-74021375D01*
X140247776Y-73935684D01*
X139954000Y-73906749D01*
X139660223Y-73935684D01*
X139377736Y-74021375D01*
X139117394Y-74160531D01*
X138889203Y-74347803D01*
X138701931Y-74575995D01*
X138562775Y-74836337D01*
X138477084Y-75118824D01*
X138455400Y-75338982D01*
X136372600Y-75338982D01*
X136372600Y-75338981D01*
X136350916Y-75118823D01*
X136265225Y-74836336D01*
X136126069Y-74575994D01*
X135938797Y-74347803D01*
X135710605Y-74160531D01*
X135450263Y-74021375D01*
X135167776Y-73935684D01*
X134874000Y-73906749D01*
X134580223Y-73935684D01*
X134297736Y-74021375D01*
X134037394Y-74160531D01*
X133809203Y-74347803D01*
X133621931Y-74575995D01*
X133604000Y-74609541D01*
X133586069Y-74575994D01*
X133398797Y-74347803D01*
X133170605Y-74160531D01*
X132910263Y-74021375D01*
X132627776Y-73935684D01*
X132334000Y-73906749D01*
X132040223Y-73935684D01*
X131757736Y-74021375D01*
X131497394Y-74160531D01*
X131269203Y-74347803D01*
X131081931Y-74575995D01*
X131064000Y-74609541D01*
X131046069Y-74575994D01*
X130858797Y-74347803D01*
X130630605Y-74160531D01*
X130370263Y-74021375D01*
X130087776Y-73935684D01*
X129794000Y-73906749D01*
X129500223Y-73935684D01*
X129217736Y-74021375D01*
X128957394Y-74160531D01*
X128729203Y-74347803D01*
X128657001Y-74435781D01*
X128601464Y-74301702D01*
X128309594Y-73864887D01*
X128179707Y-73735000D01*
X175219909Y-73735000D01*
X176328001Y-74843093D01*
X176328000Y-85944125D01*
X176324565Y-85979000D01*
X176328000Y-86013875D01*
X176328000Y-86013876D01*
X176338273Y-86118183D01*
X176378872Y-86252019D01*
X176444800Y-86375362D01*
X176533525Y-86483474D01*
X176560617Y-86505708D01*
X178868001Y-88813093D01*
X178868001Y-88863294D01*
X178738113Y-88733406D01*
X178301298Y-88441536D01*
X177815935Y-88240492D01*
X177300677Y-88138000D01*
X176775323Y-88138000D01*
X176260065Y-88240492D01*
X175774702Y-88441536D01*
X175337887Y-88733406D01*
X174966406Y-89104887D01*
X174674536Y-89541702D01*
X174473492Y-90027065D01*
X174371000Y-90542323D01*
X174371000Y-91067677D01*
X174473492Y-91582935D01*
X174674536Y-92068298D01*
X174966406Y-92505113D01*
X175337887Y-92876594D01*
X175774702Y-93168464D01*
X176260065Y-93369508D01*
X176775323Y-93472000D01*
X177300677Y-93472000D01*
X177815935Y-93369508D01*
X178301298Y-93168464D01*
X178738113Y-92876594D01*
X178868001Y-92746706D01*
X178868000Y-106172000D01*
X176022000Y-106172000D01*
X175997224Y-106174440D01*
X175973399Y-106181667D01*
X175951443Y-106193403D01*
X175932197Y-106209197D01*
X175916403Y-106228443D01*
X175904667Y-106250399D01*
X175897440Y-106274224D01*
X175895000Y-106299000D01*
X175895000Y-110871000D01*
X175897440Y-110895776D01*
X175904667Y-110919601D01*
X175916403Y-110941557D01*
X175932197Y-110960803D01*
X175936000Y-110963924D01*
X175936000Y-110981238D01*
X175960125Y-110981238D01*
X175973399Y-110988333D01*
X175997224Y-110995560D01*
X176022000Y-110998000D01*
X178868000Y-110998000D01*
X178868000Y-116803293D01*
X178738113Y-116673406D01*
X178301298Y-116381536D01*
X177815935Y-116180492D01*
X177300677Y-116078000D01*
X176775323Y-116078000D01*
X176260065Y-116180492D01*
X175774702Y-116381536D01*
X175337887Y-116673406D01*
X174966406Y-117044887D01*
X174674536Y-117481702D01*
X174473492Y-117967065D01*
X174371000Y-118482323D01*
X174371000Y-119007677D01*
X174473492Y-119522935D01*
X174674536Y-120008298D01*
X174966406Y-120445113D01*
X175337887Y-120816594D01*
X175774702Y-121108464D01*
X176260065Y-121309508D01*
X176775323Y-121412000D01*
X177300677Y-121412000D01*
X177815935Y-121309508D01*
X178301298Y-121108464D01*
X178738113Y-120816594D01*
X178868000Y-120686707D01*
X178868000Y-120990908D01*
X176560617Y-123298292D01*
X176533526Y-123320525D01*
X176511293Y-123347616D01*
X176444801Y-123428637D01*
X176378872Y-123551981D01*
X176338274Y-123685816D01*
X176324565Y-123825000D01*
X176328001Y-123859885D01*
X176328000Y-125655000D01*
X126909707Y-125655000D01*
X127039594Y-125525113D01*
X127331464Y-125088298D01*
X127532508Y-124602935D01*
X127635000Y-124087677D01*
X127635000Y-123562323D01*
X127532508Y-123047065D01*
X127331464Y-122561702D01*
X127153758Y-122295745D01*
X129955736Y-122295745D01*
X129955736Y-122814255D01*
X130056893Y-123322803D01*
X130255318Y-123801844D01*
X130543387Y-124232970D01*
X130910030Y-124599613D01*
X131341156Y-124887682D01*
X131820197Y-125086107D01*
X132328745Y-125187264D01*
X132847255Y-125187264D01*
X133355803Y-125086107D01*
X133834844Y-124887682D01*
X134265970Y-124599613D01*
X134632613Y-124232970D01*
X134920682Y-123801844D01*
X135119107Y-123322803D01*
X135220264Y-122814255D01*
X135220264Y-122295745D01*
X135119107Y-121787197D01*
X134920682Y-121308156D01*
X134632613Y-120877030D01*
X134265970Y-120510387D01*
X133834844Y-120222318D01*
X133355803Y-120023893D01*
X132847255Y-119922736D01*
X132328745Y-119922736D01*
X131820197Y-120023893D01*
X131341156Y-120222318D01*
X130910030Y-120510387D01*
X130543387Y-120877030D01*
X130255318Y-121308156D01*
X130056893Y-121787197D01*
X129955736Y-122295745D01*
X127153758Y-122295745D01*
X127039594Y-122124887D01*
X126668113Y-121753406D01*
X126231298Y-121461536D01*
X125745935Y-121260492D01*
X125230677Y-121158000D01*
X124705323Y-121158000D01*
X124190065Y-121260492D01*
X123704702Y-121461536D01*
X123267887Y-121753406D01*
X122896406Y-122124887D01*
X122604536Y-122561702D01*
X122403492Y-123047065D01*
X122301000Y-123562323D01*
X122301000Y-124087677D01*
X122403492Y-124602935D01*
X122604536Y-125088298D01*
X122896406Y-125525113D01*
X123026293Y-125655000D01*
X111708000Y-125655000D01*
X111708000Y-94107000D01*
X116205000Y-94107000D01*
X116205000Y-98425000D01*
X116207440Y-98449776D01*
X116214667Y-98473601D01*
X116226403Y-98495557D01*
X116242197Y-98514803D01*
X116750197Y-99022803D01*
X116769443Y-99038597D01*
X116791399Y-99050333D01*
X116815224Y-99057560D01*
X116840000Y-99060000D01*
X123645394Y-99060000D01*
X124079000Y-99493606D01*
X124079000Y-109040394D01*
X123645394Y-109474000D01*
X116840000Y-109474000D01*
X116815224Y-109476440D01*
X116791399Y-109483667D01*
X116769443Y-109495403D01*
X116750197Y-109511197D01*
X116242197Y-110019197D01*
X116226403Y-110038443D01*
X116214667Y-110060399D01*
X116207440Y-110084224D01*
X116205000Y-110109000D01*
X116205000Y-114427000D01*
X116207440Y-114451776D01*
X116214667Y-114475601D01*
X116226403Y-114497557D01*
X116242197Y-114516803D01*
X116750197Y-115024803D01*
X116769443Y-115040597D01*
X116791399Y-115052333D01*
X116815224Y-115059560D01*
X116840000Y-115062000D01*
X136652000Y-115062000D01*
X136676776Y-115059560D01*
X136700601Y-115052333D01*
X136722557Y-115040597D01*
X136741803Y-115024803D01*
X137249803Y-114516803D01*
X137265597Y-114497557D01*
X137277333Y-114475601D01*
X137284560Y-114451776D01*
X137287000Y-114427000D01*
X137287000Y-108653072D01*
X137482250Y-108653072D01*
X137654285Y-108636128D01*
X137819709Y-108585947D01*
X137972164Y-108504458D01*
X138105792Y-108394792D01*
X138176000Y-108309244D01*
X138246208Y-108394792D01*
X138379836Y-108504458D01*
X138532291Y-108585947D01*
X138697715Y-108636128D01*
X138869750Y-108653072D01*
X139357250Y-108653072D01*
X139529285Y-108636128D01*
X139694709Y-108585947D01*
X139847164Y-108504458D01*
X139980792Y-108394792D01*
X140090458Y-108261164D01*
X140171947Y-108108709D01*
X140182173Y-108075000D01*
X140277091Y-108075000D01*
X140283082Y-108089463D01*
X140462013Y-108357252D01*
X140689748Y-108584987D01*
X140957537Y-108763918D01*
X141255088Y-108887168D01*
X141570967Y-108950000D01*
X141893033Y-108950000D01*
X142208912Y-108887168D01*
X142506463Y-108763918D01*
X142774252Y-108584987D01*
X143001987Y-108357252D01*
X143180918Y-108089463D01*
X143186909Y-108075000D01*
X143281827Y-108075000D01*
X143292053Y-108108709D01*
X143373542Y-108261164D01*
X143483208Y-108394792D01*
X143616836Y-108504458D01*
X143769291Y-108585947D01*
X143934715Y-108636128D01*
X144106750Y-108653072D01*
X144594250Y-108653072D01*
X144766285Y-108636128D01*
X144931709Y-108585947D01*
X145084164Y-108504458D01*
X145217792Y-108394792D01*
X145327458Y-108261164D01*
X145408947Y-108108709D01*
X145459128Y-107943285D01*
X145476072Y-107771250D01*
X145476072Y-106858750D01*
X145459128Y-106686715D01*
X145408947Y-106521291D01*
X145327458Y-106368836D01*
X145256334Y-106282172D01*
X145319709Y-106262947D01*
X145472164Y-106181458D01*
X145605792Y-106071792D01*
X145693845Y-105964500D01*
X145977274Y-105964500D01*
X146000815Y-105993185D01*
X146097506Y-106072537D01*
X146207820Y-106131502D01*
X146327518Y-106167812D01*
X146452000Y-106180072D01*
X147512000Y-106180072D01*
X147636482Y-106167812D01*
X147756180Y-106131502D01*
X147866494Y-106072537D01*
X147963185Y-105993185D01*
X148042537Y-105896494D01*
X148082000Y-105822665D01*
X148121463Y-105896494D01*
X148200815Y-105993185D01*
X148297506Y-106072537D01*
X148407820Y-106131502D01*
X148527518Y-106167812D01*
X148652000Y-106180072D01*
X149712000Y-106180072D01*
X149836482Y-106167812D01*
X149956180Y-106131502D01*
X150066494Y-106072537D01*
X150163185Y-105993185D01*
X150186726Y-105964500D01*
X150216155Y-105964500D01*
X150304208Y-106071792D01*
X150437836Y-106181458D01*
X150590291Y-106262947D01*
X150624000Y-106273173D01*
X150624001Y-117160197D01*
X148587003Y-119197196D01*
X148557999Y-119220999D01*
X148502871Y-119288174D01*
X148463026Y-119336724D01*
X148392455Y-119468753D01*
X148392454Y-119468754D01*
X148348997Y-119612015D01*
X148338000Y-119723668D01*
X148338000Y-119723678D01*
X148334324Y-119761000D01*
X148338000Y-119798323D01*
X148338001Y-122379584D01*
X148261394Y-122420531D01*
X148033203Y-122607803D01*
X147845931Y-122835995D01*
X147828000Y-122869541D01*
X147810069Y-122835994D01*
X147622797Y-122607803D01*
X147394605Y-122420531D01*
X147134263Y-122281375D01*
X146851776Y-122195684D01*
X146558000Y-122166749D01*
X146264223Y-122195684D01*
X145981736Y-122281375D01*
X145721394Y-122420531D01*
X145493203Y-122607803D01*
X145305931Y-122835995D01*
X145288000Y-122869541D01*
X145270069Y-122835994D01*
X145082797Y-122607803D01*
X144854605Y-122420531D01*
X144594263Y-122281375D01*
X144311776Y-122195684D01*
X144018000Y-122166749D01*
X143724223Y-122195684D01*
X143441736Y-122281375D01*
X143181394Y-122420531D01*
X142953203Y-122607803D01*
X142765931Y-122835995D01*
X142748000Y-122869541D01*
X142730069Y-122835994D01*
X142542797Y-122607803D01*
X142314605Y-122420531D01*
X142054263Y-122281375D01*
X141771776Y-122195684D01*
X141478000Y-122166749D01*
X141184223Y-122195684D01*
X140901736Y-122281375D01*
X140641394Y-122420531D01*
X140413203Y-122607803D01*
X140225931Y-122835995D01*
X140208000Y-122869541D01*
X140190069Y-122835994D01*
X140002797Y-122607803D01*
X139774605Y-122420531D01*
X139514263Y-122281375D01*
X139231776Y-122195684D01*
X138938000Y-122166749D01*
X138644223Y-122195684D01*
X138361736Y-122281375D01*
X138101394Y-122420531D01*
X137873203Y-122607803D01*
X137685931Y-122835995D01*
X137546775Y-123096337D01*
X137461084Y-123378824D01*
X137439400Y-123598982D01*
X137439400Y-124051019D01*
X137461084Y-124271177D01*
X137546775Y-124553664D01*
X137685931Y-124814006D01*
X137873203Y-125042197D01*
X138101395Y-125229469D01*
X138361737Y-125368625D01*
X138644224Y-125454316D01*
X138938000Y-125483251D01*
X139231777Y-125454316D01*
X139514264Y-125368625D01*
X139774606Y-125229469D01*
X140002797Y-125042197D01*
X140190069Y-124814006D01*
X140208000Y-124780459D01*
X140225931Y-124814006D01*
X140413203Y-125042197D01*
X140641395Y-125229469D01*
X140901737Y-125368625D01*
X141184224Y-125454316D01*
X141478000Y-125483251D01*
X141771777Y-125454316D01*
X142054264Y-125368625D01*
X142314606Y-125229469D01*
X142542797Y-125042197D01*
X142730069Y-124814006D01*
X142748000Y-124780459D01*
X142765931Y-124814006D01*
X142953203Y-125042197D01*
X143181395Y-125229469D01*
X143441737Y-125368625D01*
X143724224Y-125454316D01*
X144018000Y-125483251D01*
X144311777Y-125454316D01*
X144594264Y-125368625D01*
X144854606Y-125229469D01*
X145082797Y-125042197D01*
X145270069Y-124814006D01*
X145288000Y-124780459D01*
X145305931Y-124814006D01*
X145493203Y-125042197D01*
X145721395Y-125229469D01*
X145981737Y-125368625D01*
X146264224Y-125454316D01*
X146558000Y-125483251D01*
X146851777Y-125454316D01*
X147134264Y-125368625D01*
X147394606Y-125229469D01*
X147622797Y-125042197D01*
X147810069Y-124814006D01*
X147828000Y-124780459D01*
X147845931Y-124814006D01*
X148033203Y-125042197D01*
X148261395Y-125229469D01*
X148521737Y-125368625D01*
X148804224Y-125454316D01*
X149098000Y-125483251D01*
X149391777Y-125454316D01*
X149674264Y-125368625D01*
X149934606Y-125229469D01*
X150162797Y-125042197D01*
X150350069Y-124814006D01*
X150489225Y-124553663D01*
X150574916Y-124271176D01*
X150596600Y-124051018D01*
X150596600Y-123598982D01*
X155219400Y-123598982D01*
X155219400Y-124051019D01*
X155241084Y-124271177D01*
X155326775Y-124553664D01*
X155465931Y-124814006D01*
X155653203Y-125042197D01*
X155881395Y-125229469D01*
X156141737Y-125368625D01*
X156424224Y-125454316D01*
X156718000Y-125483251D01*
X157011777Y-125454316D01*
X157294264Y-125368625D01*
X157554606Y-125229469D01*
X157782797Y-125042197D01*
X157970069Y-124814006D01*
X158109225Y-124553663D01*
X158194916Y-124271176D01*
X158216600Y-124051018D01*
X158216600Y-123598981D01*
X158194916Y-123378823D01*
X158109225Y-123096336D01*
X157970069Y-122835994D01*
X157782797Y-122607803D01*
X157554605Y-122420531D01*
X157294263Y-122281375D01*
X157011776Y-122195684D01*
X156718000Y-122166749D01*
X156424223Y-122195684D01*
X156141736Y-122281375D01*
X155881394Y-122420531D01*
X155653203Y-122607803D01*
X155465931Y-122835995D01*
X155326775Y-123096337D01*
X155241084Y-123378824D01*
X155219400Y-123598982D01*
X150596600Y-123598982D01*
X150596600Y-123598981D01*
X150574916Y-123378823D01*
X150489225Y-123096336D01*
X150350069Y-122835994D01*
X150162797Y-122607803D01*
X149934605Y-122420531D01*
X149858000Y-122379585D01*
X149858000Y-120075801D01*
X151895003Y-118038799D01*
X151924001Y-118015001D01*
X152018974Y-117899276D01*
X152089546Y-117767247D01*
X152133003Y-117623986D01*
X152144000Y-117512333D01*
X152144000Y-117512324D01*
X152147676Y-117475001D01*
X152144000Y-117437678D01*
X152144000Y-106273173D01*
X152177709Y-106262947D01*
X152330164Y-106181458D01*
X152463792Y-106071792D01*
X152573458Y-105938164D01*
X152654947Y-105785709D01*
X152705128Y-105620285D01*
X152722072Y-105448250D01*
X152722072Y-105027000D01*
X152723091Y-105027000D01*
X152729082Y-105041463D01*
X152908013Y-105309252D01*
X153135748Y-105536987D01*
X153403537Y-105715918D01*
X153701088Y-105839168D01*
X154016967Y-105902000D01*
X154339033Y-105902000D01*
X154654912Y-105839168D01*
X154952463Y-105715918D01*
X155220252Y-105536987D01*
X155447987Y-105309252D01*
X155626918Y-105041463D01*
X155633928Y-105024539D01*
X155633928Y-105448250D01*
X155650872Y-105620285D01*
X155701053Y-105785709D01*
X155782542Y-105938164D01*
X155892208Y-106071792D01*
X156025836Y-106181458D01*
X156178291Y-106262947D01*
X156343715Y-106313128D01*
X156515750Y-106330072D01*
X157428250Y-106330072D01*
X157600285Y-106313128D01*
X157765709Y-106262947D01*
X157918164Y-106181458D01*
X158051792Y-106071792D01*
X158161458Y-105938164D01*
X158242947Y-105785709D01*
X158291870Y-105624431D01*
X159461230Y-104455072D01*
X159968250Y-104455072D01*
X160140285Y-104438128D01*
X160305709Y-104387947D01*
X160458164Y-104306458D01*
X160591792Y-104196792D01*
X160672494Y-104098457D01*
X160671000Y-104105967D01*
X160671000Y-104428033D01*
X160733832Y-104743912D01*
X160857082Y-105041463D01*
X161036013Y-105309252D01*
X161263748Y-105536987D01*
X161531537Y-105715918D01*
X161546000Y-105721909D01*
X161546001Y-120462197D01*
X161287002Y-120721197D01*
X161257999Y-120744999D01*
X161202871Y-120812174D01*
X161163026Y-120860724D01*
X161128142Y-120925987D01*
X161092454Y-120992754D01*
X161048997Y-121136015D01*
X161038000Y-121247668D01*
X161038000Y-121247678D01*
X161034324Y-121285000D01*
X161038000Y-121322323D01*
X161038000Y-122379584D01*
X160961394Y-122420531D01*
X160733203Y-122607803D01*
X160545931Y-122835995D01*
X160406775Y-123096337D01*
X160321084Y-123378824D01*
X160299400Y-123598982D01*
X160299400Y-124051019D01*
X160321084Y-124271177D01*
X160406775Y-124553664D01*
X160545931Y-124814006D01*
X160733203Y-125042197D01*
X160961395Y-125229469D01*
X161221737Y-125368625D01*
X161504224Y-125454316D01*
X161798000Y-125483251D01*
X162091777Y-125454316D01*
X162374264Y-125368625D01*
X162634606Y-125229469D01*
X162862797Y-125042197D01*
X163050069Y-124814006D01*
X163068000Y-124780459D01*
X163085931Y-124814006D01*
X163273203Y-125042197D01*
X163501395Y-125229469D01*
X163761737Y-125368625D01*
X164044224Y-125454316D01*
X164338000Y-125483251D01*
X164631777Y-125454316D01*
X164914264Y-125368625D01*
X165174606Y-125229469D01*
X165402797Y-125042197D01*
X165590069Y-124814006D01*
X165608000Y-124780459D01*
X165625931Y-124814006D01*
X165813203Y-125042197D01*
X166041395Y-125229469D01*
X166301737Y-125368625D01*
X166584224Y-125454316D01*
X166878000Y-125483251D01*
X167171777Y-125454316D01*
X167454264Y-125368625D01*
X167714606Y-125229469D01*
X167942797Y-125042197D01*
X168130069Y-124814006D01*
X168148000Y-124780459D01*
X168165931Y-124814006D01*
X168353203Y-125042197D01*
X168581395Y-125229469D01*
X168841737Y-125368625D01*
X169124224Y-125454316D01*
X169418000Y-125483251D01*
X169711777Y-125454316D01*
X169994264Y-125368625D01*
X170254606Y-125229469D01*
X170482797Y-125042197D01*
X170670069Y-124814006D01*
X170688000Y-124780459D01*
X170705931Y-124814006D01*
X170893203Y-125042197D01*
X171121395Y-125229469D01*
X171381737Y-125368625D01*
X171664224Y-125454316D01*
X171958000Y-125483251D01*
X172251777Y-125454316D01*
X172534264Y-125368625D01*
X172794606Y-125229469D01*
X173022797Y-125042197D01*
X173210069Y-124814006D01*
X173228000Y-124780459D01*
X173245931Y-124814006D01*
X173433203Y-125042197D01*
X173661395Y-125229469D01*
X173921737Y-125368625D01*
X174204224Y-125454316D01*
X174498000Y-125483251D01*
X174791777Y-125454316D01*
X175074264Y-125368625D01*
X175334606Y-125229469D01*
X175562797Y-125042197D01*
X175750069Y-124814006D01*
X175889225Y-124553663D01*
X175974916Y-124271176D01*
X175996600Y-124051018D01*
X175996600Y-123598981D01*
X175974916Y-123378823D01*
X175889225Y-123096336D01*
X175750069Y-122835994D01*
X175562797Y-122607803D01*
X175334605Y-122420531D01*
X175074263Y-122281375D01*
X174791776Y-122195684D01*
X174498000Y-122166749D01*
X174204223Y-122195684D01*
X173921736Y-122281375D01*
X173661394Y-122420531D01*
X173433203Y-122607803D01*
X173245931Y-122835995D01*
X173228000Y-122869541D01*
X173210069Y-122835994D01*
X173022797Y-122607803D01*
X172794605Y-122420531D01*
X172534263Y-122281375D01*
X172251776Y-122195684D01*
X171958000Y-122166749D01*
X171664223Y-122195684D01*
X171381736Y-122281375D01*
X171121394Y-122420531D01*
X170893203Y-122607803D01*
X170705931Y-122835995D01*
X170688000Y-122869541D01*
X170670069Y-122835994D01*
X170482797Y-122607803D01*
X170254605Y-122420531D01*
X169994263Y-122281375D01*
X169711776Y-122195684D01*
X169418000Y-122166749D01*
X169124223Y-122195684D01*
X168841736Y-122281375D01*
X168581394Y-122420531D01*
X168353203Y-122607803D01*
X168165931Y-122835995D01*
X168148000Y-122869541D01*
X168130069Y-122835994D01*
X167942797Y-122607803D01*
X167714605Y-122420531D01*
X167454263Y-122281375D01*
X167171776Y-122195684D01*
X166878000Y-122166749D01*
X166584223Y-122195684D01*
X166301736Y-122281375D01*
X166041394Y-122420531D01*
X165813203Y-122607803D01*
X165625931Y-122835995D01*
X165608000Y-122869541D01*
X165590069Y-122835994D01*
X165402797Y-122607803D01*
X165174605Y-122420531D01*
X164914263Y-122281375D01*
X164631776Y-122195684D01*
X164338000Y-122166749D01*
X164044223Y-122195684D01*
X163761736Y-122281375D01*
X163501394Y-122420531D01*
X163273203Y-122607803D01*
X163085931Y-122835995D01*
X163068000Y-122869541D01*
X163050069Y-122835994D01*
X162862797Y-122607803D01*
X162634605Y-122420531D01*
X162558000Y-122379585D01*
X162558000Y-121599801D01*
X162817002Y-121340800D01*
X162846001Y-121317001D01*
X162940974Y-121201276D01*
X163011546Y-121069247D01*
X163055003Y-120925986D01*
X163066000Y-120814333D01*
X163066000Y-120814324D01*
X163069676Y-120777001D01*
X163066000Y-120739678D01*
X163066000Y-105721909D01*
X163080463Y-105715918D01*
X163348252Y-105536987D01*
X163575987Y-105309252D01*
X163754918Y-105041463D01*
X163878168Y-104743912D01*
X163941000Y-104428033D01*
X163941000Y-104105967D01*
X163878168Y-103790088D01*
X163754918Y-103492537D01*
X163575987Y-103224748D01*
X163348252Y-102997013D01*
X163080463Y-102818082D01*
X162782912Y-102694832D01*
X162467033Y-102632000D01*
X162144967Y-102632000D01*
X161829088Y-102694832D01*
X161805204Y-102704725D01*
X161792776Y-102694526D01*
X161660747Y-102623954D01*
X161517486Y-102580497D01*
X161405833Y-102569500D01*
X161405822Y-102569500D01*
X161368500Y-102565824D01*
X161331178Y-102569500D01*
X160679845Y-102569500D01*
X160591792Y-102462208D01*
X160458164Y-102352542D01*
X160305709Y-102271053D01*
X160140285Y-102220872D01*
X159968250Y-102203928D01*
X159055750Y-102203928D01*
X158883715Y-102220872D01*
X158718291Y-102271053D01*
X158565836Y-102352542D01*
X158432208Y-102462208D01*
X158322542Y-102595836D01*
X158242000Y-102746519D01*
X158161458Y-102595836D01*
X158051792Y-102462208D01*
X157918164Y-102352542D01*
X157765709Y-102271053D01*
X157600285Y-102220872D01*
X157428250Y-102203928D01*
X156515750Y-102203928D01*
X156343715Y-102220872D01*
X156178291Y-102271053D01*
X156025836Y-102352542D01*
X155892208Y-102462208D01*
X155804155Y-102569500D01*
X155152822Y-102569500D01*
X155115499Y-102565824D01*
X155078176Y-102569500D01*
X155078167Y-102569500D01*
X154966514Y-102580497D01*
X154823253Y-102623954D01*
X154691224Y-102694526D01*
X154678796Y-102704725D01*
X154654912Y-102694832D01*
X154339033Y-102632000D01*
X154016967Y-102632000D01*
X153701088Y-102694832D01*
X153403537Y-102818082D01*
X153135748Y-102997013D01*
X152908013Y-103224748D01*
X152729082Y-103492537D01*
X152723091Y-103507000D01*
X150176468Y-103507000D01*
X150163185Y-103490815D01*
X150066494Y-103411463D01*
X149956180Y-103352498D01*
X149836482Y-103316188D01*
X149712000Y-103303928D01*
X148652000Y-103303928D01*
X148527518Y-103316188D01*
X148407820Y-103352498D01*
X148297506Y-103411463D01*
X148200815Y-103490815D01*
X148150072Y-103552646D01*
X148150072Y-102992000D01*
X148137812Y-102867518D01*
X148101502Y-102747820D01*
X148042537Y-102637506D01*
X147963185Y-102540815D01*
X147866494Y-102461463D01*
X147756180Y-102402498D01*
X147636482Y-102366188D01*
X147512000Y-102353928D01*
X146452000Y-102353928D01*
X146327518Y-102366188D01*
X146207820Y-102402498D01*
X146097506Y-102461463D01*
X146000815Y-102540815D01*
X145977274Y-102569500D01*
X145693845Y-102569500D01*
X145605792Y-102462208D01*
X145472164Y-102352542D01*
X145319709Y-102271053D01*
X145256334Y-102251828D01*
X145327458Y-102165164D01*
X145408947Y-102012709D01*
X145459128Y-101847285D01*
X145476072Y-101675250D01*
X145476072Y-100762750D01*
X145459128Y-100590715D01*
X145408947Y-100425291D01*
X145327458Y-100272836D01*
X145217792Y-100139208D01*
X145084164Y-100029542D01*
X144931709Y-99948053D01*
X144766285Y-99897872D01*
X144594250Y-99880928D01*
X144106750Y-99880928D01*
X143934715Y-99897872D01*
X143769291Y-99948053D01*
X143616836Y-100029542D01*
X143483208Y-100139208D01*
X143373542Y-100272836D01*
X143292053Y-100425291D01*
X143281827Y-100459000D01*
X143186909Y-100459000D01*
X143180918Y-100444537D01*
X143001987Y-100176748D01*
X142774252Y-99949013D01*
X142506463Y-99770082D01*
X142208912Y-99646832D01*
X141893033Y-99584000D01*
X141570967Y-99584000D01*
X141255088Y-99646832D01*
X140957537Y-99770082D01*
X140689748Y-99949013D01*
X140462013Y-100176748D01*
X140283082Y-100444537D01*
X140277091Y-100459000D01*
X140182173Y-100459000D01*
X140171947Y-100425291D01*
X140090458Y-100272836D01*
X139980792Y-100139208D01*
X139847164Y-100029542D01*
X139694709Y-99948053D01*
X139529285Y-99897872D01*
X139357250Y-99880928D01*
X138869750Y-99880928D01*
X138697715Y-99897872D01*
X138532291Y-99948053D01*
X138379836Y-100029542D01*
X138246208Y-100139208D01*
X138176000Y-100224756D01*
X138105792Y-100139208D01*
X137972164Y-100029542D01*
X137819709Y-99948053D01*
X137654285Y-99897872D01*
X137482250Y-99880928D01*
X137287000Y-99880928D01*
X137287000Y-94107000D01*
X137284560Y-94082224D01*
X137277333Y-94058399D01*
X137265597Y-94036443D01*
X137249803Y-94017197D01*
X136741803Y-93509197D01*
X136722557Y-93493403D01*
X136700601Y-93481667D01*
X136676776Y-93474440D01*
X136652000Y-93472000D01*
X116840000Y-93472000D01*
X116815224Y-93474440D01*
X116791399Y-93481667D01*
X116769443Y-93493403D01*
X116750197Y-93509197D01*
X116242197Y-94017197D01*
X116226403Y-94036443D01*
X116214667Y-94058399D01*
X116207440Y-94082224D01*
X116205000Y-94107000D01*
X111708000Y-94107000D01*
X111708000Y-82925745D01*
X170595736Y-82925745D01*
X170595736Y-83444255D01*
X170696893Y-83952803D01*
X170895318Y-84431844D01*
X171183387Y-84862970D01*
X171550030Y-85229613D01*
X171981156Y-85517682D01*
X172460197Y-85716107D01*
X172968745Y-85817264D01*
X173487255Y-85817264D01*
X173995803Y-85716107D01*
X174474844Y-85517682D01*
X174905970Y-85229613D01*
X175272613Y-84862970D01*
X175560682Y-84431844D01*
X175759107Y-83952803D01*
X175860264Y-83444255D01*
X175860264Y-82925745D01*
X175759107Y-82417197D01*
X175560682Y-81938156D01*
X175272613Y-81507030D01*
X174905970Y-81140387D01*
X174474844Y-80852318D01*
X173995803Y-80653893D01*
X173487255Y-80552736D01*
X172968745Y-80552736D01*
X172460197Y-80653893D01*
X171981156Y-80852318D01*
X171550030Y-81140387D01*
X171183387Y-81507030D01*
X170895318Y-81938156D01*
X170696893Y-82417197D01*
X170595736Y-82925745D01*
X111708000Y-82925745D01*
X111708000Y-76575745D01*
X114715736Y-76575745D01*
X114715736Y-77094255D01*
X114816893Y-77602803D01*
X115015318Y-78081844D01*
X115303387Y-78512970D01*
X115670030Y-78879613D01*
X116101156Y-79167682D01*
X116580197Y-79366107D01*
X117088745Y-79467264D01*
X117607255Y-79467264D01*
X118115803Y-79366107D01*
X118594844Y-79167682D01*
X119025970Y-78879613D01*
X119392613Y-78512970D01*
X119680682Y-78081844D01*
X119879107Y-77602803D01*
X119980264Y-77094255D01*
X119980264Y-76575745D01*
X119879107Y-76067197D01*
X119680682Y-75588156D01*
X119392613Y-75157030D01*
X119025970Y-74790387D01*
X118594844Y-74502318D01*
X118115803Y-74303893D01*
X117607255Y-74202736D01*
X117088745Y-74202736D01*
X116580197Y-74303893D01*
X116101156Y-74502318D01*
X115670030Y-74790387D01*
X115303387Y-75157030D01*
X115015318Y-75588156D01*
X114816893Y-76067197D01*
X114715736Y-76575745D01*
X111708000Y-76575745D01*
X111708000Y-73735000D01*
X124296293Y-73735000D01*
X124166406Y-73864887D01*
G36*
X140283082Y-101993463D02*
G01*
X140462013Y-102261252D01*
X140689748Y-102488987D01*
X140957537Y-102667918D01*
X141255088Y-102791168D01*
X141570967Y-102854000D01*
X141893033Y-102854000D01*
X142208912Y-102791168D01*
X142506463Y-102667918D01*
X142774252Y-102488987D01*
X143001987Y-102261252D01*
X143180918Y-101993463D01*
X143186909Y-101979000D01*
X143281827Y-101979000D01*
X143292053Y-102012709D01*
X143373542Y-102165164D01*
X143483208Y-102298792D01*
X143564269Y-102365317D01*
X143446208Y-102462208D01*
X143336542Y-102595836D01*
X143255053Y-102748291D01*
X143204872Y-102913715D01*
X143187928Y-103085750D01*
X143187928Y-103573250D01*
X143204872Y-103745285D01*
X143255053Y-103910709D01*
X143336542Y-104063164D01*
X143446208Y-104196792D01*
X143531756Y-104267000D01*
X143446208Y-104337208D01*
X143336542Y-104470836D01*
X143255053Y-104623291D01*
X143204872Y-104788715D01*
X143187928Y-104960750D01*
X143187928Y-105448250D01*
X143204872Y-105620285D01*
X143255053Y-105785709D01*
X143336542Y-105938164D01*
X143446208Y-106071792D01*
X143564269Y-106168683D01*
X143483208Y-106235208D01*
X143373542Y-106368836D01*
X143292053Y-106521291D01*
X143281827Y-106555000D01*
X143186909Y-106555000D01*
X143180918Y-106540537D01*
X143001987Y-106272748D01*
X142774252Y-106045013D01*
X142506463Y-105866082D01*
X142208912Y-105742832D01*
X141893033Y-105680000D01*
X141570967Y-105680000D01*
X141255088Y-105742832D01*
X140957537Y-105866082D01*
X140689748Y-106045013D01*
X140462013Y-106272748D01*
X140283082Y-106540537D01*
X140277091Y-106555000D01*
X140182173Y-106555000D01*
X140171947Y-106521291D01*
X140090458Y-106368836D01*
X139980792Y-106235208D01*
X139847164Y-106125542D01*
X139694709Y-106044053D01*
X139529285Y-105993872D01*
X139357250Y-105976928D01*
X138869750Y-105976928D01*
X138697715Y-105993872D01*
X138532291Y-106044053D01*
X138379836Y-106125542D01*
X138246208Y-106235208D01*
X138176000Y-106320756D01*
X138105792Y-106235208D01*
X137972164Y-106125542D01*
X137819709Y-106044053D01*
X137654285Y-105993872D01*
X137482250Y-105976928D01*
X137287000Y-105976928D01*
X137287000Y-102557072D01*
X137482250Y-102557072D01*
X137654285Y-102540128D01*
X137819709Y-102489947D01*
X137972164Y-102408458D01*
X138105792Y-102298792D01*
X138176000Y-102213244D01*
X138246208Y-102298792D01*
X138379836Y-102408458D01*
X138532291Y-102489947D01*
X138697715Y-102540128D01*
X138869750Y-102557072D01*
X139357250Y-102557072D01*
X139529285Y-102540128D01*
X139694709Y-102489947D01*
X139847164Y-102408458D01*
X139980792Y-102298792D01*
X140090458Y-102165164D01*
X140171947Y-102012709D01*
X140182173Y-101979000D01*
X140277091Y-101979000D01*
X140283082Y-101993463D01*
G37*
X140283082Y-101993463D02*
X140462013Y-102261252D01*
X140689748Y-102488987D01*
X140957537Y-102667918D01*
X141255088Y-102791168D01*
X141570967Y-102854000D01*
X141893033Y-102854000D01*
X142208912Y-102791168D01*
X142506463Y-102667918D01*
X142774252Y-102488987D01*
X143001987Y-102261252D01*
X143180918Y-101993463D01*
X143186909Y-101979000D01*
X143281827Y-101979000D01*
X143292053Y-102012709D01*
X143373542Y-102165164D01*
X143483208Y-102298792D01*
X143564269Y-102365317D01*
X143446208Y-102462208D01*
X143336542Y-102595836D01*
X143255053Y-102748291D01*
X143204872Y-102913715D01*
X143187928Y-103085750D01*
X143187928Y-103573250D01*
X143204872Y-103745285D01*
X143255053Y-103910709D01*
X143336542Y-104063164D01*
X143446208Y-104196792D01*
X143531756Y-104267000D01*
X143446208Y-104337208D01*
X143336542Y-104470836D01*
X143255053Y-104623291D01*
X143204872Y-104788715D01*
X143187928Y-104960750D01*
X143187928Y-105448250D01*
X143204872Y-105620285D01*
X143255053Y-105785709D01*
X143336542Y-105938164D01*
X143446208Y-106071792D01*
X143564269Y-106168683D01*
X143483208Y-106235208D01*
X143373542Y-106368836D01*
X143292053Y-106521291D01*
X143281827Y-106555000D01*
X143186909Y-106555000D01*
X143180918Y-106540537D01*
X143001987Y-106272748D01*
X142774252Y-106045013D01*
X142506463Y-105866082D01*
X142208912Y-105742832D01*
X141893033Y-105680000D01*
X141570967Y-105680000D01*
X141255088Y-105742832D01*
X140957537Y-105866082D01*
X140689748Y-106045013D01*
X140462013Y-106272748D01*
X140283082Y-106540537D01*
X140277091Y-106555000D01*
X140182173Y-106555000D01*
X140171947Y-106521291D01*
X140090458Y-106368836D01*
X139980792Y-106235208D01*
X139847164Y-106125542D01*
X139694709Y-106044053D01*
X139529285Y-105993872D01*
X139357250Y-105976928D01*
X138869750Y-105976928D01*
X138697715Y-105993872D01*
X138532291Y-106044053D01*
X138379836Y-106125542D01*
X138246208Y-106235208D01*
X138176000Y-106320756D01*
X138105792Y-106235208D01*
X137972164Y-106125542D01*
X137819709Y-106044053D01*
X137654285Y-105993872D01*
X137482250Y-105976928D01*
X137287000Y-105976928D01*
X137287000Y-102557072D01*
X137482250Y-102557072D01*
X137654285Y-102540128D01*
X137819709Y-102489947D01*
X137972164Y-102408458D01*
X138105792Y-102298792D01*
X138176000Y-102213244D01*
X138246208Y-102298792D01*
X138379836Y-102408458D01*
X138532291Y-102489947D01*
X138697715Y-102540128D01*
X138869750Y-102557072D01*
X139357250Y-102557072D01*
X139529285Y-102540128D01*
X139694709Y-102489947D01*
X139847164Y-102408458D01*
X139980792Y-102298792D01*
X140090458Y-102165164D01*
X140171947Y-102012709D01*
X140182173Y-101979000D01*
X140277091Y-101979000D01*
X140283082Y-101993463D01*
M02*
